<svg xmlns="http://www.w3.org/2000/svg" width="343.668" height="895.552" viewBox="0 0 343.668 895.552">
  <g id="Grupo_73283" data-name="Grupo 73283" transform="translate(-232.332 -6093.849)">
    <path id="Trazado_11656" data-name="Trazado 11656" d="M517.518,7838.882,523.239,7816H508.786l-57.209,85.513-24.69,2.409v20.475l34.024-5.119,37.939-29.207Z" transform="translate(52.761 -934.994)" fill="#8f2b58"/>
    <rect id="Rectángulo_3585" data-name="Rectángulo 3585" width="331.987" height="880.425" transform="translate(232.332 6093.849)" fill="#f6f6f6"/>
    <text id="El_humano_y_el_vestuario_se_encuentran_en_una_estrecha_relación_de_proximidad_casi_simbiótica_basada_en_características_fisiológicas_anatómicas_psicológicas_y_capacidades_para_desempeñar_un_arte_oficio_o_tarea_específica._Esta_busca_la_optimización_de_" data-name="El humano y el vestuario se encuentran en una estrecha relación de proximidad casi simbiótica, basada en características fisiológicas, anatómicas, psicológicas y capacidades para desempeñar un arte, oficio o tarea específica. Esta busca la optimización de " transform="translate(259.824 6119.911)" fill="#14233a" font-size="16" font-family="Roboto-Regular, Roboto"><tspan x="0" y="17">El humano y el vestuario se </tspan><tspan x="0" y="39">encuentran en una estrecha relación </tspan><tspan x="0" y="61">de proximidad casi </tspan><tspan y="61" fill="#bf3976">simbiótica, </tspan><tspan x="0" y="83">basada en características </tspan><tspan x="0" y="105">fisiológicas, anatómicas, </tspan><tspan x="0" y="127">psicológicas y capacidades para </tspan><tspan x="0" y="149">desempeñar un arte, oficio o tarea </tspan><tspan x="0" y="171">específica. Esta</tspan><tspan y="171" xml:space="preserve" fill="#bf3976"> busca la </tspan><tspan x="0" y="193" fill="#bf3976">optimización de los tres elementos </tspan><tspan x="0" y="215" fill="#bf3976">del sistema: humano, máquina y </tspan><tspan x="0" y="237" fill="#bf3976">ambiente,</tspan><tspan y="237" xml:space="preserve"> para los cuales elabora </tspan><tspan x="0" y="259">métodos de la persona (humano), de </tspan><tspan x="0" y="281">la técnica (máquina) y de la </tspan><tspan x="0" y="303">organización (ambiente) viéndose </tspan><tspan x="0" y="325">estrechamente ligadas a la palabra </tspan><tspan x="0" y="347">ergonomía, la cual viene del griego </tspan><tspan x="0" y="369">Έργον, (trabajo) y Νόμος (leyes </tspan><tspan x="0" y="391">naturales). (Munari, 2016ª, Tapia, </tspan><tspan x="0" y="413">2018).</tspan></text>
    <g id="Grupo_73059" data-name="Grupo 73059" transform="translate(37.197 387.383)">
      <ellipse id="Elipse_219" data-name="Elipse 219" cx="121.606" cy="17.191" rx="121.606" ry="17.191" transform="translate(247.415 6539.288)" fill="#a8ccd5"/>
      <g id="Grupo_11585" data-name="Grupo 11585" transform="translate(352.021 6166.908)">
        <path id="Trazado_13168" data-name="Trazado 13168" d="M414.78,7063.006s15.467,41.36,14.872,43.283-.384,11.577-.384,11.577-82.189,7.431-82.093,5.145,4.434-33.971,4.434-33.971l19.787-18.893Z" transform="translate(-326.819 -6916.349)" fill="#2a3c6a"/>
        <path id="Trazado_13169" data-name="Trazado 13169" d="M361.434,7095.063c1.465,1.923,3.2,7.415,3.2,7.415s-8.237,15.01-11.441,16.016-2.746-11.9-2.563-12.721S361.434,7095.063,361.434,7095.063Z" transform="translate(-326.946 -6917.576)" fill="#f09480"/>
        <g id="Grupo_11583" data-name="Grupo 11583" transform="translate(7.232 151.326)">
          <path id="Trazado_13170" data-name="Trazado 13170" d="M354.744,7278.823c.183,8.97-17.024,19.038-17.024,23.067,0,1.278,6.224,4.208,17.024,3.474s13.911-10.575,19.585-12.719,10.617-2.7,8.6-7.824-4.393-13.728-4.393-13.728Z" transform="translate(-333.689 -7075.639)" fill="#373835"/>
          <path id="Trazado_13171" data-name="Trazado 13171" d="M395.119,7287.315c-3.844,4.031-4.577,18.124-3.479,18.855a23.757,23.757,0,0,0,16.841,4.4c9.153-1.283,14.1-2.93,13.729-6.042s-5.857-7.5-7.322-11.9S395.119,7287.315,395.119,7287.315Z" transform="translate(-335.735 -7076.259)" fill="#373835"/>
          <path id="Trazado_13172" data-name="Trazado 13172" d="M414.532,7073.9c.343,12.082,1.093,29.2,5.22,34.563,3,3.9,8.994,5.862,8.994,5.862s1.414,7.9-.646,35.908-6.352,35.512-7.3,51.436,3.691,18.486,0,41.369-6.094,43.564-6.094,43.564-8.583,8.057-15.793,4.211-9.442-8.972-9.442-8.972,2.919-38.62,2.232-53.63-2.575-26.542-3.262-47.593-2.231-52.354-3.948-52.354-12.532,52.537-13.219,55.465-2.918-.243-3.261,2.074,3.433,4.332,2.747,6.161-2.4,4.941,0,12.081,6.695,26.912,8.927,39.538a127.6,127.6,0,0,1,1.717,24.528s-1.717,5.493-12.532,6.956-15.106-2.927-15.106-2.927-20.579-77.589-20.236-87.106-1.047-27.462,5.491-48.259c5.748-18.278,8.17-23.007,8.17-23.007s13.479-6.408,16.542-20.546c2.379-10.983,2.9-25.363,2.9-25.363Z" transform="translate(-333.529 -7067.861)" fill="#384c80"/>
          <path id="Trazado_13173" data-name="Trazado 13173" d="M371.872,7186.621a.975.975,0,0,1-.59.4l-.237-.754s10.3-56.564,4.807-59.494-16.995-7.14-16.995-7.14c9.757.455,10.646,1.28,24.891,7.507v-6.04a3.364,3.364,0,0,0,2.619.586c1.373-.369,2.874-.954,2.319-.405s-1.5,5.674-1.5,5.674a72.107,72.107,0,0,1,12.017-1.1c7.725-.183,7.038,2.015,4.635,1.647s-11.5,1.647-18.368,2.744C383.828,7130.248,374.852,7174.261,371.872,7186.621Z" transform="translate(-334.498 -7069.842)" fill="#2a3c6a"/>
          <path id="Trazado_13174" data-name="Trazado 13174" d="M381.5,7092.8c-2.719,28.921,1.5,35.223,2.708,34.787s2.992-6.935,2.992-6.935-2.492,1.354-4.025-3.652-.182-22.631-.182-22.631Z" transform="translate(-335.331 -7068.816)" fill="#2a3c6a"/>
          <path id="Trazado_13175" data-name="Trazado 13175" d="M337.7,7207.183c18.231,9.137,34.78,44.481,33.681,43.567s-20.136-31.3-24.9-31.3-.43,27.614-.582,27.008-5-19.945-6.809-27.864S336.533,7206.6,337.7,7207.183Z" transform="translate(-333.667 -7073.191)" fill="#2a3c6a"/>
        </g>
        <path id="Trazado_13176" data-name="Trazado 13176" d="M422.233,7090.514s-4.667,11.622-4.667,17.479c0,13.834,1.1,16.536,4.667,2.106,0,0,4.846,2.823,7.313,4.1s2.664-5.841,2.389-6.114S422.233,7090.514,422.233,7090.514Z" transform="translate(-329.513 -6917.403)" fill="#f09480"/>
        <path id="Trazado_13177" data-name="Trazado 13177" d="M412.505,6980.209c13,6.224,27.824,24.162,27.824,25.442s9.885,59.127,9.518,66.814-21.217,33.222-21.217,33.222-6.7-3.293-10.633-14.732c-1.971-5.73-2.563-5.493-2.563-5.493s-6.1,8.7-23.3,8.7-27.86-6.69-27.86-6.69-13.179,14.468-15.925,15.2-17.481-28.74-20.227-33.133-3.661-11.349,2.562-34.595,10.068-35.98,12.814-38.127,13-15.873,22.881-17.887S412.505,6980.209,412.505,6980.209Z" transform="translate(-326.009 -6913.105)" fill="#7ca889"/>
        <path id="Trazado_13178" data-name="Trazado 13178" d="M390.269,6996.468c-2.567,10.8-2.11,22.526-2.87,55.714-.71,31.022.047,36.751.819,40.045s-.878,4.395-1.838,3.571-.54-35.913-.264-50.555,2.135-47.865,2.135-47.865Z" transform="translate(-328.297 -6913.801)" fill="#688b7d"/>
        <g id="Grupo_11584" data-name="Grupo 11584" transform="translate(27.896 0)">
          <path id="Trazado_13179" data-name="Trazado 13179" d="M397.045,6966.391c7.139,1.1,20.318,12.448,19.586,14.826s-13.729,16.658-29.288,15.009-25.81-14.46-25.261-15.922,11.9-12.448,20.5-13.179S397.045,6966.391,397.045,6966.391Z" transform="translate(-355.285 -6912.651)" fill="#688b7d"/>
          <path id="Trazado_13180" data-name="Trazado 13180" d="M398.668,6954.978v20.686s-6.508,19.185-9.986,18.817-8.135-21.013-8.135-21.013V6950.4Z" transform="translate(-355.993 -6912.038)" fill="#f09480"/>
          <path id="Trazado_13181" data-name="Trazado 13181" d="M380.546,6966.774v-11.327h18.122v10.525c-1.738,2.281-9.014,5.535-10.274,6.019C386.369,6972.767,383.546,6972.358,380.546,6966.774Z" transform="translate(-355.993 -6912.232)" fill="#d37a63"/>
          <path id="Trazado_13182" data-name="Trazado 13182" d="M372.361,6942.123c0,10.8,4.832,20.053,12.23,22.629a19.736,19.736,0,0,0,6.547.157c7.706-1.3,15.8-10.713,15.8-23.52s-7.944-22.458-17.422-22.458S372.361,6929.316,372.361,6942.123Z" transform="translate(-355.679 -6910.833)" fill="#f09480"/>
          <path id="Trazado_13183" data-name="Trazado 13183" d="M372.482,6940.221l34.171,1.387c.016.378.024.762.027,1.146-4.555,1.982-14.066,3.767-21.705,4.679-.332,1.345-.839,2.889-1.219,4.078-.481,1.5,4.585,2.221,6,1.62s-1.811,1.186-3.39,1.53-4.516-2.335-4.111-2.679,1.091-2.881,1.091-4.324l.074-.048a75.715,75.715,0,0,1-10.632.461A31.039,31.039,0,0,1,372.482,6940.221Z" transform="translate(-355.679 -6911.649)" fill="#d37a63"/>
          <path id="Trazado_13184" data-name="Trazado 13184" d="M408.771,6940.091c2.627-5.861,3.76-18.352,3.272-19.588-1.411-3.569-12.176-8.6-18.833-9.7-4.3-.709-10.129.031-13.722.646a5.021,5.021,0,0,0-4.036,3.756l-4.137,16.831C372.334,6934.876,409.559,6940.207,408.771,6940.091Z" transform="translate(-355.639 -6910.511)" fill="#688b7d"/>
          <path id="Trazado_13185" data-name="Trazado 13185" d="M385.762,6935.273s-10.9-2.38-15.9-2.38-14.29,3.66-14.826,4.025,8.038,6.773,20.541,6.773,31.856-.96,32.567-2.744S385.762,6935.273,385.762,6935.273Z" transform="translate(-355.015 -6911.37)" fill="#688b7d"/>
          <path id="Trazado_13186" data-name="Trazado 13186" d="M394.165,6911c5.349,1.544,11.688,8.6,12.515,10.071s1.705,8.362,1.742,13.268.366,5.721,0,5.607-36.061-7.179-36.061-7.179,4.526-15.454,6.682-16.915C381.605,6914.11,391.207,6910.145,394.165,6911Z" transform="translate(-355.679 -6910.525)" fill="#7ca889"/>
          <path id="Trazado_13187" data-name="Trazado 13187" d="M406.264,6944.582c-1.645,2.852-1.467,8.094.658,8.716,2.927.857,4.106-1.908,5.649-5.072,1.444-2.958,1.568-5.977-.174-6.981S407.909,6941.733,406.264,6944.582Z" transform="translate(-356.935 -6911.676)" fill="#f09480"/>
          <path id="Trazado_13188" data-name="Trazado 13188" d="M408.033,6945.715c1.582-3.57,4.19-2.357,4.808-1.624s.618,1.761-.549.936-2.2-.891-3.157,1.032-1.477,2.885-1.425,2.129S408.033,6945.715,408.033,6945.715Z" transform="translate(-357.032 -6911.768)" fill="#d37a63"/>
          <path id="Trazado_13189" data-name="Trazado 13189" d="M398.241,6953.642c-7.207,4.755-16.886,4.275-16.886,4.275s3.989,3.171,8.443,2.61C394.749,6959.9,398.241,6953.642,398.241,6953.642Z" transform="translate(-356.024 -6912.161)" fill="#fff"/>
          <path id="Trazado_13190" data-name="Trazado 13190" d="M378.109,6948.7c1.934,0,1.936-3.813,0-3.813S376.172,6948.7,378.109,6948.7Z" transform="translate(-355.844 -6911.827)" fill="#384c80"/>
          <path id="Trazado_13191" data-name="Trazado 13191" d="M395.993,6948.506c2.176,0,2.179-3.624,0-3.624S393.814,6948.506,395.993,6948.506Z" transform="translate(-356.521 -6911.827)" fill="#384c80"/>
        </g>
        <path id="Trazado_13192" data-name="Trazado 13192" d="M330.786,7037.2l18.881,5.544v8.363l-20.941-5.711Z" transform="translate(-326.113 -6915.361)" fill="#acadac"/>
        <path id="Trazado_13193" data-name="Trazado 13193" d="M351.4,7017.973c1.923,48.326,13.775,70.344,13.455,71.019-.634,1.336-.426.746-.869.945-3.553-3.229-8.332-14.7-10.389-20.068-2.105-5.492-12.355-6.588-12.355-6.588s7.688.548,7.688-4.4S348.655,7029.231,351.4,7017.973Z" transform="translate(-326.592 -6914.625)" fill="#688b7d"/>
        <path id="Trazado_13194" data-name="Trazado 13194" d="M343.342,7083.051l-6.6,5.333s9.537,17.448,10.778,17.78,16.3-13.919,16.3-13.919l-7.915-14Z" transform="translate(-326.419 -6916.933)" fill="#525956"/>
        <path id="Trazado_13195" data-name="Trazado 13195" d="M354.477,7071.875l-21.2,10.132,4.234,7.791,19.4-12.533Z" transform="translate(-326.287 -6916.69)" fill="#acadac"/>
      </g>
      <path id="Trazado_13472" data-name="Trazado 13472" d="M435.733,7044.219l14.184-2.156-.83-5.337-13.3,2.541Z" transform="translate(21.812 -748.437)" fill="#bdbdbd"/>
      <path id="Trazado_13473" data-name="Trazado 13473" d="M437.41,7068.792l15,11.8-3.271,5.9-17.659-12.2,3.09-5.507Z" transform="translate(21.975 -749.664)" fill="#bdbdbd"/>
      <path id="Trazado_13474" data-name="Trazado 13474" d="M443.539,7078.116l6.534,6.053-17.886,25.212s-14.3-10.144-13.2-20.226L431,7077.376l4.091-2.558Z" transform="translate(22.455 -749.893)" fill="#525956"/>
      <path id="Trazado_13475" data-name="Trazado 13475" d="M434,7013.685c2.928,11.534-1.007,50.245,2.928,52.993s8.879,7.139,8.879,7.139-4.394-6.04-12.905,0a72.531,72.531,0,0,0-13.912,12.995s1.282-5.123,9.793-17.389C432.675,7063.817,432.4,7010.938,434,7013.685Z" transform="translate(22.453 -747.55)" fill="#688b7d"/>
      <path id="Trazado_13476" data-name="Trazado 13476" d="M352.44,7029.089h77.693l-.279,9.253H353.48l-.879-7.2" transform="translate(25 -748.144)" fill="#bdbdbd"/>
      <path id="Trazado_13477" data-name="Trazado 13477" d="M355.671,7055.386h72.905l-.572,9.253H357.512l-.168-1.922" transform="translate(24.877 -749.151)" fill="#bdbdbd"/>
      <g id="Grupo_11630" data-name="Grupo 11630" transform="translate(380.837 6292.215)">
        <path id="Trazado_13478" data-name="Trazado 13478" d="M362.911,7044.188a3.091,3.091,0,0,1-1.135,2.567,5.13,5.13,0,0,1-3.245.9h-1.287v4.323h-1.272v-10.987h2.836Q362.911,7040.986,362.911,7044.188Zm-5.666,2.366h1.145a4.261,4.261,0,0,0,2.448-.547,2.027,2.027,0,0,0,.756-1.761,1.893,1.893,0,0,0-.712-1.622,3.7,3.7,0,0,0-2.215-.534h-1.422Z" transform="translate(-355.972 -7040.814)" fill="#bdbdbd"/>
        <path id="Trazado_13479" data-name="Trazado 13479" d="M376.1,7046.458a6.073,6.073,0,0,1-1.327,4.148,4.665,4.665,0,0,1-3.694,1.511,4.722,4.722,0,0,1-3.732-1.486,6.112,6.112,0,0,1-1.314-4.19,6.029,6.029,0,0,1,1.318-4.156,4.74,4.74,0,0,1,3.742-1.477,4.657,4.657,0,0,1,3.682,1.5A6.069,6.069,0,0,1,376.1,7046.458Zm-8.719,0a5.231,5.231,0,0,0,.946,3.385,3.856,3.856,0,0,0,5.5.005,5.317,5.317,0,0,0,.928-3.39,5.254,5.254,0,0,0-.924-3.361,3.3,3.3,0,0,0-2.736-1.146,3.382,3.382,0,0,0-2.766,1.151A5.176,5.176,0,0,0,367.376,7046.458Z" transform="translate(-356.357 -7040.808)" fill="#bdbdbd"/>
        <path id="Trazado_13480" data-name="Trazado 13480" d="M380.085,7051.974v-10.987h1.273v9.829h4.827v1.159Z" transform="translate(-356.895 -7040.814)" fill="#bdbdbd"/>
        <path id="Trazado_13481" data-name="Trazado 13481" d="M389.41,7051.974v-10.987h1.273v10.987Z" transform="translate(-357.252 -7040.814)" fill="#bdbdbd"/>
        <path id="Trazado_13482" data-name="Trazado 13482" d="M399.57,7041.965a3.567,3.567,0,0,0-2.849,1.208,4.867,4.867,0,0,0-1.043,3.3,4.959,4.959,0,0,0,1.007,3.33,3.565,3.565,0,0,0,2.87,1.179,9.826,9.826,0,0,0,2.612-.413v1.117a8.009,8.009,0,0,1-2.806.429,4.733,4.733,0,0,1-3.732-1.474,6.073,6.073,0,0,1-1.314-4.185,6.616,6.616,0,0,1,.633-2.974,4.537,4.537,0,0,1,1.825-1.969,5.524,5.524,0,0,1,2.811-.69,6.742,6.742,0,0,1,3.009.63l-.539,1.1A5.751,5.751,0,0,0,399.57,7041.965Z" transform="translate(-357.44 -7040.811)" fill="#bdbdbd"/>
        <path id="Trazado_13483" data-name="Trazado 13483" d="M406.014,7051.974v-10.987h1.272v10.987Z" transform="translate(-357.887 -7040.814)" fill="#bdbdbd"/>
        <path id="Trazado_13484" data-name="Trazado 13484" d="M418.328,7051.968l-1.363-3.491H412.58l-1.347,3.491h-1.287l4.326-11.028h1.07l4.3,11.028Zm-1.759-4.641-1.272-3.4q-.247-.646-.509-1.584a14.43,14.43,0,0,1-.471,1.584l-1.288,3.4Z" transform="translate(-358.038 -7040.812)" fill="#bdbdbd"/>
      </g>
      <circle id="Elipse_236" data-name="Elipse 236" cx="4.66" cy="4.66" r="4.66" transform="translate(430.074 6265.595)" fill="#525956"/>
      <g id="Grupo_11713" data-name="Grupo 11713" transform="translate(242.949 6186.859)">
        <g id="Grupo_11710" data-name="Grupo 11710" transform="translate(22.051 0)">
          <path id="Trazado_13715" data-name="Trazado 13715" d="M285.093,6931.889c-21.509,3.588-27.117,21.147-30.751,34.755s-5.941,38.771-1.713,50.79,43.232,64.7,44.7,65.616,35.614-1.316,39.926-5.51,7.666-7.268,7.666-7.268.322-11.461-7.666-33.547-19.171-27.558-21.128-48.166.28-26.634-7.827-41.65S296.835,6929.932,285.093,6931.889Z" transform="translate(-236.092 -6931.257)" fill="#80473b"/>
          <path id="Trazado_13716" data-name="Trazado 13716" d="M263.9,7306.627c-8.946,8.54-20.873,25.313-15.655,25.686s13.419,1.119,18.264-3.355,3.355-7.756,10.436-13.009,7.082-10.269,2.982-15.59S263.9,7306.627,263.9,7306.627Z" transform="translate(-235.963 -6945.332)" fill="#ae574e"/>
          <path id="Trazado_13717" data-name="Trazado 13717" d="M276.943,7315.949c7.082-5.253,7.082-10.269,2.982-15.59s-16.028,6.269-16.028,6.269a88.508,88.508,0,0,0-6.731,7.3c10.606,1.336,21.089-5.932,21.089-5.932a34.344,34.344,0,0,0-8.667,12.86c-3.081,8.106-12.021,10.482-15.236,8.947a15.081,15.081,0,0,0-6.835-1.285c-.853,2.228-.773,3.691.725,3.8,5.218.373,13.419,1.119,18.264-3.355S269.861,7321.2,276.943,7315.949Z" transform="translate(-235.963 -6945.332)" fill="#8f433c"/>
          <path id="Trazado_13718" data-name="Trazado 13718" d="M317.428,7305.186s-6.337,13.943-2.609,15.689,9.319,1,19.383,6.592,24.974,5.591,24.974,1.863-5.559-5.258-14.164-13.546a52.715,52.715,0,0,1-11.927-16.822Z" transform="translate(-238.515 -6945.333)" fill="#ae574e"/>
          <path id="Trazado_13719" data-name="Trazado 13719" d="M359.176,7329.445a3.435,3.435,0,0,0-.291-1.39c-1.5-.015-2.9.677-6.511,1.3-4.892.84-5.871-.558-10.764-.979s-9.225-4.472-13.7-8.386-12.3-4.425-12.3-4.425,13.852-1.7,23.577-6.224a53.609,53.609,0,0,1-4.754-7.419h-8.508l-8.5,3.383s-6.337,13.942-2.609,15.685,9.319,1,19.383,6.594S359.176,7333.175,359.176,7329.445Z" transform="translate(-238.515 -6945.446)" fill="#8f433c"/>
          <path id="Trazado_13720" data-name="Trazado 13720" d="M246.226,7084.669c-10.437,24.975-11,37.916-10.623,59.59s10.623,66.769,10.623,75.714,3.356,16.029,4.846,43.984,6.464,38.1,6.464,38.1,6.582,3.432,13.292,0a30.4,30.4,0,0,0,10.725-10.044s-1.78-19.485-6.625-45.2-4.566-23.67-2.7-47.525.093-58.334.093-58.334l4.473-6.523,7.828,8.179,25.719,65.931s-5.85,17.548-3.986,36.556,3.171,56.682,3.171,56.682,3.8,3.868,12.464,1.506a50.407,50.407,0,0,0,13.7-6.44s-1.276-52.083-2.264-74.259c-.411-9.215,3.134-19.011,3.258-20.5s-1.74-28.819-8.449-48.515-15.656-56.1-20.874-67.158S246.226,7084.669,246.226,7084.669Z" transform="translate(-235.524 -6936.991)" fill="#384c82"/>
        </g>
        <path id="Trazado_13721" data-name="Trazado 13721" d="M284.529,6992.115c13.046,9.014,36.716,20.566,39.884,26.161s-13.978,46.281-12.114,70.664,1.864,78.333,1.864,78.333.849,6.878-24.549,8.707-38.818-1.526-38.818-1.526,0-24.765-1.118-43.425-11.638-32.986-11.638-32.986,5.071-39.41,3.437-59.268c-1.447-17.6-2.982-31.311-2.982-31.311C254.523,6997.015,284.529,6992.115,284.529,6992.115Z" transform="translate(-213.57 -6933.589)" fill="#ffd181"/>
        <path id="Trazado_13722" data-name="Trazado 13722" d="M235.606,7125.935v15.934s6.794-2.235,10.3-6.149a22.98,22.98,0,0,0,3.187-4.755s.675-14.471-1.465-16.087-9.681,7.982-9.681,7.982Z" transform="translate(-213.476 -6938.281)" fill="#de7a63"/>
        <path id="Trazado_13723" data-name="Trazado 13723" d="M253.591,7138.143c4.407,10.9,12.86,18.73,7.549,10.062s-5.033-24.321-9.615-39.911-3.8-19.634,0-38.355c3.593-17.68-4.239-38.869-12.1-52.623.566,5.638,1.32,13.532,2.051,22.423C243.111,7059.6,238.04,7099,238.04,7099s10.519,14.326,11.638,32.988,1.118,43.423,1.118,43.423C258.352,7154.442,249.185,7127.237,253.591,7138.143Z" transform="translate(-213.57 -6934.555)" fill="#e6b461"/>
        <path id="Trazado_13724" data-name="Trazado 13724" d="M321.732,7018.732c-11.635,6.149-11.287,14.629-10.677,24.136s-3.044,17.708-12.363,21.06-25.631,10.8-19.413,11.629,19.263.2,23.923,2.442-2.8,6.1,2.8,47.523c3.462,25.657.248,34.06-7.305,42.768-3.934,4.538-10.235,7.406-15.028,9.115,2.366-.087,4.853-.217,7.475-.407,25.4-1.828,24.549-8.708,24.549-8.708s0-53.949-1.864-78.332c-1.36-17.788,7.4-44.256,11-59.444Z" transform="translate(-215.095 -6934.606)" fill="#e6b461"/>
        <path id="Trazado_13725" data-name="Trazado 13725" d="M327.152,7146.816c3.168,8.576,9.5,10.437,12.114,17.146s-5.032,19.2-8.014,18.452-1.863-12.3-4.1-16.774-4.128-.932-3.089,2.613,1.806,10.794-2.129,3.439-5.4-10.915-4.936-18.362S327.152,7146.816,327.152,7146.816Z" transform="translate(-216.589 -6939.508)" fill="#de7a63"/>
        <path id="Trazado_13726" data-name="Trazado 13726" d="M324.564,7016.316c11.457,8.846,8.848,41.443,9.221,60s-3.658,69.1-3.658,69.1-8.829,8.6-15.539,5.682c-1.831-1.111-3.175-9.958-.988-30.134s.642-41.062.588-57.119C314.029,7016.316,324.564,7016.316,324.564,7016.316Z" transform="translate(-216.419 -6934.513)" fill="#ffd181"/>
        <path id="Trazado_13727" data-name="Trazado 13727" d="M263.52,7013.649c-6.71,53.623-14.258,78.105-24.881,96.9s-3.634,118.313-3.914,126.14-25.184,10.9-21.817,8.107-2.5-50.044,3.926-98.125,10.857-47.246,21.223-80.514a470.645,470.645,0,0,0,14.56-59.833Z" transform="translate(-212.596 -6934.13)" fill="#ed5d49"/>
        <path id="Trazado_13728" data-name="Trazado 13728" d="M254.184,7006.32s-.212,1.347-.659,3.808c.619,17.15,4.983,28.429,7.275,33.24,1.478-8.8,2.9-18.635,4.287-29.72Z" transform="translate(-214.162 -6934.13)" fill="#cc503f"/>
        <g id="Grupo_11711" data-name="Grupo 11711" transform="translate(41.496 6.565)">
          <path id="Trazado_13729" data-name="Trazado 13729" d="M272.731,6970.286,267,7005.51s5.871,8.527,13.139,6.429,8.946-13.14,8.807-13.559,1.776-18.517,1.776-18.517Z" transform="translate(-256.174 -6939.318)" fill="#de7a63"/>
          <path id="Trazado_13730" data-name="Trazado 13730" d="M272.837,6968.833l-.576,4.652c5.47,13.883,11.837,17.3,15.3,17.738,3.909.5-6.35,2.864-14.56-1.516a24.566,24.566,0,0,1-2.963-2.547l-1.49,9.152,20.271,3.5a6.51,6.51,0,0,0,.186-1.48c-.139-.418,1.776-18.517,1.776-18.517Z" transform="translate(-256.233 -6939.261)" fill="#b56350"/>
          <path id="Trazado_13731" data-name="Trazado 13731" d="M307.53,6962.111c1.153,12.115-2.59,22.8-11.778,23.107-11.693.393-21.3-7.546-22.458-19.663s6.424-22.935,15.577-23.806S306.377,6949.995,307.53,6962.111Z" transform="translate(-256.41 -6938.222)" fill="#de7a63"/>
          <path id="Trazado_13732" data-name="Trazado 13732" d="M311.483,6963.907c0,3.242-2.184,6.3-4.8,5.87-4.519-.74-7.874-5.607-7.874-8.845s5.223-2.891,7.874-2.891S311.483,6960.669,311.483,6963.907Z" transform="translate(-257.392 -6938.849)" fill="#f0dcd5"/>
          <path id="Trazado_13733" data-name="Trazado 13733" d="M281.771,6966c.4,3.544,3.457,6.579,6.605,5.747,5.44-1.439,8.939-7.229,8.535-10.772s-6.754-2.432-10-2.062A6.2,6.2,0,0,0,281.771,6966Z" transform="translate(-256.738 -6938.863)" fill="#f0dcd5"/>
          <path id="Trazado_13734" data-name="Trazado 13734" d="M272.5,6964.8l11.112-2.657-.871,1.936-9.589,1.837Z" transform="translate(-256.384 -6939.004)" fill="#f0dcd5"/>
          <path id="Trazado_13735" data-name="Trazado 13735" d="M295.178,6939.046c-3.448,16.12-27.49,26.6-37.554,45.195-5.5,10.167,1.677-27.489,13.7-38.671S295.178,6939.046,295.178,6939.046Z" transform="translate(-255.743 -6938.084)" fill="#80473b"/>
          <path id="Trazado_13736" data-name="Trazado 13736" d="M293.162,6938.658c4.473,11.409,16.773,18.209,16.773,16.908s-6.71-14.853-8.387-14.79S293.162,6938.658,293.162,6938.658Z" transform="translate(-257.175 -6938.108)" fill="#80473b"/>
          <path id="Trazado_13737" data-name="Trazado 13737" d="M274.045,6965.938c1.519,2.63,1.413,5.534-.237,6.484s-4.217-.406-5.735-3.036-1.413-5.534.237-6.487S272.527,6963.307,274.045,6965.938Z" transform="translate(-256.174 -6939.024)" fill="#de7a63"/>
          <path id="Trazado_13738" data-name="Trazado 13738" d="M272.727,6966.715c-2-2.655-4.8-2.469-4.612-.977s-.141.231,1.584.279,2.1,2.75,3.122,2.657S272.727,6966.715,272.727,6966.715Z" transform="translate(-256.216 -6939.102)" fill="#b56350"/>
          <path id="Trazado_13739" data-name="Trazado 13739" d="M272.569,6975.376a1.353,1.353,0,0,1-1.349-1.35v-2.1a1.349,1.349,0,1,1,2.7,0v2.1A1.352,1.352,0,0,1,272.569,6975.376Z" transform="translate(-256.336 -6939.328)" fill="#ffd181"/>
          <path id="Trazado_13740" data-name="Trazado 13740" d="M296.747,6973.77c1.654-2.1,5.009-2.489,4.938-1.315s-.7,1.315-2.273,1.664A3.737,3.737,0,0,1,296.747,6973.77Z" transform="translate(-257.313 -6939.377)" fill="#b56350"/>
          <path id="Trazado_13741" data-name="Trazado 13741" d="M290.328,6976.39c5.032,2.377,13.208.768,13.208.768s-3.185,3.287-5.052,3.287a8.944,8.944,0,0,1-5.012-1.607A25.647,25.647,0,0,1,290.328,6976.39Z" transform="translate(-257.067 -6939.551)" fill="#fff"/>
          <path id="Trazado_13742" data-name="Trazado 13742" d="M296.853,6961.162c.892-2.84,2.435-1.213,2.554,0s-.326.465-.742-.185-.98,1.539-1.574,2.143S296.853,6961.162,296.853,6961.162Z" transform="translate(-257.313 -6938.906)" fill="#f0dcd5"/>
        </g>
        <path id="Trazado_13743" data-name="Trazado 13743" d="M237.533,7008.075c-.215.439-.437.919-.665,1.435-8.052,18.274-23.574,82.583-23.936,88.023-.373,5.593,8.2,14.909,14.91,23.109s7.082,5.965,7.082,5.965,9.319-8.856,10.064-13.934-7.455-19.241-7.455-19.241,6.337-15.282,5.964-45.1Z" transform="translate(-212.608 -6934.199)" fill="#ffd181"/>
        <path id="Trazado_13744" data-name="Trazado 13744" d="M237.69,7095.64A20.825,20.825,0,0,0,217,7093.591s10.616-6.462,14.394-5.189,5.276-1.37,7.691-4.6,4.157-18.077,4.157-18.077-2.006,17.765-3.361,22.672S237.69,7095.64,237.69,7095.64Z" transform="translate(-212.764 -6936.406)" fill="#e6b461"/>
        <g id="Grupo_11712" data-name="Grupo 11712" transform="translate(37.399 56.214)">
          <path id="Trazado_13745" data-name="Trazado 13745" d="M262.772,6989.711c18.172,10.6,30.472.943,31.87,2.312s7.084,10.275,7.084,10.275a24.044,24.044,0,0,1-17.707,18.772c-15.655,4.194-34.105-16.828-32.428-20.462S262.772,6989.711,262.772,6989.711Z" transform="translate(-251.483 -6989.711)" fill="#ed5d49"/>
          <path id="Trazado_13746" data-name="Trazado 13746" d="M257.744,6994.122c5.409,15.934,18.095,17.984,26.109,17.331s11.275-3.073,11.275-3.073-1.864,5.6-10.065,7.086-21.6-1.216-26.93-9.634c-3.753-5.92-3.683-8.6-3.683-8.6Z" transform="translate(-251.597 -6989.879)" fill="#cc503f"/>
          <path id="Trazado_13747" data-name="Trazado 13747" d="M295.816,6996.35c-3.076,9.691-23.39,4.507-23.39,4.507a17.087,17.087,0,0,0,13.512,5.648C294.511,7006.041,295.816,6996.35,295.816,6996.35Z" transform="translate(-252.285 -6989.964)" fill="#cc503f"/>
        </g>
      </g>
    </g>
    <path id="Trazado_11658" data-name="Trazado 11658" d="M523.239,7816v108.4H426.887Z" transform="translate(52.761 -934.994)" fill="#bf3976"/>
  </g>
</svg>
