<svg xmlns="http://www.w3.org/2000/svg" xmlns:xlink="http://www.w3.org/1999/xlink" width="456.433" height="324.646" viewBox="0 0 456.433 324.646">
  <defs>
    <linearGradient id="linear-gradient" x1="-0.088" y1="16.461" x2="0.858" y2="16.461" gradientUnits="objectBoundingBox">
      <stop offset="0" stop-color="#4a1c40"/>
      <stop offset="0.353" stop-color="#4e2046"/>
      <stop offset="1" stop-color="#54254f"/>
    </linearGradient>
    <linearGradient id="linear-gradient-2" x1="0.118" y1="17.212" x2="1.065" y2="17.212" xlink:href="#linear-gradient"/>
    <linearGradient id="linear-gradient-3" x1="7.208" y1="1.044" x2="6.656" y2="0.13" xlink:href="#linear-gradient"/>
    <linearGradient id="linear-gradient-4" x1="73.651" y1="0.5" x2="74.651" y2="0.5" xlink:href="#linear-gradient"/>
    <linearGradient id="linear-gradient-5" x1="103.052" y1="0.5" x2="104.052" y2="0.5" xlink:href="#linear-gradient"/>
    <linearGradient id="linear-gradient-6" x1="-10.297" y1="-33.655" x2="-9.373" y2="-33.655" xlink:href="#linear-gradient"/>
    <linearGradient id="linear-gradient-7" x1="-10.071" y1="-34.837" x2="-9.147" y2="-34.837" xlink:href="#linear-gradient"/>
  </defs>
  <g id="Grupo_73292" data-name="Grupo 73292" transform="translate(11833 12263.79)">
    <g id="Grupo_73288" data-name="Grupo 73288" transform="translate(-12862.161 -13232.749)">
      <path id="Trazado_100598" data-name="Trazado 100598" d="M1308.6,979.3c53.613.472,175.628,241.182,129.41,295.531s-348.007-8.517-334.841-86.158S1254.988,978.83,1308.6,979.3Z" transform="translate(-8.3 -1.65)" fill="#fff" opacity="0.2"/>
      <path id="Trazado_100599" data-name="Trazado 100599" d="M1398,970.368s137.338,115.082,121.393,293.946" transform="translate(-62.853)" fill="none" stroke="#fff" stroke-linecap="round" stroke-linejoin="round" stroke-width="2" stroke-dasharray="12"/>
    </g>
    <g id="Grupo_73289" data-name="Grupo 73289" transform="translate(-12862.161 -13232.749)">
      <path id="Trazado_100598-2" data-name="Trazado 100598" d="M1308.6,979.3c53.613.472,175.628,241.182,129.41,295.531s-348.007-8.517-334.841-86.158S1254.988,978.83,1308.6,979.3Z" transform="translate(-8.3 -1.65)" fill="#fff" opacity="0.2"/>
      <path id="Trazado_100599-2" data-name="Trazado 100599" d="M1398,970.368s137.338,115.082,121.393,293.946" transform="translate(-62.853)" fill="none" stroke="#fff" stroke-linecap="round" stroke-linejoin="round" stroke-width="2" stroke-dasharray="12"/>
    </g>
    <g id="Grupo_73290" data-name="Grupo 73290" transform="translate(-11877.252 -12343.039)">
      <g id="Grupo_72974" data-name="Grupo 72974" transform="translate(44.252 198.42)">
        <g id="Grupo_72972" data-name="Grupo 72972" transform="translate(0 35.347)">
          <rect id="Rectángulo_8789" data-name="Rectángulo 8789" width="28.867" height="110.556" transform="translate(0 24.265) rotate(-57.199)" fill="#e1dfe4"/>
          <rect id="Rectángulo_8790" data-name="Rectángulo 8790" width="23.492" height="17.209" transform="matrix(0.542, -0.841, 0.841, 0.542, 3.618, 23.398)" fill="#0091ff"/>
          <rect id="Rectángulo_8791" data-name="Rectángulo 8791" width="23.492" height="17.209" transform="matrix(0.542, -0.841, 0.841, 0.542, 19.493, 33.63)" fill="#0085d5"/>
          <rect id="Rectángulo_8792" data-name="Rectángulo 8792" width="23.491" height="17.209" transform="matrix(0.542, -0.841, 0.841, 0.542, 35.368, 43.861)" fill="#006baf"/>
          <rect id="Rectángulo_8793" data-name="Rectángulo 8793" width="23.491" height="17.209" transform="translate(51.244 54.092) rotate(-57.199)" fill="#00538a"/>
          <rect id="Rectángulo_8794" data-name="Rectángulo 8794" width="23.491" height="17.209" transform="translate(67.119 64.324) rotate(-57.199)" fill="#00386c"/>
        </g>
        <g id="Grupo_72973" data-name="Grupo 72973" transform="translate(34.856 0)">
          <rect id="Rectángulo_8795" data-name="Rectángulo 8795" width="28.867" height="110.557" transform="translate(0 14.056) rotate(-29.139)" fill="#e1dfe4"/>
          <rect id="Rectángulo_8796" data-name="Rectángulo 8796" width="23.491" height="17.209" transform="translate(3.6 14.994) rotate(-29.139)" fill="#9d00c7"/>
          <rect id="Rectángulo_8797" data-name="Rectángulo 8797" width="23.491" height="17.209" transform="translate(12.796 31.49) rotate(-29.139)" fill="#9000ad"/>
          <rect id="Rectángulo_8798" data-name="Rectángulo 8798" width="23.491" height="17.209" transform="translate(21.993 47.987) rotate(-29.139)" fill="#7c008f"/>
          <rect id="Rectángulo_8799" data-name="Rectángulo 8799" width="23.491" height="17.209" transform="translate(31.19 64.483) rotate(-29.139)" fill="#5b0068"/>
          <rect id="Rectángulo_8800" data-name="Rectángulo 8800" width="23.491" height="17.209" transform="translate(40.387 80.979) rotate(-29.139)" fill="#3f0045"/>
        </g>
      </g>
      <g id="Grupo_72970" data-name="Grupo 72970" transform="translate(70.029 92.815)">
        <g id="Grupo_10533" data-name="Grupo 10533" transform="translate(213.065 14.554)" opacity="0.77">
          <g id="Grupo_10518" data-name="Grupo 10518" transform="translate(0 0)">
            <g id="Grupo_10517" data-name="Grupo 10517">
              <g id="Grupo_10494" data-name="Grupo 10494" transform="translate(140.501 62.142)">
                <g id="Grupo_10493" data-name="Grupo 10493">
                  <path id="Trazado_9728" data-name="Trazado 9728" d="M393.416,8173.012a83.379,83.379,0,0,1,.014,43.383l-.014,0-24.278-6.5a58.385,58.385,0,0,0-.007-30.37Z" transform="translate(-369.132 -8173.012)" fill="#009d7e"/>
                </g>
              </g>
              <g id="Grupo_10496" data-name="Grupo 10496" transform="translate(125.32 99.019)">
                <g id="Grupo_10495" data-name="Grupo 10495">
                  <path id="Trazado_9729" data-name="Trazado 9729" d="M390.632,8223.156l.014,0a84.231,84.231,0,0,1-21.694,37.58l-.01-.009-17.775-17.775a58.94,58.94,0,0,0,15.187-26.3Z" transform="translate(-351.167 -8216.652)" fill="#0059a8"/>
                </g>
              </g>
              <g id="Grupo_10498" data-name="Grupo 10498" transform="translate(125.32 24.561)">
                <g id="Grupo_10497" data-name="Grupo 10497">
                  <path id="Trazado_9730" data-name="Trazado 9730" d="M390.632,8166.117l-24.284,6.507a58.37,58.37,0,0,0-15.18-26.307l17.775-17.774.01-.007A83.363,83.363,0,0,1,390.632,8166.117Z" transform="translate(-351.167 -8128.536)" fill="#34a83f"/>
                </g>
              </g>
              <g id="Grupo_10500" data-name="Grupo 10500" transform="translate(99.017 2.867)">
                <g id="Grupo_10499" data-name="Grupo 10499">
                  <path id="Trazado_9731" data-name="Trazado 9731" d="M364.127,8124.557l-.01.006-17.775,17.774a58.931,58.931,0,0,0-26.3-15.187l6.507-24.278,0-.01A84.141,84.141,0,0,1,364.127,8124.557Z" transform="translate(-320.039 -8102.863)" fill="#b6d124"/>
                </g>
              </g>
              <g id="Grupo_10502" data-name="Grupo 10502" transform="translate(99.017 125.322)">
                <g id="Grupo_10501" data-name="Grupo 10501">
                  <path id="Trazado_9732" data-name="Trazado 9732" d="M364.117,8265.556l.01.009a83.45,83.45,0,0,1-37.581,21.681l-6.507-24.285a58.371,58.371,0,0,0,26.3-15.18Z" transform="translate(-320.039 -8247.78)" fill="#3e2e85"/>
                </g>
              </g>
              <g id="Grupo_10504" data-name="Grupo 10504" transform="translate(62.141)">
                <g id="Grupo_10503" data-name="Grupo 10503">
                  <path id="Trazado_9733" data-name="Trazado 9733" d="M319.785,8102.337l0,.01-6.507,24.278a58.374,58.374,0,0,0-30.369.007l-6.507-24.286A83.377,83.377,0,0,1,319.785,8102.337Z" transform="translate(-276.398 -8099.471)" fill="#fff100"/>
                </g>
              </g>
              <g id="Grupo_10506" data-name="Grupo 10506" transform="translate(62.137 140.501)">
                <g id="Grupo_10505" data-name="Grupo 10505">
                  <path id="Trazado_9734" data-name="Trazado 9734" d="M313.274,8265.744l6.507,24.285a83.394,83.394,0,0,1-43.387.014l0-.014,6.507-24.278A58.364,58.364,0,0,0,313.274,8265.744Z" transform="translate(-276.394 -8265.744)" fill="#5e2a84"/>
                </g>
              </g>
              <g id="Grupo_10508" data-name="Grupo 10508" transform="translate(24.559 2.877)">
                <g id="Grupo_10507" data-name="Grupo 10507">
                  <path id="Trazado_9735" data-name="Trazado 9735" d="M269.5,8102.875l6.507,24.286a58.373,58.373,0,0,0-26.307,15.176l-17.772-17.771-.01-.01A83.4,83.4,0,0,1,269.5,8102.875Z" transform="translate(-231.923 -8102.875)" fill="#f9ab16"/>
                </g>
              </g>
              <g id="Grupo_10510" data-name="Grupo 10510" transform="translate(24.559 125.322)">
                <g id="Grupo_10509" data-name="Grupo 10509">
                  <path id="Trazado_9736" data-name="Trazado 9736" d="M276.012,8262.967l-6.507,24.278,0,.014a84.235,84.235,0,0,1-37.578-21.694l.01-.009,17.775-17.775A58.943,58.943,0,0,0,276.012,8262.967Z" transform="translate(-231.923 -8247.78)" fill="#7e2583"/>
                </g>
              </g>
              <g id="Grupo_10512" data-name="Grupo 10512" transform="translate(2.876 99.016)">
                <g id="Grupo_10511" data-name="Grupo 10511">
                  <path id="Trazado_9737" data-name="Trazado 9737" d="M245.73,8242.955l-17.775,17.774-.01.01a83.456,83.456,0,0,1-21.684-37.584l24.289-6.507A58.372,58.372,0,0,0,245.73,8242.955Z" transform="translate(-206.262 -8216.648)" fill="#cb1e2c"/>
                </g>
              </g>
              <g id="Grupo_10514" data-name="Grupo 10514" transform="translate(2.863 24.557)">
                <g id="Grupo_10513" data-name="Grupo 10513">
                  <path id="Trazado_9738" data-name="Trazado 9738" d="M227.953,8128.542l17.772,17.771a58.922,58.922,0,0,0-15.187,26.307l-24.279-6.5-.013,0a84.19,84.19,0,0,1,21.7-37.581Z" transform="translate(-206.247 -8128.532)" fill="#ed7023"/>
                </g>
              </g>
              <g id="Grupo_10516" data-name="Grupo 10516" transform="translate(0 62.138)">
                <g id="Grupo_10515" data-name="Grupo 10515">
                  <path id="Trazado_9739" data-name="Trazado 9739" d="M230.023,8209.884l-24.289,6.507a83.428,83.428,0,0,1-.013-43.384l.013,0,24.279,6.5A58.379,58.379,0,0,0,230.023,8209.884Z" transform="translate(-202.859 -8173.007)" fill="#e64927"/>
                </g>
              </g>
            </g>
          </g>
          <g id="Grupo_10528" data-name="Grupo 10528" transform="translate(40.149 71.139)">
            <g id="Grupo_10527" data-name="Grupo 10527">
              <path id="Trazado_9743" data-name="Trazado 9743" d="M294.055,8221.252v-24.9l-21.838-12.693-21.845,37.594Z" transform="translate(-250.372 -8183.658)" fill="#cb1e2c"/>
            </g>
          </g>
        </g>
        <g id="Grupo_72949" data-name="Grupo 72949" transform="translate(-7.664 24.042)" opacity="0.44">
          <g id="Grupo_72948" data-name="Grupo 72948" transform="translate(0 99.907)">
            <path id="Trazado_117388" data-name="Trazado 117388" d="M107.039,261.585a5.318,5.318,0,0,1,6.1-8.537c5.016,2.465,3.086,9.943-2.339,10.095a.961.961,0,0,0,0,1.921,7.232,7.232,0,1,0-5.119-2.12c.849.9,2.206-.458,1.358-1.358Z" transform="translate(-103.59 -250.603)" fill="#fff"/>
          </g>
        </g>
        <g id="Grupo_72961" data-name="Grupo 72961" transform="translate(46.649 48.121)">
          <g id="Grupo_72950" data-name="Grupo 72950" transform="translate(0 13.387)">
            <path id="Trazado_117389" data-name="Trazado 117389" d="M481.948,524.322c0,2.282-43.815,4.131-153.16,4.131S130.8,526.6,130.8,524.322s88.643-4.131,197.988-4.131S481.948,522.041,481.948,524.322Z" transform="translate(-130.8 -314.149)" fill="#8f2b58"/>
            <path id="Trazado_117390" data-name="Trazado 117390" d="M150.176,179.908H396.312a12.916,12.916,0,0,1,12.829,11.416l5.613,179.08H142.5l-5.156-176.077A12.917,12.917,0,0,1,150.176,179.908Z" transform="translate(-133.348 -179.908)" fill="#344f70"/>
            <path id="Trazado_117391" data-name="Trazado 117391" d="M475.667,494.515a6.842,6.842,0,0,1,6.842,6.842v5.994a6.842,6.842,0,0,1-6.842,6.842H152.762a6.842,6.842,0,0,1-6.842-6.842V494.515Z" transform="translate(-136.765 -304.02)" fill="#607fa6"/>
            <path id="Trazado_117392" data-name="Trazado 117392" d="M152.762,514.193a6.842,6.842,0,0,1-6.842-6.842V494.515H260.674v19.678Z" transform="translate(-136.765 -304.02)" fill="#344f70"/>
            <path id="Trazado_117393" data-name="Trazado 117393" d="M164.581,179.908H410.717a12.917,12.917,0,0,1,12.829,11.416l5.612,179.08H157.013l-5.261-176.077A12.917,12.917,0,0,1,164.581,179.908Z" transform="translate(-139.03 -179.908)" fill="#b0c0d2"/>
            <path id="Trazado_117394" data-name="Trazado 117394" d="M425.642,370.665H172.868l-.376-16.447-.092-3.807-.039-1.672-.258-11.5L169.078,205.5H421.852l3.026,131.738.258,11.5.039,1.672.087,3.807Z" transform="translate(-145.901 -190.002)" fill="#fff"/>
            <path id="Trazado_117395" data-name="Trazado 117395" d="M383.3,188.347H342.215a2.556,2.556,0,0,0,0,5.113H383.3a2.556,2.556,0,0,0,0-5.113Z" transform="translate(-213.194 -183.237)" fill="#727997"/>
            <path id="Trazado_117396" data-name="Trazado 117396" d="M427.781,453.609H175.007l-.376-8.66-.092-2-.039-.88H427.275l.039.88.087,2Z" transform="translate(-148.04 -272.946)" fill="#344f70"/>
          </g>
          <g id="Grupo_72960" data-name="Grupo 72960" transform="translate(34.801 -11.896)">
            <path id="Trazado_117397" data-name="Trazado 117397" d="M286.7,181.634l3.909-1.133-.4-6.061-6.2-2.081Z" transform="translate(-231.936 -162.372)" fill="#ffa59d"/>
            <path id="Trazado_117398" data-name="Trazado 117398" d="M293.014,182.077l-1.177.879-.942-1.19,1.423-2.49Z" transform="translate(-234.096 -164.544)" fill="#ffa59d"/>
            <path id="Trazado_117399" data-name="Trazado 117399" d="M502.5,287.839a9.951,9.951,0,0,1-1.976,4.489,1.14,1.14,0,0,1-1.348.359.988.988,0,0,1-.339.085c-1.489.113-2.993.247-4.489.268a2.684,2.684,0,0,1-1.871-.346c-.656-.558-.77-1.9-.96-2.64q-.5-1.917-.988-3.833a1.071,1.071,0,0,1,1.017-1.341c2.216-.2,4.432-.4,6.648-.607,1.052-.1,3.1-.748,3.988.085C503,285.114,502.657,286.893,502.5,287.839Z" transform="translate(-296.78 -197.414)" fill="#ffa59d"/>
            <path id="Trazado_117400" data-name="Trazado 117400" d="M407.009,238.441a20.4,20.4,0,0,0-9.728-11.054c.4-.217.8-.423,1.216-.611a.8.8,0,0,0,.285-1.086.812.812,0,0,0-1.087-.285q-.667.3-1.3.655a8.873,8.873,0,0,0-1.285-5.99c-.543-.864-1.917-.067-1.371.8a7.33,7.33,0,0,1,1.152,4.2c-2.847-5.029-8.544-7.447-14.391-7.067-6.464.424-15.449,3.5-18.045,10.04-1.333,3.336-1.009,7.027-.925,10.532a28.279,28.279,0,0,1-3.537,14.663c-3.983,7.421-9.924,14.37-10.348,23.154-.779,15.826,19.316,24.579,32.67,23.323a25.054,25.054,0,0,0,17.514-9.732c5.447-7.073,4.808-14.639,5.447-23.069C404.019,256.941,410.769,248.666,407.009,238.441Z" transform="translate(-251.91 -176.695)" fill="#8a4632"/>
            <path id="Trazado_117401" data-name="Trazado 117401" d="M448.282,434.038H395.4a73.137,73.137,0,0,1,10.224-16.54v-.007c.931-1.128,1.5-1.747,1.5-1.747l5.431.13,8.572.19,18.178.414.021.062v.02c.075.116.312.476.693,1.088A116.132,116.132,0,0,1,448.282,434.038Z" transform="translate(-266.915 -238.807)" fill="#364f8a"/>
            <path id="Trazado_117402" data-name="Trazado 117402" d="M412.872,418.427c-.055.1-.1.2-.156.3a136.554,136.554,0,0,0-7.009,15.778h-1.72a138.661,138.661,0,0,1,7.05-16.044c.115-.224.231-.456.353-.68C411.567,417.584,412.817,416.334,412.872,418.427Z" transform="translate(-269.613 -239.274)" fill="#1c3463"/>
            <g id="Grupo_72951" data-name="Grupo 72951" transform="translate(147.011 189.54)">
              <path id="Trazado_117403" data-name="Trazado 117403" d="M425.32,435.137c-.361,1.489-.8,3.073-1.312,4.671h-1.6c.584-1.775,1.06-3.542,1.455-5.173C424.1,433.669,425.551,434.178,425.32,435.137Z" transform="translate(-422.41 -434.116)" fill="#1c3463"/>
            </g>
            <path id="Trazado_117404" data-name="Trazado 117404" d="M485.871,282.976s1.538,5.5,5.114,7.6l.46-12.645Z" transform="translate(-295.329 -195.526)" fill="#ffa59d"/>
            <path id="Trazado_117405" data-name="Trazado 117405" d="M339.591,251.746l-8.23,19.071c-4.242-2.082-15.02-10.022-21.245-15.98a18.254,18.254,0,0,1-5.35-9.959h-.008l-17.828-60.065,8.117-3.529,27.406,58.674Z" transform="translate(-232.851 -165.175)" fill="#ffd45a"/>
            <path id="Trazado_117406" data-name="Trazado 117406" d="M482.283,340.02c-.473,6.423-7.016,9.048-13.008,6.691a131.141,131.141,0,0,1-12.563-5.463,70.818,70.818,0,0,1-8.795-5.329,62.636,62.636,0,0,1-7.658-6.437l.522-1.214-10.142-13.036-.219-.282-11.413-14.667s.148-.014.431-.028c1.637-.084,7.89-.064,17.384,3.826a92.358,92.358,0,0,1,23.263,14.356h.007c2.379,1.948,4.835,4.1,7.355,6.486a238.755,238.755,0,0,0,1.884-29.658s3.452-3.049,9.317-.818A159.084,159.084,0,0,1,482.283,340.02Z" transform="translate(-274.33 -200.457)" fill="#ffd45a"/>
            <path id="Trazado_117407" data-name="Trazado 117407" d="M416.157,292.171a17.307,17.307,0,0,1-10.732,3.2,16.06,16.06,0,0,1-9.944-4.257,80.013,80.013,0,0,0,.728-8.076c.026-.626.051-1.25.06-1.867v-.06q.012-1.079,0-2.158a80.433,80.433,0,0,0-.685-9.627c-.026-.188-.043-.386-.078-.573-.12-.908-.266-1.816-.428-2.724v-.008a78.656,78.656,0,0,0-2.133-9.045c5.224,1.867,10.407,3.992,14.56,7.665.1.934.232,1.876.377,2.8s.291,1.85.471,2.775c.06.3.112.608.18.89.214,1.088.454,2.15.72,3.212.017.086.043.171.06.257.206.805.411,1.611.642,2.407.171.6.343,1.19.532,1.772.008.034.017.051.025.086A73.936,73.936,0,0,0,416.157,292.171Z" transform="translate(-266.146 -188.946)" fill="#ffa59d"/>
            <path id="Trazado_117408" data-name="Trazado 117408" d="M420.323,335.355c-1.539,12-.925,26.793.48,38.8-14.561,4.08-34.394-.148-34.394-.148-3.882-33.561-24.887-57.876-39.038-70.736a112.007,112.007,0,0,0-13.15-10.46c7.835-5.64,13.34-15.564,13.34-15.564l8.78,5.915,5.463,3.677,5.971,4.016.889.6a15.184,15.184,0,0,0,9.359,2.449h.049c5.167-.3,9.634.938,14.738,1.207.268.014.536.028.8.036a25.749,25.749,0,0,1,4.305.473l.163.021c.254.1.494.183.748.289.007,0,.014.007.021.007s.021.007.029.014a41.891,41.891,0,0,1,10.128,5.293,25.436,25.436,0,0,1,3.854,3.487,25.837,25.837,0,0,1,2.823,3.783c1.454,1.821,1.27,4.129,2.16,6.027.049.106.1.212.155.311.275.5.565.96.84,1.4a10.615,10.615,0,0,1,1.984,4.426c.226,1.44,1.4,3.1,1.369,4.545a24.521,24.521,0,0,1-.9,5.548A41.326,41.326,0,0,0,420.323,335.355Z" transform="translate(-247.703 -195.311)" fill="#ffd45a"/>
            <path id="Trazado_117409" data-name="Trazado 117409" d="M412.164,283.636c-10.312-.719-13.96-10.86-13.96-10.86l11.331-.54c.137.925.291,1.85.471,2.775.06.3.112.608.18.89.214,1.088.454,2.15.72,3.212.017.086.043.171.06.257.206.805.411,1.611.642,2.407.171.6.343,1.19.532,1.773C412.147,283.584,412.156,283.6,412.164,283.636Z" transform="translate(-267.797 -193.738)" fill="#dd6478"/>
            <path id="Trazado_117410" data-name="Trazado 117410" d="M416.654,262.758c-2.186,3.4-8.214,4.334-12.15,3.406s-6.472-2.912-9.015-6.062c-.143-.187-.294-.374-.437-.571-.071-.473-.161-.946-.276-1.419-.3-1.258-.75-2.5-1.161-3.73a14.585,14.585,0,0,1-1.035-6.344,10.78,10.78,0,0,1,4.007-6.648,89.466,89.466,0,0,1,11.725-6.327l2.017,5.291v.009a20.1,20.1,0,0,0,.777,2.043c1.508,3.417,3.721,6.5,5.1,9.976S418.662,259.608,416.654,262.758Z" transform="translate(-266.01 -182.064)" fill="#ffa59d"/>
            <g id="Grupo_72952" data-name="Grupo 72952" transform="translate(166.078 114.144)">
              <path id="Trazado_117411" data-name="Trazado 117411" d="M450.387,325.167c6.455,5.868,7.886,13.646,6.614,22-.987,6.483-2.723,12.718-1.743,19.318.108.726,1.211.418,1.1-.3-1.282-8.639,2.441-16.837,2.314-25.428a22.325,22.325,0,0,0-7.479-16.4c-.544-.495-1.356.313-.809.809Z" transform="translate(-450.206 -324.203)" fill="#eda04c"/>
            </g>
            <g id="Grupo_72953" data-name="Grupo 72953" transform="translate(142.359 66.477)">
              <path id="Trazado_117412" data-name="Trazado 117412" d="M415.631,258.151c-.01.115.309.174.717.042a2.55,2.55,0,0,0,1.39-1.059.073.073,0,0,1,.025-.039,2.6,2.6,0,0,0,.383-1.138,1.791,1.791,0,0,0-.195-1.115c-.073-.11-.133-.147-.2-.122a.146.146,0,0,0-.078.056,6.636,6.636,0,0,0-.23.827,4.039,4.039,0,0,1-.383.908.547.547,0,0,1-.062.109,4.14,4.14,0,0,1-.962,1.056C415.78,257.892,415.6,258.033,415.631,258.151Z" transform="translate(-415.628 -254.712)" fill="#dd6478"/>
            </g>
            <g id="Grupo_72955" data-name="Grupo 72955" transform="translate(139.365 71.962)">
              <g id="Grupo_72954" data-name="Grupo 72954">
                <path id="Trazado_117413" data-name="Trazado 117413" d="M411.819,263.652a16.3,16.3,0,0,0,7.057-.883.633.633,0,0,1,.9.524c.207,7.961-6.9,4.5-8.417,1.255C411.143,264.079,411.286,263.6,411.819,263.652Z" transform="translate(-411.263 -262.708)" fill="#fff"/>
              </g>
            </g>
            <path id="Trazado_117414" data-name="Trazado 117414" d="M400.006,248.4c1.366-1.445,2.572-2.593,4.708-2.482.6.031.727.779,0,1.074a12.685,12.685,0,0,0-4.192,2.269C399.834,249.814,399.211,249.237,400.006,248.4Z" transform="translate(-268.246 -185.47)" fill="#773728"/>
            <path id="Trazado_117415" data-name="Trazado 117415" d="M418.113,242.928a4.03,4.03,0,0,0-2.788-.063c-.582.137-.838.79-.064.9a24.578,24.578,0,0,1,3.09.365C419.068,244.346,419.144,243.453,418.113,242.928Z" transform="translate(-273.001 -184.445)" fill="#773728"/>
            <path id="Trazado_117416" data-name="Trazado 117416" d="M406.291,252.236c.181.759-.019,1.456-.444,1.558s-.919-.431-1.1-1.189.019-1.456.445-1.557S406.111,251.478,406.291,252.236Z" transform="translate(-269.83 -187.08)" fill="url(#linear-gradient)"/>
            <path id="Trazado_117417" data-name="Trazado 117417" d="M418.944,248.571c.181.758-.019,1.456-.445,1.557s-.918-.431-1.1-1.189.018-1.456.445-1.558S418.763,247.812,418.944,248.571Z" transform="translate(-273.804 -185.929)" fill="url(#linear-gradient-2)"/>
            <path id="Trazado_117418" data-name="Trazado 117418" d="M392.193,260.83c-.263-.746-.718-1.563-1.5-1.685a2,2,0,0,0-1.852,1.186,4.919,4.919,0,0,0,5.954,7.078C394.056,265.229,392.957,263,392.193,260.83Z" transform="translate(-264.658 -189.622)" fill="#ffa59d"/>
            <circle id="Elipse_5274" data-name="Elipse 5274" cx="5.819" cy="5.819" r="5.819" transform="translate(120.445 76.57)" fill="#ffd45a"/>
            <path id="Trazado_117419" data-name="Trazado 117419" d="M489.363,324.473a112.78,112.78,0,0,1-.831,13.3c-.123,1.012,1.466,1,1.588,0a112.793,112.793,0,0,0,.831-13.3A.794.794,0,0,0,489.363,324.473Z" transform="translate(-296.162 -209.902)" fill="#eda04c"/>
            <path id="Trazado_117420" data-name="Trazado 117420" d="M422.823,303.326l-1.186,2.308c-.212.409-.423.826-.635,1.235-1.285,2.478-2.4,5.5-4.362,7.609a8.575,8.575,0,0,1-.946.883c-4.171,3.359-10.192,1.863-14.5-.4-6.091-3.211-11.54-8.251-16.488-12.958-3.508-3.332-6.635-7.425-10.276-10.778l5.971,4.016.889.6a15.184,15.184,0,0,0,9.359,2.449h.049c5.167-.3,9.634.938,14.738,1.207C407.077,299.417,413.33,299.437,422.823,303.326Z" transform="translate(-260.331 -199.703)" fill="#ffa59d"/>
            <g id="Grupo_72959" data-name="Grupo 72959" transform="translate(187.729 21.153)">
              <g id="Grupo_72956" data-name="Grupo 72956" transform="translate(13.848 4.783)">
                <rect id="Rectángulo_8777" data-name="Rectángulo 8777" width="17.036" height="67.355" transform="translate(20.977 0) rotate(18.146)" fill="#ffdede"/>
                <rect id="Rectángulo_8778" data-name="Rectángulo 8778" width="17.036" height="16.839" transform="translate(20.977 0) rotate(18.146)" fill="#ff5a5a"/>
                <rect id="Rectángulo_8779" data-name="Rectángulo 8779" width="17.036" height="16.839" transform="translate(15.733 16.001) rotate(18.146)" fill="#ff8d8d"/>
                <rect id="Rectángulo_8780" data-name="Rectángulo 8780" width="17.036" height="16.839" transform="translate(10.489 32.003) rotate(18.146)" fill="#ffc0c0"/>
              </g>
              <g id="Grupo_72957" data-name="Grupo 72957" transform="translate(0 0)">
                <rect id="Rectángulo_8781" data-name="Rectángulo 8781" width="17.036" height="67.355" transform="matrix(0.992, -0.127, 0.127, 0.992, 0, 2.156)" fill="#d4e6f9"/>
                <rect id="Rectángulo_8782" data-name="Rectángulo 8782" width="17.036" height="16.839" transform="translate(0 2.156) rotate(-7.271)" fill="#4d7ac0"/>
                <rect id="Rectángulo_8783" data-name="Rectángulo 8783" width="17.036" height="16.839" transform="matrix(0.992, -0.127, 0.127, 0.992, 2.131, 18.86)" fill="#73a0e0"/>
                <rect id="Rectángulo_8784" data-name="Rectángulo 8784" width="17.036" height="16.839" transform="translate(4.262 35.563) rotate(-7.271)" fill="#a3c6ef"/>
              </g>
              <g id="Grupo_72958" data-name="Grupo 72958" transform="translate(11.506 1.495)">
                <rect id="Rectángulo_8785" data-name="Rectángulo 8785" width="17.036" height="67.355" transform="translate(6.082) rotate(5.181)" fill="#fff3d9"/>
                <rect id="Rectángulo_8786" data-name="Rectángulo 8786" width="17.036" height="16.839" transform="translate(6.082 0) rotate(5.18)" fill="#ffbd17"/>
                <rect id="Rectángulo_8787" data-name="Rectángulo 8787" width="17.036" height="16.839" transform="translate(4.562 16.77) rotate(5.181)" fill="#ffd45a"/>
                <rect id="Rectángulo_8788" data-name="Rectángulo 8788" width="17.036" height="16.839" transform="translate(3.041 33.54) rotate(5.181)" fill="#ffe39c"/>
              </g>
            </g>
            <path id="Trazado_117421" data-name="Trazado 117421" d="M485.9,281.316c-.67-1.448-1.11-3.21-.417-4.646a6.037,6.037,0,0,1,1.978-2.066q2.386-1.789,4.8-3.537a1.491,1.491,0,0,1,1.02-.4,1.088,1.088,0,0,1,.792,1.068,2.849,2.849,0,0,1-.4,1.4,11.147,11.147,0,0,1-4.063,4.429c1.393.853.791,6.871.123,8.432-.3.7-.9-.709-1.771-.838C487.251,285.046,486.227,282.014,485.9,281.316Z" transform="translate(-295.098 -193.243)" fill="#ffa59d"/>
            <path id="Trazado_117422" data-name="Trazado 117422" d="M276.044,199.731H261.211a24.7,24.7,0,0,0,5.092,2.576q5.252-.05,10.489-.068Zm38.347-6.234c-.728-5.805-5.208-7.185-10.014-8.388-.591-.143-1.189-.293-1.788-.442l-5.975-1.51q-8.362-2.121-16.723-4.235a1.983,1.983,0,0,1-.2-.047,43.845,43.845,0,0,0-5.547-1.285v-4.051a1.3,1.3,0,0,0-.917-1.211,7.51,7.51,0,0,1-1.938-.829,6.248,6.248,0,0,1-.958-.68,6.856,6.856,0,0,1-1.516-1.747,2.492,2.492,0,0,1-.136-.237,4.94,4.94,0,0,1-.347-.748,5.411,5.411,0,0,1-.374-2.107,5.712,5.712,0,0,1,11.04-1.917c.578,1.482,3.005.836,2.413-.667-2.3-5.927-9.993-7.763-14.119-2.474a8.058,8.058,0,0,0-1.638,6.73,9.208,9.208,0,0,0,3.256,5.221,9.668,9.668,0,0,0,2.25,1.373c.156.068.32.136.482.2v3.127a11.087,11.087,0,0,0-1.536.272c-.17.04-.347.088-.517.129l-21.2,5.363a1.9,1.9,0,0,1-.211.048c-2.467.6-5.757,1.026-8.755,1.9a12.729,12.729,0,0,0-6.139,3.386c-5.071,5.819-.054,13.385,6.811,13.562,2.067.054,4.134.095,6.2.108,6.669.082,13.344.021,20.013-.034q5.252-.05,10.489-.068c.462-.006.932-.006,1.394-.006h23.868c5.737,0,11.5-.816,12.338-7.661a2.158,2.158,0,0,0,0-1.074Zm-13.949,6.234H245.025c-4.507,0-12.379.611-11.121-6.615.537-3.073,3.528-4.582,6.818-5.513,2.563-.728,5.309-1.095,7.2-1.571l1.36-.346q9.167-2.315,18.34-4.636c.87-.217,1.761-.5,2.658-.755a17.658,17.658,0,0,1,2.576-.571c.694.1,1.408.36,2.087.53,2.107.53,4.208,1.067,6.315,1.6q6.954,1.764,13.916,3.521l.326.082c2.128.537,5.3.952,8.287,1.754,4.1,1.108,7.858,2.943,8.171,6.825C311.427,200.587,305.071,199.731,300.441,199.731Z" transform="translate(-215.352 -157.799)" fill="#3f434c"/>
            <path id="Trazado_117423" data-name="Trazado 117423" d="M245.691,264.746a70.18,70.18,0,0,0-.272-9.354c-.021-.265-.048-.523-.068-.788-.721-8.266-2.359-18.368-4.555-21.917a12.153,12.153,0,0,1-1.373-7.512,42.369,42.369,0,0,0-.394-11.25q-.224-1.316-.55-2.61a36.141,36.141,0,0,0-1.9-5.67c-1.135-2.631-2.27-4.874-3.114-6.458-.626-1.156-1.095-1.965-1.305-2.318l-.122-.2a.125.125,0,0,0,.027-.021,13.109,13.109,0,0,1,8.783-1.829c.021.048.048.1.068.15.361.8.728,1.57,1.108,2.3,3.671,7.192,8.022,11.488,11.93,14.045a24.7,24.7,0,0,0,5.092,2.576,17.362,17.362,0,0,0,5.839,1.21,16.358,16.358,0,0,0,4.779-.849c.4-.123.822-.265,1.264-.435a25.048,25.048,0,0,0,4.9-2.5,29.278,29.278,0,0,0,4.718-3.869,39.857,39.857,0,0,0,7.369-10.489c.353-.687.693-1.407,1.026-2.155,0,0,.15-.027.415-.062a12.215,12.215,0,0,1,7.763,1.952q.214.132.428.285c-.2.346-.557.965-1.019,1.815-.864,1.6-2.093,4-3.317,6.852a35.4,35.4,0,0,0-1.91,5.67c-.2.822-.381,1.659-.53,2.5a42.627,42.627,0,0,0-.422,11.359,15.815,15.815,0,0,1,0,3.263,10.044,10.044,0,0,1-1.366,4.249c-2.244,3.623-3.9,14.092-4.589,22.447,0,.034-.007.075-.007.108-.082.891-.136,1.754-.19,2.583a56.247,56.247,0,0,0-.109,6.921c.068.822.143,1.672.265,2.522.007.1.027.211.04.313,0,0,20.189,31.936,37.293,97.034H208.092c17.1-65.1,37.3-97.034,37.3-97.034.007-.054.014-.115.021-.17C245.528,266.513,245.63,265.616,245.691,264.746Z" transform="translate(-208.092 -169.384)" fill="#eb2e84"/>
            <path id="Trazado_117424" data-name="Trazado 117424" d="M293.13,177.87l-2.719,1.176a7.281,7.281,0,0,1-3.209-4.589c-.075-.319-.068-1.135-.2-1.543h-.143a5.524,5.524,0,0,1-1.054-.007,5,5,0,0,1-2.916-1.067,1.06,1.06,0,0,1-.163-1.237c.537-1.217,2.345-.965,3.433-.938a15.262,15.262,0,0,1,4.894.7c1.183.455,1.292,1.312,1.441,2.461Q292.813,175.356,293.13,177.87Z" transform="translate(-231.493 -161.514)" fill="#ffa59d"/>
            <path id="Trazado_117425" data-name="Trazado 117425" d="M286.015,175.617a11.178,11.178,0,0,0-3.587-3.845.935.935,0,0,0-1.5.562,6.718,6.718,0,0,0-.155,5.057c.745,1.928,2.381,2.949,3.928,4.108a.938.938,0,0,0,1.515-.583A7.57,7.57,0,0,0,286.015,175.617Z" transform="translate(-230.785 -162.123)" fill="#ffa59d"/>
            <path id="Trazado_117426" data-name="Trazado 117426" d="M301.172,292.471c.068.822.143,1.672.265,2.522a116.77,116.77,0,0,1-38.939.143c.116-.9.217-1.794.278-2.664a70.174,70.174,0,0,0-.272-9.354,116.694,116.694,0,0,0,38.965-.15c-.082.891-.136,1.754-.19,2.583A56.253,56.253,0,0,0,301.172,292.471Z" transform="translate(-225.179 -197.108)" fill="#f49090"/>
          </g>
        </g>
        <g id="Grupo_72963" data-name="Grupo 72963" transform="translate(136.729 0)" opacity="0.54">
          <g id="Grupo_72962" data-name="Grupo 72962" transform="translate(-30 30.782)">
            <path id="Trazado_117427" data-name="Trazado 117427" d="M315.277,134.286a7.488,7.488,0,0,1-12.02-8.589c3.471-7.063,14-4.345,14.213,3.293.049,1.737,2.753,1.743,2.7,0a10.183,10.183,0,1,0-2.985,7.208c1.269-1.2-.645-3.105-1.912-1.912Z" transform="translate(-299.814 -118.815)" fill="#fff"/>
          </g>
        </g>
        <g id="Grupo_72969" data-name="Grupo 72969" transform="translate(296.896 114.148)">
          <path id="Trazado_117428" data-name="Trazado 117428" d="M702.315,274.154c2.8,1.629,4.619,6.168,5.17,9.316.492,2.8,1.183,5.032,1.91,7.8,1.063,4.045,4.725,6.866,8.015,9.532s6.7,6.029,6.843,10.168a8.78,8.78,0,0,1-2.451,6.681,20.087,20.087,0,0,1-12.174,6.76,18.414,18.414,0,0,1-13.776-3.613,16.155,16.155,0,0,1-6.278-12.725c.059-2.42.742-4.763.811-7.182.1-3.554-1.115-7.055-2.136-10.515a26.1,26.1,0,0,1-1.021-8.854c0-3.93,1.31-6.789,4.228-5.776C694.613,270.742,698.812,272.115,702.315,274.154Z" transform="translate(-600.557 -269)" fill="url(#linear-gradient-3)"/>
          <path id="Trazado_117429" data-name="Trazado 117429" d="M696.9,296.381a36.757,36.757,0,0,0-.288,4.524c-.005.345.031.684.031,1.024v.026c0,.293-.016.587,0,.88.01.35.031.7.051,1.045.062.931.154,1.858.288,2.784a7.331,7.331,0,0,1-4.7,1.8,8.525,8.525,0,0,1-5.085-1.745,33.192,33.192,0,0,0,2.656-6.166.072.072,0,0,1,.01-.036c.087-.272.17-.55.247-.828.108-.371.206-.747.3-1.122a.851.851,0,0,1,.031-.119c.119-.5.232-.993.335-1.5.031-.134.056-.272.082-.417q.247-1.29.4-2.61a19.324,19.324,0,0,1,6.876-3.309,15.11,15.11,0,0,0-.994,4.22,5.063,5.063,0,0,0-.206,1.281C696.919,296.2,696.909,296.294,696.9,296.381Z" transform="translate(-600.543 -276.221)" fill="#ffa799"/>
          <path id="Trazado_117430" data-name="Trazado 117430" d="M700.032,290.612a15.11,15.11,0,0,0-.994,4.22,5.066,5.066,0,0,0-.206,1.281c-.015.088-.025.18-.036.268a36.781,36.781,0,0,0-.288,4.524c-.005.345.031.684.031,1.024v.026c0,.293-.016.587,0,.88.01.35.031.7.052,1.045-.952-5.585-6.588-4.189-6.588-4.189.108-.371.206-.747.3-1.122a.851.851,0,0,1,.031-.119c.119-.5.232-.993.335-1.5.031-.134.056-.272.082-.417q.247-1.29.4-2.61A19.323,19.323,0,0,1,700.032,290.612Z" transform="translate(-602.441 -276.221)" fill="#f17785"/>
          <path id="Trazado_117431" data-name="Trazado 117431" d="M657.645,305.765l-46.929-11.957-1.282,2.813,43.536,18.325Z" transform="translate(-569.868 -277.482)" fill="#ffa799"/>
          <path id="Trazado_117432" data-name="Trazado 117432" d="M679.951,311.659l-11.42-2.91s-2.62,2.928-2.552,9.038l7.648,4.155Z" transform="translate(-592.174 -283.376)" fill="#ef5656"/>
          <ellipse id="Elipse_5275" data-name="Elipse 5275" cx="40.498" cy="1.918" rx="40.498" ry="1.918" transform="translate(52.764 180.94)" fill="#8f2b58"/>
          <path id="Trazado_117433" data-name="Trazado 117433" d="M663.02,556.9a41.571,41.571,0,0,1-16.775,1.265.882.882,0,0,1-.573-1.434c.887-1.077,1.957-.816,3.192-1.2.467-.151,1.452-1.273,1.995-1.534l0,0c.035-.013.068-.025.1-.041a10.541,10.541,0,0,0,3.064-1.489,7.664,7.664,0,0,0,3.156-4.77,16.859,16.859,0,0,0,.118-5.686,5.071,5.071,0,0,0,3.2-.477,39.643,39.643,0,0,1,2.4,10.78A34.937,34.937,0,0,1,663.02,556.9Z" transform="translate(-584.084 -375.209)" fill="#ffa799"/>
          <path id="Trazado_117434" data-name="Trazado 117434" d="M749.252,549.592q-.347,2.217-.709,4.433a6.041,6.041,0,0,1-1,2.922c-.936,1.156-2.567,1.455-4.052,1.579a36.59,36.59,0,0,1-5.925.026.849.849,0,0,1-.261-1.627.053.053,0,0,0,.022-.007c.671-.261,1.4-.347,2.082-.586a4.943,4.943,0,0,0,1.962-1.287,2.644,2.644,0,0,0,.213-.246,4.871,4.871,0,0,0,1.056-2.231,7.937,7.937,0,0,0-1.175-5.1,43.139,43.139,0,0,1-2.563-4.675,10.661,10.661,0,0,0,4.761-.877,4.094,4.094,0,0,0,2.361,2.236c.284.131,1.437.267,1.694.42a3.591,3.591,0,0,1,1.179,1.063C749.648,546.764,749.465,548.249,749.252,549.592Z" transform="translate(-620.106 -375.359)" fill="#ffa799"/>
          <path id="Trazado_117435" data-name="Trazado 117435" d="M749.252,551.323q-.347,2.217-.709,4.433a6.041,6.041,0,0,1-1,2.922c-.936,1.156-2.567,1.455-4.052,1.578a36.6,36.6,0,0,1-5.925.026.849.849,0,0,1-.261-1.627.053.053,0,0,0,.022-.007c.671-.261,1.4-.347,2.082-.586a4.943,4.943,0,0,0,1.962-1.287,2.637,2.637,0,0,0,.213-.246,9.376,9.376,0,0,1,2.221-.167,2.72,2.72,0,0,0,3.123-1.745c.017-.051.034-.1.05-.153a16.14,16.14,0,0,0,.741-8.163,3.591,3.591,0,0,1,1.179,1.063C749.648,548.495,749.465,549.98,749.252,551.323Z" transform="translate(-620.106 -377.09)" fill="#1b1b30"/>
          <path id="Trazado_117436" data-name="Trazado 117436" d="M663.02,563.926a41.57,41.57,0,0,1-16.775,1.266.882.882,0,0,1-.573-1.434,2.687,2.687,0,0,1,.266-.279c.083-.067.166-.136.251-.2,0,0,0,0,0,0a15.48,15.48,0,0,1,4.765-2.293l.007,0a8,8,0,0,0,6.7,1.628,8.889,8.889,0,0,0,5.244-3.27A34.936,34.936,0,0,1,663.02,563.926Z" transform="translate(-584.084 -382.233)" fill="#1b1b30"/>
          <path id="Trazado_117437" data-name="Trazado 117437" d="M661.335,447.937a243.634,243.634,0,0,0,1.888,57.151l3.968,3.73s4.122-44.131,7.995-60.458Z" transform="translate(-590.002 -338.285)" fill="#ffa799"/>
          <path id="Trazado_117438" data-name="Trazado 117438" d="M727.407,509.217s-20.939-29.23-26.25-59.917c0,0,7.07-11.844,15.485,3.594,0,0,6.3,30.779,12.963,50.771Z" transform="translate(-606.052 -337.111)" fill="#ffa799"/>
          <path id="Trazado_117439" data-name="Trazado 117439" d="M721.564,341.54a6.552,6.552,0,0,1-2.543,1.334l-.018.006-19.25,6.792c-1.357-.5.022-2.463.429-3.873l13.126-7.292a87.663,87.663,0,0,1-5.99-6.4c-1.681-1.988-3.918-3.942-2.549-6.692.962-1.941,3.181-4.6,5.606-4.072,2.113.461,3.552,3.057,4.685,4.691,1.93,2.78,3.694,5.683,5.524,8.528C721.96,336.7,723.878,339.251,721.564,341.54Z" transform="translate(-605.268 -288.316)" fill="#ffa799"/>
          <path id="Trazado_117440" data-name="Trazado 117440" d="M684.3,346.2l-.041.59L687.614,354a30.188,30.188,0,0,1,2.125,3.783c2.59,5.535,3.682,11.555,4.821,17.509.059.319.124.643.189.962q2.372,12.269,5.654,24.378a86.944,86.944,0,0,1-13.349,2.207c-2.6.224-5.252.342-7.931.342-2.077,0-4.131-.071-6.173-.207-.838-.053-1.67-.124-2.5-.2a91.544,91.544,0,0,1-10.457-1.6,178.918,178.918,0,0,1,6.285-42.955c2.314-9.083,2.78-10.434,2.791-10.9v-.012c.885-6.243-.331-16.571-.6-18.66a16.673,16.673,0,0,1,.9-3.76.149.149,0,0,1,.024-.053c2.16-4.715,3.594-9.962,7.595-11.6a10.6,10.6,0,0,1,1.895-.206c2.308-.077,4.266-.661,6.574-.531a56.743,56.743,0,0,1,5.7,2.226,17.475,17.475,0,0,1,7.381,5.935l3.539,4.958.572.8s-.79,5.376-7.913,6.45l-3.859-3.989h0c-.854,1.312-1.78,2.613-2.605,3.942C685.548,337.15,684.917,341.216,684.3,346.2Z" transform="translate(-589.812 -284.846)" fill="#ef5656"/>
          <path id="Trazado_117441" data-name="Trazado 117441" d="M687.563,293.411c1.164,1.618,4.157,1.924,6.071,1.366a7.645,7.645,0,0,0,4.285-3.217c.066-.1.136-.192.2-.292.023-.234.055-.47.1-.705.117-.628.305-1.25.475-1.867a7.186,7.186,0,0,0,.347-3.152,5.313,5.313,0,0,0-2.143-3.171,42.992,42.992,0,0,0-5.661-2.708.277.277,0,0,0-.366.173l-.767,2.377v0a9.793,9.793,0,0,1-.33,1.026c-.655,1.722-1.666,3.3-2.258,5.044S686.493,291.911,687.563,293.411Z" transform="translate(-600.431 -271.895)" fill="#ffa59d"/>
          <path id="Trazado_117442" data-name="Trazado 117442" d="M705.658,293.112c.11-.374.313-.788.695-.868a.987.987,0,0,1,.943.536,2.426,2.426,0,0,1-2.751,3.638C704.853,295.326,705.337,294.2,705.658,293.112Z" transform="translate(-607.388 -276.859)" fill="#ffa59d"/>
          <g id="Grupo_72964" data-name="Grupo 72964" transform="translate(89.624 14.358)">
            <path id="Trazado_117443" data-name="Trazado 117443" d="M693.415,292.2c.008.056-.148.093-.352.039a1.26,1.26,0,0,1-.712-.486.042.042,0,0,0-.013-.019,1.265,1.265,0,0,1-.218-.55.887.887,0,0,1,.067-.555c.033-.056.062-.076.094-.065a.07.07,0,0,1,.04.026,3.281,3.281,0,0,1,.134.4,1.975,1.975,0,0,0,.212.437.287.287,0,0,0,.033.052,2.043,2.043,0,0,0,.5.5C693.335,292.072,693.427,292.137,693.415,292.2Z" transform="translate(-692.105 -290.557)" fill="#dd6478"/>
          </g>
          <g id="Grupo_72966" data-name="Grupo 72966" transform="translate(88.525 16.713)">
            <g id="Grupo_72965" data-name="Grupo 72965">
              <path id="Trazado_117444" data-name="Trazado 117444" d="M694.049,295.036a7.678,7.678,0,0,1-3.308-.555.3.3,0,0,0-.436.229c-.254,3.747,3.166,2.255,3.942.756C694.359,295.251,694.3,295.022,694.049,295.036Z" transform="translate(-690.291 -294.447)" fill="#fff"/>
            </g>
          </g>
          <path id="Trazado_117445" data-name="Trazado 117445" d="M700.891,286.4a2.844,2.844,0,0,0-2.383-1.1c-.293.03-.338.4.027.529a6.266,6.266,0,0,1,2.123,1.01C701.012,287.1,701.3,286.8,700.891,286.4Z" transform="translate(-604.915 -274.12)" fill="url(#linear-gradient-4)"/>
          <path id="Trazado_117446" data-name="Trazado 117446" d="M691.383,283.928a1.987,1.987,0,0,1,1.371-.1c.29.053.433.368.054.443a12.247,12.247,0,0,0-1.512.259C690.948,284.65,690.888,284.213,691.383,283.928Z" transform="translate(-602.054 -273.515)" fill="url(#linear-gradient-5)"/>
          <path id="Trazado_117447" data-name="Trazado 117447" d="M704.819,298.982a.665.665,0,0,0,.63.656.6.6,0,0,0,.628-.6.664.664,0,0,0-.63-.656A.594.594,0,0,0,704.819,298.982Z" transform="translate(-607.497 -279.286)" fill="#f4e4eb"/>
          <path id="Trazado_117448" data-name="Trazado 117448" d="M696.8,360.17a4.42,4.42,0,0,0-2.37-2.223,4.124,4.124,0,0,0-3.17.07,2.742,2.742,0,0,0-.994.73,2.986,2.986,0,0,0-.488,2.411,9.509,9.509,0,0,0,.914,2.422,3.281,3.281,0,0,1,2.386-.71,5.432,5.432,0,0,1,2.952,1.171A3.6,3.6,0,0,0,696.8,360.17Z" transform="translate(-601.538 -302.673)" fill="#ffa799"/>
          <path id="Trazado_117449" data-name="Trazado 117449" d="M675.814,327.79c1.19-2.185,2.714-4.331,2.612-6.932a.559.559,0,0,0-1.115.054c.1,2.619-1.712,4.785-2.826,7.01a10.162,10.162,0,0,0-1.117,3.845,19.963,19.963,0,0,0,.451,4.92c.124.7,1.24.652,1.115-.054a19.762,19.762,0,0,1-.46-4.807A9.869,9.869,0,0,1,675.814,327.79Z" transform="translate(-595.078 -287.951)" fill="#d34646"/>
          <path id="Trazado_117450" data-name="Trazado 117450" d="M718.172,457.526a49.687,49.687,0,0,1-2.377-5.382,8.852,8.852,0,0,0-1.6-3.5c-.185-.187-1.36,5.1-1.45,7.437-.283,1.327-.007,2.759,1.078,3.33,1.374.722,2.816-.605,4.1-1.1A.6.6,0,0,0,718.172,457.526Z" transform="translate(-610.582 -338.561)" fill="#ffa799"/>
          <path id="Trazado_117451" data-name="Trazado 117451" d="M692.188,287.127c-.1.3-.326.487-.506.427s-.246-.35-.146-.646.325-.487.506-.427S692.288,286.831,692.188,287.127Z" transform="translate(-602.238 -274.587)" fill="url(#linear-gradient-6)"/>
          <path id="Trazado_117452" data-name="Trazado 117452" d="M698.536,289.041c-.1.3-.326.487-.506.427s-.246-.349-.147-.645.326-.487.506-.427S698.635,288.745,698.536,289.041Z" transform="translate(-604.742 -275.342)" fill="url(#linear-gradient-7)"/>
          <path id="Trazado_117453" data-name="Trazado 117453" d="M688.26,312.114s-5.943,20.39,8.4-.484C696.661,311.63,693.8,307.435,688.26,312.114Z" transform="translate(-600.483 -283.83)" fill="#ffa799"/>
          <path id="Trazado_117454" data-name="Trazado 117454" d="M721.675,347.5a39.724,39.724,0,0,1-4.13,2.449c-.663.341-.078,1.341.584,1a39.739,39.739,0,0,0,4.13-2.449C722.874,348.085,722.295,347.081,721.675,347.5Z" transform="translate(-612.402 -298.624)" fill="#f17785"/>
          <path id="Trazado_117455" data-name="Trazado 117455" d="M599.171,290.261q2.215-.171,4.433-.34c-1.281-1.184-1.567-1.54-1.474-2.3a.2.2,0,0,1,.3-.147c.475.28,1.076.638,1.7,1.037a7.41,7.41,0,0,1,3.357,5.365h0c-.741.3-2.733.862-3.47,1.153a3.478,3.478,0,0,1-1.468.343,1.892,1.892,0,0,1-.305-.046.515.515,0,0,1-.116-.007,3.436,3.436,0,0,1-1.741-.728c-.48-.374.028-.078-.513-.441a2.321,2.321,0,0,1-.714-.605,5.957,5.957,0,0,0-.325-.553c-.136-.14-.371-.2-.509-.362a1.77,1.77,0,0,1-.407-1.074.671.671,0,0,1-.3-.914C597.877,290.133,598.6,290.2,599.171,290.261Z" transform="translate(-565.175 -274.974)" fill="#ffa59d"/>
          <g id="Grupo_72968" data-name="Grupo 72968" transform="translate(0)">
            <path id="Trazado_117456" data-name="Trazado 117456" d="M608.311,290.152,592,280.445a10.252,10.252,0,0,1,.039-3.764c.018-.045.03-.079.044-.116.01.068.081.068.3-.151.441-.448,1-.767,1.439-1.227a5.634,5.634,0,0,0,1.464-2.394c.676-2.607-1.539-4.819-3.714-5.849-1.1-.52-2.064,1.117-.958,1.64a6.793,6.793,0,0,1,1.883,1.28,2.608,2.608,0,0,1,.958,2.423c-.363,1.662-2.14,1.884-2.937,3.12s-.5,3.4-.4,5.063l-16.852,9.579a.951.951,0,0,0,.959,1.64l8.4-4.777c2.665-1.515,6.1-2.854,8.549-4.784h0c.056.041.116.087.187.144a15.11,15.11,0,0,0,1.77,1.054l5.585,3.323,8.638,5.141A.95.95,0,0,0,608.311,290.152Z" transform="translate(-555.415 -266.845)" fill="#292c33"/>
            <path id="Trazado_117457" data-name="Trazado 117457" d="M614.829,396.887a80.531,80.531,0,0,1-10.036,2.567c-2.12.417-4.313.766-6.562,1.072a143.04,143.04,0,0,1-15.464,1.158c-2.2.049-4.417.049-6.623,0a142.932,142.932,0,0,1-15.446-1.158c-2.248-.3-4.441-.656-6.561-1.066a82.11,82.11,0,0,1-10.048-2.573,299.328,299.328,0,0,1,17.388-47.464c2.328-5.067,4.461-9.386,6.176-12.732,2.5-4.908,4.1-7.72,4.1-7.72h.006c-.006-.031-.012-.055-.018-.086a26.727,26.727,0,0,0-3.554-8.645c-2.885-4.6-1.274-11.806-1.274-11.806l-1.379-8.97c3-2.53,3.45-1.611,3.45-1.611a21.712,21.712,0,0,0,3.945,8.406,8.406,8.406,0,0,0,13.05,0,21.717,21.717,0,0,0,3.952-8.406s.447-.919,3.45,1.611L592,308.435s1.617,7.211-1.269,11.806a26.768,26.768,0,0,0-3.56,8.645c-.006.031-.012.055-.018.086h.006s1.605,2.812,4.117,7.714C597.2,348.289,608.175,371.578,614.829,396.887Z" transform="translate(-544.089 -279.014)" fill="#339ce9"/>
            <path id="Trazado_117458" data-name="Trazado 117458" d="M606.63,357.009a39.315,39.315,0,0,1-23.625.006c2.5-4.908,4.1-7.72,4.1-7.72h.006c-.006-.031-.012-.055-.018-.086a42.2,42.2,0,0,0,15.427,0c-.006.031-.012.055-.018.086h.006S604.118,352.108,606.63,357.009Z" transform="translate(-559.441 -299.338)" fill="#ffb797"/>
            <g id="Grupo_72967" data-name="Grupo 72967" transform="translate(10.048 77.529)">
              <path id="Trazado_117459" data-name="Trazado 117459" d="M603.686,431.235c0,3.033-.037,5.98-.1,8.792-2.2.049-4.417.049-6.623,0-.061-2.812-.1-5.759-.1-8.792,0-20.077,1.526-36.35,3.413-36.35S603.686,411.158,603.686,431.235Z" transform="translate(-574.958 -394.885)" fill="#1e83cd"/>
              <path id="Trazado_117460" data-name="Trazado 117460" d="M635.883,439.776c-2.12.417-4.313.766-6.562,1.072-.362-2.389-.753-4.883-1.17-7.432-1.495-9.123-3.009-17.357-4.093-23.355-1.048-6-1.6-9.784-.73-10.134s3.088,2.978,5.373,8.817a118.123,118.123,0,0,1,6.182,23.588C635.3,434.881,635.626,437.375,635.883,439.776Z" transform="translate(-585.228 -396.865)" fill="#1e83cd"/>
              <path id="Trazado_117461" data-name="Trazado 117461" d="M572.508,410.061c-1.085,6-2.6,14.232-4.093,23.355-.417,2.549-.809,5.043-1.17,7.432-2.248-.3-4.441-.656-6.561-1.066.257-2.4.588-4.9,1-7.45a118.164,118.164,0,0,1,6.182-23.588c2.286-5.839,4.5-9.165,5.373-8.817S573.556,404.057,572.508,410.061Z" transform="translate(-560.684 -396.865)" fill="#1e83cd"/>
            </g>
          </g>
          <path id="Trazado_117462" data-name="Trazado 117462" d="M602.089,297.132a5.419,5.419,0,0,1-3.285-1.9,1.969,1.969,0,0,1-.544-1.358,1.607,1.607,0,0,1,.73-1.126,4.771,4.771,0,0,1,1.266-.554,2.287,2.287,0,0,1,1.256-.16.79.79,0,0,1,.612.955,1.3,1.3,0,0,1,2.082,1.037,1.421,1.421,0,0,1,1.761.547,1.587,1.587,0,0,1-.589,2.062A5.118,5.118,0,0,1,602.089,297.132Z" transform="translate(-565.457 -276.765)" fill="#ffa799"/>
        </g>
      </g>
    </g>
    <g id="Grupo_73291" data-name="Grupo 73291" transform="translate(-11877.252 -12343.039)">
      <g id="Grupo_72974-2" data-name="Grupo 72974" transform="translate(44.252 198.42)">
        <g id="Grupo_72972-2" data-name="Grupo 72972" transform="translate(0 35.347)">
          <rect id="Rectángulo_8789-2" data-name="Rectángulo 8789" width="28.867" height="110.556" transform="translate(0 24.265) rotate(-57.199)" fill="#e1dfe4"/>
          <rect id="Rectángulo_8790-2" data-name="Rectángulo 8790" width="23.492" height="17.209" transform="matrix(0.542, -0.841, 0.841, 0.542, 3.618, 23.398)" fill="#0091ff"/>
          <rect id="Rectángulo_8791-2" data-name="Rectángulo 8791" width="23.492" height="17.209" transform="matrix(0.542, -0.841, 0.841, 0.542, 19.493, 33.63)" fill="#0085d5"/>
          <rect id="Rectángulo_8792-2" data-name="Rectángulo 8792" width="23.491" height="17.209" transform="matrix(0.542, -0.841, 0.841, 0.542, 35.368, 43.861)" fill="#006baf"/>
          <rect id="Rectángulo_8793-2" data-name="Rectángulo 8793" width="23.491" height="17.209" transform="translate(51.244 54.092) rotate(-57.199)" fill="#00538a"/>
          <rect id="Rectángulo_8794-2" data-name="Rectángulo 8794" width="23.491" height="17.209" transform="translate(67.119 64.324) rotate(-57.199)" fill="#00386c"/>
        </g>
        <g id="Grupo_72973-2" data-name="Grupo 72973" transform="translate(34.856 0)">
          <rect id="Rectángulo_8795-2" data-name="Rectángulo 8795" width="28.867" height="110.557" transform="translate(0 14.056) rotate(-29.139)" fill="#e1dfe4"/>
          <rect id="Rectángulo_8796-2" data-name="Rectángulo 8796" width="23.491" height="17.209" transform="translate(3.6 14.994) rotate(-29.139)" fill="#9d00c7"/>
          <rect id="Rectángulo_8797-2" data-name="Rectángulo 8797" width="23.491" height="17.209" transform="translate(12.796 31.49) rotate(-29.139)" fill="#9000ad"/>
          <rect id="Rectángulo_8798-2" data-name="Rectángulo 8798" width="23.491" height="17.209" transform="translate(21.993 47.987) rotate(-29.139)" fill="#7c008f"/>
          <rect id="Rectángulo_8799-2" data-name="Rectángulo 8799" width="23.491" height="17.209" transform="translate(31.19 64.483) rotate(-29.139)" fill="#5b0068"/>
          <rect id="Rectángulo_8800-2" data-name="Rectángulo 8800" width="23.491" height="17.209" transform="translate(40.387 80.979) rotate(-29.139)" fill="#3f0045"/>
        </g>
      </g>
      <g id="Grupo_72970-2" data-name="Grupo 72970" transform="translate(70.029 92.815)">
        <g id="Grupo_10533-2" data-name="Grupo 10533" transform="translate(213.065 14.554)" opacity="0.77">
          <g id="Grupo_10518-2" data-name="Grupo 10518" transform="translate(0 0)">
            <g id="Grupo_10517-2" data-name="Grupo 10517">
              <g id="Grupo_10494-2" data-name="Grupo 10494" transform="translate(140.501 62.142)">
                <g id="Grupo_10493-2" data-name="Grupo 10493">
                  <path id="Trazado_9728-2" data-name="Trazado 9728" d="M393.416,8173.012a83.379,83.379,0,0,1,.014,43.383l-.014,0-24.278-6.5a58.385,58.385,0,0,0-.007-30.37Z" transform="translate(-369.132 -8173.012)" fill="#009d7e"/>
                </g>
              </g>
              <g id="Grupo_10496-2" data-name="Grupo 10496" transform="translate(125.32 99.019)">
                <g id="Grupo_10495-2" data-name="Grupo 10495">
                  <path id="Trazado_9729-2" data-name="Trazado 9729" d="M390.632,8223.156l.014,0a84.231,84.231,0,0,1-21.694,37.58l-.01-.009-17.775-17.775a58.94,58.94,0,0,0,15.187-26.3Z" transform="translate(-351.167 -8216.652)" fill="#0059a8"/>
                </g>
              </g>
              <g id="Grupo_10498-2" data-name="Grupo 10498" transform="translate(125.32 24.561)">
                <g id="Grupo_10497-2" data-name="Grupo 10497">
                  <path id="Trazado_9730-2" data-name="Trazado 9730" d="M390.632,8166.117l-24.284,6.507a58.37,58.37,0,0,0-15.18-26.307l17.775-17.774.01-.007A83.363,83.363,0,0,1,390.632,8166.117Z" transform="translate(-351.167 -8128.536)" fill="#34a83f"/>
                </g>
              </g>
              <g id="Grupo_10500-2" data-name="Grupo 10500" transform="translate(99.017 2.867)">
                <g id="Grupo_10499-2" data-name="Grupo 10499">
                  <path id="Trazado_9731-2" data-name="Trazado 9731" d="M364.127,8124.557l-.01.006-17.775,17.774a58.931,58.931,0,0,0-26.3-15.187l6.507-24.278,0-.01A84.141,84.141,0,0,1,364.127,8124.557Z" transform="translate(-320.039 -8102.863)" fill="#b6d124"/>
                </g>
              </g>
              <g id="Grupo_10502-2" data-name="Grupo 10502" transform="translate(99.017 125.322)">
                <g id="Grupo_10501-2" data-name="Grupo 10501">
                  <path id="Trazado_9732-2" data-name="Trazado 9732" d="M364.117,8265.556l.01.009a83.45,83.45,0,0,1-37.581,21.681l-6.507-24.285a58.371,58.371,0,0,0,26.3-15.18Z" transform="translate(-320.039 -8247.78)" fill="#3e2e85"/>
                </g>
              </g>
              <g id="Grupo_10504-2" data-name="Grupo 10504" transform="translate(62.141)">
                <g id="Grupo_10503-2" data-name="Grupo 10503">
                  <path id="Trazado_9733-2" data-name="Trazado 9733" d="M319.785,8102.337l0,.01-6.507,24.278a58.374,58.374,0,0,0-30.369.007l-6.507-24.286A83.377,83.377,0,0,1,319.785,8102.337Z" transform="translate(-276.398 -8099.471)" fill="#fff100"/>
                </g>
              </g>
              <g id="Grupo_10506-2" data-name="Grupo 10506" transform="translate(62.137 140.501)">
                <g id="Grupo_10505-2" data-name="Grupo 10505">
                  <path id="Trazado_9734-2" data-name="Trazado 9734" d="M313.274,8265.744l6.507,24.285a83.394,83.394,0,0,1-43.387.014l0-.014,6.507-24.278A58.364,58.364,0,0,0,313.274,8265.744Z" transform="translate(-276.394 -8265.744)" fill="#5e2a84"/>
                </g>
              </g>
              <g id="Grupo_10508-2" data-name="Grupo 10508" transform="translate(24.559 2.877)">
                <g id="Grupo_10507-2" data-name="Grupo 10507">
                  <path id="Trazado_9735-2" data-name="Trazado 9735" d="M269.5,8102.875l6.507,24.286a58.373,58.373,0,0,0-26.307,15.176l-17.772-17.771-.01-.01A83.4,83.4,0,0,1,269.5,8102.875Z" transform="translate(-231.923 -8102.875)" fill="#f9ab16"/>
                </g>
              </g>
              <g id="Grupo_10510-2" data-name="Grupo 10510" transform="translate(24.559 125.322)">
                <g id="Grupo_10509-2" data-name="Grupo 10509">
                  <path id="Trazado_9736-2" data-name="Trazado 9736" d="M276.012,8262.967l-6.507,24.278,0,.014a84.235,84.235,0,0,1-37.578-21.694l.01-.009,17.775-17.775A58.943,58.943,0,0,0,276.012,8262.967Z" transform="translate(-231.923 -8247.78)" fill="#7e2583"/>
                </g>
              </g>
              <g id="Grupo_10512-2" data-name="Grupo 10512" transform="translate(2.876 99.016)">
                <g id="Grupo_10511-2" data-name="Grupo 10511">
                  <path id="Trazado_9737-2" data-name="Trazado 9737" d="M245.73,8242.955l-17.775,17.774-.01.01a83.456,83.456,0,0,1-21.684-37.584l24.289-6.507A58.372,58.372,0,0,0,245.73,8242.955Z" transform="translate(-206.262 -8216.648)" fill="#cb1e2c"/>
                </g>
              </g>
              <g id="Grupo_10514-2" data-name="Grupo 10514" transform="translate(2.863 24.557)">
                <g id="Grupo_10513-2" data-name="Grupo 10513">
                  <path id="Trazado_9738-2" data-name="Trazado 9738" d="M227.953,8128.542l17.772,17.771a58.922,58.922,0,0,0-15.187,26.307l-24.279-6.5-.013,0a84.19,84.19,0,0,1,21.7-37.581Z" transform="translate(-206.247 -8128.532)" fill="#ed7023"/>
                </g>
              </g>
              <g id="Grupo_10516-2" data-name="Grupo 10516" transform="translate(0 62.138)">
                <g id="Grupo_10515-2" data-name="Grupo 10515">
                  <path id="Trazado_9739-2" data-name="Trazado 9739" d="M230.023,8209.884l-24.289,6.507a83.428,83.428,0,0,1-.013-43.384l.013,0,24.279,6.5A58.379,58.379,0,0,0,230.023,8209.884Z" transform="translate(-202.859 -8173.007)" fill="#e64927"/>
                </g>
              </g>
            </g>
          </g>
          <g id="Grupo_10528-2" data-name="Grupo 10528" transform="translate(40.149 71.139)">
            <g id="Grupo_10527-2" data-name="Grupo 10527">
              <path id="Trazado_9743-2" data-name="Trazado 9743" d="M294.055,8221.252v-24.9l-21.838-12.693-21.845,37.594Z" transform="translate(-250.372 -8183.658)" fill="#cb1e2c"/>
            </g>
          </g>
        </g>
        <g id="Grupo_72949-2" data-name="Grupo 72949" transform="translate(-7.664 24.042)" opacity="0.44">
          <g id="Grupo_72948-2" data-name="Grupo 72948" transform="translate(0 99.907)">
            <path id="Trazado_117388-2" data-name="Trazado 117388" d="M107.039,261.585a5.318,5.318,0,0,1,6.1-8.537c5.016,2.465,3.086,9.943-2.339,10.095a.961.961,0,0,0,0,1.921,7.232,7.232,0,1,0-5.119-2.12c.849.9,2.206-.458,1.358-1.358Z" transform="translate(-103.59 -250.603)" fill="#fff"/>
          </g>
        </g>
        <g id="Grupo_72961-2" data-name="Grupo 72961" transform="translate(46.649 48.121)">
          <g id="Grupo_72950-2" data-name="Grupo 72950" transform="translate(0 13.387)">
            <path id="Trazado_117389-2" data-name="Trazado 117389" d="M481.948,524.322c0,2.282-43.815,4.131-153.16,4.131S130.8,526.6,130.8,524.322s88.643-4.131,197.988-4.131S481.948,522.041,481.948,524.322Z" transform="translate(-130.8 -314.149)" fill="#8f2b58"/>
            <path id="Trazado_117390-2" data-name="Trazado 117390" d="M150.176,179.908H396.312a12.916,12.916,0,0,1,12.829,11.416l5.613,179.08H142.5l-5.156-176.077A12.917,12.917,0,0,1,150.176,179.908Z" transform="translate(-133.348 -179.908)" fill="#344f70"/>
            <path id="Trazado_117391-2" data-name="Trazado 117391" d="M475.667,494.515a6.842,6.842,0,0,1,6.842,6.842v5.994a6.842,6.842,0,0,1-6.842,6.842H152.762a6.842,6.842,0,0,1-6.842-6.842V494.515Z" transform="translate(-136.765 -304.02)" fill="#607fa6"/>
            <path id="Trazado_117392-2" data-name="Trazado 117392" d="M152.762,514.193a6.842,6.842,0,0,1-6.842-6.842V494.515H260.674v19.678Z" transform="translate(-136.765 -304.02)" fill="#344f70"/>
            <path id="Trazado_117393-2" data-name="Trazado 117393" d="M164.581,179.908H410.717a12.917,12.917,0,0,1,12.829,11.416l5.612,179.08H157.013l-5.261-176.077A12.917,12.917,0,0,1,164.581,179.908Z" transform="translate(-139.03 -179.908)" fill="#b0c0d2"/>
            <path id="Trazado_117394-2" data-name="Trazado 117394" d="M425.642,370.665H172.868l-.376-16.447-.092-3.807-.039-1.672-.258-11.5L169.078,205.5H421.852l3.026,131.738.258,11.5.039,1.672.087,3.807Z" transform="translate(-145.901 -190.002)" fill="#fff"/>
            <path id="Trazado_117395-2" data-name="Trazado 117395" d="M383.3,188.347H342.215a2.556,2.556,0,0,0,0,5.113H383.3a2.556,2.556,0,0,0,0-5.113Z" transform="translate(-213.194 -183.237)" fill="#727997"/>
            <path id="Trazado_117396-2" data-name="Trazado 117396" d="M427.781,453.609H175.007l-.376-8.66-.092-2-.039-.88H427.275l.039.88.087,2Z" transform="translate(-148.04 -272.946)" fill="#344f70"/>
          </g>
          <g id="Grupo_72960-2" data-name="Grupo 72960" transform="translate(34.801 -11.896)">
            <path id="Trazado_117397-2" data-name="Trazado 117397" d="M286.7,181.634l3.909-1.133-.4-6.061-6.2-2.081Z" transform="translate(-231.936 -162.372)" fill="#ffa59d"/>
            <path id="Trazado_117398-2" data-name="Trazado 117398" d="M293.014,182.077l-1.177.879-.942-1.19,1.423-2.49Z" transform="translate(-234.096 -164.544)" fill="#ffa59d"/>
            <path id="Trazado_117399-2" data-name="Trazado 117399" d="M502.5,287.839a9.951,9.951,0,0,1-1.976,4.489,1.14,1.14,0,0,1-1.348.359.988.988,0,0,1-.339.085c-1.489.113-2.993.247-4.489.268a2.684,2.684,0,0,1-1.871-.346c-.656-.558-.77-1.9-.96-2.64q-.5-1.917-.988-3.833a1.071,1.071,0,0,1,1.017-1.341c2.216-.2,4.432-.4,6.648-.607,1.052-.1,3.1-.748,3.988.085C503,285.114,502.657,286.893,502.5,287.839Z" transform="translate(-296.78 -197.414)" fill="#ffa59d"/>
            <path id="Trazado_117400-2" data-name="Trazado 117400" d="M407.009,238.441a20.4,20.4,0,0,0-9.728-11.054c.4-.217.8-.423,1.216-.611a.8.8,0,0,0,.285-1.086.812.812,0,0,0-1.087-.285q-.667.3-1.3.655a8.873,8.873,0,0,0-1.285-5.99c-.543-.864-1.917-.067-1.371.8a7.33,7.33,0,0,1,1.152,4.2c-2.847-5.029-8.544-7.447-14.391-7.067-6.464.424-15.449,3.5-18.045,10.04-1.333,3.336-1.009,7.027-.925,10.532a28.279,28.279,0,0,1-3.537,14.663c-3.983,7.421-9.924,14.37-10.348,23.154-.779,15.826,19.316,24.579,32.67,23.323a25.054,25.054,0,0,0,17.514-9.732c5.447-7.073,4.808-14.639,5.447-23.069C404.019,256.941,410.769,248.666,407.009,238.441Z" transform="translate(-251.91 -176.695)" fill="#8a4632"/>
            <path id="Trazado_117401-2" data-name="Trazado 117401" d="M448.282,434.038H395.4a73.137,73.137,0,0,1,10.224-16.54v-.007c.931-1.128,1.5-1.747,1.5-1.747l5.431.13,8.572.19,18.178.414.021.062v.02c.075.116.312.476.693,1.088A116.132,116.132,0,0,1,448.282,434.038Z" transform="translate(-266.915 -238.807)" fill="#364f8a"/>
            <path id="Trazado_117402-2" data-name="Trazado 117402" d="M412.872,418.427c-.055.1-.1.2-.156.3a136.554,136.554,0,0,0-7.009,15.778h-1.72a138.661,138.661,0,0,1,7.05-16.044c.115-.224.231-.456.353-.68C411.567,417.584,412.817,416.334,412.872,418.427Z" transform="translate(-269.613 -239.274)" fill="#1c3463"/>
            <g id="Grupo_72951-2" data-name="Grupo 72951" transform="translate(147.011 189.54)">
              <path id="Trazado_117403-2" data-name="Trazado 117403" d="M425.32,435.137c-.361,1.489-.8,3.073-1.312,4.671h-1.6c.584-1.775,1.06-3.542,1.455-5.173C424.1,433.669,425.551,434.178,425.32,435.137Z" transform="translate(-422.41 -434.116)" fill="#1c3463"/>
            </g>
            <path id="Trazado_117404-2" data-name="Trazado 117404" d="M485.871,282.976s1.538,5.5,5.114,7.6l.46-12.645Z" transform="translate(-295.329 -195.526)" fill="#ffa59d"/>
            <path id="Trazado_117405-2" data-name="Trazado 117405" d="M339.591,251.746l-8.23,19.071c-4.242-2.082-15.02-10.022-21.245-15.98a18.254,18.254,0,0,1-5.35-9.959h-.008l-17.828-60.065,8.117-3.529,27.406,58.674Z" transform="translate(-232.851 -165.175)" fill="#ffd45a"/>
            <path id="Trazado_117406-2" data-name="Trazado 117406" d="M482.283,340.02c-.473,6.423-7.016,9.048-13.008,6.691a131.141,131.141,0,0,1-12.563-5.463,70.818,70.818,0,0,1-8.795-5.329,62.636,62.636,0,0,1-7.658-6.437l.522-1.214-10.142-13.036-.219-.282-11.413-14.667s.148-.014.431-.028c1.637-.084,7.89-.064,17.384,3.826a92.358,92.358,0,0,1,23.263,14.356h.007c2.379,1.948,4.835,4.1,7.355,6.486a238.755,238.755,0,0,0,1.884-29.658s3.452-3.049,9.317-.818A159.084,159.084,0,0,1,482.283,340.02Z" transform="translate(-274.33 -200.457)" fill="#ffd45a"/>
            <path id="Trazado_117407-2" data-name="Trazado 117407" d="M416.157,292.171a17.307,17.307,0,0,1-10.732,3.2,16.06,16.06,0,0,1-9.944-4.257,80.013,80.013,0,0,0,.728-8.076c.026-.626.051-1.25.06-1.867v-.06q.012-1.079,0-2.158a80.433,80.433,0,0,0-.685-9.627c-.026-.188-.043-.386-.078-.573-.12-.908-.266-1.816-.428-2.724v-.008a78.656,78.656,0,0,0-2.133-9.045c5.224,1.867,10.407,3.992,14.56,7.665.1.934.232,1.876.377,2.8s.291,1.85.471,2.775c.06.3.112.608.18.89.214,1.088.454,2.15.72,3.212.017.086.043.171.06.257.206.805.411,1.611.642,2.407.171.6.343,1.19.532,1.772.008.034.017.051.025.086A73.936,73.936,0,0,0,416.157,292.171Z" transform="translate(-266.146 -188.946)" fill="#ffa59d"/>
            <path id="Trazado_117408-2" data-name="Trazado 117408" d="M420.323,335.355c-1.539,12-.925,26.793.48,38.8-14.561,4.08-34.394-.148-34.394-.148-3.882-33.561-24.887-57.876-39.038-70.736a112.007,112.007,0,0,0-13.15-10.46c7.835-5.64,13.34-15.564,13.34-15.564l8.78,5.915,5.463,3.677,5.971,4.016.889.6a15.184,15.184,0,0,0,9.359,2.449h.049c5.167-.3,9.634.938,14.738,1.207.268.014.536.028.8.036a25.749,25.749,0,0,1,4.305.473l.163.021c.254.1.494.183.748.289.007,0,.014.007.021.007s.021.007.029.014a41.891,41.891,0,0,1,10.128,5.293,25.436,25.436,0,0,1,3.854,3.487,25.837,25.837,0,0,1,2.823,3.783c1.454,1.821,1.27,4.129,2.16,6.027.049.106.1.212.155.311.275.5.565.96.84,1.4a10.615,10.615,0,0,1,1.984,4.426c.226,1.44,1.4,3.1,1.369,4.545a24.521,24.521,0,0,1-.9,5.548A41.326,41.326,0,0,0,420.323,335.355Z" transform="translate(-247.703 -195.311)" fill="#ffd45a"/>
            <path id="Trazado_117409-2" data-name="Trazado 117409" d="M412.164,283.636c-10.312-.719-13.96-10.86-13.96-10.86l11.331-.54c.137.925.291,1.85.471,2.775.06.3.112.608.18.89.214,1.088.454,2.15.72,3.212.017.086.043.171.06.257.206.805.411,1.611.642,2.407.171.6.343,1.19.532,1.773C412.147,283.584,412.156,283.6,412.164,283.636Z" transform="translate(-267.797 -193.738)" fill="#dd6478"/>
            <path id="Trazado_117410-2" data-name="Trazado 117410" d="M416.654,262.758c-2.186,3.4-8.214,4.334-12.15,3.406s-6.472-2.912-9.015-6.062c-.143-.187-.294-.374-.437-.571-.071-.473-.161-.946-.276-1.419-.3-1.258-.75-2.5-1.161-3.73a14.585,14.585,0,0,1-1.035-6.344,10.78,10.78,0,0,1,4.007-6.648,89.466,89.466,0,0,1,11.725-6.327l2.017,5.291v.009a20.1,20.1,0,0,0,.777,2.043c1.508,3.417,3.721,6.5,5.1,9.976S418.662,259.608,416.654,262.758Z" transform="translate(-266.01 -182.064)" fill="#ffa59d"/>
            <g id="Grupo_72952-2" data-name="Grupo 72952" transform="translate(166.078 114.144)">
              <path id="Trazado_117411-2" data-name="Trazado 117411" d="M450.387,325.167c6.455,5.868,7.886,13.646,6.614,22-.987,6.483-2.723,12.718-1.743,19.318.108.726,1.211.418,1.1-.3-1.282-8.639,2.441-16.837,2.314-25.428a22.325,22.325,0,0,0-7.479-16.4c-.544-.495-1.356.313-.809.809Z" transform="translate(-450.206 -324.203)" fill="#eda04c"/>
            </g>
            <g id="Grupo_72953-2" data-name="Grupo 72953" transform="translate(142.359 66.477)">
              <path id="Trazado_117412-2" data-name="Trazado 117412" d="M415.631,258.151c-.01.115.309.174.717.042a2.55,2.55,0,0,0,1.39-1.059.073.073,0,0,1,.025-.039,2.6,2.6,0,0,0,.383-1.138,1.791,1.791,0,0,0-.195-1.115c-.073-.11-.133-.147-.2-.122a.146.146,0,0,0-.078.056,6.636,6.636,0,0,0-.23.827,4.039,4.039,0,0,1-.383.908.547.547,0,0,1-.062.109,4.14,4.14,0,0,1-.962,1.056C415.78,257.892,415.6,258.033,415.631,258.151Z" transform="translate(-415.628 -254.712)" fill="#dd6478"/>
            </g>
            <g id="Grupo_72955-2" data-name="Grupo 72955" transform="translate(139.365 71.962)">
              <g id="Grupo_72954-2" data-name="Grupo 72954">
                <path id="Trazado_117413-2" data-name="Trazado 117413" d="M411.819,263.652a16.3,16.3,0,0,0,7.057-.883.633.633,0,0,1,.9.524c.207,7.961-6.9,4.5-8.417,1.255C411.143,264.079,411.286,263.6,411.819,263.652Z" transform="translate(-411.263 -262.708)" fill="#fff"/>
              </g>
            </g>
            <path id="Trazado_117414-2" data-name="Trazado 117414" d="M400.006,248.4c1.366-1.445,2.572-2.593,4.708-2.482.6.031.727.779,0,1.074a12.685,12.685,0,0,0-4.192,2.269C399.834,249.814,399.211,249.237,400.006,248.4Z" transform="translate(-268.246 -185.47)" fill="#773728"/>
            <path id="Trazado_117415-2" data-name="Trazado 117415" d="M418.113,242.928a4.03,4.03,0,0,0-2.788-.063c-.582.137-.838.79-.064.9a24.578,24.578,0,0,1,3.09.365C419.068,244.346,419.144,243.453,418.113,242.928Z" transform="translate(-273.001 -184.445)" fill="#773728"/>
            <path id="Trazado_117416-2" data-name="Trazado 117416" d="M406.291,252.236c.181.759-.019,1.456-.444,1.558s-.919-.431-1.1-1.189.019-1.456.445-1.557S406.111,251.478,406.291,252.236Z" transform="translate(-269.83 -187.08)" fill="url(#linear-gradient)"/>
            <path id="Trazado_117417-2" data-name="Trazado 117417" d="M418.944,248.571c.181.758-.019,1.456-.445,1.557s-.918-.431-1.1-1.189.018-1.456.445-1.558S418.763,247.812,418.944,248.571Z" transform="translate(-273.804 -185.929)" fill="url(#linear-gradient-2)"/>
            <path id="Trazado_117418-2" data-name="Trazado 117418" d="M392.193,260.83c-.263-.746-.718-1.563-1.5-1.685a2,2,0,0,0-1.852,1.186,4.919,4.919,0,0,0,5.954,7.078C394.056,265.229,392.957,263,392.193,260.83Z" transform="translate(-264.658 -189.622)" fill="#ffa59d"/>
            <circle id="Elipse_5274-2" data-name="Elipse 5274" cx="5.819" cy="5.819" r="5.819" transform="translate(120.445 76.57)" fill="#ffd45a"/>
            <path id="Trazado_117419-2" data-name="Trazado 117419" d="M489.363,324.473a112.78,112.78,0,0,1-.831,13.3c-.123,1.012,1.466,1,1.588,0a112.793,112.793,0,0,0,.831-13.3A.794.794,0,0,0,489.363,324.473Z" transform="translate(-296.162 -209.902)" fill="#eda04c"/>
            <path id="Trazado_117420-2" data-name="Trazado 117420" d="M422.823,303.326l-1.186,2.308c-.212.409-.423.826-.635,1.235-1.285,2.478-2.4,5.5-4.362,7.609a8.575,8.575,0,0,1-.946.883c-4.171,3.359-10.192,1.863-14.5-.4-6.091-3.211-11.54-8.251-16.488-12.958-3.508-3.332-6.635-7.425-10.276-10.778l5.971,4.016.889.6a15.184,15.184,0,0,0,9.359,2.449h.049c5.167-.3,9.634.938,14.738,1.207C407.077,299.417,413.33,299.437,422.823,303.326Z" transform="translate(-260.331 -199.703)" fill="#ffa59d"/>
            <g id="Grupo_72959-2" data-name="Grupo 72959" transform="translate(187.729 21.153)">
              <g id="Grupo_72956-2" data-name="Grupo 72956" transform="translate(13.848 4.783)">
                <rect id="Rectángulo_8777-2" data-name="Rectángulo 8777" width="17.036" height="67.355" transform="translate(20.977 0) rotate(18.146)" fill="#ffdede"/>
                <rect id="Rectángulo_8778-2" data-name="Rectángulo 8778" width="17.036" height="16.839" transform="translate(20.977 0) rotate(18.146)" fill="#ff5a5a"/>
                <rect id="Rectángulo_8779-2" data-name="Rectángulo 8779" width="17.036" height="16.839" transform="translate(15.733 16.001) rotate(18.146)" fill="#ff8d8d"/>
                <rect id="Rectángulo_8780-2" data-name="Rectángulo 8780" width="17.036" height="16.839" transform="translate(10.489 32.003) rotate(18.146)" fill="#ffc0c0"/>
              </g>
              <g id="Grupo_72957-2" data-name="Grupo 72957" transform="translate(0 0)">
                <rect id="Rectángulo_8781-2" data-name="Rectángulo 8781" width="17.036" height="67.355" transform="matrix(0.992, -0.127, 0.127, 0.992, 0, 2.156)" fill="#d4e6f9"/>
                <rect id="Rectángulo_8782-2" data-name="Rectángulo 8782" width="17.036" height="16.839" transform="translate(0 2.156) rotate(-7.271)" fill="#4d7ac0"/>
                <rect id="Rectángulo_8783-2" data-name="Rectángulo 8783" width="17.036" height="16.839" transform="matrix(0.992, -0.127, 0.127, 0.992, 2.131, 18.86)" fill="#73a0e0"/>
                <rect id="Rectángulo_8784-2" data-name="Rectángulo 8784" width="17.036" height="16.839" transform="translate(4.262 35.563) rotate(-7.271)" fill="#a3c6ef"/>
              </g>
              <g id="Grupo_72958-2" data-name="Grupo 72958" transform="translate(11.506 1.495)">
                <rect id="Rectángulo_8785-2" data-name="Rectángulo 8785" width="17.036" height="67.355" transform="translate(6.082) rotate(5.181)" fill="#fff3d9"/>
                <rect id="Rectángulo_8786-2" data-name="Rectángulo 8786" width="17.036" height="16.839" transform="translate(6.082 0) rotate(5.18)" fill="#ffbd17"/>
                <rect id="Rectángulo_8787-2" data-name="Rectángulo 8787" width="17.036" height="16.839" transform="translate(4.562 16.77) rotate(5.181)" fill="#ffd45a"/>
                <rect id="Rectángulo_8788-2" data-name="Rectángulo 8788" width="17.036" height="16.839" transform="translate(3.041 33.54) rotate(5.181)" fill="#ffe39c"/>
              </g>
            </g>
            <path id="Trazado_117421-2" data-name="Trazado 117421" d="M485.9,281.316c-.67-1.448-1.11-3.21-.417-4.646a6.037,6.037,0,0,1,1.978-2.066q2.386-1.789,4.8-3.537a1.491,1.491,0,0,1,1.02-.4,1.088,1.088,0,0,1,.792,1.068,2.849,2.849,0,0,1-.4,1.4,11.147,11.147,0,0,1-4.063,4.429c1.393.853.791,6.871.123,8.432-.3.7-.9-.709-1.771-.838C487.251,285.046,486.227,282.014,485.9,281.316Z" transform="translate(-295.098 -193.243)" fill="#ffa59d"/>
            <path id="Trazado_117422-2" data-name="Trazado 117422" d="M276.044,199.731H261.211a24.7,24.7,0,0,0,5.092,2.576q5.252-.05,10.489-.068Zm38.347-6.234c-.728-5.805-5.208-7.185-10.014-8.388-.591-.143-1.189-.293-1.788-.442l-5.975-1.51q-8.362-2.121-16.723-4.235a1.983,1.983,0,0,1-.2-.047,43.845,43.845,0,0,0-5.547-1.285v-4.051a1.3,1.3,0,0,0-.917-1.211,7.51,7.51,0,0,1-1.938-.829,6.248,6.248,0,0,1-.958-.68,6.856,6.856,0,0,1-1.516-1.747,2.492,2.492,0,0,1-.136-.237,4.94,4.94,0,0,1-.347-.748,5.411,5.411,0,0,1-.374-2.107,5.712,5.712,0,0,1,11.04-1.917c.578,1.482,3.005.836,2.413-.667-2.3-5.927-9.993-7.763-14.119-2.474a8.058,8.058,0,0,0-1.638,6.73,9.208,9.208,0,0,0,3.256,5.221,9.668,9.668,0,0,0,2.25,1.373c.156.068.32.136.482.2v3.127a11.087,11.087,0,0,0-1.536.272c-.17.04-.347.088-.517.129l-21.2,5.363a1.9,1.9,0,0,1-.211.048c-2.467.6-5.757,1.026-8.755,1.9a12.729,12.729,0,0,0-6.139,3.386c-5.071,5.819-.054,13.385,6.811,13.562,2.067.054,4.134.095,6.2.108,6.669.082,13.344.021,20.013-.034q5.252-.05,10.489-.068c.462-.006.932-.006,1.394-.006h23.868c5.737,0,11.5-.816,12.338-7.661a2.158,2.158,0,0,0,0-1.074Zm-13.949,6.234H245.025c-4.507,0-12.379.611-11.121-6.615.537-3.073,3.528-4.582,6.818-5.513,2.563-.728,5.309-1.095,7.2-1.571l1.36-.346q9.167-2.315,18.34-4.636c.87-.217,1.761-.5,2.658-.755a17.658,17.658,0,0,1,2.576-.571c.694.1,1.408.36,2.087.53,2.107.53,4.208,1.067,6.315,1.6q6.954,1.764,13.916,3.521l.326.082c2.128.537,5.3.952,8.287,1.754,4.1,1.108,7.858,2.943,8.171,6.825C311.427,200.587,305.071,199.731,300.441,199.731Z" transform="translate(-215.352 -157.799)" fill="#3f434c"/>
            <path id="Trazado_117423-2" data-name="Trazado 117423" d="M245.691,264.746a70.18,70.18,0,0,0-.272-9.354c-.021-.265-.048-.523-.068-.788-.721-8.266-2.359-18.368-4.555-21.917a12.153,12.153,0,0,1-1.373-7.512,42.369,42.369,0,0,0-.394-11.25q-.224-1.316-.55-2.61a36.141,36.141,0,0,0-1.9-5.67c-1.135-2.631-2.27-4.874-3.114-6.458-.626-1.156-1.095-1.965-1.305-2.318l-.122-.2a.125.125,0,0,0,.027-.021,13.109,13.109,0,0,1,8.783-1.829c.021.048.048.1.068.15.361.8.728,1.57,1.108,2.3,3.671,7.192,8.022,11.488,11.93,14.045a24.7,24.7,0,0,0,5.092,2.576,17.362,17.362,0,0,0,5.839,1.21,16.358,16.358,0,0,0,4.779-.849c.4-.123.822-.265,1.264-.435a25.048,25.048,0,0,0,4.9-2.5,29.278,29.278,0,0,0,4.718-3.869,39.857,39.857,0,0,0,7.369-10.489c.353-.687.693-1.407,1.026-2.155,0,0,.15-.027.415-.062a12.215,12.215,0,0,1,7.763,1.952q.214.132.428.285c-.2.346-.557.965-1.019,1.815-.864,1.6-2.093,4-3.317,6.852a35.4,35.4,0,0,0-1.91,5.67c-.2.822-.381,1.659-.53,2.5a42.627,42.627,0,0,0-.422,11.359,15.815,15.815,0,0,1,0,3.263,10.044,10.044,0,0,1-1.366,4.249c-2.244,3.623-3.9,14.092-4.589,22.447,0,.034-.007.075-.007.108-.082.891-.136,1.754-.19,2.583a56.247,56.247,0,0,0-.109,6.921c.068.822.143,1.672.265,2.522.007.1.027.211.04.313,0,0,20.189,31.936,37.293,97.034H208.092c17.1-65.1,37.3-97.034,37.3-97.034.007-.054.014-.115.021-.17C245.528,266.513,245.63,265.616,245.691,264.746Z" transform="translate(-208.092 -169.384)" fill="#eb2e84"/>
            <path id="Trazado_117424-2" data-name="Trazado 117424" d="M293.13,177.87l-2.719,1.176a7.281,7.281,0,0,1-3.209-4.589c-.075-.319-.068-1.135-.2-1.543h-.143a5.524,5.524,0,0,1-1.054-.007,5,5,0,0,1-2.916-1.067,1.06,1.06,0,0,1-.163-1.237c.537-1.217,2.345-.965,3.433-.938a15.262,15.262,0,0,1,4.894.7c1.183.455,1.292,1.312,1.441,2.461Q292.813,175.356,293.13,177.87Z" transform="translate(-231.493 -161.514)" fill="#ffa59d"/>
            <path id="Trazado_117425-2" data-name="Trazado 117425" d="M286.015,175.617a11.178,11.178,0,0,0-3.587-3.845.935.935,0,0,0-1.5.562,6.718,6.718,0,0,0-.155,5.057c.745,1.928,2.381,2.949,3.928,4.108a.938.938,0,0,0,1.515-.583A7.57,7.57,0,0,0,286.015,175.617Z" transform="translate(-230.785 -162.123)" fill="#ffa59d"/>
            <path id="Trazado_117426-2" data-name="Trazado 117426" d="M301.172,292.471c.068.822.143,1.672.265,2.522a116.77,116.77,0,0,1-38.939.143c.116-.9.217-1.794.278-2.664a70.174,70.174,0,0,0-.272-9.354,116.694,116.694,0,0,0,38.965-.15c-.082.891-.136,1.754-.19,2.583A56.253,56.253,0,0,0,301.172,292.471Z" transform="translate(-225.179 -197.108)" fill="#f49090"/>
          </g>
        </g>
        <g id="Grupo_72963-2" data-name="Grupo 72963" transform="translate(136.729 0)" opacity="0.54">
          <g id="Grupo_72962-2" data-name="Grupo 72962" transform="translate(-30 30.782)">
            <path id="Trazado_117427-2" data-name="Trazado 117427" d="M315.277,134.286a7.488,7.488,0,0,1-12.02-8.589c3.471-7.063,14-4.345,14.213,3.293.049,1.737,2.753,1.743,2.7,0a10.183,10.183,0,1,0-2.985,7.208c1.269-1.2-.645-3.105-1.912-1.912Z" transform="translate(-299.814 -118.815)" fill="#fff"/>
          </g>
        </g>
        <g id="Grupo_72969-2" data-name="Grupo 72969" transform="translate(296.896 114.148)">
          <path id="Trazado_117428-2" data-name="Trazado 117428" d="M702.315,274.154c2.8,1.629,4.619,6.168,5.17,9.316.492,2.8,1.183,5.032,1.91,7.8,1.063,4.045,4.725,6.866,8.015,9.532s6.7,6.029,6.843,10.168a8.78,8.78,0,0,1-2.451,6.681,20.087,20.087,0,0,1-12.174,6.76,18.414,18.414,0,0,1-13.776-3.613,16.155,16.155,0,0,1-6.278-12.725c.059-2.42.742-4.763.811-7.182.1-3.554-1.115-7.055-2.136-10.515a26.1,26.1,0,0,1-1.021-8.854c0-3.93,1.31-6.789,4.228-5.776C694.613,270.742,698.812,272.115,702.315,274.154Z" transform="translate(-600.557 -269)" fill="url(#linear-gradient-3)"/>
          <path id="Trazado_117429-2" data-name="Trazado 117429" d="M696.9,296.381a36.757,36.757,0,0,0-.288,4.524c-.005.345.031.684.031,1.024v.026c0,.293-.016.587,0,.88.01.35.031.7.051,1.045.062.931.154,1.858.288,2.784a7.331,7.331,0,0,1-4.7,1.8,8.525,8.525,0,0,1-5.085-1.745,33.192,33.192,0,0,0,2.656-6.166.072.072,0,0,1,.01-.036c.087-.272.17-.55.247-.828.108-.371.206-.747.3-1.122a.851.851,0,0,1,.031-.119c.119-.5.232-.993.335-1.5.031-.134.056-.272.082-.417q.247-1.29.4-2.61a19.324,19.324,0,0,1,6.876-3.309,15.11,15.11,0,0,0-.994,4.22,5.063,5.063,0,0,0-.206,1.281C696.919,296.2,696.909,296.294,696.9,296.381Z" transform="translate(-600.543 -276.221)" fill="#ffa799"/>
          <path id="Trazado_117430-2" data-name="Trazado 117430" d="M700.032,290.612a15.11,15.11,0,0,0-.994,4.22,5.066,5.066,0,0,0-.206,1.281c-.015.088-.025.18-.036.268a36.781,36.781,0,0,0-.288,4.524c-.005.345.031.684.031,1.024v.026c0,.293-.016.587,0,.88.01.35.031.7.052,1.045-.952-5.585-6.588-4.189-6.588-4.189.108-.371.206-.747.3-1.122a.851.851,0,0,1,.031-.119c.119-.5.232-.993.335-1.5.031-.134.056-.272.082-.417q.247-1.29.4-2.61A19.323,19.323,0,0,1,700.032,290.612Z" transform="translate(-602.441 -276.221)" fill="#f17785"/>
          <path id="Trazado_117431-2" data-name="Trazado 117431" d="M657.645,305.765l-46.929-11.957-1.282,2.813,43.536,18.325Z" transform="translate(-569.868 -277.482)" fill="#ffa799"/>
          <path id="Trazado_117432-2" data-name="Trazado 117432" d="M679.951,311.659l-11.42-2.91s-2.62,2.928-2.552,9.038l7.648,4.155Z" transform="translate(-592.174 -283.376)" fill="#ef5656"/>
          <ellipse id="Elipse_5275-2" data-name="Elipse 5275" cx="40.498" cy="1.918" rx="40.498" ry="1.918" transform="translate(52.764 180.94)" fill="#8f2b58"/>
          <path id="Trazado_117433-2" data-name="Trazado 117433" d="M663.02,556.9a41.571,41.571,0,0,1-16.775,1.265.882.882,0,0,1-.573-1.434c.887-1.077,1.957-.816,3.192-1.2.467-.151,1.452-1.273,1.995-1.534l0,0c.035-.013.068-.025.1-.041a10.541,10.541,0,0,0,3.064-1.489,7.664,7.664,0,0,0,3.156-4.77,16.859,16.859,0,0,0,.118-5.686,5.071,5.071,0,0,0,3.2-.477,39.643,39.643,0,0,1,2.4,10.78A34.937,34.937,0,0,1,663.02,556.9Z" transform="translate(-584.084 -375.209)" fill="#ffa799"/>
          <path id="Trazado_117434-2" data-name="Trazado 117434" d="M749.252,549.592q-.347,2.217-.709,4.433a6.041,6.041,0,0,1-1,2.922c-.936,1.156-2.567,1.455-4.052,1.579a36.59,36.59,0,0,1-5.925.026.849.849,0,0,1-.261-1.627.053.053,0,0,0,.022-.007c.671-.261,1.4-.347,2.082-.586a4.943,4.943,0,0,0,1.962-1.287,2.644,2.644,0,0,0,.213-.246,4.871,4.871,0,0,0,1.056-2.231,7.937,7.937,0,0,0-1.175-5.1,43.139,43.139,0,0,1-2.563-4.675,10.661,10.661,0,0,0,4.761-.877,4.094,4.094,0,0,0,2.361,2.236c.284.131,1.437.267,1.694.42a3.591,3.591,0,0,1,1.179,1.063C749.648,546.764,749.465,548.249,749.252,549.592Z" transform="translate(-620.106 -375.359)" fill="#ffa799"/>
          <path id="Trazado_117435-2" data-name="Trazado 117435" d="M749.252,551.323q-.347,2.217-.709,4.433a6.041,6.041,0,0,1-1,2.922c-.936,1.156-2.567,1.455-4.052,1.578a36.6,36.6,0,0,1-5.925.026.849.849,0,0,1-.261-1.627.053.053,0,0,0,.022-.007c.671-.261,1.4-.347,2.082-.586a4.943,4.943,0,0,0,1.962-1.287,2.637,2.637,0,0,0,.213-.246,9.376,9.376,0,0,1,2.221-.167,2.72,2.72,0,0,0,3.123-1.745c.017-.051.034-.1.05-.153a16.14,16.14,0,0,0,.741-8.163,3.591,3.591,0,0,1,1.179,1.063C749.648,548.495,749.465,549.98,749.252,551.323Z" transform="translate(-620.106 -377.09)" fill="#1b1b30"/>
          <path id="Trazado_117436-2" data-name="Trazado 117436" d="M663.02,563.926a41.57,41.57,0,0,1-16.775,1.266.882.882,0,0,1-.573-1.434,2.687,2.687,0,0,1,.266-.279c.083-.067.166-.136.251-.2,0,0,0,0,0,0a15.48,15.48,0,0,1,4.765-2.293l.007,0a8,8,0,0,0,6.7,1.628,8.889,8.889,0,0,0,5.244-3.27A34.936,34.936,0,0,1,663.02,563.926Z" transform="translate(-584.084 -382.233)" fill="#1b1b30"/>
          <path id="Trazado_117437-2" data-name="Trazado 117437" d="M661.335,447.937a243.634,243.634,0,0,0,1.888,57.151l3.968,3.73s4.122-44.131,7.995-60.458Z" transform="translate(-590.002 -338.285)" fill="#ffa799"/>
          <path id="Trazado_117438-2" data-name="Trazado 117438" d="M727.407,509.217s-20.939-29.23-26.25-59.917c0,0,7.07-11.844,15.485,3.594,0,0,6.3,30.779,12.963,50.771Z" transform="translate(-606.052 -337.111)" fill="#ffa799"/>
          <path id="Trazado_117439-2" data-name="Trazado 117439" d="M721.564,341.54a6.552,6.552,0,0,1-2.543,1.334l-.018.006-19.25,6.792c-1.357-.5.022-2.463.429-3.873l13.126-7.292a87.663,87.663,0,0,1-5.99-6.4c-1.681-1.988-3.918-3.942-2.549-6.692.962-1.941,3.181-4.6,5.606-4.072,2.113.461,3.552,3.057,4.685,4.691,1.93,2.78,3.694,5.683,5.524,8.528C721.96,336.7,723.878,339.251,721.564,341.54Z" transform="translate(-605.268 -288.316)" fill="#ffa799"/>
          <path id="Trazado_117440-2" data-name="Trazado 117440" d="M684.3,346.2l-.041.59L687.614,354a30.188,30.188,0,0,1,2.125,3.783c2.59,5.535,3.682,11.555,4.821,17.509.059.319.124.643.189.962q2.372,12.269,5.654,24.378a86.944,86.944,0,0,1-13.349,2.207c-2.6.224-5.252.342-7.931.342-2.077,0-4.131-.071-6.173-.207-.838-.053-1.67-.124-2.5-.2a91.544,91.544,0,0,1-10.457-1.6,178.918,178.918,0,0,1,6.285-42.955c2.314-9.083,2.78-10.434,2.791-10.9v-.012c.885-6.243-.331-16.571-.6-18.66a16.673,16.673,0,0,1,.9-3.76.149.149,0,0,1,.024-.053c2.16-4.715,3.594-9.962,7.595-11.6a10.6,10.6,0,0,1,1.895-.206c2.308-.077,4.266-.661,6.574-.531a56.743,56.743,0,0,1,5.7,2.226,17.475,17.475,0,0,1,7.381,5.935l3.539,4.958.572.8s-.79,5.376-7.913,6.45l-3.859-3.989h0c-.854,1.312-1.78,2.613-2.605,3.942C685.548,337.15,684.917,341.216,684.3,346.2Z" transform="translate(-589.812 -284.846)" fill="#ef5656"/>
          <path id="Trazado_117441-2" data-name="Trazado 117441" d="M687.563,293.411c1.164,1.618,4.157,1.924,6.071,1.366a7.645,7.645,0,0,0,4.285-3.217c.066-.1.136-.192.2-.292.023-.234.055-.47.1-.705.117-.628.305-1.25.475-1.867a7.186,7.186,0,0,0,.347-3.152,5.313,5.313,0,0,0-2.143-3.171,42.992,42.992,0,0,0-5.661-2.708.277.277,0,0,0-.366.173l-.767,2.377v0a9.793,9.793,0,0,1-.33,1.026c-.655,1.722-1.666,3.3-2.258,5.044S686.493,291.911,687.563,293.411Z" transform="translate(-600.431 -271.895)" fill="#ffa59d"/>
          <path id="Trazado_117442-2" data-name="Trazado 117442" d="M705.658,293.112c.11-.374.313-.788.695-.868a.987.987,0,0,1,.943.536,2.426,2.426,0,0,1-2.751,3.638C704.853,295.326,705.337,294.2,705.658,293.112Z" transform="translate(-607.388 -276.859)" fill="#ffa59d"/>
          <g id="Grupo_72964-2" data-name="Grupo 72964" transform="translate(89.624 14.358)">
            <path id="Trazado_117443-2" data-name="Trazado 117443" d="M693.415,292.2c.008.056-.148.093-.352.039a1.26,1.26,0,0,1-.712-.486.042.042,0,0,0-.013-.019,1.265,1.265,0,0,1-.218-.55.887.887,0,0,1,.067-.555c.033-.056.062-.076.094-.065a.07.07,0,0,1,.04.026,3.281,3.281,0,0,1,.134.4,1.975,1.975,0,0,0,.212.437.287.287,0,0,0,.033.052,2.043,2.043,0,0,0,.5.5C693.335,292.072,693.427,292.137,693.415,292.2Z" transform="translate(-692.105 -290.557)" fill="#dd6478"/>
          </g>
          <g id="Grupo_72966-2" data-name="Grupo 72966" transform="translate(88.525 16.713)">
            <g id="Grupo_72965-2" data-name="Grupo 72965">
              <path id="Trazado_117444-2" data-name="Trazado 117444" d="M694.049,295.036a7.678,7.678,0,0,1-3.308-.555.3.3,0,0,0-.436.229c-.254,3.747,3.166,2.255,3.942.756C694.359,295.251,694.3,295.022,694.049,295.036Z" transform="translate(-690.291 -294.447)" fill="#fff"/>
            </g>
          </g>
          <path id="Trazado_117445-2" data-name="Trazado 117445" d="M700.891,286.4a2.844,2.844,0,0,0-2.383-1.1c-.293.03-.338.4.027.529a6.266,6.266,0,0,1,2.123,1.01C701.012,287.1,701.3,286.8,700.891,286.4Z" transform="translate(-604.915 -274.12)" fill="url(#linear-gradient-4)"/>
          <path id="Trazado_117446-2" data-name="Trazado 117446" d="M691.383,283.928a1.987,1.987,0,0,1,1.371-.1c.29.053.433.368.054.443a12.247,12.247,0,0,0-1.512.259C690.948,284.65,690.888,284.213,691.383,283.928Z" transform="translate(-602.054 -273.515)" fill="url(#linear-gradient-5)"/>
          <path id="Trazado_117447-2" data-name="Trazado 117447" d="M704.819,298.982a.665.665,0,0,0,.63.656.6.6,0,0,0,.628-.6.664.664,0,0,0-.63-.656A.594.594,0,0,0,704.819,298.982Z" transform="translate(-607.497 -279.286)" fill="#f4e4eb"/>
          <path id="Trazado_117448-2" data-name="Trazado 117448" d="M696.8,360.17a4.42,4.42,0,0,0-2.37-2.223,4.124,4.124,0,0,0-3.17.07,2.742,2.742,0,0,0-.994.73,2.986,2.986,0,0,0-.488,2.411,9.509,9.509,0,0,0,.914,2.422,3.281,3.281,0,0,1,2.386-.71,5.432,5.432,0,0,1,2.952,1.171A3.6,3.6,0,0,0,696.8,360.17Z" transform="translate(-601.538 -302.673)" fill="#ffa799"/>
          <path id="Trazado_117449-2" data-name="Trazado 117449" d="M675.814,327.79c1.19-2.185,2.714-4.331,2.612-6.932a.559.559,0,0,0-1.115.054c.1,2.619-1.712,4.785-2.826,7.01a10.162,10.162,0,0,0-1.117,3.845,19.963,19.963,0,0,0,.451,4.92c.124.7,1.24.652,1.115-.054a19.762,19.762,0,0,1-.46-4.807A9.869,9.869,0,0,1,675.814,327.79Z" transform="translate(-595.078 -287.951)" fill="#d34646"/>
          <path id="Trazado_117450-2" data-name="Trazado 117450" d="M718.172,457.526a49.687,49.687,0,0,1-2.377-5.382,8.852,8.852,0,0,0-1.6-3.5c-.185-.187-1.36,5.1-1.45,7.437-.283,1.327-.007,2.759,1.078,3.33,1.374.722,2.816-.605,4.1-1.1A.6.6,0,0,0,718.172,457.526Z" transform="translate(-610.582 -338.561)" fill="#ffa799"/>
          <path id="Trazado_117451-2" data-name="Trazado 117451" d="M692.188,287.127c-.1.3-.326.487-.506.427s-.246-.35-.146-.646.325-.487.506-.427S692.288,286.831,692.188,287.127Z" transform="translate(-602.238 -274.587)" fill="url(#linear-gradient-6)"/>
          <path id="Trazado_117452-2" data-name="Trazado 117452" d="M698.536,289.041c-.1.3-.326.487-.506.427s-.246-.349-.147-.645.326-.487.506-.427S698.635,288.745,698.536,289.041Z" transform="translate(-604.742 -275.342)" fill="url(#linear-gradient-7)"/>
          <path id="Trazado_117453-2" data-name="Trazado 117453" d="M688.26,312.114s-5.943,20.39,8.4-.484C696.661,311.63,693.8,307.435,688.26,312.114Z" transform="translate(-600.483 -283.83)" fill="#ffa799"/>
          <path id="Trazado_117454-2" data-name="Trazado 117454" d="M721.675,347.5a39.724,39.724,0,0,1-4.13,2.449c-.663.341-.078,1.341.584,1a39.739,39.739,0,0,0,4.13-2.449C722.874,348.085,722.295,347.081,721.675,347.5Z" transform="translate(-612.402 -298.624)" fill="#f17785"/>
          <path id="Trazado_117455-2" data-name="Trazado 117455" d="M599.171,290.261q2.215-.171,4.433-.34c-1.281-1.184-1.567-1.54-1.474-2.3a.2.2,0,0,1,.3-.147c.475.28,1.076.638,1.7,1.037a7.41,7.41,0,0,1,3.357,5.365h0c-.741.3-2.733.862-3.47,1.153a3.478,3.478,0,0,1-1.468.343,1.892,1.892,0,0,1-.305-.046.515.515,0,0,1-.116-.007,3.436,3.436,0,0,1-1.741-.728c-.48-.374.028-.078-.513-.441a2.321,2.321,0,0,1-.714-.605,5.957,5.957,0,0,0-.325-.553c-.136-.14-.371-.2-.509-.362a1.77,1.77,0,0,1-.407-1.074.671.671,0,0,1-.3-.914C597.877,290.133,598.6,290.2,599.171,290.261Z" transform="translate(-565.175 -274.974)" fill="#ffa59d"/>
          <g id="Grupo_72968-2" data-name="Grupo 72968" transform="translate(0)">
            <path id="Trazado_117456-2" data-name="Trazado 117456" d="M608.311,290.152,592,280.445a10.252,10.252,0,0,1,.039-3.764c.018-.045.03-.079.044-.116.01.068.081.068.3-.151.441-.448,1-.767,1.439-1.227a5.634,5.634,0,0,0,1.464-2.394c.676-2.607-1.539-4.819-3.714-5.849-1.1-.52-2.064,1.117-.958,1.64a6.793,6.793,0,0,1,1.883,1.28,2.608,2.608,0,0,1,.958,2.423c-.363,1.662-2.14,1.884-2.937,3.12s-.5,3.4-.4,5.063l-16.852,9.579a.951.951,0,0,0,.959,1.64l8.4-4.777c2.665-1.515,6.1-2.854,8.549-4.784h0c.056.041.116.087.187.144a15.11,15.11,0,0,0,1.77,1.054l5.585,3.323,8.638,5.141A.95.95,0,0,0,608.311,290.152Z" transform="translate(-555.415 -266.845)" fill="#292c33"/>
            <path id="Trazado_117457-2" data-name="Trazado 117457" d="M614.829,396.887a80.531,80.531,0,0,1-10.036,2.567c-2.12.417-4.313.766-6.562,1.072a143.04,143.04,0,0,1-15.464,1.158c-2.2.049-4.417.049-6.623,0a142.932,142.932,0,0,1-15.446-1.158c-2.248-.3-4.441-.656-6.561-1.066a82.11,82.11,0,0,1-10.048-2.573,299.328,299.328,0,0,1,17.388-47.464c2.328-5.067,4.461-9.386,6.176-12.732,2.5-4.908,4.1-7.72,4.1-7.72h.006c-.006-.031-.012-.055-.018-.086a26.727,26.727,0,0,0-3.554-8.645c-2.885-4.6-1.274-11.806-1.274-11.806l-1.379-8.97c3-2.53,3.45-1.611,3.45-1.611a21.712,21.712,0,0,0,3.945,8.406,8.406,8.406,0,0,0,13.05,0,21.717,21.717,0,0,0,3.952-8.406s.447-.919,3.45,1.611L592,308.435s1.617,7.211-1.269,11.806a26.768,26.768,0,0,0-3.56,8.645c-.006.031-.012.055-.018.086h.006s1.605,2.812,4.117,7.714C597.2,348.289,608.175,371.578,614.829,396.887Z" transform="translate(-544.089 -279.014)" fill="#339ce9"/>
            <path id="Trazado_117458-2" data-name="Trazado 117458" d="M606.63,357.009a39.315,39.315,0,0,1-23.625.006c2.5-4.908,4.1-7.72,4.1-7.72h.006c-.006-.031-.012-.055-.018-.086a42.2,42.2,0,0,0,15.427,0c-.006.031-.012.055-.018.086h.006S604.118,352.108,606.63,357.009Z" transform="translate(-559.441 -299.338)" fill="#ffb797"/>
            <g id="Grupo_72967-2" data-name="Grupo 72967" transform="translate(10.048 77.529)">
              <path id="Trazado_117459-2" data-name="Trazado 117459" d="M603.686,431.235c0,3.033-.037,5.98-.1,8.792-2.2.049-4.417.049-6.623,0-.061-2.812-.1-5.759-.1-8.792,0-20.077,1.526-36.35,3.413-36.35S603.686,411.158,603.686,431.235Z" transform="translate(-574.958 -394.885)" fill="#1e83cd"/>
              <path id="Trazado_117460-2" data-name="Trazado 117460" d="M635.883,439.776c-2.12.417-4.313.766-6.562,1.072-.362-2.389-.753-4.883-1.17-7.432-1.495-9.123-3.009-17.357-4.093-23.355-1.048-6-1.6-9.784-.73-10.134s3.088,2.978,5.373,8.817a118.123,118.123,0,0,1,6.182,23.588C635.3,434.881,635.626,437.375,635.883,439.776Z" transform="translate(-585.228 -396.865)" fill="#1e83cd"/>
              <path id="Trazado_117461-2" data-name="Trazado 117461" d="M572.508,410.061c-1.085,6-2.6,14.232-4.093,23.355-.417,2.549-.809,5.043-1.17,7.432-2.248-.3-4.441-.656-6.561-1.066.257-2.4.588-4.9,1-7.45a118.164,118.164,0,0,1,6.182-23.588c2.286-5.839,4.5-9.165,5.373-8.817S573.556,404.057,572.508,410.061Z" transform="translate(-560.684 -396.865)" fill="#1e83cd"/>
            </g>
          </g>
          <path id="Trazado_117462-2" data-name="Trazado 117462" d="M602.089,297.132a5.419,5.419,0,0,1-3.285-1.9,1.969,1.969,0,0,1-.544-1.358,1.607,1.607,0,0,1,.73-1.126,4.771,4.771,0,0,1,1.266-.554,2.287,2.287,0,0,1,1.256-.16.79.79,0,0,1,.612.955,1.3,1.3,0,0,1,2.082,1.037,1.421,1.421,0,0,1,1.761.547,1.587,1.587,0,0,1-.589,2.062A5.118,5.118,0,0,1,602.089,297.132Z" transform="translate(-565.457 -276.765)" fill="#ffa799"/>
        </g>
      </g>
    </g>
  </g>
</svg>
