<svg xmlns="http://www.w3.org/2000/svg" width="292" height="255" viewBox="0 0 292 255">
  <g id="Grupo_73296" data-name="Grupo 73296" transform="translate(7044 6849)">
    <path id="Trazado_117711" data-name="Trazado 117711" d="M20,0H272a20,20,0,0,1,20,20V235a20,20,0,0,1-20,20H20A20,20,0,0,1,0,235V20A20,20,0,0,1,20,0Z" transform="translate(-7044 -6849)" fill="#f6f6f6"/>
    <path id="Trazado_117713" data-name="Trazado 117713" d="M70.554,0A70.554,70.554,0,1,1,0,70.554,70.554,70.554,0,0,1,70.554,0Z" transform="translate(-7012.511 -6821)" fill="#0068ff" opacity="0.9"/>
    <path id="Trazado_117714" data-name="Trazado 117714" d="M70.554,0A70.554,70.554,0,1,1,0,70.554,70.554,70.554,0,0,1,70.554,0Z" transform="translate(-6940.107 -6821)" fill="#f33" opacity="0.9"/>
    <path id="Trazado_117715" data-name="Trazado 117715" d="M34.352,0C53.324,0,68.7,27.113,68.7,60.559s-15.38,60.559-34.352,60.559S0,94.006,0,60.559,15.38,0,34.352,0Z" transform="translate(-6940.107 -6811.006)" fill="#5c2baf"/>
    <g id="Grupo_9972" data-name="Grupo 9972" transform="translate(-7912.847 -11980.529)">
      <path id="Trazado_7011" data-name="Trazado 7011" d="M972.166,5328.426l-1.535-3.633h-4.942l-1.519,3.633h-1.45l4.875-11.469H968.8l4.85,11.469Zm-1.982-4.829-1.434-3.539q-.277-.671-.573-1.648a14.1,14.1,0,0,1-.531,1.648l-1.452,3.539Z" fill="#14233a"/>
      <path id="Trazado_7012" data-name="Trazado 7012" d="M981.047,5328.426h-6.705v-.883l5.044-6.672h-4.732v-1.008h6.267v1.008l-4.977,6.547h5.1Z" fill="#14233a"/>
      <path id="Trazado_7013" data-name="Trazado 7013" d="M984.53,5319.863v5.555a2.126,2.126,0,0,0,.515,1.562,2.194,2.194,0,0,0,1.611.516,2.742,2.742,0,0,0,2.121-.735,3.505,3.505,0,0,0,.67-2.4v-4.5h1.4v8.563h-1.156l-.2-1.149h-.076a2.734,2.734,0,0,1-1.193.969,4.3,4.3,0,0,1-1.742.336,3.717,3.717,0,0,1-2.526-.742,3.021,3.021,0,0,1-.84-2.375v-5.6Z" fill="#14233a"/>
      <path id="Trazado_7014" data-name="Trazado 7014" d="M995.217,5328.426h-1.4v-12.157h1.4Z" fill="#14233a"/>
      <path id="Trazado_7015" data-name="Trazado 7015" d="M1006.7,5322.246h3.475v1.078H1006.7v3.328h-1.172v-3.328h-3.458v-1.078h3.458V5318.9h1.172Z" fill="#14233a"/>
      <path id="Trazado_7016" data-name="Trazado 7016" d="M1018.681,5323.676v4.75h-1.434V5317h3.383a5.646,5.646,0,0,1,3.353.8,2.826,2.826,0,0,1,1.083,2.422,3.074,3.074,0,0,1-2.48,3.063l3.349,5.133h-1.7l-2.985-4.75Zm0-1.141h1.966a3.586,3.586,0,0,0,2.226-.559,2,2,0,0,0,.708-1.675,1.844,1.844,0,0,0-.721-1.633,4.152,4.152,0,0,0-2.315-.5h-1.864Z" fill="#14233a"/>
      <path id="Trazado_7017" data-name="Trazado 7017" d="M1035.693,5324.136a4.5,4.5,0,0,1-1.138,3.27,4.179,4.179,0,0,1-3.147,1.176,4.429,4.429,0,0,1-2.2-.539,3.669,3.669,0,0,1-1.484-1.547,5.05,5.05,0,0,1-.524-2.36,4.494,4.494,0,0,1,1.131-3.261,4.161,4.161,0,0,1,3.138-1.168,4.063,4.063,0,0,1,3.082,1.195A4.482,4.482,0,0,1,1035.693,5324.136Zm-7.042,0a3.845,3.845,0,0,0,.708,2.5,2.963,2.963,0,0,0,4.17,0,3.82,3.82,0,0,0,.713-2.5,3.761,3.761,0,0,0-.713-2.48,2.591,2.591,0,0,0-2.1-.848,2.551,2.551,0,0,0-2.074.836A3.805,3.805,0,0,0,1028.651,5324.136Z" fill="#14233a"/>
      <path id="Trazado_7018" data-name="Trazado 7018" d="M1037.026,5332.269a3.618,3.618,0,0,1-1.3-.195v-1.055a4.41,4.41,0,0,0,1.147.157,1.257,1.257,0,0,0,.966-.333,1.442,1.442,0,0,0,.308-1.011v-9.969h1.4v9.875A2.233,2.233,0,0,1,1037.026,5332.269Zm1-14.726a.825.825,0,0,1,.237-.653.926.926,0,0,1,1.172,0,.812.812,0,0,1,.245.649.822.822,0,0,1-.245.652.849.849,0,0,1-.582.215.782.782,0,0,1-.827-.867Z" fill="#14233a"/>
      <path id="Trazado_7019" data-name="Trazado 7019" d="M1050.495,5324.136a4.508,4.508,0,0,1-1.138,3.27,4.175,4.175,0,0,1-3.146,1.176,4.427,4.427,0,0,1-2.2-.539,3.66,3.66,0,0,1-1.485-1.547,5.05,5.05,0,0,1-.523-2.36,4.5,4.5,0,0,1,1.13-3.261,4.164,4.164,0,0,1,3.138-1.168,4.066,4.066,0,0,1,3.083,1.195A4.49,4.49,0,0,1,1050.495,5324.136Zm-7.043,0a3.845,3.845,0,0,0,.709,2.5,2.964,2.964,0,0,0,4.171,0,3.825,3.825,0,0,0,.713-2.5,3.767,3.767,0,0,0-.713-2.48,2.6,2.6,0,0,0-2.1-.848,2.555,2.555,0,0,0-2.076.836A3.811,3.811,0,0,0,1043.452,5324.136Z" fill="#14233a"/>
    </g>
    <path id="Trazado_117716" data-name="Trazado 117716" d="M0,0H142.3V19.966H0Z" transform="translate(-6976.905 -6641.915)" fill="#5c2baf"/>
    <g id="Grupo_9978" data-name="Grupo 9978" transform="translate(-7912.847 -11980.529)">
      <path id="Trazado_7032" data-name="Trazado 7032" d="M988.405,5343.365h1.544l-4.445,11.422h-1.417l-4.419-11.422h1.518l2.834,7.391a19.6,19.6,0,0,1,.776,2.477,19.5,19.5,0,0,1,.793-2.524Z" fill="#fff"/>
      <path id="Trazado_7033" data-name="Trazado 7033" d="M991.316,5343.9a.823.823,0,0,1,.236-.653.926.926,0,0,1,1.172,0,.812.812,0,0,1,.245.649.822.822,0,0,1-.245.652.853.853,0,0,1-.582.215.781.781,0,0,1-.826-.867Zm1.518,10.882h-1.4v-8.562h1.4Z" fill="#fff"/>
      <path id="Trazado_7034" data-name="Trazado 7034" d="M1003.781,5350.5a4.509,4.509,0,0,1-1.138,3.27,4.176,4.176,0,0,1-3.146,1.176,4.421,4.421,0,0,1-2.2-.539,3.66,3.66,0,0,1-1.485-1.547,5.05,5.05,0,0,1-.523-2.36,4.5,4.5,0,0,1,1.13-3.261,4.164,4.164,0,0,1,3.138-1.168,4.064,4.064,0,0,1,3.083,1.2A4.484,4.484,0,0,1,1003.781,5350.5Zm-7.043,0a3.845,3.845,0,0,0,.709,2.5,2.964,2.964,0,0,0,4.171,0,3.825,3.825,0,0,0,.713-2.5,3.765,3.765,0,0,0-.713-2.48,2.593,2.593,0,0,0-2.1-.848,2.553,2.553,0,0,0-2.075.836A3.8,3.8,0,0,0,996.738,5350.5Z" fill="#fff"/>
      <path id="Trazado_7035" data-name="Trazado 7035" d="M1007.636,5354.787h-1.4v-12.156h1.4Z" fill="#fff"/>
      <path id="Trazado_7036" data-name="Trazado 7036" d="M1014.51,5354.944a4.432,4.432,0,0,1-3.234-1.157,4.274,4.274,0,0,1-1.186-3.211,4.72,4.72,0,0,1,1.1-3.289,3.785,3.785,0,0,1,2.956-1.218,3.626,3.626,0,0,1,2.749,1.058,3.878,3.878,0,0,1,1.012,2.793v.82h-6.368a3.241,3.241,0,0,0,.822,2.29,2.971,2.971,0,0,0,2.2.781,7.96,7.96,0,0,0,2.952-.578v1.156a7.859,7.859,0,0,1-1.4.426A8.516,8.516,0,0,1,1014.51,5354.944Zm-.38-7.789a2.381,2.381,0,0,0-1.775.671,2.971,2.971,0,0,0-.78,1.86h4.832a2.705,2.705,0,0,0-.59-1.879A2.157,2.157,0,0,0,1014.13,5347.155Z" fill="#fff"/>
      <path id="Trazado_7037" data-name="Trazado 7037" d="M1023.281,5353.873a4.945,4.945,0,0,0,.717-.05,4.855,4.855,0,0,0,.549-.106v.992a2.706,2.706,0,0,1-.671.168,5.465,5.465,0,0,1-.8.067q-2.682,0-2.682-2.618v-5.093h-1.325v-.625l1.325-.539.59-1.829h.81v1.985h2.683v1.008H1021.8v5.039a1.651,1.651,0,0,0,.4,1.187A1.433,1.433,0,0,0,1023.281,5353.873Z" fill="#fff"/>
      <path id="Trazado_7038" data-name="Trazado 7038" d="M1032.078,5354.787l-.278-1.218h-.067a3.84,3.84,0,0,1-1.379,1.089,4.5,4.5,0,0,1-1.716.286,3.243,3.243,0,0,1-2.155-.657,2.3,2.3,0,0,1-.781-1.867q0-2.594,4.479-2.719l1.569-.046v-.532a2.059,2.059,0,0,0-.469-1.488,2.015,2.015,0,0,0-1.5-.48,6.475,6.475,0,0,0-2.614.656l-.431-.992a7.164,7.164,0,0,1,3.13-.735,3.714,3.714,0,0,1,2.45.68,2.713,2.713,0,0,1,.8,2.18v5.843Zm-3.162-.914a2.982,2.982,0,0,0,2.054-.664,2.359,2.359,0,0,0,.746-1.859v-.774l-1.4.055a5.438,5.438,0,0,0-2.408.481,1.423,1.423,0,0,0-.738,1.324,1.286,1.286,0,0,0,.46,1.07A2.006,2.006,0,0,0,1028.916,5353.873Z" fill="#fff"/>
    </g>
    <path id="Trazado_117717" data-name="Trazado 117717" d="M70.554,0A70.554,70.554,0,1,1,0,70.554,70.554,70.554,0,0,1,70.554,0Z" transform="translate(-7012.511 -6821)" fill="#0068ff" opacity="0.9"/>
    <path id="Trazado_117718" data-name="Trazado 117718" d="M70.554,0A70.554,70.554,0,1,1,0,70.554,70.554,70.554,0,0,1,70.554,0Z" transform="translate(-6940.107 -6821)" fill="#f33" opacity="0.9"/>
    <path id="Trazado_117719" data-name="Trazado 117719" d="M34.352,0C53.324,0,68.7,27.113,68.7,60.559s-15.38,60.559-34.352,60.559S0,94.006,0,60.559,15.38,0,34.352,0Z" transform="translate(-6940.107 -6811.006)" fill="#5c2baf"/>
    <g id="Grupo_9973" data-name="Grupo 9973" transform="translate(-7912.847 -11980.529)">
      <g id="Grupo_9972-2" data-name="Grupo 9972">
        <path id="Trazado_7011-2" data-name="Trazado 7011" d="M972.166,5328.426l-1.535-3.633h-4.942l-1.519,3.633h-1.45l4.875-11.469H968.8l4.85,11.469Zm-1.982-4.829-1.434-3.539q-.277-.671-.573-1.648a14.1,14.1,0,0,1-.531,1.648l-1.452,3.539Z" fill="#14233a"/>
        <path id="Trazado_7012-2" data-name="Trazado 7012" d="M981.047,5328.426h-6.705v-.883l5.044-6.672h-4.732v-1.008h6.267v1.008l-4.977,6.547h5.1Z" fill="#14233a"/>
        <path id="Trazado_7013-2" data-name="Trazado 7013" d="M984.53,5319.863v5.555a2.126,2.126,0,0,0,.515,1.562,2.194,2.194,0,0,0,1.611.516,2.742,2.742,0,0,0,2.121-.735,3.505,3.505,0,0,0,.67-2.4v-4.5h1.4v8.563h-1.156l-.2-1.149h-.076a2.734,2.734,0,0,1-1.193.969,4.3,4.3,0,0,1-1.742.336,3.717,3.717,0,0,1-2.526-.742,3.021,3.021,0,0,1-.84-2.375v-5.6Z" fill="#14233a"/>
        <path id="Trazado_7014-2" data-name="Trazado 7014" d="M995.217,5328.426h-1.4v-12.157h1.4Z" fill="#14233a"/>
        <path id="Trazado_7015-2" data-name="Trazado 7015" d="M1006.7,5322.246h3.475v1.078H1006.7v3.328h-1.172v-3.328h-3.458v-1.078h3.458V5318.9h1.172Z" fill="#14233a"/>
        <path id="Trazado_7016-2" data-name="Trazado 7016" d="M1018.681,5323.676v4.75h-1.434V5317h3.383a5.646,5.646,0,0,1,3.353.8,2.826,2.826,0,0,1,1.083,2.422,3.074,3.074,0,0,1-2.48,3.063l3.349,5.133h-1.7l-2.985-4.75Zm0-1.141h1.966a3.586,3.586,0,0,0,2.226-.559,2,2,0,0,0,.708-1.675,1.844,1.844,0,0,0-.721-1.633,4.152,4.152,0,0,0-2.315-.5h-1.864Z" fill="#14233a"/>
        <path id="Trazado_7017-2" data-name="Trazado 7017" d="M1035.693,5324.136a4.5,4.5,0,0,1-1.138,3.27,4.179,4.179,0,0,1-3.147,1.176,4.429,4.429,0,0,1-2.2-.539,3.669,3.669,0,0,1-1.484-1.547,5.05,5.05,0,0,1-.524-2.36,4.494,4.494,0,0,1,1.131-3.261,4.161,4.161,0,0,1,3.138-1.168,4.063,4.063,0,0,1,3.082,1.195A4.482,4.482,0,0,1,1035.693,5324.136Zm-7.042,0a3.845,3.845,0,0,0,.708,2.5,2.963,2.963,0,0,0,4.17,0,3.82,3.82,0,0,0,.713-2.5,3.761,3.761,0,0,0-.713-2.48,2.591,2.591,0,0,0-2.1-.848,2.551,2.551,0,0,0-2.074.836A3.805,3.805,0,0,0,1028.651,5324.136Z" fill="#14233a"/>
        <path id="Trazado_7018-2" data-name="Trazado 7018" d="M1037.026,5332.269a3.618,3.618,0,0,1-1.3-.195v-1.055a4.41,4.41,0,0,0,1.147.157,1.257,1.257,0,0,0,.966-.333,1.442,1.442,0,0,0,.308-1.011v-9.969h1.4v9.875A2.233,2.233,0,0,1,1037.026,5332.269Zm1-14.726a.825.825,0,0,1,.237-.653.926.926,0,0,1,1.172,0,.812.812,0,0,1,.245.649.822.822,0,0,1-.245.652.849.849,0,0,1-.582.215.782.782,0,0,1-.827-.867Z" fill="#14233a"/>
        <path id="Trazado_7019-2" data-name="Trazado 7019" d="M1050.495,5324.136a4.508,4.508,0,0,1-1.138,3.27,4.175,4.175,0,0,1-3.146,1.176,4.427,4.427,0,0,1-2.2-.539,3.66,3.66,0,0,1-1.485-1.547,5.05,5.05,0,0,1-.523-2.36,4.5,4.5,0,0,1,1.13-3.261,4.164,4.164,0,0,1,3.138-1.168,4.066,4.066,0,0,1,3.083,1.195A4.49,4.49,0,0,1,1050.495,5324.136Zm-7.043,0a3.845,3.845,0,0,0,.709,2.5,2.964,2.964,0,0,0,4.171,0,3.825,3.825,0,0,0,.713-2.5,3.767,3.767,0,0,0-.713-2.48,2.6,2.6,0,0,0-2.1-.848,2.555,2.555,0,0,0-2.076.836A3.811,3.811,0,0,0,1043.452,5324.136Z" fill="#14233a"/>
      </g>
    </g>
    <path id="Trazado_117720" data-name="Trazado 117720" d="M0,0H142.3V19.966H0Z" transform="translate(-6976.905 -6641.915)" fill="#5c2baf"/>
    <g id="Grupo_9979" data-name="Grupo 9979" transform="translate(-7912.847 -11980.529)">
      <g id="Grupo_9978-2" data-name="Grupo 9978">
        <path id="Trazado_7032-2" data-name="Trazado 7032" d="M988.405,5343.365h1.544l-4.445,11.422h-1.417l-4.419-11.422h1.518l2.834,7.391a19.6,19.6,0,0,1,.776,2.477,19.5,19.5,0,0,1,.793-2.524Z" fill="#fff"/>
        <path id="Trazado_7033-2" data-name="Trazado 7033" d="M991.316,5343.9a.823.823,0,0,1,.236-.653.926.926,0,0,1,1.172,0,.812.812,0,0,1,.245.649.822.822,0,0,1-.245.652.853.853,0,0,1-.582.215.781.781,0,0,1-.826-.867Zm1.518,10.882h-1.4v-8.562h1.4Z" fill="#fff"/>
        <path id="Trazado_7034-2" data-name="Trazado 7034" d="M1003.781,5350.5a4.509,4.509,0,0,1-1.138,3.27,4.176,4.176,0,0,1-3.146,1.176,4.421,4.421,0,0,1-2.2-.539,3.66,3.66,0,0,1-1.485-1.547,5.05,5.05,0,0,1-.523-2.36,4.5,4.5,0,0,1,1.13-3.261,4.164,4.164,0,0,1,3.138-1.168,4.064,4.064,0,0,1,3.083,1.2A4.484,4.484,0,0,1,1003.781,5350.5Zm-7.043,0a3.845,3.845,0,0,0,.709,2.5,2.964,2.964,0,0,0,4.171,0,3.825,3.825,0,0,0,.713-2.5,3.765,3.765,0,0,0-.713-2.48,2.593,2.593,0,0,0-2.1-.848,2.553,2.553,0,0,0-2.075.836A3.8,3.8,0,0,0,996.738,5350.5Z" fill="#fff"/>
        <path id="Trazado_7035-2" data-name="Trazado 7035" d="M1007.636,5354.787h-1.4v-12.156h1.4Z" fill="#fff"/>
        <path id="Trazado_7036-2" data-name="Trazado 7036" d="M1014.51,5354.944a4.432,4.432,0,0,1-3.234-1.157,4.274,4.274,0,0,1-1.186-3.211,4.72,4.72,0,0,1,1.1-3.289,3.785,3.785,0,0,1,2.956-1.218,3.626,3.626,0,0,1,2.749,1.058,3.878,3.878,0,0,1,1.012,2.793v.82h-6.368a3.241,3.241,0,0,0,.822,2.29,2.971,2.971,0,0,0,2.2.781,7.96,7.96,0,0,0,2.952-.578v1.156a7.859,7.859,0,0,1-1.4.426A8.516,8.516,0,0,1,1014.51,5354.944Zm-.38-7.789a2.381,2.381,0,0,0-1.775.671,2.971,2.971,0,0,0-.78,1.86h4.832a2.705,2.705,0,0,0-.59-1.879A2.157,2.157,0,0,0,1014.13,5347.155Z" fill="#fff"/>
        <path id="Trazado_7037-2" data-name="Trazado 7037" d="M1023.281,5353.873a4.945,4.945,0,0,0,.717-.05,4.855,4.855,0,0,0,.549-.106v.992a2.706,2.706,0,0,1-.671.168,5.465,5.465,0,0,1-.8.067q-2.682,0-2.682-2.618v-5.093h-1.325v-.625l1.325-.539.59-1.829h.81v1.985h2.683v1.008H1021.8v5.039a1.651,1.651,0,0,0,.4,1.187A1.433,1.433,0,0,0,1023.281,5353.873Z" fill="#fff"/>
        <path id="Trazado_7038-2" data-name="Trazado 7038" d="M1032.078,5354.787l-.278-1.218h-.067a3.84,3.84,0,0,1-1.379,1.089,4.5,4.5,0,0,1-1.716.286,3.243,3.243,0,0,1-2.155-.657,2.3,2.3,0,0,1-.781-1.867q0-2.594,4.479-2.719l1.569-.046v-.532a2.059,2.059,0,0,0-.469-1.488,2.015,2.015,0,0,0-1.5-.48,6.475,6.475,0,0,0-2.614.656l-.431-.992a7.164,7.164,0,0,1,3.13-.735,3.714,3.714,0,0,1,2.45.68,2.713,2.713,0,0,1,.8,2.18v5.843Zm-3.162-.914a2.982,2.982,0,0,0,2.054-.664,2.359,2.359,0,0,0,.746-1.859v-.774l-1.4.055a5.438,5.438,0,0,0-2.408.481,1.423,1.423,0,0,0-.738,1.324,1.286,1.286,0,0,0,.46,1.07A2.006,2.006,0,0,0,1028.916,5353.873Z" fill="#fff"/>
      </g>
    </g>
  </g>
</svg>
