<svg xmlns="http://www.w3.org/2000/svg" width="1020.019" height="174.665" viewBox="0 0 1020.019 174.665">
  <g id="Grupo_73307" data-name="Grupo 73307" transform="translate(4466.019 -540.646)">
    <path id="Trazado_117764" data-name="Trazado 117764" d="M0,0H1020V50.173H0Z" transform="translate(-4466 569.469)" fill="#e2e2e2"/>
    <path id="Trazado_117765" data-name="Trazado 117765" d="M.641,12.617a12.106,12.106,0,0,1,.605-3.875A9.633,9.633,0,0,1,2.992,5.578H4.258A11.015,11.015,0,0,0,2.566,8.891,12.32,12.32,0,0,0,2,12.6a11.844,11.844,0,0,0,.578,3.664,11.375,11.375,0,0,0,1.664,3.266H2.992a9.207,9.207,0,0,1-1.75-3.1A11.793,11.793,0,0,1,.641,12.617Zm6.992-.367V17H6.3V5.578H9.438a4.929,4.929,0,0,1,3.105.8,2.918,2.918,0,0,1,1,2.422,3.033,3.033,0,0,1-2.3,3.063L14.352,17h-1.57l-2.766-4.75Zm0-1.141h1.82a3.144,3.144,0,0,0,2.063-.559,2.079,2.079,0,0,0,.656-1.676A1.907,1.907,0,0,0,11.5,7.242a3.619,3.619,0,0,0-2.145-.5H7.633Zm11.984,6.047a3.934,3.934,0,0,1-3-1.156,4.476,4.476,0,0,1-1.1-3.211A4.964,4.964,0,0,1,16.543,9.5a3.387,3.387,0,0,1,2.738-1.219A3.229,3.229,0,0,1,21.828,9.34a4.057,4.057,0,0,1,.938,2.793v.82h-5.9a3.394,3.394,0,0,0,.762,2.289,2.635,2.635,0,0,0,2.035.781,6.9,6.9,0,0,0,2.734-.578V16.6a6.863,6.863,0,0,1-1.3.426A7.31,7.31,0,0,1,19.617,17.156Zm-.352-7.789a2.118,2.118,0,0,0-1.645.672A3.1,3.1,0,0,0,16.9,11.9h4.477a2.851,2.851,0,0,0-.547-1.879A1.925,1.925,0,0,0,19.266,9.367ZM26.852,17,23.6,8.438h1.391l1.844,5.078a24.035,24.035,0,0,1,.734,2.313h.063a17.467,17.467,0,0,1,.543-1.715q.457-1.3,2.051-5.676h1.391L28.367,17Zm7.438,0h-1.3V8.438h1.3ZM32.883,6.117a.861.861,0,0,1,.219-.652.81.81,0,0,1,1.086,0,.846.846,0,0,1,.227.648.859.859,0,0,1-.227.652.794.794,0,0,1-1.086,0A.877.877,0,0,1,32.883,6.117Zm9.68,8.547a2.145,2.145,0,0,1-.891,1.844,4.186,4.186,0,0,1-2.5.648,5.436,5.436,0,0,1-2.656-.539v-1.2a6.424,6.424,0,0,0,1.324.492,5.53,5.53,0,0,0,1.363.18,3.092,3.092,0,0,0,1.563-.324,1.116,1.116,0,0,0,.113-1.844,6.82,6.82,0,0,0-1.691-.84,9.172,9.172,0,0,1-1.7-.777,2.321,2.321,0,0,1-.75-.754,1.966,1.966,0,0,1-.246-1.008,1.921,1.921,0,0,1,.852-1.652,3.968,3.968,0,0,1,2.336-.605,6.835,6.835,0,0,1,2.7.563L41.922,9.9a6.2,6.2,0,0,0-2.336-.531,2.688,2.688,0,0,0-1.391.289.894.894,0,0,0-.469.8.971.971,0,0,0,.176.586,1.735,1.735,0,0,0,.566.461,12.658,12.658,0,0,0,1.5.633,5.6,5.6,0,0,1,2.059,1.117A1.97,1.97,0,0,1,42.563,14.664ZM49.938,17l-.258-1.219h-.062a3.6,3.6,0,0,1-1.277,1.09,3.893,3.893,0,0,1-1.59.285,2.86,2.86,0,0,1-2-.656,2.394,2.394,0,0,1-.723-1.867q0-2.594,4.148-2.719l1.453-.047v-.531A2.171,2.171,0,0,0,49.2,9.848a1.783,1.783,0,0,0-1.387-.48,5.65,5.65,0,0,0-2.422.656l-.4-.992a6.094,6.094,0,0,1,1.387-.539,6.006,6.006,0,0,1,1.512-.2,3.262,3.262,0,0,1,2.27.68,2.837,2.837,0,0,1,.738,2.18V17Zm-2.93-.914a2.632,2.632,0,0,0,1.9-.664,2.457,2.457,0,0,0,.691-1.859v-.773l-1.3.055a4.717,4.717,0,0,0-2.23.48,1.449,1.449,0,0,0-.684,1.324,1.336,1.336,0,0,0,.426,1.07A1.767,1.767,0,0,0,47.008,16.086Zm10.469-7.8a5.075,5.075,0,0,1,1.023.094l-.18,1.2a4.418,4.418,0,0,0-.937-.117,2.282,2.282,0,0,0-1.777.844,3.077,3.077,0,0,0-.738,2.1V17h-1.3V8.438h1.07l.148,1.586h.063A3.764,3.764,0,0,1,56,8.734,2.585,2.585,0,0,1,57.477,8.281ZM65.555,17h-1.3V8.438h1.3ZM64.148,6.117a.861.861,0,0,1,.219-.652.81.81,0,0,1,1.086,0,.846.846,0,0,1,.227.648.859.859,0,0,1-.227.652.794.794,0,0,1-1.086,0A.877.877,0,0,1,64.148,6.117ZM74.164,17V11.461A2.235,2.235,0,0,0,73.688,9.9,1.941,1.941,0,0,0,72.2,9.383a2.461,2.461,0,0,0-1.969.727,3.668,3.668,0,0,0-.625,2.4V17H68.3V8.438h1.055l.211,1.172h.063a2.648,2.648,0,0,1,1.117-.98,3.63,3.63,0,0,1,1.6-.348,3.252,3.252,0,0,1,2.328.746,3.175,3.175,0,0,1,.781,2.387V17Zm6.727-.914a4.236,4.236,0,0,0,.664-.051,4.3,4.3,0,0,0,.508-.105v.992a2.371,2.371,0,0,1-.621.168,4.664,4.664,0,0,1-.738.066q-2.484,0-2.484-2.617V9.445H76.992V8.82l1.227-.539.547-1.828h.75V8.438H82V9.445H79.516v5.039a1.734,1.734,0,0,0,.367,1.188A1.278,1.278,0,0,0,80.891,16.086Zm6.5,1.07a3.934,3.934,0,0,1-3-1.156,4.476,4.476,0,0,1-1.1-3.211A4.964,4.964,0,0,1,84.316,9.5a3.387,3.387,0,0,1,2.738-1.219A3.229,3.229,0,0,1,89.6,9.34a4.057,4.057,0,0,1,.938,2.793v.82h-5.9a3.394,3.394,0,0,0,.762,2.289,2.635,2.635,0,0,0,2.035.781,6.9,6.9,0,0,0,2.734-.578V16.6a6.863,6.863,0,0,1-1.3.426A7.31,7.31,0,0,1,87.391,17.156Zm-.352-7.789a2.118,2.118,0,0,0-1.645.672,3.1,3.1,0,0,0-.723,1.859h4.477A2.851,2.851,0,0,0,88.6,10.02,1.925,1.925,0,0,0,87.039,9.367Zm9.617-1.086a5.075,5.075,0,0,1,1.023.094l-.18,1.2a4.418,4.418,0,0,0-.937-.117,2.282,2.282,0,0,0-1.777.844,3.077,3.077,0,0,0-.738,2.1V17h-1.3V8.438h1.07l.148,1.586h.063A3.764,3.764,0,0,1,95.18,8.734,2.585,2.585,0,0,1,96.656,8.281ZM104.547,17l-.258-1.219h-.062a3.6,3.6,0,0,1-1.277,1.09,3.893,3.893,0,0,1-1.59.285,2.86,2.86,0,0,1-2-.656,2.394,2.394,0,0,1-.723-1.867q0-2.594,4.148-2.719l1.453-.047v-.531a2.171,2.171,0,0,0-.434-1.488,1.783,1.783,0,0,0-1.387-.48,5.65,5.65,0,0,0-2.422.656l-.4-.992a6.094,6.094,0,0,1,1.387-.539,6.006,6.006,0,0,1,1.512-.2,3.262,3.262,0,0,1,2.27.68,2.837,2.837,0,0,1,.738,2.18V17Zm-2.93-.914a2.632,2.632,0,0,0,1.9-.664,2.457,2.457,0,0,0,.691-1.859v-.773l-1.3.055a4.717,4.717,0,0,0-2.23.48A1.449,1.449,0,0,0,100,14.648a1.336,1.336,0,0,0,.426,1.07A1.767,1.767,0,0,0,101.617,16.086Zm9.984,1.07a3.654,3.654,0,0,1-2.879-1.145,4.707,4.707,0,0,1-1.02-3.238,4.853,4.853,0,0,1,1.035-3.32,3.727,3.727,0,0,1,2.949-1.172,5.852,5.852,0,0,1,1.234.133,4.066,4.066,0,0,1,.969.313l-.4,1.1a6.1,6.1,0,0,0-.937-.285,4.186,4.186,0,0,0-.9-.113q-2.609,0-2.609,3.328a3.963,3.963,0,0,0,.637,2.422,2.215,2.215,0,0,0,1.887.844,5.769,5.769,0,0,0,2.2-.461v1.148A4.679,4.679,0,0,1,111.6,17.156Zm6.961-1.07a4.236,4.236,0,0,0,.664-.051,4.3,4.3,0,0,0,.508-.105v.992a2.371,2.371,0,0,1-.621.168,4.664,4.664,0,0,1-.738.066q-2.484,0-2.484-2.617V9.445h-1.227V8.82l1.227-.539.547-1.828h.75V8.438h2.484V9.445h-2.484v5.039a1.734,1.734,0,0,0,.367,1.188A1.278,1.278,0,0,0,118.563,16.086Zm4.18.914h-1.3V8.438h1.3ZM121.336,6.117a.861.861,0,0,1,.219-.652.81.81,0,0,1,1.086,0,.846.846,0,0,1,.227.648.859.859,0,0,1-.227.652.794.794,0,0,1-1.086,0A.877.877,0,0,1,121.336,6.117ZM127.367,17l-3.25-8.562h1.391l1.844,5.078a24.038,24.038,0,0,1,.734,2.313h.063a17.468,17.468,0,0,1,.543-1.715q.457-1.3,2.051-5.676h1.391L128.883,17ZM140.9,12.711a4.724,4.724,0,0,1-1.055,3.27,3.714,3.714,0,0,1-2.914,1.176,3.86,3.86,0,0,1-2.039-.539,3.558,3.558,0,0,1-1.375-1.547,5.391,5.391,0,0,1-.484-2.359,4.716,4.716,0,0,1,1.047-3.262,3.7,3.7,0,0,1,2.906-1.168,3.622,3.622,0,0,1,2.855,1.2A4.7,4.7,0,0,1,140.9,12.711Zm-6.523,0a4.064,4.064,0,0,0,.656,2.5,2.6,2.6,0,0,0,3.863,0,4.043,4.043,0,0,0,.66-2.5,3.978,3.978,0,0,0-.66-2.48,2.32,2.32,0,0,0-1.949-.848,2.283,2.283,0,0,0-1.922.836A4.023,4.023,0,0,0,134.375,12.711Zm19.93-1.437a8.341,8.341,0,0,1-.934,4.422,3.448,3.448,0,0,1-5.66-.035,8.175,8.175,0,0,1-.961-4.387,8.338,8.338,0,0,1,.93-4.43,3.451,3.451,0,0,1,5.66.063A8.141,8.141,0,0,1,154.3,11.273Zm-6.242,0a8.365,8.365,0,0,0,.586,3.629,2.1,2.1,0,0,0,3.746-.016,8.43,8.43,0,0,0,.582-3.613,8.374,8.374,0,0,0-.582-3.605,2.112,2.112,0,0,0-3.746-.016A8.309,8.309,0,0,0,148.063,11.273ZM163.391,17h-7.508V15.883l3.008-3.023a22.149,22.149,0,0,0,1.813-1.984,5.064,5.064,0,0,0,.656-1.156,3.312,3.312,0,0,0,.219-1.211,1.92,1.92,0,0,0-.555-1.449,2.125,2.125,0,0,0-1.539-.535,3.87,3.87,0,0,0-1.348.234,5.372,5.372,0,0,0-1.418.852l-.687-.883a5.265,5.265,0,0,1,3.438-1.312,3.632,3.632,0,0,1,2.523.824,2.835,2.835,0,0,1,.914,2.215A4.277,4.277,0,0,1,162.3,10.6a13.64,13.64,0,0,1-2.281,2.688l-2.5,2.445V15.8h5.875Zm4.953-4.383a11.773,11.773,0,0,1-.605,3.828,9.157,9.157,0,0,1-1.746,3.086h-1.25a11.254,11.254,0,0,0,1.664-3.262,11.881,11.881,0,0,0,.578-3.668,12.32,12.32,0,0,0-.566-3.711,11.015,11.015,0,0,0-1.691-3.312h1.266a9.584,9.584,0,0,1,1.75,3.176A12.163,12.163,0,0,1,168.344,12.617Z" transform="translate(-4459.441 535.388)" fill="#e78600"/>
    <path id="Trazado_117766" data-name="Trazado 117766" d="M31.394,0A31.394,31.394,0,1,1,0,31.394,31.394,31.394,0,0,1,31.394,0Z" transform="translate(-4455.557 642.061)" fill="#ee3232"/>
    <path id="Trazado_117767" data-name="Trazado 117767" d="M31.394,0A31.394,31.394,0,1,1,0,31.394,31.394,31.394,0,0,1,31.394,0Z" transform="translate(-4370.344 642.061)" fill="#de580c"/>
    <path id="Trazado_117768" data-name="Trazado 117768" d="M31.394,0A31.394,31.394,0,1,1,0,31.394,31.394,31.394,0,0,1,31.394,0Z" transform="translate(-4285.244 642.061)" fill="#e3dc04"/>
    <path id="Trazado_117771" data-name="Trazado 117771" d="M31.394,0A31.394,31.394,0,1,1,0,31.394,31.394,31.394,0,0,1,31.394,0Z" transform="translate(-4200.585 642.061)" fill="#6dac1d"/>
    <path id="Trazado_117773" data-name="Trazado 117773" d="M31.394,0A31.394,31.394,0,1,1,0,31.394,31.394,31.394,0,0,1,31.394,0Z" transform="translate(-4106.554 642.061)" fill="#1744a3"/>
    <path id="Trazado_117775" data-name="Trazado 117775" d="M31.394,0A31.394,31.394,0,1,1,0,31.394,31.394,31.394,0,0,1,31.394,0Z" transform="translate(-4021.895 642.061)" fill="#763782"/>
    <path id="Trazado_117777" data-name="Trazado 117777" d="M31.394,0A31.394,31.394,0,1,1,0,31.394,31.394,31.394,0,0,1,31.394,0Z" transform="translate(-3936.184 642.061)" fill="#272428"/>
    <path id="Trazado_117780" data-name="Trazado 117780" d="M31.394,0A31.394,31.394,0,1,1,0,31.394,31.394,31.394,0,0,1,31.394,0Z" transform="translate(-3767.492 642.061)" fill="#989895"/>
    <path id="Trazado_117781" data-name="Trazado 117781" d="M31.394,0A31.394,31.394,0,1,1,0,31.394,31.394,31.394,0,0,1,31.394,0Z" transform="translate(-3680.271 642.061)" fill="#f2d8b2"/>
    <path id="Trazado_117782" data-name="Trazado 117782" d="M31.394,0A31.394,31.394,0,1,1,0,31.394,31.394,31.394,0,0,1,31.394,0Z" transform="translate(-3595.059 642.061)" fill="#d6be95"/>
    <path id="Trazado_117783" data-name="Trazado 117783" d="M31.394,0A31.394,31.394,0,1,1,0,31.394,31.394,31.394,0,0,1,31.394,0Z" transform="translate(-3508.788 642.061)" fill="#714520"/>
    <path id="Trazado_117778" data-name="Trazado 117778" d="M31.394,0A31.394,31.394,0,1,1,0,31.394,31.394,31.394,0,0,1,31.394,0Z" transform="translate(-3851.524 642.061)" fill="#fff" stroke="#d1d1d1" stroke-width="1"/>
    <path id="Trazado_117769" data-name="Trazado 117769" d="M11.188-4.263A4.528,4.528,0,0,1,9.664-1.011,5.355,5.355,0,0,1,6.038.176,4.816,4.816,0,0,1,2.167-1.481,6.793,6.793,0,0,1,.756-6.029v-.782a7.671,7.671,0,0,1,.65-3.252,4.874,4.874,0,0,1,1.859-2.158,5.207,5.207,0,0,1,2.808-.751,5.217,5.217,0,0,1,3.568,1.187,4.866,4.866,0,0,1,1.564,3.331H8.569a2.673,2.673,0,0,0-.69-1.8,2.555,2.555,0,0,0-1.806-.558A2.24,2.24,0,0,0,4.1-9.866a5.3,5.3,0,0,0-.672,2.931v.967a5.667,5.667,0,0,0,.628,3.032,2.2,2.2,0,0,0,1.982.958,2.6,2.6,0,0,0,1.824-.558,2.521,2.521,0,0,0,.69-1.727ZM23.432-6.108a7.725,7.725,0,0,1-.668,3.313A5.03,5.03,0,0,1,20.852-.6,5.288,5.288,0,0,1,18,.176a5.324,5.324,0,0,1-2.839-.765,5.08,5.08,0,0,1-1.934-2.184,7.5,7.5,0,0,1-.694-3.265v-.633A7.685,7.685,0,0,1,13.214-10,5.072,5.072,0,0,1,15.139-12.2a5.3,5.3,0,0,1,2.843-.769,5.3,5.3,0,0,1,2.843.769A5.072,5.072,0,0,1,22.75-10a7.663,7.663,0,0,1,.681,3.318Zm-2.672-.58a5.385,5.385,0,0,0-.721-3.059,2.349,2.349,0,0,0-2.057-1.046A2.349,2.349,0,0,0,15.935-9.76a5.324,5.324,0,0,0-.729,3.028v.624a5.453,5.453,0,0,0,.721,3.041A2.342,2.342,0,0,0,18-1.986a2.321,2.321,0,0,0,2.039-1.042,5.421,5.421,0,0,0,.721-3.037Zm7.225,4.57h5.6V0H25.348V-12.8h2.637Zm17.06-3.99a7.725,7.725,0,0,1-.668,3.313A5.03,5.03,0,0,1,42.464-.6a5.288,5.288,0,0,1-2.852.773,5.324,5.324,0,0,1-2.839-.765A5.08,5.08,0,0,1,34.84-2.773a7.5,7.5,0,0,1-.694-3.265v-.633A7.685,7.685,0,0,1,34.827-10,5.072,5.072,0,0,1,36.751-12.2a5.3,5.3,0,0,1,2.843-.769,5.3,5.3,0,0,1,2.843.769A5.072,5.072,0,0,1,44.363-10a7.663,7.663,0,0,1,.681,3.318Zm-2.672-.58a5.385,5.385,0,0,0-.721-3.059,2.349,2.349,0,0,0-2.057-1.046A2.349,2.349,0,0,0,37.547-9.76a5.324,5.324,0,0,0-.729,3.028v.624a5.453,5.453,0,0,0,.721,3.041,2.342,2.342,0,0,0,2.074,1.081,2.321,2.321,0,0,0,2.039-1.042,5.421,5.421,0,0,0,.721-3.037Zm9.325,2H49.6V0H46.96V-12.8h4.755a5.375,5.375,0,0,1,3.5,1.011,3.488,3.488,0,0,1,1.23,2.856,3.937,3.937,0,0,1-.567,2.184,3.866,3.866,0,0,1-1.718,1.393L56.927-.123V0H54.1ZM49.6-6.82h2.127a2.178,2.178,0,0,0,1.538-.505,1.806,1.806,0,0,0,.545-1.393,1.933,1.933,0,0,0-.514-1.424,2.137,2.137,0,0,0-1.578-.519H49.6Zm16.55,1.274H61.084v3.428h5.941V0H58.447V-12.8h8.561v2.136H61.084v3.05h5.063Zm9.062,2.188A1.353,1.353,0,0,0,74.681-4.5a6.917,6.917,0,0,0-1.9-.844,13.458,13.458,0,0,1-2.171-.875A3.547,3.547,0,0,1,68.432-9.4a3.09,3.09,0,0,1,.584-1.85,3.812,3.812,0,0,1,1.679-1.27,6.318,6.318,0,0,1,2.457-.457,5.751,5.751,0,0,1,2.443.5,3.891,3.891,0,0,1,1.666,1.4,3.668,3.668,0,0,1,.593,2.057H75.217a1.726,1.726,0,0,0-.554-1.367,2.276,2.276,0,0,0-1.556-.488,2.432,2.432,0,0,0-1.5.409,1.289,1.289,0,0,0-.536,1.077A1.235,1.235,0,0,0,71.7-8.341a7.1,7.1,0,0,0,1.85.791,7.994,7.994,0,0,1,3.278,1.679,3.343,3.343,0,0,1,1.028,2.5A3.08,3.08,0,0,1,76.6-.769a5.5,5.5,0,0,1-3.384.945,6.534,6.534,0,0,1-2.689-.541,4.256,4.256,0,0,1-1.85-1.481,3.793,3.793,0,0,1-.637-2.18h2.646q0,2.118,2.531,2.118a2.462,2.462,0,0,0,1.468-.382A1.244,1.244,0,0,0,75.208-3.357Zm18.958-.905a4.528,4.528,0,0,1-1.525,3.252A5.355,5.355,0,0,1,89.016.176a4.816,4.816,0,0,1-3.872-1.657,6.793,6.793,0,0,1-1.411-4.548v-.782a7.671,7.671,0,0,1,.65-3.252,4.874,4.874,0,0,1,1.859-2.158,5.207,5.207,0,0,1,2.808-.751,5.217,5.217,0,0,1,3.568,1.187,4.866,4.866,0,0,1,1.564,3.331H91.547a2.673,2.673,0,0,0-.69-1.8,2.555,2.555,0,0,0-1.806-.558,2.24,2.24,0,0,0-1.973.945,5.3,5.3,0,0,0-.672,2.931v.967a5.667,5.667,0,0,0,.628,3.032,2.2,2.2,0,0,0,1.982.958,2.6,2.6,0,0,0,1.824-.558,2.521,2.521,0,0,0,.69-1.727Zm8.956,1.626H98.5L97.62,0h-2.8L99.58-12.8h2.443L106.813,0h-2.8ZM99.211-4.772h3.2L100.8-9.562Zm11.435,2.654h5.6V0h-8.235V-12.8h2.637ZM120.56,0h-2.637V-12.8h2.637ZM123,0V-12.8h3.938a5.98,5.98,0,0,1,3.019.76,5.3,5.3,0,0,1,2.079,2.162,6.669,6.669,0,0,1,.747,3.186V-6.1a6.688,6.688,0,0,1-.734,3.173,5.256,5.256,0,0,1-2.07,2.153A6.025,6.025,0,0,1,126.967,0Zm2.637-10.661v8.543h1.274a2.863,2.863,0,0,0,2.364-1.011,4.567,4.567,0,0,0,.835-2.892V-6.7a4.64,4.64,0,0,0-.809-2.958,2.854,2.854,0,0,0-2.364-1.006Zm19.573,4.553a7.725,7.725,0,0,1-.668,3.313,5.03,5.03,0,0,1-1.912,2.2,5.288,5.288,0,0,1-2.852.773,5.324,5.324,0,0,1-2.839-.765,5.08,5.08,0,0,1-1.934-2.184,7.5,7.5,0,0,1-.694-3.265v-.633A7.685,7.685,0,0,1,135-10,5.072,5.072,0,0,1,136.92-12.2a5.3,5.3,0,0,1,2.843-.769,5.3,5.3,0,0,1,2.843.769A5.072,5.072,0,0,1,144.532-10a7.663,7.663,0,0,1,.681,3.318Zm-2.672-.58a5.385,5.385,0,0,0-.721-3.059,2.349,2.349,0,0,0-2.057-1.046,2.349,2.349,0,0,0-2.048,1.033,5.324,5.324,0,0,0-.729,3.028v.624a5.453,5.453,0,0,0,.721,3.041,2.342,2.342,0,0,0,2.074,1.081,2.321,2.321,0,0,0,2.039-1.042,5.421,5.421,0,0,0,.721-3.037Zm11.224,3.331a1.353,1.353,0,0,0-.527-1.147,6.917,6.917,0,0,0-1.9-.844,13.458,13.458,0,0,1-2.171-.875,3.547,3.547,0,0,1-2.18-3.173,3.09,3.09,0,0,1,.584-1.85,3.812,3.812,0,0,1,1.679-1.27,6.318,6.318,0,0,1,2.457-.457,5.751,5.751,0,0,1,2.443.5,3.891,3.891,0,0,1,1.666,1.4,3.668,3.668,0,0,1,.593,2.057h-2.637a1.726,1.726,0,0,0-.554-1.367,2.276,2.276,0,0,0-1.556-.488,2.432,2.432,0,0,0-1.5.409,1.289,1.289,0,0,0-.536,1.077,1.235,1.235,0,0,0,.628,1.046,7.1,7.1,0,0,0,1.85.791,7.994,7.994,0,0,1,3.278,1.679,3.343,3.343,0,0,1,1.028,2.5,3.08,3.08,0,0,1-1.257,2.606,5.5,5.5,0,0,1-3.384.945,6.534,6.534,0,0,1-2.689-.541,4.256,4.256,0,0,1-1.85-1.481,3.793,3.793,0,0,1-.637-2.18h2.646q0,2.118,2.531,2.118a2.462,2.462,0,0,0,1.468-.382A1.244,1.244,0,0,0,153.765-3.357Z" transform="translate(-4436.036 605.437)" fill="#ee3232"/>
    <path id="Trazado_117774" data-name="Trazado 117774" d="M11.188-4.263A4.528,4.528,0,0,1,9.664-1.011,5.355,5.355,0,0,1,6.038.176,4.816,4.816,0,0,1,2.167-1.481,6.793,6.793,0,0,1,.756-6.029v-.782a7.671,7.671,0,0,1,.65-3.252,4.874,4.874,0,0,1,1.859-2.158,5.207,5.207,0,0,1,2.808-.751,5.217,5.217,0,0,1,3.568,1.187,4.866,4.866,0,0,1,1.564,3.331H8.569a2.673,2.673,0,0,0-.69-1.8,2.555,2.555,0,0,0-1.806-.558A2.24,2.24,0,0,0,4.1-9.866a5.3,5.3,0,0,0-.672,2.931v.967a5.667,5.667,0,0,0,.628,3.032,2.2,2.2,0,0,0,1.982.958,2.6,2.6,0,0,0,1.824-.558,2.521,2.521,0,0,0,.69-1.727ZM23.432-6.108a7.725,7.725,0,0,1-.668,3.313A5.03,5.03,0,0,1,20.852-.6,5.288,5.288,0,0,1,18,.176a5.324,5.324,0,0,1-2.839-.765,5.08,5.08,0,0,1-1.934-2.184,7.5,7.5,0,0,1-.694-3.265v-.633A7.685,7.685,0,0,1,13.214-10,5.072,5.072,0,0,1,15.139-12.2a5.3,5.3,0,0,1,2.843-.769,5.3,5.3,0,0,1,2.843.769A5.072,5.072,0,0,1,22.75-10a7.663,7.663,0,0,1,.681,3.318Zm-2.672-.58a5.385,5.385,0,0,0-.721-3.059,2.349,2.349,0,0,0-2.057-1.046A2.349,2.349,0,0,0,15.935-9.76a5.324,5.324,0,0,0-.729,3.028v.624a5.453,5.453,0,0,0,.721,3.041A2.342,2.342,0,0,0,18-1.986a2.321,2.321,0,0,0,2.039-1.042,5.421,5.421,0,0,0,.721-3.037Zm7.225,4.57h5.6V0H25.348V-12.8h2.637Zm17.06-3.99a7.725,7.725,0,0,1-.668,3.313A5.03,5.03,0,0,1,42.464-.6a5.288,5.288,0,0,1-2.852.773,5.324,5.324,0,0,1-2.839-.765A5.08,5.08,0,0,1,34.84-2.773a7.5,7.5,0,0,1-.694-3.265v-.633A7.685,7.685,0,0,1,34.827-10,5.072,5.072,0,0,1,36.751-12.2a5.3,5.3,0,0,1,2.843-.769,5.3,5.3,0,0,1,2.843.769A5.072,5.072,0,0,1,44.363-10a7.663,7.663,0,0,1,.681,3.318Zm-2.672-.58a5.385,5.385,0,0,0-.721-3.059,2.349,2.349,0,0,0-2.057-1.046A2.349,2.349,0,0,0,37.547-9.76a5.324,5.324,0,0,0-.729,3.028v.624a5.453,5.453,0,0,0,.721,3.041,2.342,2.342,0,0,0,2.074,1.081,2.321,2.321,0,0,0,2.039-1.042,5.421,5.421,0,0,0,.721-3.037Zm9.325,2H49.6V0H46.96V-12.8h4.755a5.375,5.375,0,0,1,3.5,1.011,3.488,3.488,0,0,1,1.23,2.856,3.937,3.937,0,0,1-.567,2.184,3.866,3.866,0,0,1-1.718,1.393L56.927-.123V0H54.1ZM49.6-6.82h2.127a2.178,2.178,0,0,0,1.538-.505,1.806,1.806,0,0,0,.545-1.393,1.933,1.933,0,0,0-.514-1.424,2.137,2.137,0,0,0-1.578-.519H49.6Zm16.55,1.274H61.084v3.428h5.941V0H58.447V-12.8h8.561v2.136H61.084v3.05h5.063Zm9.062,2.188A1.353,1.353,0,0,0,74.681-4.5a6.917,6.917,0,0,0-1.9-.844,13.458,13.458,0,0,1-2.171-.875A3.547,3.547,0,0,1,68.432-9.4a3.09,3.09,0,0,1,.584-1.85,3.812,3.812,0,0,1,1.679-1.27,6.318,6.318,0,0,1,2.457-.457,5.751,5.751,0,0,1,2.443.5,3.891,3.891,0,0,1,1.666,1.4,3.668,3.668,0,0,1,.593,2.057H75.217a1.726,1.726,0,0,0-.554-1.367,2.276,2.276,0,0,0-1.556-.488,2.432,2.432,0,0,0-1.5.409,1.289,1.289,0,0,0-.536,1.077A1.235,1.235,0,0,0,71.7-8.341a7.1,7.1,0,0,0,1.85.791,7.994,7.994,0,0,1,3.278,1.679,3.343,3.343,0,0,1,1.028,2.5A3.08,3.08,0,0,1,76.6-.769a5.5,5.5,0,0,1-3.384.945,6.534,6.534,0,0,1-2.689-.541,4.256,4.256,0,0,1-1.85-1.481,3.793,3.793,0,0,1-.637-2.18h2.646q0,2.118,2.531,2.118a2.462,2.462,0,0,0,1.468-.382A1.244,1.244,0,0,0,75.208-3.357ZM91.819-5.229H86.757V0H84.12V-12.8h8.332v2.136h-5.7v3.3h5.063Zm6.9.545h-2.1V0H93.981V-12.8h4.755a5.375,5.375,0,0,1,3.5,1.011,3.488,3.488,0,0,1,1.23,2.856,3.937,3.937,0,0,1-.567,2.184,3.866,3.866,0,0,1-1.718,1.393l2.769,5.229V0h-2.83Zm-2.1-2.136h2.127a2.178,2.178,0,0,0,1.538-.505,1.806,1.806,0,0,0,.545-1.393,1.933,1.933,0,0,0-.514-1.424,2.137,2.137,0,0,0-1.578-.519H96.618ZM108.272,0h-2.637V-12.8h2.637Zm12.955-6.108a7.725,7.725,0,0,1-.668,3.313,5.03,5.03,0,0,1-1.912,2.2A5.288,5.288,0,0,1,115.8.176a5.324,5.324,0,0,1-2.839-.765,5.08,5.08,0,0,1-1.934-2.184,7.5,7.5,0,0,1-.694-3.265v-.633A7.685,7.685,0,0,1,111.01-10a5.072,5.072,0,0,1,1.925-2.206,5.3,5.3,0,0,1,2.843-.769,5.3,5.3,0,0,1,2.843.769A5.072,5.072,0,0,1,120.546-10a7.663,7.663,0,0,1,.681,3.318Zm-2.672-.58a5.385,5.385,0,0,0-.721-3.059,2.349,2.349,0,0,0-2.057-1.046A2.349,2.349,0,0,0,113.73-9.76,5.324,5.324,0,0,0,113-6.732v.624a5.453,5.453,0,0,0,.721,3.041A2.342,2.342,0,0,0,115.8-1.986a2.321,2.321,0,0,0,2.039-1.042,5.421,5.421,0,0,0,.721-3.037Zm11.224,3.331a1.353,1.353,0,0,0-.527-1.147,6.917,6.917,0,0,0-1.9-.844,13.458,13.458,0,0,1-2.171-.875A3.547,3.547,0,0,1,123-9.4a3.09,3.09,0,0,1,.584-1.85,3.812,3.812,0,0,1,1.679-1.27,6.318,6.318,0,0,1,2.457-.457,5.751,5.751,0,0,1,2.443.5,3.891,3.891,0,0,1,1.666,1.4,3.668,3.668,0,0,1,.593,2.057h-2.637a1.726,1.726,0,0,0-.554-1.367,2.276,2.276,0,0,0-1.556-.488,2.432,2.432,0,0,0-1.5.409,1.289,1.289,0,0,0-.536,1.077,1.235,1.235,0,0,0,.628,1.046,7.1,7.1,0,0,0,1.85.791A7.994,7.994,0,0,1,131.4-5.871a3.343,3.343,0,0,1,1.028,2.5,3.08,3.08,0,0,1-1.257,2.606,5.5,5.5,0,0,1-3.384.945,6.534,6.534,0,0,1-2.689-.541,4.256,4.256,0,0,1-1.85-1.481,3.793,3.793,0,0,1-.637-2.18h2.646q0,2.118,2.531,2.118a2.462,2.462,0,0,0,1.468-.382A1.244,1.244,0,0,0,129.779-3.357Z" transform="translate(-4099 605.437)" fill="#1744a3"/>
    <path id="Trazado_117779" data-name="Trazado 117779" d="M11.188-4.263A4.528,4.528,0,0,1,9.664-1.011,5.355,5.355,0,0,1,6.038.176,4.816,4.816,0,0,1,2.167-1.481,6.793,6.793,0,0,1,.756-6.029v-.782a7.671,7.671,0,0,1,.65-3.252,4.874,4.874,0,0,1,1.859-2.158,5.207,5.207,0,0,1,2.808-.751,5.217,5.217,0,0,1,3.568,1.187,4.866,4.866,0,0,1,1.564,3.331H8.569a2.673,2.673,0,0,0-.69-1.8,2.555,2.555,0,0,0-1.806-.558A2.24,2.24,0,0,0,4.1-9.866a5.3,5.3,0,0,0-.672,2.931v.967a5.667,5.667,0,0,0,.628,3.032,2.2,2.2,0,0,0,1.982.958,2.6,2.6,0,0,0,1.824-.558,2.521,2.521,0,0,0,.69-1.727ZM23.432-6.108a7.725,7.725,0,0,1-.668,3.313A5.03,5.03,0,0,1,20.852-.6,5.288,5.288,0,0,1,18,.176a5.324,5.324,0,0,1-2.839-.765,5.08,5.08,0,0,1-1.934-2.184,7.5,7.5,0,0,1-.694-3.265v-.633A7.685,7.685,0,0,1,13.214-10,5.072,5.072,0,0,1,15.139-12.2a5.3,5.3,0,0,1,2.843-.769,5.3,5.3,0,0,1,2.843.769A5.072,5.072,0,0,1,22.75-10a7.663,7.663,0,0,1,.681,3.318Zm-2.672-.58a5.385,5.385,0,0,0-.721-3.059,2.349,2.349,0,0,0-2.057-1.046A2.349,2.349,0,0,0,15.935-9.76a5.324,5.324,0,0,0-.729,3.028v.624a5.453,5.453,0,0,0,.721,3.041A2.342,2.342,0,0,0,18-1.986a2.321,2.321,0,0,0,2.039-1.042,5.421,5.421,0,0,0,.721-3.037Zm7.225,4.57h5.6V0H25.348V-12.8h2.637Zm17.06-3.99a7.725,7.725,0,0,1-.668,3.313A5.03,5.03,0,0,1,42.464-.6a5.288,5.288,0,0,1-2.852.773,5.324,5.324,0,0,1-2.839-.765A5.08,5.08,0,0,1,34.84-2.773a7.5,7.5,0,0,1-.694-3.265v-.633A7.685,7.685,0,0,1,34.827-10,5.072,5.072,0,0,1,36.751-12.2a5.3,5.3,0,0,1,2.843-.769,5.3,5.3,0,0,1,2.843.769A5.072,5.072,0,0,1,44.363-10a7.663,7.663,0,0,1,.681,3.318Zm-2.672-.58a5.385,5.385,0,0,0-.721-3.059,2.349,2.349,0,0,0-2.057-1.046A2.349,2.349,0,0,0,37.547-9.76a5.324,5.324,0,0,0-.729,3.028v.624a5.453,5.453,0,0,0,.721,3.041,2.342,2.342,0,0,0,2.074,1.081,2.321,2.321,0,0,0,2.039-1.042,5.421,5.421,0,0,0,.721-3.037Zm9.325,2H49.6V0H46.96V-12.8h4.755a5.375,5.375,0,0,1,3.5,1.011,3.488,3.488,0,0,1,1.23,2.856,3.937,3.937,0,0,1-.567,2.184,3.866,3.866,0,0,1-1.718,1.393L56.927-.123V0H54.1ZM49.6-6.82h2.127a2.178,2.178,0,0,0,1.538-.505,1.806,1.806,0,0,0,.545-1.393,1.933,1.933,0,0,0-.514-1.424,2.137,2.137,0,0,0-1.578-.519H49.6Zm16.55,1.274H61.084v3.428h5.941V0H58.447V-12.8h8.561v2.136H61.084v3.05h5.063Zm9.062,2.188A1.353,1.353,0,0,0,74.681-4.5a6.917,6.917,0,0,0-1.9-.844,13.458,13.458,0,0,1-2.171-.875A3.547,3.547,0,0,1,68.432-9.4a3.09,3.09,0,0,1,.584-1.85,3.812,3.812,0,0,1,1.679-1.27,6.318,6.318,0,0,1,2.457-.457,5.751,5.751,0,0,1,2.443.5,3.891,3.891,0,0,1,1.666,1.4,3.668,3.668,0,0,1,.593,2.057H75.217a1.726,1.726,0,0,0-.554-1.367,2.276,2.276,0,0,0-1.556-.488,2.432,2.432,0,0,0-1.5.409,1.289,1.289,0,0,0-.536,1.077A1.235,1.235,0,0,0,71.7-8.341a7.1,7.1,0,0,0,1.85.791,7.994,7.994,0,0,1,3.278,1.679,3.343,3.343,0,0,1,1.028,2.5A3.08,3.08,0,0,1,76.6-.769a5.5,5.5,0,0,1-3.384.945,6.534,6.534,0,0,1-2.689-.541,4.256,4.256,0,0,1-1.85-1.481,3.793,3.793,0,0,1-.637-2.18h2.646q0,2.118,2.531,2.118a2.462,2.462,0,0,0,1.468-.382A1.244,1.244,0,0,0,75.208-3.357ZM94.526,0H91.89L86.757-8.42V0H84.12V-12.8h2.637L91.9-4.359V-12.8h2.628Zm10-5.546H99.466v3.428h5.941V0H96.829V-12.8h8.561v2.136H99.466v3.05h5.063ZM116.64-12.8v8.429a4.315,4.315,0,0,1-1.314,3.322,5.066,5.066,0,0,1-3.59,1.222,5.123,5.123,0,0,1-3.56-1.187,4.242,4.242,0,0,1-1.345-3.261V-12.8h2.637v8.446a2.438,2.438,0,0,0,.6,1.833,2.311,2.311,0,0,0,1.666.576q2.224,0,2.259-2.338V-12.8Zm11.795,2.136h-3.92V0h-2.637V-10.661h-3.867V-12.8h10.424Zm6.24,5.977h-2.1V0h-2.637V-12.8h4.755a5.375,5.375,0,0,1,3.5,1.011,3.488,3.488,0,0,1,1.23,2.856,3.937,3.937,0,0,1-.567,2.184,3.866,3.866,0,0,1-1.718,1.393L139.9-.123V0h-2.83Zm-2.1-2.136H134.7a2.178,2.178,0,0,0,1.538-.505,1.806,1.806,0,0,0,.545-1.393,1.933,1.933,0,0,0-.514-1.424,2.137,2.137,0,0,0-1.578-.519h-2.118Zm19.362.712a7.725,7.725,0,0,1-.668,3.313,5.03,5.03,0,0,1-1.912,2.2A5.288,5.288,0,0,1,146.5.176a5.324,5.324,0,0,1-2.839-.765,5.08,5.08,0,0,1-1.934-2.184,7.5,7.5,0,0,1-.694-3.265v-.633A7.685,7.685,0,0,1,141.719-10a5.072,5.072,0,0,1,1.925-2.206,5.3,5.3,0,0,1,2.843-.769,5.3,5.3,0,0,1,2.843.769A5.072,5.072,0,0,1,151.255-10a7.663,7.663,0,0,1,.681,3.318Zm-2.672-.58a5.385,5.385,0,0,0-.721-3.059,2.349,2.349,0,0,0-2.057-1.046,2.349,2.349,0,0,0-2.048,1.033,5.324,5.324,0,0,0-.729,3.028v.624a5.453,5.453,0,0,0,.721,3.041A2.342,2.342,0,0,0,146.5-1.986a2.321,2.321,0,0,0,2.039-1.042,5.421,5.421,0,0,0,.721-3.037Zm11.224,3.331a1.353,1.353,0,0,0-.527-1.147,6.917,6.917,0,0,0-1.9-.844,13.458,13.458,0,0,1-2.171-.875,3.547,3.547,0,0,1-2.18-3.173,3.09,3.09,0,0,1,.584-1.85,3.812,3.812,0,0,1,1.679-1.27,6.318,6.318,0,0,1,2.457-.457,5.751,5.751,0,0,1,2.443.5,3.891,3.891,0,0,1,1.666,1.4,3.668,3.668,0,0,1,.593,2.057H160.5a1.726,1.726,0,0,0-.554-1.367,2.276,2.276,0,0,0-1.556-.488,2.432,2.432,0,0,0-1.5.409,1.289,1.289,0,0,0-.536,1.077,1.235,1.235,0,0,0,.628,1.046,7.1,7.1,0,0,0,1.85.791,7.994,7.994,0,0,1,3.278,1.679,3.343,3.343,0,0,1,1.028,2.5,3.08,3.08,0,0,1-1.257,2.606,5.5,5.5,0,0,1-3.384.945A6.534,6.534,0,0,1,155.8-.365a4.256,4.256,0,0,1-1.85-1.481,3.793,3.793,0,0,1-.637-2.18h2.646q0,2.118,2.531,2.118a2.462,2.462,0,0,0,1.468-.382A1.244,1.244,0,0,0,160.488-3.357Z" transform="translate(-3694 605.437)" fill="#272428"/>
    <path id="Trazado_117763" data-name="Trazado 117763" d="M207.9,12374.564" transform="translate(-4663.458 -11744.102)" fill="none"/>
    <path id="Trazado_117770" data-name="Trazado 117770" d="M40.392,0A40.392,40.392,0,1,1,0,40.392,40.392,40.392,0,0,1,40.392,0Z" transform="translate(-4464.554 633.063)" fill="none" stroke="#b1b1b1" stroke-width="2.929"/>
    <path id="Trazado_117776" data-name="Trazado 117776" d="M0,0V22.646" transform="translate(-3944.473 582.791)" fill="#1744a3"/>
    <path id="Trazado_117772" data-name="Trazado 117772" d="M0,0V22.646" transform="translate(-4199.999 582.791)" fill="#1744a3"/>
  </g>
</svg>
