<svg xmlns="http://www.w3.org/2000/svg" width="292" height="255" viewBox="0 0 292 255">
  <g id="Grupo_73298" data-name="Grupo 73298" transform="translate(7408 6454)">
    <path id="Trazado_117694" data-name="Trazado 117694" d="M20,0H272a20,20,0,0,1,20,20V235a20,20,0,0,1-20,20H20A20,20,0,0,1,0,235V20A20,20,0,0,1,20,0Z" transform="translate(-7408 -6454)" fill="#f6f6f6"/>
    <path id="Trazado_117705" data-name="Trazado 117705" d="M70.554,0A70.554,70.554,0,1,1,0,70.554,70.554,70.554,0,0,1,70.554,0Z" transform="translate(-7290.352 -6425)" fill="#ff9b53"/>
    <path id="Trazado_117706" data-name="Trazado 117706" d="M70.554,0A70.554,70.554,0,1,1,0,70.554,70.554,70.554,0,0,1,70.554,0Z" transform="translate(-7362.755 -6425)" fill="#ff5454"/>
    <g id="Grupo_9984" data-name="Grupo 9984" transform="translate(-7976 -11883.238)">
      <path id="Trazado_7062" data-name="Trazado 7062" d="M663.815,5624.912v4.75h-1.434V5618.24h3.383a5.641,5.641,0,0,1,3.352.8,2.822,2.822,0,0,1,1.083,2.422,3.072,3.072,0,0,1-2.479,3.062l3.348,5.133h-1.7l-2.985-4.75Zm0-1.141h1.965a3.6,3.6,0,0,0,2.227-.558,2,2,0,0,0,.708-1.676,1.845,1.845,0,0,0-.721-1.633,4.154,4.154,0,0,0-2.315-.5h-1.864Z" fill="#14233a"/>
      <path id="Trazado_7063" data-name="Trazado 7063" d="M680.827,5625.373a4.508,4.508,0,0,1-1.138,3.269,4.176,4.176,0,0,1-3.147,1.176,4.424,4.424,0,0,1-2.2-.539,3.658,3.658,0,0,1-1.484-1.547,5.049,5.049,0,0,1-.524-2.359,4.494,4.494,0,0,1,1.131-3.262,4.165,4.165,0,0,1,3.138-1.168,4.065,4.065,0,0,1,3.082,1.2A4.486,4.486,0,0,1,680.827,5625.373Zm-7.043,0a3.853,3.853,0,0,0,.708,2.5,2.966,2.966,0,0,0,4.171,0,3.823,3.823,0,0,0,.713-2.5,3.763,3.763,0,0,0-.713-2.481,2.592,2.592,0,0,0-2.1-.847,2.553,2.553,0,0,0-2.075.836A3.807,3.807,0,0,0,673.784,5625.373Z" fill="#14233a"/>
      <path id="Trazado_7064" data-name="Trazado 7064" d="M682.159,5633.506a3.62,3.62,0,0,1-1.3-.2v-1.054a4.465,4.465,0,0,0,1.148.156,1.264,1.264,0,0,0,.966-.332,1.449,1.449,0,0,0,.307-1.012V5621.1h1.4v9.875A2.234,2.234,0,0,1,682.159,5633.506Zm1-14.727a.817.817,0,0,1,.237-.652.925.925,0,0,1,1.171,0,.809.809,0,0,1,.246.648.823.823,0,0,1-.246.652.847.847,0,0,1-.582.215.782.782,0,0,1-.826-.867Z" fill="#14233a"/>
      <path id="Trazado_7065" data-name="Trazado 7065" d="M695.629,5625.373a4.5,4.5,0,0,1-1.139,3.269,4.169,4.169,0,0,1-3.145,1.176,4.419,4.419,0,0,1-2.2-.539,3.662,3.662,0,0,1-1.486-1.547,5.061,5.061,0,0,1-.522-2.359,4.5,4.5,0,0,1,1.13-3.262,4.167,4.167,0,0,1,3.137-1.168,4.066,4.066,0,0,1,3.083,1.2A4.486,4.486,0,0,1,695.629,5625.373Zm-7.043,0a3.841,3.841,0,0,0,.709,2.5,2.966,2.966,0,0,0,4.171,0,3.829,3.829,0,0,0,.713-2.5,3.768,3.768,0,0,0-.713-2.481,2.6,2.6,0,0,0-2.1-.847,2.552,2.552,0,0,0-2.075.836A3.8,3.8,0,0,0,688.586,5625.373Z" fill="#14233a"/>
      <path id="Trazado_7066" data-name="Trazado 7066" d="M706.594,5623.482h3.474v1.078h-3.474v3.328h-1.172v-3.328h-3.459v-1.078h3.459v-3.344h1.172Z" fill="#14233a"/>
      <path id="Trazado_7067" data-name="Trazado 7067" d="M726.776,5629.662h-1.635l-6.74-9.586h-.067q.135,1.688.135,3.094v6.492h-1.324V5618.24h1.619l6.722,9.547h.068c-.012-.141-.036-.593-.076-1.356s-.053-1.308-.042-1.636v-6.555h1.34Z" fill="#14233a"/>
      <path id="Trazado_7068" data-name="Trazado 7068" d="M735.642,5629.662l-.279-1.219H735.3a3.844,3.844,0,0,1-1.379,1.09,4.524,4.524,0,0,1-1.717.285,3.252,3.252,0,0,1-2.155-.656,2.308,2.308,0,0,1-.779-1.867q0-2.595,4.478-2.719l1.569-.047V5624a2.067,2.067,0,0,0-.468-1.488,2.017,2.017,0,0,0-1.5-.481,6.489,6.489,0,0,0-2.615.656l-.43-.992a6.9,6.9,0,0,1,1.5-.539,6.994,6.994,0,0,1,1.632-.195,3.712,3.712,0,0,1,2.45.679,2.718,2.718,0,0,1,.8,2.18v5.844Zm-3.163-.914a2.981,2.981,0,0,0,2.053-.664,2.359,2.359,0,0,0,.747-1.86v-.773l-1.4.055a5.429,5.429,0,0,0-2.408.48,1.424,1.424,0,0,0-.738,1.324,1.292,1.292,0,0,0,.459,1.071A2.013,2.013,0,0,0,732.479,5628.748Z" fill="#14233a"/>
      <path id="Trazado_7069" data-name="Trazado 7069" d="M743.78,5620.943a5.865,5.865,0,0,1,1.106.094l-.194,1.2a5.138,5.138,0,0,0-1.012-.117,2.543,2.543,0,0,0-1.919.844,2.941,2.941,0,0,0-.8,2.1v4.594h-1.4V5621.1h1.155l.16,1.586h.067a3.882,3.882,0,0,1,1.241-1.289A2.948,2.948,0,0,1,743.78,5620.943Z" fill="#14233a"/>
      <path id="Trazado_7070" data-name="Trazado 7070" d="M752.3,5629.662l-.278-1.219h-.068a3.844,3.844,0,0,1-1.379,1.09,4.517,4.517,0,0,1-1.715.285,3.253,3.253,0,0,1-2.156-.656,2.305,2.305,0,0,1-.78-1.867q0-2.595,4.478-2.719l1.57-.047V5624a2.059,2.059,0,0,0-.469-1.488,2.011,2.011,0,0,0-1.5-.481,6.484,6.484,0,0,0-2.614.656l-.431-.992a7.145,7.145,0,0,1,3.13-.734,3.714,3.714,0,0,1,2.45.679,2.718,2.718,0,0,1,.8,2.18v5.844Zm-3.162-.914a2.989,2.989,0,0,0,2.054-.664,2.362,2.362,0,0,0,.746-1.86v-.773l-1.4.055a5.42,5.42,0,0,0-2.407.48,1.424,1.424,0,0,0-.738,1.324,1.29,1.29,0,0,0,.46,1.071A2,2,0,0,0,749.137,5628.748Z" fill="#14233a"/>
      <path id="Trazado_7071" data-name="Trazado 7071" d="M762.547,5629.662v-5.539a2.128,2.128,0,0,0-.515-1.563,2.2,2.2,0,0,0-1.611-.515,2.776,2.776,0,0,0-2.125.726,3.474,3.474,0,0,0-.675,2.4v4.492h-1.4V5621.1h1.138l.228,1.172h.068a2.8,2.8,0,0,1,1.206-.98,4.176,4.176,0,0,1,1.729-.348,3.7,3.7,0,0,1,2.514.746,3.035,3.035,0,0,1,.843,2.387v5.586Z" fill="#14233a"/>
      <path id="Trazado_7072" data-name="Trazado 7072" d="M765.7,5633.506a3.62,3.62,0,0,1-1.3-.2v-1.054a4.465,4.465,0,0,0,1.148.156,1.264,1.264,0,0,0,.966-.332,1.449,1.449,0,0,0,.307-1.012V5621.1h1.4v9.875A2.234,2.234,0,0,1,765.7,5633.506Zm1-14.727a.817.817,0,0,1,.237-.652.925.925,0,0,1,1.171,0,.809.809,0,0,1,.246.648.823.823,0,0,1-.246.652.847.847,0,0,1-.582.215.782.782,0,0,1-.826-.867Z" fill="#14233a"/>
      <path id="Trazado_7073" data-name="Trazado 7073" d="M776.876,5629.662l-.278-1.219h-.068a3.844,3.844,0,0,1-1.379,1.09,4.517,4.517,0,0,1-1.715.285,3.253,3.253,0,0,1-2.156-.656,2.305,2.305,0,0,1-.78-1.867q0-2.595,4.479-2.719l1.569-.047V5624a2.059,2.059,0,0,0-.469-1.488,2.011,2.011,0,0,0-1.5-.481,6.491,6.491,0,0,0-2.614.656l-.431-.992a7.146,7.146,0,0,1,3.13-.734,3.714,3.714,0,0,1,2.45.679,2.714,2.714,0,0,1,.8,2.18v5.844Zm-3.162-.914a2.987,2.987,0,0,0,2.054-.664,2.362,2.362,0,0,0,.746-1.86v-.773l-1.4.055a5.42,5.42,0,0,0-2.407.48,1.424,1.424,0,0,0-.738,1.324,1.29,1.29,0,0,0,.46,1.071A2.006,2.006,0,0,0,773.714,5628.748Z" fill="#14233a"/>
    </g>
    <path id="Trazado_117707" data-name="Trazado 117707" d="M0,0H168.249V19.966H0Z" transform="translate(-7340.125 -6247.388)" fill="#ff673e"/>
    <g id="Grupo_9986" data-name="Grupo 9986" transform="translate(-7976 -11883.238)">
      <path id="Trazado_7074" data-name="Trazado 7074" d="M672.207,5647.274v4.75h-1.433V5640.6h3.381a5.648,5.648,0,0,1,3.353.8,2.823,2.823,0,0,1,1.084,2.422,3.073,3.073,0,0,1-2.48,3.063l3.349,5.133h-1.7l-2.987-4.75Zm0-1.141h1.965a3.589,3.589,0,0,0,2.227-.559,2,2,0,0,0,.709-1.675,1.845,1.845,0,0,0-.722-1.633,4.154,4.154,0,0,0-2.315-.5h-1.864Z"/>
      <path id="Trazado_7075" data-name="Trazado 7075" d="M689.219,5647.735A4.5,4.5,0,0,1,688.08,5651a4.172,4.172,0,0,1-3.145,1.176,4.424,4.424,0,0,1-2.2-.539,3.671,3.671,0,0,1-1.486-1.547,5.063,5.063,0,0,1-.522-2.359,4.5,4.5,0,0,1,1.13-3.262,4.162,4.162,0,0,1,3.137-1.168,4.064,4.064,0,0,1,3.083,1.195A4.486,4.486,0,0,1,689.219,5647.735Zm-7.043,0a3.841,3.841,0,0,0,.709,2.5,2.965,2.965,0,0,0,4.171,0,3.833,3.833,0,0,0,.713-2.5,3.774,3.774,0,0,0-.713-2.481,2.6,2.6,0,0,0-2.105-.848,2.554,2.554,0,0,0-2.075.836A3.806,3.806,0,0,0,682.176,5647.735Z"/>
      <path id="Trazado_7076" data-name="Trazado 7076" d="M690.552,5655.867a3.618,3.618,0,0,1-1.3-.2v-1.055a4.417,4.417,0,0,0,1.147.157,1.258,1.258,0,0,0,.965-.332,1.448,1.448,0,0,0,.308-1.012v-9.969h1.4v9.875A2.232,2.232,0,0,1,690.552,5655.867Zm1-14.726a.826.826,0,0,1,.236-.652.925.925,0,0,1,1.173,0,.811.811,0,0,1,.244.649.821.821,0,0,1-.244.652.908.908,0,0,1-1.173,0A.838.838,0,0,1,691.555,5641.141Z"/>
      <path id="Trazado_7077" data-name="Trazado 7077" d="M704.022,5647.735a4.5,4.5,0,0,1-1.139,3.269,4.178,4.178,0,0,1-3.147,1.176,4.43,4.43,0,0,1-2.2-.539,3.678,3.678,0,0,1-1.484-1.547,5.051,5.051,0,0,1-.524-2.359,4.494,4.494,0,0,1,1.131-3.262,4.163,4.163,0,0,1,3.138-1.168,4.063,4.063,0,0,1,3.082,1.195A4.482,4.482,0,0,1,704.022,5647.735Zm-7.043,0a3.847,3.847,0,0,0,.708,2.5,2.965,2.965,0,0,0,4.171,0,3.827,3.827,0,0,0,.712-2.5,3.768,3.768,0,0,0-.712-2.481,2.594,2.594,0,0,0-2.1-.848,2.553,2.553,0,0,0-2.074.836A3.805,3.805,0,0,0,696.979,5647.735Z"/>
      <path id="Trazado_7078" data-name="Trazado 7078" d="M717.288,5652.024v-5.539a2.134,2.134,0,0,0-.513-1.563,2.2,2.2,0,0,0-1.612-.516,2.779,2.779,0,0,0-2.126.727,3.477,3.477,0,0,0-.674,2.4v4.493h-1.4v-8.563H712.1l.227,1.172h.068a2.8,2.8,0,0,1,1.206-.98,4.176,4.176,0,0,1,1.729-.348,3.7,3.7,0,0,1,2.513.746,3.038,3.038,0,0,1,.844,2.387v5.586Z"/>
      <path id="Trazado_7079" data-name="Trazado 7079" d="M727.249,5652.024l-.278-1.219H726.9a3.829,3.829,0,0,1-1.378,1.09,4.509,4.509,0,0,1-1.717.285,3.255,3.255,0,0,1-2.156-.656,2.309,2.309,0,0,1-.779-1.868q0-2.594,4.479-2.718l1.568-.047v-.531a2.065,2.065,0,0,0-.468-1.489,2.016,2.016,0,0,0-1.5-.48,6.494,6.494,0,0,0-2.615.656l-.43-.992a6.877,6.877,0,0,1,1.5-.539,6.994,6.994,0,0,1,1.632-.2,3.71,3.71,0,0,1,2.45.679,2.715,2.715,0,0,1,.8,2.18v5.844Zm-3.163-.914a2.981,2.981,0,0,0,2.054-.664,2.36,2.36,0,0,0,.747-1.86v-.773l-1.4.054a5.427,5.427,0,0,0-2.408.481,1.422,1.422,0,0,0-.738,1.324,1.286,1.286,0,0,0,.46,1.07A2.007,2.007,0,0,0,724.086,5651.11Z"/>
      <path id="Trazado_7080" data-name="Trazado 7080" d="M735.389,5643.305a5.853,5.853,0,0,1,1.1.094l-.194,1.2a5.13,5.13,0,0,0-1.012-.117,2.548,2.548,0,0,0-1.919.843,2.945,2.945,0,0,0-.8,2.1v4.594h-1.4v-8.563h1.156l.16,1.586h.068a3.891,3.891,0,0,1,1.239-1.289A2.954,2.954,0,0,1,735.389,5643.305Z"/>
      <path id="Trazado_7081" data-name="Trazado 7081" d="M743.906,5652.024l-.278-1.219h-.067a3.831,3.831,0,0,1-1.379,1.09,4.5,4.5,0,0,1-1.716.285,3.249,3.249,0,0,1-2.155-.656,2.3,2.3,0,0,1-.781-1.868q0-2.594,4.479-2.718l1.569-.047v-.531a2.061,2.061,0,0,0-.469-1.489,2.013,2.013,0,0,0-1.5-.48,6.49,6.49,0,0,0-2.614.656l-.431-.992a7.164,7.164,0,0,1,3.13-.734,3.719,3.719,0,0,1,2.451.679,2.718,2.718,0,0,1,.8,2.18v5.844Zm-3.162-.914a2.984,2.984,0,0,0,2.054-.664,2.362,2.362,0,0,0,.746-1.86v-.773l-1.4.054a5.423,5.423,0,0,0-2.408.481,1.422,1.422,0,0,0-.738,1.324,1.286,1.286,0,0,0,.46,1.07A2,2,0,0,0,740.744,5651.11Z"/>
      <path id="Trazado_7082" data-name="Trazado 7082" d="M754.154,5652.024v-5.539a2.129,2.129,0,0,0-.513-1.563,2.2,2.2,0,0,0-1.612-.516,2.782,2.782,0,0,0-2.126.727,3.477,3.477,0,0,0-.673,2.4v4.493h-1.4v-8.563h1.139l.227,1.172h.068a2.8,2.8,0,0,1,1.206-.98,4.18,4.18,0,0,1,1.729-.348,3.693,3.693,0,0,1,2.513.746,3.034,3.034,0,0,1,.844,2.387v5.586Z"/>
      <path id="Trazado_7083" data-name="Trazado 7083" d="M757.31,5655.867a3.618,3.618,0,0,1-1.3-.2v-1.055a4.41,4.41,0,0,0,1.146.157,1.259,1.259,0,0,0,.966-.332,1.448,1.448,0,0,0,.308-1.012v-9.969h1.4v9.875A2.233,2.233,0,0,1,757.31,5655.867Zm1-14.726a.826.826,0,0,1,.236-.652.925.925,0,0,1,1.173,0,.811.811,0,0,1,.244.649.821.821,0,0,1-.244.652.85.85,0,0,1-.582.215.781.781,0,0,1-.827-.867Z"/>
      <path id="Trazado_7084" data-name="Trazado 7084" d="M768.484,5652.024l-.278-1.219h-.067a3.831,3.831,0,0,1-1.379,1.09,4.5,4.5,0,0,1-1.717.285,3.25,3.25,0,0,1-2.155-.656,2.305,2.305,0,0,1-.779-1.868q0-2.594,4.478-2.718l1.568-.047v-.531a2.069,2.069,0,0,0-.467-1.489,2.019,2.019,0,0,0-1.5-.48,6.494,6.494,0,0,0-2.616.656l-.429-.992a6.876,6.876,0,0,1,1.5-.539,6.994,6.994,0,0,1,1.632-.2,3.714,3.714,0,0,1,2.45.679,2.718,2.718,0,0,1,.8,2.18v5.844Zm-3.163-.914a2.981,2.981,0,0,0,2.054-.664,2.36,2.36,0,0,0,.747-1.86v-.773l-1.4.054a5.426,5.426,0,0,0-2.408.481,1.421,1.421,0,0,0-.739,1.324,1.289,1.289,0,0,0,.46,1.07A2.009,2.009,0,0,0,765.321,5651.11Z"/>
    </g>
    <path id="Trazado_117710" data-name="Trazado 117710" d="M34.352,0C53.324,0,68.7,27.113,68.7,60.559s-15.38,60.559-34.352,60.559S0,94.006,0,60.559,15.38,0,34.352,0Z" transform="translate(-7290.352 -6415.006)" fill="#ff673e"/>
  </g>
</svg>
