<svg xmlns="http://www.w3.org/2000/svg" width="396" height="122.456" viewBox="0 0 396 122.456">
  <g id="Grupo_73308" data-name="Grupo 73308" transform="translate(7599 4555.698)">
    <path id="Trazado_117726" data-name="Trazado 117726" d="M26,0H370a26,26,0,0,1,26,26V52.482H0V26A26,26,0,0,1,26,0Z" transform="translate(-7599 -4516.842)" fill="#fff"/>
    <path id="Trazado_117728" data-name="Trazado 117728" d="M47.229,0A47.229,47.229,0,1,1,0,47.229,47.229,47.229,0,0,1,47.229,0Z" transform="translate(-7446.731 -4540.63)" fill="#fff"/>
    <g id="Grupo_73300" data-name="Grupo 73300" transform="translate(-8119.364 -10614.446)">
      <g id="Grupo_10596" data-name="Grupo 10596">
        <g id="Grupo_10595" data-name="Grupo 10595">
          <g id="Grupo_10572" data-name="Grupo 10572">
            <g id="Grupo_10571" data-name="Grupo 10571">
              <path id="Trazado_10747" data-name="Trazado 10747" d="M779.3,6104.132a60.946,60.946,0,0,1,.01,31.689l-.01,0-17.732-4.751a42.654,42.654,0,0,0-.008-22.183Z" fill="#009d7e"/>
            </g>
          </g>
          <g id="Grupo_10574" data-name="Grupo 10574">
            <g id="Grupo_10573" data-name="Grupo 10573">
              <path id="Trazado_10748" data-name="Trazado 10748" d="M779.3,6135.819l.01,0a61.514,61.514,0,0,1-15.847,27.446l-.007-.008-12.98-12.979a43.048,43.048,0,0,0,11.092-19.212Z" fill="#0059a8"/>
            </g>
          </g>
          <g id="Grupo_10576" data-name="Grupo 10576">
            <g id="Grupo_10575" data-name="Grupo 10575">
              <path id="Trazado_10749" data-name="Trazado 10749" d="M779.3,6104.132l-17.74,4.753a42.612,42.612,0,0,0-11.087-19.211l12.983-12.982.007-.008A60.937,60.937,0,0,1,779.3,6104.132Z" fill="#34a83f"/>
            </g>
          </g>
          <g id="Grupo_10578" data-name="Grupo 10578">
            <g id="Grupo_10577" data-name="Grupo 10577">
              <path id="Trazado_10750" data-name="Trazado 10750" d="M763.459,6076.684l-.007.008-12.983,12.982a43.029,43.029,0,0,0-19.211-11.092l4.753-17.732,0-.01A61.53,61.53,0,0,1,763.459,6076.684Z" fill="#b6d124"/>
            </g>
          </g>
          <g id="Grupo_10580" data-name="Grupo 10580">
            <g id="Grupo_10579" data-name="Grupo 10579">
              <path id="Trazado_10751" data-name="Trazado 10751" d="M763.452,6163.259l.007.008a60.923,60.923,0,0,1-27.448,15.837l-4.753-17.74a42.63,42.63,0,0,0,19.214-11.084Z" fill="#3e2e85"/>
            </g>
          </g>
          <g id="Grupo_10582" data-name="Grupo 10582">
            <g id="Grupo_10581" data-name="Grupo 10581">
              <path id="Trazado_10752" data-name="Trazado 10752" d="M736.013,6060.84l0,.01-4.753,17.732a42.633,42.633,0,0,0-22.181,0l-4.752-17.737A60.912,60.912,0,0,1,736.013,6060.84Z" fill="#fff100"/>
            </g>
          </g>
          <g id="Grupo_10584" data-name="Grupo 10584">
            <g id="Grupo_10583" data-name="Grupo 10583">
              <path id="Trazado_10753" data-name="Trazado 10753" d="M731.258,6161.364l4.753,17.74a60.941,60.941,0,0,1-31.689.009l0-.009,4.75-17.733A42.641,42.641,0,0,0,731.258,6161.364Z" fill="#5e2a84"/>
            </g>
          </g>
          <g id="Grupo_10586" data-name="Grupo 10586">
            <g id="Grupo_10585" data-name="Grupo 10585">
              <path id="Trazado_10754" data-name="Trazado 10754" d="M704.325,6060.85l4.752,17.737a42.662,42.662,0,0,0-19.213,11.084l-12.98-12.979,0,0A60.854,60.854,0,0,1,704.325,6060.85Z" fill="#f9ab16"/>
            </g>
          </g>
          <g id="Grupo_10588" data-name="Grupo 10588">
            <g id="Grupo_10587" data-name="Grupo 10587">
              <path id="Trazado_10755" data-name="Trazado 10755" d="M709.075,6161.371l-4.75,17.733,0,.009a61.5,61.5,0,0,1-27.445-15.846l.007-.008,12.98-12.979A43.032,43.032,0,0,0,709.075,6161.371Z" fill="#7e2583"/>
            </g>
          </g>
          <g id="Grupo_10590" data-name="Grupo 10590">
            <g id="Grupo_10589" data-name="Grupo 10589">
              <path id="Trazado_10756" data-name="Trazado 10756" d="M689.864,6150.28l-12.98,12.979-.007.008a60.9,60.9,0,0,1-15.835-27.448l17.737-4.753A42.649,42.649,0,0,0,689.864,6150.28Z" fill="#cb1e2c"/>
            </g>
          </g>
          <g id="Grupo_10592" data-name="Grupo 10592">
            <g id="Grupo_10591" data-name="Grupo 10591">
              <path id="Trazado_10757" data-name="Trazado 10757" d="M676.884,6076.692l12.98,12.979a43.057,43.057,0,0,0-11.092,19.211l-17.73-4.75-.01,0a61.468,61.468,0,0,1,15.847-27.443Z" fill="#ed7023"/>
            </g>
          </g>
          <g id="Grupo_10594" data-name="Grupo 10594">
            <g id="Grupo_10593" data-name="Grupo 10593">
              <path id="Trazado_10758" data-name="Trazado 10758" d="M678.779,6131.066l-17.737,4.753a60.914,60.914,0,0,1-.01-31.689l.01,0,17.73,4.75A42.678,42.678,0,0,0,678.779,6131.066Z" fill="#e64927"/>
            </g>
          </g>
        </g>
      </g>
      <g id="Grupo_10598" data-name="Grupo 10598">
        <g id="Grupo_10597" data-name="Grupo 10597">
          <path id="Trazado_10759" data-name="Trazado 10759" d="M720.168,6077.116" fill="none"/>
        </g>
      </g>
      <g id="Grupo_10600" data-name="Grupo 10600">
        <g id="Grupo_10599" data-name="Grupo 10599">
          <path id="Trazado_10760" data-name="Trazado 10760" d="M757.277,6141.4" fill="none"/>
        </g>
      </g>
      <g id="Grupo_10604" data-name="Grupo 10604">
        <g id="Grupo_10603" data-name="Grupo 10603">
          <g id="Grupo_10602" data-name="Grupo 10602">
            <g id="Grupo_10601" data-name="Grupo 10601">
              <path id="Trazado_10761" data-name="Trazado 10761" d="M720.168,6077.851l36.472,63.182-72.953.006,36.481-63.188m0-.735-37.117,64.29,74.226,0-37.109-64.285Z" fill="gray"/>
            </g>
          </g>
        </g>
      </g>
      <g id="Grupo_10608" data-name="Grupo 10608">
        <g id="Grupo_10607" data-name="Grupo 10607">
          <g id="Grupo_10606" data-name="Grupo 10606">
            <g id="Grupo_10605" data-name="Grupo 10605">
              <path id="Trazado_10762" data-name="Trazado 10762" d="M683.687,6098.914l72.953,0L720.168,6162.1l-36.481-63.187m-.636-.368,37.117,64.29,37.109-64.284-74.226-.006Z" fill="gray"/>
            </g>
          </g>
        </g>
      </g>
      <g id="Grupo_10612" data-name="Grupo 10612">
        <g id="Grupo_10611" data-name="Grupo 10611">
          <g id="Grupo_10610" data-name="Grupo 10610">
            <g id="Grupo_10609" data-name="Grupo 10609">
              <path id="Trazado_10763" data-name="Trazado 10763" d="M699.1,6083.493l63.177,36.481L699.1,6156.455v-72.962m-.367-.637v74.235l64.279-37.117-64.279-37.118Z" fill="gray"/>
            </g>
          </g>
        </g>
      </g>
      <g id="Grupo_10616" data-name="Grupo 10616">
        <g id="Grupo_10615" data-name="Grupo 10615">
          <g id="Grupo_10614" data-name="Grupo 10614">
            <g id="Grupo_10613" data-name="Grupo 10613">
              <path id="Trazado_10764" data-name="Trazado 10764" d="M741.225,6083.5l.005,72.953-63.187-36.481,63.182-36.472m.367-.637-64.284,37.109,64.289,37.117-.005-74.226Z" fill="gray"/>
            </g>
          </g>
        </g>
      </g>
      <g id="Grupo_10618" data-name="Grupo 10618">
        <g id="Grupo_10617" data-name="Grupo 10617">
          <rect id="Rectángulo_3504" data-name="Rectángulo 3504" width="84.974" height="0.367" transform="translate(677.675 6119.79)" fill="gray"/>
        </g>
      </g>
      <g id="Grupo_10620" data-name="Grupo 10620">
        <g id="Grupo_10619" data-name="Grupo 10619">
          <rect id="Rectángulo_3505" data-name="Rectángulo 3505" width="0.367" height="84.985" transform="translate(719.984 6077.484)" fill="gray"/>
        </g>
      </g>
      <g id="Grupo_10622" data-name="Grupo 10622">
        <g id="Grupo_10621" data-name="Grupo 10621">
          <rect id="Rectángulo_3506" data-name="Rectángulo 3506" width="84.974" height="0.367" transform="matrix(0.866, -0.5, 0.5, 0.866, 683.276, 6141.061)" fill="gray"/>
        </g>
      </g>
      <g id="Grupo_10624" data-name="Grupo 10624">
        <g id="Grupo_10623" data-name="Grupo 10623">
          <rect id="Rectángulo_3507" data-name="Rectángulo 3507" width="0.367" height="84.985" transform="translate(698.762 6083.266) rotate(-30)" fill="gray"/>
        </g>
      </g>
      <g id="Grupo_10626" data-name="Grupo 10626">
        <g id="Grupo_10625" data-name="Grupo 10625">
          <rect id="Rectángulo_3508" data-name="Rectángulo 3508" width="84.974" height="0.367" transform="translate(698.755 6156.676) rotate(-59.995)" fill="gray"/>
        </g>
      </g>
      <g id="Grupo_10628" data-name="Grupo 10628">
        <g id="Grupo_10627" data-name="Grupo 10627">
          <rect id="Rectángulo_3509" data-name="Rectángulo 3509" width="0.367" height="84.985" transform="translate(683.274 6098.884) rotate(-60)" fill="gray"/>
        </g>
      </g>
    </g>
    <path id="Trazado_117727" data-name="Trazado 117727" d="M17.559,16.186a5.193,5.193,0,0,1-.8,2.622A4.833,4.833,0,0,1,14.7,20.57a7,7,0,0,1-3.022.625,5.584,5.584,0,0,1-4.414-1.826,7.54,7.54,0,0,1-1.611-5.156v-.7a8.607,8.607,0,0,1,.728-3.657A5.513,5.513,0,0,1,8.477,7.431a5.844,5.844,0,0,1,3.164-.854A6.129,6.129,0,0,1,15.8,7.938a5.383,5.383,0,0,1,1.787,3.755H14.17a2.547,2.547,0,0,0-.654-1.865,2.691,2.691,0,0,0-1.875-.566,2.048,2.048,0,0,0-1.875.957,6.151,6.151,0,0,0-.625,3.057v1.006a6.806,6.806,0,0,0,.571,3.252,2.091,2.091,0,0,0,1.968.977,2.632,2.632,0,0,0,1.807-.557,2.363,2.363,0,0,0,.664-1.768ZM22.617,21H19.307V10.434h3.311ZM21.387,6.2h3.477L22.148,9.262l-2.686,0Zm9.736,7.217-1.084-.078a1.947,1.947,0,0,0-1.992.977V21H24.756V10.434h3.086l.107,1.357a2.548,2.548,0,0,1,2.314-1.553,3.209,3.209,0,0,1,.918.117Zm5.469,5.244a1.464,1.464,0,0,0,1.074-.376,1.379,1.379,0,0,0,.371-1.05h3.086a3.653,3.653,0,0,1-1.245,2.852A4.631,4.631,0,0,1,36.67,21.2a4.689,4.689,0,0,1-3.633-1.445,5.7,5.7,0,0,1-1.328-4v-.137a6.436,6.436,0,0,1,.591-2.827A4.3,4.3,0,0,1,34,10.9a5.081,5.081,0,0,1,2.637-.659,4.573,4.573,0,0,1,3.271,1.143,4.053,4.053,0,0,1,1.211,3.1H38.037a1.807,1.807,0,0,0-.4-1.26,1.382,1.382,0,0,0-1.074-.439q-1.279,0-1.494,1.631A11.507,11.507,0,0,0,35,15.834a4.52,4.52,0,0,0,.381,2.207A1.319,1.319,0,0,0,36.592,18.656Zm12.217,1.2A3.393,3.393,0,0,1,45.986,21.2a3.328,3.328,0,0,1-2.632-1.011,4.251,4.251,0,0,1-.894-2.905V10.434h3.291V17.3a1.183,1.183,0,0,0,1.318,1.357,1.72,1.72,0,0,0,1.611-.811V10.434h3.311V21H48.906ZM57.266,21h-3.3V6h3.3Zm1.611-5.381a6.236,6.236,0,0,1,.615-2.817,4.4,4.4,0,0,1,1.768-1.9,5.323,5.323,0,0,1,2.705-.664,4.858,4.858,0,0,1,3.74,1.47,5.64,5.64,0,0,1,1.367,4v.117A5.472,5.472,0,0,1,67.7,19.745a4.871,4.871,0,0,1-3.716,1.45,4.927,4.927,0,0,1-3.623-1.353,5.29,5.29,0,0,1-1.475-3.667Zm3.291.205a3.932,3.932,0,0,0,.459,2.148,1.529,1.529,0,0,0,1.357.684q1.758,0,1.8-2.705v-.332q0-2.842-1.816-2.842-1.65,0-1.787,2.451Z" transform="translate(-7545.791 -4502.842)" fill="#12263f"/>
    <path id="Trazado_117729" data-name="Trazado 117729" d="M5.391,18.656a1.464,1.464,0,0,0,1.074-.376,1.379,1.379,0,0,0,.371-1.05H9.922a3.653,3.653,0,0,1-1.245,2.852A4.631,4.631,0,0,1,5.469,21.2,4.689,4.689,0,0,1,1.836,19.75a5.7,5.7,0,0,1-1.328-4v-.137A6.436,6.436,0,0,1,1.1,12.782,4.3,4.3,0,0,1,2.8,10.9a5.081,5.081,0,0,1,2.637-.659,4.573,4.573,0,0,1,3.271,1.143,4.053,4.053,0,0,1,1.211,3.1H6.836a1.807,1.807,0,0,0-.4-1.26,1.382,1.382,0,0,0-1.074-.439q-1.279,0-1.494,1.631A11.508,11.508,0,0,0,3.8,15.834a4.52,4.52,0,0,0,.381,2.207A1.319,1.319,0,0,0,5.391,18.656Zm12.314-5.244-1.084-.078a1.947,1.947,0,0,0-1.992.977V21H11.338V10.434h3.086l.107,1.357a2.548,2.548,0,0,1,2.314-1.553,3.209,3.209,0,0,1,.918.117Zm.42,2.207A6.236,6.236,0,0,1,18.74,12.8a4.4,4.4,0,0,1,1.768-1.9,5.323,5.323,0,0,1,2.705-.664,4.858,4.858,0,0,1,3.74,1.47,5.64,5.64,0,0,1,1.367,4v.117a5.472,5.472,0,0,1-1.372,3.921,4.871,4.871,0,0,1-3.716,1.45,4.927,4.927,0,0,1-3.623-1.353,5.29,5.29,0,0,1-1.475-3.667Zm3.291.205a3.932,3.932,0,0,0,.459,2.148,1.529,1.529,0,0,0,1.357.684q1.758,0,1.8-2.705v-.332q0-2.842-1.816-2.842-1.65,0-1.787,2.451Zm11.465-5.391.107,1.24a3.633,3.633,0,0,1,3.018-1.436,2.675,2.675,0,0,1,2.705,1.592,3.516,3.516,0,0,1,3.105-1.592q3.213,0,3.3,3.887V21h-3.3V14.33a2.014,2.014,0,0,0-.273-1.182,1.164,1.164,0,0,0-1-.371,1.559,1.559,0,0,0-1.455.869l.01.137V21H35.8V14.35a2.117,2.117,0,0,0-.264-1.2,1.161,1.161,0,0,0-1.006-.371,1.578,1.578,0,0,0-1.445.869V21H29.795V10.434ZM52.949,21a3.716,3.716,0,0,1-.312-.947A3.06,3.06,0,0,1,50.1,21.2a3.749,3.749,0,0,1-2.539-.9,2.875,2.875,0,0,1-1.045-2.271,2.955,2.955,0,0,1,1.27-2.6,6.468,6.468,0,0,1,3.691-.879H52.49v-.559q0-1.462-1.26-1.462a1.03,1.03,0,0,0-1.172,1.158H46.768a2.95,2.95,0,0,1,1.3-2.487,5.479,5.479,0,0,1,3.325-.956,4.8,4.8,0,0,1,3.193.986,3.429,3.429,0,0,1,1.2,2.705v4.678a4.79,4.79,0,0,0,.449,2.227V21Zm-2.061-2.148a1.836,1.836,0,0,0,1.021-.264,1.653,1.653,0,0,0,.581-.6V16.3h-.957q-1.719,0-1.719,1.543a.942.942,0,0,0,.3.728A1.1,1.1,0,0,0,50.889,18.852ZM51.709,6h3.477L52.471,9.066l-2.686,0Zm9.736,1.807v2.627h1.738v2.285H61.445v4.834a1.234,1.234,0,0,0,.215.83,1.152,1.152,0,0,0,.85.234,4.828,4.828,0,0,0,.82-.059v2.354a6.074,6.074,0,0,1-1.855.283,3.448,3.448,0,0,1-2.51-.8,3.282,3.282,0,0,1-.811-2.432V12.719H56.807V10.434h1.348V7.807ZM67.949,21h-3.3V10.434h3.3Zm-3.5-13.291a1.469,1.469,0,0,1,.508-1.152,2.159,2.159,0,0,1,2.637,0,1.469,1.469,0,0,1,.508,1.152A1.469,1.469,0,0,1,67.6,8.861a2.159,2.159,0,0,1-2.637,0A1.469,1.469,0,0,1,64.453,7.709Zm9.99,10.947a1.464,1.464,0,0,0,1.074-.376,1.379,1.379,0,0,0,.371-1.05h3.086a3.653,3.653,0,0,1-1.245,2.852A4.631,4.631,0,0,1,74.521,21.2a4.689,4.689,0,0,1-3.633-1.445,5.7,5.7,0,0,1-1.328-4v-.137a6.436,6.436,0,0,1,.591-2.827,4.3,4.3,0,0,1,1.7-1.885,5.081,5.081,0,0,1,2.637-.659,4.573,4.573,0,0,1,3.271,1.143,4.053,4.053,0,0,1,1.211,3.1H75.889a1.806,1.806,0,0,0-.4-1.26,1.382,1.382,0,0,0-1.074-.439q-1.279,0-1.494,1.631a11.508,11.508,0,0,0-.068,1.426,4.52,4.52,0,0,0,.381,2.207A1.319,1.319,0,0,0,74.443,18.656Zm5.508-3.037a6.236,6.236,0,0,1,.615-2.817,4.4,4.4,0,0,1,1.768-1.9,5.323,5.323,0,0,1,2.705-.664,4.858,4.858,0,0,1,3.74,1.47,5.64,5.64,0,0,1,1.367,4v.117a5.472,5.472,0,0,1-1.372,3.921,4.871,4.871,0,0,1-3.716,1.45,4.927,4.927,0,0,1-3.623-1.353,5.29,5.29,0,0,1-1.475-3.667Zm3.291.205a3.932,3.932,0,0,0,.459,2.148,1.529,1.529,0,0,0,1.357.684q1.758,0,1.8-2.705v-.332q0-2.842-1.816-2.842-1.65,0-1.787,2.451Z" transform="translate(-7321.693 -4502.842)" fill="#12263f"/>
  </g>
</svg>
