<svg xmlns="http://www.w3.org/2000/svg" width="292" height="255" viewBox="0 0 292 255">
  <g id="Grupo_73295" data-name="Grupo 73295" transform="translate(7408 6849)">
    <path id="Trazado_117693" data-name="Trazado 117693" d="M20,0H272a20,20,0,0,1,20,20V235a20,20,0,0,1-20,20H20A20,20,0,0,1,0,235V20A20,20,0,0,1,20,0Z" transform="translate(-7408 -6849)" fill="#f6f6f6"/>
    <path id="Trazado_117695" data-name="Trazado 117695" d="M70.554,0A70.554,70.554,0,1,1,0,70.554,70.554,70.554,0,0,1,70.554,0Z" transform="translate(-7303.597 -6821)" fill="#ffda32" opacity="0.9"/>
    <path id="Trazado_117696" data-name="Trazado 117696" d="M70.554,0A70.554,70.554,0,1,1,0,70.554,70.554,70.554,0,0,1,70.554,0Z" transform="translate(-7376 -6821)" fill="#f33" opacity="0.9"/>
    <path id="Trazado_117697" data-name="Trazado 117697" d="M34.352,0C53.324,0,68.7,27.113,68.7,60.559s-15.38,60.559-34.352,60.559S0,94.006,0,60.559,15.38,0,34.352,0Z" transform="translate(-7303.597 -6811.006)" fill="#ff8832"/>
    <g id="Grupo_9970" data-name="Grupo 9970" transform="translate(-7989.245 -11980.529)">
      <path id="Trazado_6998" data-name="Trazado 6998" d="M659.905,5323.676v4.75h-1.433V5317h3.382a5.646,5.646,0,0,1,3.353.8,2.824,2.824,0,0,1,1.083,2.422,3.073,3.073,0,0,1-2.479,3.063l3.348,5.133h-1.7l-2.986-4.75Zm0-1.141h1.966a3.584,3.584,0,0,0,2.226-.559,2,2,0,0,0,.709-1.675,1.844,1.844,0,0,0-.721-1.633,4.157,4.157,0,0,0-2.315-.5h-1.865Z" fill="#14233a"/>
      <path id="Trazado_6999" data-name="Trazado 6999" d="M676.918,5324.136a4.5,4.5,0,0,1-1.139,3.27,4.174,4.174,0,0,1-3.146,1.176,4.424,4.424,0,0,1-2.2-.539,3.672,3.672,0,0,1-1.485-1.547,5.05,5.05,0,0,1-.523-2.36,4.5,4.5,0,0,1,1.13-3.261,4.164,4.164,0,0,1,3.138-1.168,4.065,4.065,0,0,1,3.083,1.195A4.486,4.486,0,0,1,676.918,5324.136Zm-7.043,0a3.845,3.845,0,0,0,.708,2.5,2.964,2.964,0,0,0,4.171,0,3.825,3.825,0,0,0,.713-2.5,3.767,3.767,0,0,0-.713-2.48,2.593,2.593,0,0,0-2.1-.848,2.553,2.553,0,0,0-2.075.836A3.8,3.8,0,0,0,669.875,5324.136Z" fill="#14233a"/>
      <path id="Trazado_7000" data-name="Trazado 7000" d="M678.25,5332.269a3.623,3.623,0,0,1-1.3-.195v-1.055a4.417,4.417,0,0,0,1.147.157,1.256,1.256,0,0,0,.966-.333,1.443,1.443,0,0,0,.308-1.011v-9.969h1.4v9.875A2.233,2.233,0,0,1,678.25,5332.269Zm1-14.726a.824.824,0,0,1,.236-.653.926.926,0,0,1,1.172,0,.812.812,0,0,1,.245.649.821.821,0,0,1-.245.652.849.849,0,0,1-.582.215.781.781,0,0,1-.826-.867Z" fill="#14233a"/>
      <path id="Trazado_7001" data-name="Trazado 7001" d="M691.72,5324.136a4.5,4.5,0,0,1-1.139,3.27,4.174,4.174,0,0,1-3.146,1.176,4.429,4.429,0,0,1-2.2-.539,3.672,3.672,0,0,1-1.485-1.547,5.062,5.062,0,0,1-.523-2.36,4.494,4.494,0,0,1,1.131-3.261,4.16,4.16,0,0,1,3.137-1.168,4.065,4.065,0,0,1,3.083,1.195A4.486,4.486,0,0,1,691.72,5324.136Zm-7.043,0a3.845,3.845,0,0,0,.708,2.5,2.964,2.964,0,0,0,4.171,0,3.825,3.825,0,0,0,.713-2.5,3.767,3.767,0,0,0-.713-2.48,2.593,2.593,0,0,0-2.1-.848,2.553,2.553,0,0,0-2.075.836A3.8,3.8,0,0,0,684.677,5324.136Z" fill="#14233a"/>
      <path id="Trazado_7002" data-name="Trazado 7002" d="M707.172,5322.246h3.474v1.078h-3.474v3.328H706v-3.328h-3.458v-1.078H706V5318.9h1.173Z" fill="#14233a"/>
      <path id="Trazado_7003" data-name="Trazado 7003" d="M725.474,5328.426l-1.535-3.633H719l-1.518,3.633h-1.451l4.875-11.469h1.207l4.849,11.469Zm-1.982-4.829-1.434-3.539q-.279-.671-.574-1.648a13.9,13.9,0,0,1-.531,1.648l-1.45,3.539Z" fill="#14233a"/>
      <path id="Trazado_7004" data-name="Trazado 7004" d="M740.225,5328.426v-5.571a2.194,2.194,0,0,0-.472-1.535,1.908,1.908,0,0,0-1.468-.512,2.467,2.467,0,0,0-1.931.7,3.131,3.131,0,0,0-.624,2.14v4.782h-1.4v-5.571a2.2,2.2,0,0,0-.472-1.535,1.922,1.922,0,0,0-1.477-.512,2.374,2.374,0,0,0-1.927.731,3.733,3.733,0,0,0-.611,2.394v4.493h-1.4v-8.563h1.139l.228,1.172h.068a2.673,2.673,0,0,1,1.117-.977,3.644,3.644,0,0,1,1.615-.351,2.787,2.787,0,0,1,2.834,1.453h.067a2.866,2.866,0,0,1,1.2-1.063,3.96,3.96,0,0,1,1.788-.39,3.284,3.284,0,0,1,2.349.746,3.178,3.178,0,0,1,.781,2.387v5.586Z" fill="#14233a"/>
      <path id="Trazado_7005" data-name="Trazado 7005" d="M750.194,5328.426l-.278-1.219h-.067a3.836,3.836,0,0,1-1.379,1.09,4.5,4.5,0,0,1-1.716.285,3.253,3.253,0,0,1-2.156-.656,2.305,2.305,0,0,1-.78-1.868q0-2.594,4.479-2.718l1.569-.047v-.532a2.063,2.063,0,0,0-.468-1.488,2.018,2.018,0,0,0-1.5-.48,6.472,6.472,0,0,0-2.615.656l-.43-.992a6.875,6.875,0,0,1,1.5-.539,6.994,6.994,0,0,1,1.632-.2,3.717,3.717,0,0,1,2.45.68,2.718,2.718,0,0,1,.8,2.18v5.844Zm-3.162-.915a2.982,2.982,0,0,0,2.054-.664,2.36,2.36,0,0,0,.746-1.859v-.773l-1.4.054a5.43,5.43,0,0,0-2.408.481,1.423,1.423,0,0,0-.738,1.324,1.286,1.286,0,0,0,.46,1.07A2.008,2.008,0,0,0,747.032,5327.511Z" fill="#14233a"/>
      <path id="Trazado_7006" data-name="Trazado 7006" d="M758.334,5319.707a5.872,5.872,0,0,1,1.105.094l-.2,1.2a5.125,5.125,0,0,0-1.011-.118,2.545,2.545,0,0,0-1.919.844,2.94,2.94,0,0,0-.8,2.1v4.594h-1.4v-8.563h1.156l.16,1.586h.068a3.871,3.871,0,0,1,1.239-1.289A2.953,2.953,0,0,1,758.334,5319.707Z" fill="#14233a"/>
      <path id="Trazado_7007" data-name="Trazado 7007" d="M761.049,5317.543a.824.824,0,0,1,.237-.653.926.926,0,0,1,1.172,0,.812.812,0,0,1,.245.649.822.822,0,0,1-.245.652.849.849,0,0,1-.582.215.782.782,0,0,1-.827-.867Zm1.519,10.883h-1.4v-8.563h1.4Z" fill="#14233a"/>
      <path id="Trazado_7008" data-name="Trazado 7008" d="M766.937,5328.426h-1.4v-12.157h1.4Z" fill="#14233a"/>
      <path id="Trazado_7009" data-name="Trazado 7009" d="M771.306,5328.426h-1.4v-12.157h1.4Z" fill="#14233a"/>
      <path id="Trazado_7010" data-name="Trazado 7010" d="M782.254,5324.136a4.5,4.5,0,0,1-1.139,3.27,4.174,4.174,0,0,1-3.146,1.176,4.424,4.424,0,0,1-2.2-.539,3.665,3.665,0,0,1-1.485-1.547,5.05,5.05,0,0,1-.523-2.36,4.5,4.5,0,0,1,1.13-3.261,4.164,4.164,0,0,1,3.138-1.168,4.061,4.061,0,0,1,3.082,1.195A4.482,4.482,0,0,1,782.254,5324.136Zm-7.043,0a3.845,3.845,0,0,0,.708,2.5,2.964,2.964,0,0,0,4.171,0,3.825,3.825,0,0,0,.713-2.5,3.767,3.767,0,0,0-.713-2.48,2.594,2.594,0,0,0-2.105-.848,2.552,2.552,0,0,0-2.074.836A3.8,3.8,0,0,0,775.211,5324.136Z" fill="#14233a"/>
    </g>
    <path id="Trazado_117698" data-name="Trazado 117698" d="M0,0H142.3V19.966H0Z" transform="translate(-7340.394 -6641.915)" fill="#ff8832"/>
    <g id="Grupo_9976" data-name="Grupo 9976" transform="translate(-7989.245 -11980.529)">
      <path id="Trazado_7025" data-name="Trazado 7025" d="M699.4,5354.787h-1.636l-6.739-9.586h-.067q.135,1.688.135,3.094v6.492h-1.325v-11.422h1.619l6.723,9.547h.067q-.016-.21-.076-1.355t-.042-1.637v-6.555H699.4Z" fill="#fff"/>
      <path id="Trazado_7026" data-name="Trazado 7026" d="M708.259,5354.787l-.278-1.218h-.067a3.84,3.84,0,0,1-1.379,1.089,4.5,4.5,0,0,1-1.717.286,3.247,3.247,0,0,1-2.155-.657,2.3,2.3,0,0,1-.78-1.867q0-2.594,4.479-2.719l1.569-.046v-.532a2.063,2.063,0,0,0-.468-1.488,2.021,2.021,0,0,0-1.5-.48,6.472,6.472,0,0,0-2.614.656l-.43-.992a6.9,6.9,0,0,1,1.5-.539,6.994,6.994,0,0,1,1.632-.2,3.714,3.714,0,0,1,2.45.68,2.716,2.716,0,0,1,.8,2.18v5.843Zm-3.162-.914a2.982,2.982,0,0,0,2.054-.664,2.359,2.359,0,0,0,.746-1.859v-.774l-1.4.055a5.437,5.437,0,0,0-2.408.481,1.423,1.423,0,0,0-.738,1.324,1.286,1.286,0,0,0,.46,1.07A2.008,2.008,0,0,0,705.1,5353.873Z" fill="#fff"/>
      <path id="Trazado_7027" data-name="Trazado 7027" d="M716.4,5346.069a5.95,5.95,0,0,1,1.105.093l-.194,1.2a5.138,5.138,0,0,0-1.012-.117,2.546,2.546,0,0,0-1.919.844,2.945,2.945,0,0,0-.8,2.1v4.593h-1.4v-8.562h1.156l.16,1.586h.067a3.879,3.879,0,0,1,1.24-1.289A2.952,2.952,0,0,1,716.4,5346.069Z" fill="#fff"/>
      <path id="Trazado_7028" data-name="Trazado 7028" d="M724.917,5354.787l-.278-1.218h-.068a3.831,3.831,0,0,1-1.379,1.089,4.5,4.5,0,0,1-1.716.286,3.245,3.245,0,0,1-2.155-.657,2.3,2.3,0,0,1-.78-1.867q0-2.594,4.479-2.719l1.568-.046v-.532a2.063,2.063,0,0,0-.468-1.488,2.018,2.018,0,0,0-1.5-.48,6.48,6.48,0,0,0-2.615.656l-.43-.992a7.165,7.165,0,0,1,3.13-.735,3.714,3.714,0,0,1,2.45.68,2.716,2.716,0,0,1,.8,2.18v5.843Zm-3.162-.914a2.978,2.978,0,0,0,2.053-.664,2.356,2.356,0,0,0,.747-1.859v-.774l-1.4.055a5.432,5.432,0,0,0-2.407.481,1.424,1.424,0,0,0-.739,1.324,1.289,1.289,0,0,0,.46,1.07A2.011,2.011,0,0,0,721.755,5353.873Z" fill="#fff"/>
      <path id="Trazado_7029" data-name="Trazado 7029" d="M735.165,5354.787v-5.539a2.127,2.127,0,0,0-.514-1.562,2.194,2.194,0,0,0-1.611-.516,2.775,2.775,0,0,0-2.126.727,3.471,3.471,0,0,0-.674,2.4v4.492h-1.4v-8.562h1.139l.228,1.172h.068a2.8,2.8,0,0,1,1.206-.981,4.192,4.192,0,0,1,1.729-.347,3.694,3.694,0,0,1,2.513.746,3.034,3.034,0,0,1,.844,2.386v5.586Z" fill="#fff"/>
      <path id="Trazado_7030" data-name="Trazado 7030" d="M738.319,5358.631a3.613,3.613,0,0,1-1.3-.195v-1.055a4.41,4.41,0,0,0,1.147.156,1.257,1.257,0,0,0,.965-.332,1.445,1.445,0,0,0,.308-1.011v-9.969h1.4v9.875A2.233,2.233,0,0,1,738.319,5358.631Zm1-14.726a.823.823,0,0,1,.236-.653.927.927,0,0,1,1.173,0,.812.812,0,0,1,.244.649.822.822,0,0,1-.244.652.855.855,0,0,1-.582.215.781.781,0,0,1-.827-.867Z" fill="#fff"/>
      <path id="Trazado_7031" data-name="Trazado 7031" d="M749.495,5354.787l-.279-1.218h-.067a3.84,3.84,0,0,1-1.379,1.089,4.5,4.5,0,0,1-1.716.286,3.243,3.243,0,0,1-2.155-.657,2.3,2.3,0,0,1-.78-1.867q0-2.594,4.478-2.719l1.569-.046v-.532a2.063,2.063,0,0,0-.468-1.488,2.018,2.018,0,0,0-1.5-.48,6.476,6.476,0,0,0-2.615.656l-.43-.992a6.9,6.9,0,0,1,1.5-.539,6.994,6.994,0,0,1,1.632-.2,3.712,3.712,0,0,1,2.45.68,2.713,2.713,0,0,1,.8,2.18v5.843Zm-3.163-.914a2.98,2.98,0,0,0,2.054-.664,2.359,2.359,0,0,0,.746-1.859v-.774l-1.4.055a5.441,5.441,0,0,0-2.408.481,1.423,1.423,0,0,0-.738,1.324,1.286,1.286,0,0,0,.46,1.07A2.008,2.008,0,0,0,746.332,5353.873Z" fill="#fff"/>
    </g>
    <path id="Trazado_117699" data-name="Trazado 117699" d="M70.554,0A70.554,70.554,0,1,1,0,70.554,70.554,70.554,0,0,1,70.554,0Z" transform="translate(-7303.597 -6821)" fill="#ffda32" opacity="0.9"/>
    <path id="Trazado_117700" data-name="Trazado 117700" d="M70.554,0A70.554,70.554,0,1,1,0,70.554,70.554,70.554,0,0,1,70.554,0Z" transform="translate(-7376 -6821)" fill="#f33" opacity="0.9"/>
    <path id="Trazado_117701" data-name="Trazado 117701" d="M34.352,0C53.324,0,68.7,27.113,68.7,60.559s-15.38,60.559-34.352,60.559S0,94.006,0,60.559,15.38,0,34.352,0Z" transform="translate(-7303.597 -6811.006)" fill="#ff8832"/>
    <g id="Grupo_9971" data-name="Grupo 9971" transform="translate(-7989.245 -11980.529)">
      <g id="Grupo_9970-2" data-name="Grupo 9970">
        <path id="Trazado_6998-2" data-name="Trazado 6998" d="M659.905,5323.676v4.75h-1.433V5317h3.382a5.646,5.646,0,0,1,3.353.8,2.824,2.824,0,0,1,1.083,2.422,3.073,3.073,0,0,1-2.479,3.063l3.348,5.133h-1.7l-2.986-4.75Zm0-1.141h1.966a3.584,3.584,0,0,0,2.226-.559,2,2,0,0,0,.709-1.675,1.844,1.844,0,0,0-.721-1.633,4.157,4.157,0,0,0-2.315-.5h-1.865Z" fill="#14233a"/>
        <path id="Trazado_6999-2" data-name="Trazado 6999" d="M676.918,5324.136a4.5,4.5,0,0,1-1.139,3.27,4.174,4.174,0,0,1-3.146,1.176,4.424,4.424,0,0,1-2.2-.539,3.672,3.672,0,0,1-1.485-1.547,5.05,5.05,0,0,1-.523-2.36,4.5,4.5,0,0,1,1.13-3.261,4.164,4.164,0,0,1,3.138-1.168,4.065,4.065,0,0,1,3.083,1.195A4.486,4.486,0,0,1,676.918,5324.136Zm-7.043,0a3.845,3.845,0,0,0,.708,2.5,2.964,2.964,0,0,0,4.171,0,3.825,3.825,0,0,0,.713-2.5,3.767,3.767,0,0,0-.713-2.48,2.593,2.593,0,0,0-2.1-.848,2.553,2.553,0,0,0-2.075.836A3.8,3.8,0,0,0,669.875,5324.136Z" fill="#14233a"/>
        <path id="Trazado_7000-2" data-name="Trazado 7000" d="M678.25,5332.269a3.623,3.623,0,0,1-1.3-.195v-1.055a4.417,4.417,0,0,0,1.147.157,1.256,1.256,0,0,0,.966-.333,1.443,1.443,0,0,0,.308-1.011v-9.969h1.4v9.875A2.233,2.233,0,0,1,678.25,5332.269Zm1-14.726a.824.824,0,0,1,.236-.653.926.926,0,0,1,1.172,0,.812.812,0,0,1,.245.649.821.821,0,0,1-.245.652.849.849,0,0,1-.582.215.781.781,0,0,1-.826-.867Z" fill="#14233a"/>
        <path id="Trazado_7001-2" data-name="Trazado 7001" d="M691.72,5324.136a4.5,4.5,0,0,1-1.139,3.27,4.174,4.174,0,0,1-3.146,1.176,4.429,4.429,0,0,1-2.2-.539,3.672,3.672,0,0,1-1.485-1.547,5.062,5.062,0,0,1-.523-2.36,4.494,4.494,0,0,1,1.131-3.261,4.16,4.16,0,0,1,3.137-1.168,4.065,4.065,0,0,1,3.083,1.195A4.486,4.486,0,0,1,691.72,5324.136Zm-7.043,0a3.845,3.845,0,0,0,.708,2.5,2.964,2.964,0,0,0,4.171,0,3.825,3.825,0,0,0,.713-2.5,3.767,3.767,0,0,0-.713-2.48,2.593,2.593,0,0,0-2.1-.848,2.553,2.553,0,0,0-2.075.836A3.8,3.8,0,0,0,684.677,5324.136Z" fill="#14233a"/>
        <path id="Trazado_7002-2" data-name="Trazado 7002" d="M707.172,5322.246h3.474v1.078h-3.474v3.328H706v-3.328h-3.458v-1.078H706V5318.9h1.173Z" fill="#14233a"/>
        <path id="Trazado_7003-2" data-name="Trazado 7003" d="M725.474,5328.426l-1.535-3.633H719l-1.518,3.633h-1.451l4.875-11.469h1.207l4.849,11.469Zm-1.982-4.829-1.434-3.539q-.279-.671-.574-1.648a13.9,13.9,0,0,1-.531,1.648l-1.45,3.539Z" fill="#14233a"/>
        <path id="Trazado_7004-2" data-name="Trazado 7004" d="M740.225,5328.426v-5.571a2.194,2.194,0,0,0-.472-1.535,1.908,1.908,0,0,0-1.468-.512,2.467,2.467,0,0,0-1.931.7,3.131,3.131,0,0,0-.624,2.14v4.782h-1.4v-5.571a2.2,2.2,0,0,0-.472-1.535,1.922,1.922,0,0,0-1.477-.512,2.374,2.374,0,0,0-1.927.731,3.733,3.733,0,0,0-.611,2.394v4.493h-1.4v-8.563h1.139l.228,1.172h.068a2.673,2.673,0,0,1,1.117-.977,3.644,3.644,0,0,1,1.615-.351,2.787,2.787,0,0,1,2.834,1.453h.067a2.866,2.866,0,0,1,1.2-1.063,3.96,3.96,0,0,1,1.788-.39,3.284,3.284,0,0,1,2.349.746,3.178,3.178,0,0,1,.781,2.387v5.586Z" fill="#14233a"/>
        <path id="Trazado_7005-2" data-name="Trazado 7005" d="M750.194,5328.426l-.278-1.219h-.067a3.836,3.836,0,0,1-1.379,1.09,4.5,4.5,0,0,1-1.716.285,3.253,3.253,0,0,1-2.156-.656,2.305,2.305,0,0,1-.78-1.868q0-2.594,4.479-2.718l1.569-.047v-.532a2.063,2.063,0,0,0-.468-1.488,2.018,2.018,0,0,0-1.5-.48,6.472,6.472,0,0,0-2.615.656l-.43-.992a6.875,6.875,0,0,1,1.5-.539,6.994,6.994,0,0,1,1.632-.2,3.717,3.717,0,0,1,2.45.68,2.718,2.718,0,0,1,.8,2.18v5.844Zm-3.162-.915a2.982,2.982,0,0,0,2.054-.664,2.36,2.36,0,0,0,.746-1.859v-.773l-1.4.054a5.43,5.43,0,0,0-2.408.481,1.423,1.423,0,0,0-.738,1.324,1.286,1.286,0,0,0,.46,1.07A2.008,2.008,0,0,0,747.032,5327.511Z" fill="#14233a"/>
        <path id="Trazado_7006-2" data-name="Trazado 7006" d="M758.334,5319.707a5.872,5.872,0,0,1,1.105.094l-.2,1.2a5.125,5.125,0,0,0-1.011-.118,2.545,2.545,0,0,0-1.919.844,2.94,2.94,0,0,0-.8,2.1v4.594h-1.4v-8.563h1.156l.16,1.586h.068a3.871,3.871,0,0,1,1.239-1.289A2.953,2.953,0,0,1,758.334,5319.707Z" fill="#14233a"/>
        <path id="Trazado_7007-2" data-name="Trazado 7007" d="M761.049,5317.543a.824.824,0,0,1,.237-.653.926.926,0,0,1,1.172,0,.812.812,0,0,1,.245.649.822.822,0,0,1-.245.652.849.849,0,0,1-.582.215.782.782,0,0,1-.827-.867Zm1.519,10.883h-1.4v-8.563h1.4Z" fill="#14233a"/>
        <path id="Trazado_7008-2" data-name="Trazado 7008" d="M766.937,5328.426h-1.4v-12.157h1.4Z" fill="#14233a"/>
        <path id="Trazado_7009-2" data-name="Trazado 7009" d="M771.306,5328.426h-1.4v-12.157h1.4Z" fill="#14233a"/>
        <path id="Trazado_7010-2" data-name="Trazado 7010" d="M782.254,5324.136a4.5,4.5,0,0,1-1.139,3.27,4.174,4.174,0,0,1-3.146,1.176,4.424,4.424,0,0,1-2.2-.539,3.665,3.665,0,0,1-1.485-1.547,5.05,5.05,0,0,1-.523-2.36,4.5,4.5,0,0,1,1.13-3.261,4.164,4.164,0,0,1,3.138-1.168,4.061,4.061,0,0,1,3.082,1.195A4.482,4.482,0,0,1,782.254,5324.136Zm-7.043,0a3.845,3.845,0,0,0,.708,2.5,2.964,2.964,0,0,0,4.171,0,3.825,3.825,0,0,0,.713-2.5,3.767,3.767,0,0,0-.713-2.48,2.594,2.594,0,0,0-2.105-.848,2.552,2.552,0,0,0-2.074.836A3.8,3.8,0,0,0,775.211,5324.136Z" fill="#14233a"/>
      </g>
    </g>
    <path id="Trazado_117702" data-name="Trazado 117702" d="M0,0H142.3V19.966H0Z" transform="translate(-7340.394 -6641.915)" fill="#ff8832"/>
    <g id="Grupo_9977" data-name="Grupo 9977" transform="translate(-7989.245 -11980.529)">
      <g id="Grupo_9976-2" data-name="Grupo 9976">
        <path id="Trazado_7025-2" data-name="Trazado 7025" d="M699.4,5354.787h-1.636l-6.739-9.586h-.067q.135,1.688.135,3.094v6.492h-1.325v-11.422h1.619l6.723,9.547h.067q-.016-.21-.076-1.355t-.042-1.637v-6.555H699.4Z" fill="#fff"/>
        <path id="Trazado_7026-2" data-name="Trazado 7026" d="M708.259,5354.787l-.278-1.218h-.067a3.84,3.84,0,0,1-1.379,1.089,4.5,4.5,0,0,1-1.717.286,3.247,3.247,0,0,1-2.155-.657,2.3,2.3,0,0,1-.78-1.867q0-2.594,4.479-2.719l1.569-.046v-.532a2.063,2.063,0,0,0-.468-1.488,2.021,2.021,0,0,0-1.5-.48,6.472,6.472,0,0,0-2.614.656l-.43-.992a6.9,6.9,0,0,1,1.5-.539,6.994,6.994,0,0,1,1.632-.2,3.714,3.714,0,0,1,2.45.68,2.716,2.716,0,0,1,.8,2.18v5.843Zm-3.162-.914a2.982,2.982,0,0,0,2.054-.664,2.359,2.359,0,0,0,.746-1.859v-.774l-1.4.055a5.437,5.437,0,0,0-2.408.481,1.423,1.423,0,0,0-.738,1.324,1.286,1.286,0,0,0,.46,1.07A2.008,2.008,0,0,0,705.1,5353.873Z" fill="#fff"/>
        <path id="Trazado_7027-2" data-name="Trazado 7027" d="M716.4,5346.069a5.95,5.95,0,0,1,1.105.093l-.194,1.2a5.138,5.138,0,0,0-1.012-.117,2.546,2.546,0,0,0-1.919.844,2.945,2.945,0,0,0-.8,2.1v4.593h-1.4v-8.562h1.156l.16,1.586h.067a3.879,3.879,0,0,1,1.24-1.289A2.952,2.952,0,0,1,716.4,5346.069Z" fill="#fff"/>
        <path id="Trazado_7028-2" data-name="Trazado 7028" d="M724.917,5354.787l-.278-1.218h-.068a3.831,3.831,0,0,1-1.379,1.089,4.5,4.5,0,0,1-1.716.286,3.245,3.245,0,0,1-2.155-.657,2.3,2.3,0,0,1-.78-1.867q0-2.594,4.479-2.719l1.568-.046v-.532a2.063,2.063,0,0,0-.468-1.488,2.018,2.018,0,0,0-1.5-.48,6.48,6.48,0,0,0-2.615.656l-.43-.992a7.165,7.165,0,0,1,3.13-.735,3.714,3.714,0,0,1,2.45.68,2.716,2.716,0,0,1,.8,2.18v5.843Zm-3.162-.914a2.978,2.978,0,0,0,2.053-.664,2.356,2.356,0,0,0,.747-1.859v-.774l-1.4.055a5.432,5.432,0,0,0-2.407.481,1.424,1.424,0,0,0-.739,1.324,1.289,1.289,0,0,0,.46,1.07A2.011,2.011,0,0,0,721.755,5353.873Z" fill="#fff"/>
        <path id="Trazado_7029-2" data-name="Trazado 7029" d="M735.165,5354.787v-5.539a2.127,2.127,0,0,0-.514-1.562,2.194,2.194,0,0,0-1.611-.516,2.775,2.775,0,0,0-2.126.727,3.471,3.471,0,0,0-.674,2.4v4.492h-1.4v-8.562h1.139l.228,1.172h.068a2.8,2.8,0,0,1,1.206-.981,4.192,4.192,0,0,1,1.729-.347,3.694,3.694,0,0,1,2.513.746,3.034,3.034,0,0,1,.844,2.386v5.586Z" fill="#fff"/>
        <path id="Trazado_7030-2" data-name="Trazado 7030" d="M738.319,5358.631a3.613,3.613,0,0,1-1.3-.195v-1.055a4.41,4.41,0,0,0,1.147.156,1.257,1.257,0,0,0,.965-.332,1.445,1.445,0,0,0,.308-1.011v-9.969h1.4v9.875A2.233,2.233,0,0,1,738.319,5358.631Zm1-14.726a.823.823,0,0,1,.236-.653.927.927,0,0,1,1.173,0,.812.812,0,0,1,.244.649.822.822,0,0,1-.244.652.855.855,0,0,1-.582.215.781.781,0,0,1-.827-.867Z" fill="#fff"/>
        <path id="Trazado_7031-2" data-name="Trazado 7031" d="M749.495,5354.787l-.279-1.218h-.067a3.84,3.84,0,0,1-1.379,1.089,4.5,4.5,0,0,1-1.716.286,3.243,3.243,0,0,1-2.155-.657,2.3,2.3,0,0,1-.78-1.867q0-2.594,4.478-2.719l1.569-.046v-.532a2.063,2.063,0,0,0-.468-1.488,2.018,2.018,0,0,0-1.5-.48,6.476,6.476,0,0,0-2.615.656l-.43-.992a6.9,6.9,0,0,1,1.5-.539,6.994,6.994,0,0,1,1.632-.2,3.712,3.712,0,0,1,2.45.68,2.713,2.713,0,0,1,.8,2.18v5.843Zm-3.163-.914a2.98,2.98,0,0,0,2.054-.664,2.359,2.359,0,0,0,.746-1.859v-.774l-1.4.055a5.441,5.441,0,0,0-2.408.481,1.423,1.423,0,0,0-.738,1.324,1.286,1.286,0,0,0,.46,1.07A2.008,2.008,0,0,0,746.332,5353.873Z" fill="#fff"/>
      </g>
    </g>
  </g>
</svg>
