<svg xmlns="http://www.w3.org/2000/svg" width="292" height="255" viewBox="0 0 292 255">
  <g id="Grupo_73299" data-name="Grupo 73299" transform="translate(7044 6454)">
    <path id="Trazado_117712" data-name="Trazado 117712" d="M20,0H272a20,20,0,0,1,20,20V235a20,20,0,0,1-20,20H20A20,20,0,0,1,0,235V20A20,20,0,0,1,20,0Z" transform="translate(-7044 -6454)" fill="#f6f6f6"/>
    <path id="Trazado_117721" data-name="Trazado 117721" d="M70.554,0A70.554,70.554,0,1,1,0,70.554,70.554,70.554,0,0,1,70.554,0Z" transform="translate(-7005.664 -6425)" fill="#3d81ff"/>
    <path id="Trazado_117722" data-name="Trazado 117722" d="M70.554,0A70.554,70.554,0,1,1,0,70.554,70.554,70.554,0,0,1,70.554,0Z" transform="translate(-6933.26 -6425)" fill="#805ebf"/>
    <g id="Grupo_9980" data-name="Grupo 9980" transform="translate(-7906 -11883.238)">
      <path id="Trazado_7039" data-name="Trazado 7039" d="M962.7,5629.662l-1.535-3.633H956.22l-1.519,3.633h-1.45l4.875-11.469h1.206l4.85,11.469Zm-1.982-4.828-1.434-3.539c-.185-.449-.377-1-.573-1.649a14.165,14.165,0,0,1-.531,1.649l-1.451,3.539Z" fill="#14233a"/>
      <path id="Trazado_7040" data-name="Trazado 7040" d="M971.578,5629.662h-6.705v-.883l5.044-6.672h-4.731V5621.1h6.266v1.008l-4.976,6.547h5.1Z" fill="#14233a"/>
      <path id="Trazado_7041" data-name="Trazado 7041" d="M975.062,5621.1v5.555a2.132,2.132,0,0,0,.514,1.563,2.2,2.2,0,0,0,1.612.515,2.749,2.749,0,0,0,2.121-.734,3.511,3.511,0,0,0,.67-2.4v-4.5h1.4v8.563h-1.155l-.2-1.149h-.077a2.73,2.73,0,0,1-1.193.969,4.284,4.284,0,0,1-1.742.336,3.719,3.719,0,0,1-2.526-.742,3.021,3.021,0,0,1-.839-2.375v-5.6Z" fill="#14233a"/>
      <path id="Trazado_7042" data-name="Trazado 7042" d="M985.748,5629.662h-1.4v-12.156h1.4Z" fill="#14233a"/>
      <path id="Trazado_7043" data-name="Trazado 7043" d="M997.228,5623.482h3.474v1.078h-3.474v3.328h-1.173v-3.328H992.6v-1.078h3.458v-3.344h1.173Z" fill="#14233a"/>
      <path id="Trazado_7044" data-name="Trazado 7044" d="M1014.821,5618.24h1.543l-4.444,11.422H1010.5l-4.42-11.422h1.519l2.834,7.391a19.357,19.357,0,0,1,.775,2.476,19.637,19.637,0,0,1,.793-2.523Z" fill="#14233a"/>
      <path id="Trazado_7045" data-name="Trazado 7045" d="M1017.731,5618.779a.823.823,0,0,1,.236-.652.927.927,0,0,1,1.173,0,.808.808,0,0,1,.244.648.822.822,0,0,1-.244.652.85.85,0,0,1-.582.215.781.781,0,0,1-.827-.867Zm1.518,10.883h-1.4V5621.1h1.4Z" fill="#14233a"/>
      <path id="Trazado_7046" data-name="Trazado 7046" d="M1030.2,5625.373a4.508,4.508,0,0,1-1.138,3.269,4.176,4.176,0,0,1-3.147,1.176,4.425,4.425,0,0,1-2.2-.539,3.658,3.658,0,0,1-1.484-1.547,5.049,5.049,0,0,1-.524-2.359,4.494,4.494,0,0,1,1.131-3.262,4.165,4.165,0,0,1,3.138-1.168,4.065,4.065,0,0,1,3.082,1.2A4.481,4.481,0,0,1,1030.2,5625.373Zm-7.043,0a3.853,3.853,0,0,0,.708,2.5,2.966,2.966,0,0,0,4.171,0,3.823,3.823,0,0,0,.713-2.5,3.762,3.762,0,0,0-.713-2.481,2.59,2.59,0,0,0-2.1-.847,2.55,2.55,0,0,0-2.074.836A3.8,3.8,0,0,0,1023.154,5625.373Z" fill="#14233a"/>
      <path id="Trazado_7047" data-name="Trazado 7047" d="M1034.052,5629.662h-1.4v-12.156h1.4Z" fill="#14233a"/>
      <path id="Trazado_7048" data-name="Trazado 7048" d="M1040.926,5629.818a4.436,4.436,0,0,1-3.235-1.156,4.28,4.28,0,0,1-1.185-3.211,4.721,4.721,0,0,1,1.1-3.289,3.782,3.782,0,0,1,2.956-1.219,3.626,3.626,0,0,1,2.75,1.059,3.875,3.875,0,0,1,1.011,2.793v.82h-6.368a3.238,3.238,0,0,0,.823,2.289,2.966,2.966,0,0,0,2.2.781,7.936,7.936,0,0,0,2.952-.578v1.156a7.757,7.757,0,0,1-1.4.426A8.5,8.5,0,0,1,1040.926,5629.818Zm-.38-7.789a2.378,2.378,0,0,0-1.775.672,2.971,2.971,0,0,0-.781,1.859h4.833a2.712,2.712,0,0,0-.59-1.879A2.164,2.164,0,0,0,1040.546,5622.029Z" fill="#14233a"/>
      <path id="Trazado_7049" data-name="Trazado 7049" d="M1049.7,5628.748a4.883,4.883,0,0,0,.717-.051,5,5,0,0,0,.548-.1v.992a2.774,2.774,0,0,1-.67.168,5.478,5.478,0,0,1-.8.066q-2.682,0-2.681-2.617v-5.094h-1.325v-.625l1.325-.539.59-1.828h.81v1.984h2.682v1.008h-2.682v5.039a1.653,1.653,0,0,0,.4,1.188A1.435,1.435,0,0,0,1049.7,5628.748Z" fill="#14233a"/>
      <path id="Trazado_7050" data-name="Trazado 7050" d="M1058.493,5629.662l-.278-1.219h-.067a3.843,3.843,0,0,1-1.379,1.09,4.523,4.523,0,0,1-1.716.285,3.249,3.249,0,0,1-2.155-.656,2.3,2.3,0,0,1-.781-1.867q0-2.595,4.479-2.719l1.569-.047V5624a2.059,2.059,0,0,0-.469-1.488,2.011,2.011,0,0,0-1.5-.481,6.492,6.492,0,0,0-2.614.656l-.431-.992a7.145,7.145,0,0,1,3.13-.734,3.714,3.714,0,0,1,2.45.679,2.714,2.714,0,0,1,.8,2.18v5.844Zm-3.162-.914a2.987,2.987,0,0,0,2.054-.664,2.362,2.362,0,0,0,.746-1.86v-.773l-1.4.055a5.425,5.425,0,0,0-2.408.48,1.424,1.424,0,0,0-.738,1.324,1.29,1.29,0,0,0,.46,1.071A2.006,2.006,0,0,0,1055.331,5628.748Z" fill="#14233a"/>
    </g>
    <path id="Trazado_117723" data-name="Trazado 117723" d="M0,0H168.249V19.966H0Z" transform="translate(-6983.033 -6247.388)" fill="#5542bf"/>
    <g id="Grupo_9982" data-name="Grupo 9982" transform="translate(-7906 -11883.238)">
      <path id="Trazado_7051" data-name="Trazado 7051" d="M970.693,5652.024l-1.535-3.633h-4.942l-1.519,3.633h-1.45l4.875-11.469h1.206l4.85,11.469Zm-1.982-4.828-1.434-3.54q-.277-.67-.573-1.648a14.042,14.042,0,0,1-.531,1.648l-1.451,3.54Z" fill="#fff"/>
      <path id="Trazado_7052" data-name="Trazado 7052" d="M979.574,5652.024h-6.7v-.883l5.044-6.672h-4.731v-1.008h6.266v1.008l-4.976,6.547h5.1Z" fill="#fff"/>
      <path id="Trazado_7053" data-name="Trazado 7053" d="M983.058,5643.461v5.555a2.129,2.129,0,0,0,.514,1.562,2.2,2.2,0,0,0,1.612.516,2.744,2.744,0,0,0,2.121-.734,3.512,3.512,0,0,0,.67-2.4v-4.5h1.4v8.563H988.22l-.2-1.149h-.076a2.746,2.746,0,0,1-1.194.969,4.292,4.292,0,0,1-1.742.336,3.712,3.712,0,0,1-2.525-.742,3.017,3.017,0,0,1-.84-2.375v-5.6Z" fill="#fff"/>
      <path id="Trazado_7054" data-name="Trazado 7054" d="M993.744,5652.024h-1.4v-12.157h1.4Z" fill="#fff"/>
      <path id="Trazado_7055" data-name="Trazado 7055" d="M1003.225,5652.024l-3.509-8.563h1.5l1.99,5.078a22.591,22.591,0,0,1,.793,2.313h.067a16.873,16.873,0,0,1,.587-1.715q.493-1.3,2.214-5.676h1.5l-3.509,8.563Z" fill="#fff"/>
      <path id="Trazado_7056" data-name="Trazado 7056" d="M1009.735,5641.141a.826.826,0,0,1,.237-.652.925.925,0,0,1,1.173,0,.811.811,0,0,1,.244.649.821.821,0,0,1-.244.652.85.85,0,0,1-.582.215.782.782,0,0,1-.828-.867Zm1.519,10.883h-1.4v-8.563h1.4Z" fill="#fff"/>
      <path id="Trazado_7057" data-name="Trazado 7057" d="M1022.2,5647.735a4.506,4.506,0,0,1-1.138,3.269,4.174,4.174,0,0,1-3.146,1.176,4.427,4.427,0,0,1-2.2-.539,3.662,3.662,0,0,1-1.485-1.547,5.051,5.051,0,0,1-.523-2.359,4.5,4.5,0,0,1,1.13-3.262,4.166,4.166,0,0,1,3.138-1.168,4.065,4.065,0,0,1,3.083,1.195A4.49,4.49,0,0,1,1022.2,5647.735Zm-7.043,0a3.847,3.847,0,0,0,.709,2.5,2.965,2.965,0,0,0,4.171,0,3.827,3.827,0,0,0,.713-2.5,3.768,3.768,0,0,0-.713-2.481,2.6,2.6,0,0,0-2.1-.848,2.552,2.552,0,0,0-2.075.836A3.806,3.806,0,0,0,1015.158,5647.735Z" fill="#fff"/>
      <path id="Trazado_7058" data-name="Trazado 7058" d="M1026.056,5652.024h-1.4v-12.157h1.4Z" fill="#fff"/>
      <path id="Trazado_7059" data-name="Trazado 7059" d="M1032.93,5652.18a4.434,4.434,0,0,1-3.235-1.156,4.28,4.28,0,0,1-1.185-3.211,4.722,4.722,0,0,1,1.1-3.289,3.785,3.785,0,0,1,2.956-1.219,3.626,3.626,0,0,1,2.75,1.059,3.875,3.875,0,0,1,1.012,2.792v.821h-6.368a3.241,3.241,0,0,0,.822,2.289,2.971,2.971,0,0,0,2.2.781,7.95,7.95,0,0,0,2.952-.578v1.156a7.8,7.8,0,0,1-1.405.426A8.451,8.451,0,0,1,1032.93,5652.18Zm-.38-7.789a2.379,2.379,0,0,0-1.775.672,2.969,2.969,0,0,0-.78,1.859h4.832a2.707,2.707,0,0,0-.59-1.879A2.161,2.161,0,0,0,1032.55,5644.391Z" fill="#fff"/>
      <path id="Trazado_7060" data-name="Trazado 7060" d="M1041.7,5651.11a4.942,4.942,0,0,0,.717-.051,4.871,4.871,0,0,0,.549-.106v.993a2.777,2.777,0,0,1-.671.168,5.54,5.54,0,0,1-.8.066q-2.682,0-2.682-2.617v-5.094h-1.325v-.625l1.325-.539.59-1.828h.81v1.984h2.683v1.008h-2.683v5.039a1.651,1.651,0,0,0,.4,1.188A1.435,1.435,0,0,0,1041.7,5651.11Z" fill="#fff"/>
      <path id="Trazado_7061" data-name="Trazado 7061" d="M1050.5,5652.024l-.278-1.219h-.068a3.82,3.82,0,0,1-1.378,1.09,4.5,4.5,0,0,1-1.716.285,3.253,3.253,0,0,1-2.156-.656,2.306,2.306,0,0,1-.78-1.868q0-2.594,4.479-2.718l1.569-.047v-.531a2.061,2.061,0,0,0-.469-1.489,2.013,2.013,0,0,0-1.5-.48,6.49,6.49,0,0,0-2.614.656l-.431-.992a6.913,6.913,0,0,1,1.5-.539,7,7,0,0,1,1.633-.2,3.714,3.714,0,0,1,2.45.679,2.715,2.715,0,0,1,.8,2.18v5.844Zm-3.162-.914a2.985,2.985,0,0,0,2.054-.664,2.362,2.362,0,0,0,.746-1.86v-.773l-1.4.054a5.418,5.418,0,0,0-2.407.481,1.422,1.422,0,0,0-.738,1.324,1.286,1.286,0,0,0,.46,1.07A2,2,0,0,0,1047.336,5651.11Z" fill="#fff"/>
    </g>
    <path id="Trazado_117724" data-name="Trazado 117724" d="M34.352,0C53.324,0,68.7,27.113,68.7,60.559s-15.38,60.559-34.352,60.559S0,94.006,0,60.559,15.38,0,34.352,0Z" transform="translate(-6933.26 -6415.006)" fill="#5a31b2"/>
  </g>
</svg>
