<svg xmlns="http://www.w3.org/2000/svg" width="538.798" height="268.167" viewBox="0 0 538.798 268.167">
  <g id="Grupo_10082" data-name="Grupo 10082" transform="translate(-200.879 -12484.022)">
    <g id="Grupo_10007" data-name="Grupo 10007">
      <path id="Rectángulo_3421" data-name="Rectángulo 3421" d="M3.053,0H259.946A3.054,3.054,0,0,1,263,3.054v21.72a3.054,3.054,0,0,1-3.054,3.054H3.054A3.054,3.054,0,0,1,0,24.773V3.053A3.053,3.053,0,0,1,3.053,0Z" transform="translate(339.306 12528.916)" fill="#d3c9d0" style="mix-blend-mode: multiply;isolation: isolate"/>
      <g id="Grupo_9997" data-name="Grupo 9997">
        <path id="Trazado_7115" data-name="Trazado 7115" d="M541.224,12504.447c-.739-1.1.414-2.426.177-5.029a13.832,13.832,0,0,0-.3-1.86h-8.037a14,14,0,0,0-.3,1.86c-.237,2.6.915,3.933.177,5.029s-3.55,1.862-3.55,6.654v15.209a2.606,2.606,0,0,0,2.606,2.605h10.172a2.606,2.606,0,0,0,2.606-2.605V12511.1C544.774,12506.31,541.964,12505.54,541.224,12504.447Z" fill="#9a9db3" opacity="0.3"/>
        <path id="Trazado_7116" data-name="Trazado 7116" d="M541.754,12505.611a4.562,4.562,0,0,1-.923-.9,2.972,2.972,0,0,1-.145-2.439,8.809,8.809,0,0,0,.244-2.812q-.021-.22-.048-.434a.26.26,0,0,0-.107-.178.263.263,0,0,0-.2-.043,28.675,28.675,0,0,1-6.965-.02.257.257,0,0,0-.208.036.261.261,0,0,0-.112.18c-.02.157-.042.333-.054.458a8.79,8.79,0,0,0,.242,2.813,2.973,2.973,0,0,1-.142,2.439,4.611,4.611,0,0,1-.926.9,6.1,6.1,0,0,0-2.544,5.49v15.209a2.134,2.134,0,0,0,2.133,2.133h10.172a2.134,2.134,0,0,0,2.132-2.133V12511.1A6.1,6.1,0,0,0,541.754,12505.611Z" fill="#da751b" opacity="0.8"/>
        <path id="Trazado_7117" data-name="Trazado 7117" d="M540.158,12494.713h-6.153a14.849,14.849,0,0,0-.942,2.845H541.1A14.852,14.852,0,0,0,540.158,12494.713Z" fill="#805152"/>
        <path id="Trazado_7118" data-name="Trazado 7118" d="M540.158,12488.649a.74.74,0,0,0-.738-.741h-4.677a.74.74,0,0,0-.738.741v6.063h6.153Z" fill="#713f46"/>
        <g id="Grupo_9996" data-name="Grupo 9996" opacity="0.7">
          <path id="Trazado_7119" data-name="Trazado 7119" d="M542.779,12527.266a.523.523,0,0,1-.2-.037.551.551,0,0,1-.318-.714.565.565,0,0,0,.04-.2V12511.1a4.6,4.6,0,0,0-1.974-4.286,5.915,5.915,0,0,1-1.229-1.234,4.38,4.38,0,0,1-.376-3.629,7.286,7.286,0,0,0,.215-2.352c-.021-.238-.054-.485-.093-.736a.553.553,0,1,1,1.092-.173c.044.275.079.548.1.81a8.441,8.441,0,0,1-.234,2.678,3.389,3.389,0,0,0,.21,2.783,4.892,4.892,0,0,0,1.012,1,5.647,5.647,0,0,1,2.38,5.144v15.209a1.674,1.674,0,0,1-.114.6A.552.552,0,0,1,542.779,12527.266Z" fill="#fff"/>
        </g>
      </g>
      <g id="Grupo_9999" data-name="Grupo 9999">
        <path id="Trazado_7120" data-name="Trazado 7120" d="M533.591,12511.3a5.521,5.521,0,0,0-2.639-5.212l-1.011-.61a3.891,3.891,0,0,1-1.865-3.038l-.551-7.428h-5.344l-.552,7.428a3.89,3.89,0,0,1-1.864,3.038l-1.011.61a5.521,5.521,0,0,0-2.639,5.212l1.382,15.424a2.4,2.4,0,0,0,2.4,2.191h9.922a2.407,2.407,0,0,0,2.395-2.191Z" fill="#9a9db3" opacity="0.3"/>
        <path id="Trazado_7121" data-name="Trazado 7121" d="M530.708,12506.494l-1.01-.61a4.368,4.368,0,0,1-2.093-3.409l-.2-2.645a.258.258,0,0,0-.115-.2.255.255,0,0,0-.225-.028,10.736,10.736,0,0,1-4.431,0,.261.261,0,0,0-.226.029.257.257,0,0,0-.115.2l-.2,2.647a4.364,4.364,0,0,1-2.092,3.409l-1.008.61a5.076,5.076,0,0,0-2.414,4.764l1.382,15.424a1.924,1.924,0,0,0,1.924,1.762h9.922a1.925,1.925,0,0,0,1.924-1.762l1.382-15.424A5.078,5.078,0,0,0,530.708,12506.494Z" fill="#d16652"/>
        <path id="Trazado_7122" data-name="Trazado 7122" d="M527.83,12488.564v-3.813a.729.729,0,0,0-.729-.729h-4.5a.729.729,0,0,0-.729.729v3.813a.729.729,0,0,0,.729.729h4.5A.729.729,0,0,0,527.83,12488.564Z" fill="#d16652"/>
        <path id="Trazado_7123" data-name="Trazado 7123" d="M527.525,12495.014l-.424-5.721h-4.5l-.424,5.721h5.344Z" fill="#d16652"/>
        <g id="Grupo_9998" data-name="Grupo 9998" opacity="0.7">
          <path id="Trazado_7124" data-name="Trazado 7124" d="M530.266,12527.273a.572.572,0,0,1-.127-.016.559.559,0,0,1-.415-.668c.005-.02.026-.089.033-.109l1.372-15.36a3.509,3.509,0,0,0-1.667-3.295l-1.012-.61a5.941,5.941,0,0,1-2.838-4.625l-.477-6.435a.551.551,0,0,1,.51-.592.56.56,0,0,1,.593.51l.477,6.434a4.829,4.829,0,0,0,2.307,3.761l1.011.61a4.625,4.625,0,0,1,2.2,4.34l-1.383,15.424a.812.812,0,0,1-.048.206A.546.546,0,0,1,530.266,12527.273Z" fill="#fff"/>
        </g>
      </g>
      <g id="Grupo_10000" data-name="Grupo 10000">
        <rect id="Rectángulo_3422" data-name="Rectángulo 3422" width="3.797" height="32.879" transform="translate(447.536 12496.038)" fill="#d8d056"/>
        <rect id="Rectángulo_3423" data-name="Rectángulo 3423" width="3.323" height="34.875" transform="translate(444.214 12494.041)" fill="#d16652"/>
        <rect id="Rectángulo_3424" data-name="Rectángulo 3424" width="3.228" height="33.466" transform="translate(440.986 12495.45)" fill="#e6ac80"/>
        <rect id="Rectángulo_3425" data-name="Rectángulo 3425" width="4.178" height="33.466" transform="translate(436.808 12495.45)" fill="#bb9a80"/>
        <rect id="Rectángulo_3426" data-name="Rectángulo 3426" width="4.747" height="36.402" transform="translate(432.061 12492.515)" fill="#d16652"/>
        <rect id="Rectángulo_3427" data-name="Rectángulo 3427" width="4.747" height="33.466" transform="translate(427.314 12495.45)" fill="#e6d0c6"/>
        <rect id="Rectángulo_3428" data-name="Rectángulo 3428" width="3.417" height="33.466" transform="translate(423.897 12495.45)" fill="#d16652"/>
        <rect id="Rectángulo_3429" data-name="Rectángulo 3429" width="4.842" height="39.337" transform="translate(419.055 12489.579)" fill="#6c5f80"/>
        <rect id="Rectángulo_3430" data-name="Rectángulo 3430" width="5.411" height="35.814" transform="translate(413.644 12493.103)" fill="#ff9a28"/>
        <rect id="Rectángulo_3431" data-name="Rectángulo 3431" width="3.133" height="35.814" transform="translate(410.511 12493.103)" fill="#d8d056"/>
        <rect id="Rectángulo_3432" data-name="Rectángulo 3432" width="5.601" height="34.875" transform="translate(404.91 12494.041)" fill="#9e9a89"/>
        <rect id="Rectángulo_3433" data-name="Rectángulo 3433" width="4.462" height="32.879" transform="translate(400.448 12496.038)" fill="#d16652"/>
        <rect id="Rectángulo_3434" data-name="Rectángulo 3434" width="2.469" height="35.462" transform="translate(397.979 12493.454)" fill="#6c3e47"/>
        <rect id="Rectángulo_3435" data-name="Rectángulo 3435" width="5.126" height="38.632" transform="translate(392.853 12490.284)" fill="#7c88a7"/>
        <rect id="Rectángulo_3436" data-name="Rectángulo 3436" width="4.273" height="37.224" transform="translate(388.58 12491.692)" fill="#6c3e47"/>
        <rect id="Rectángulo_3437" data-name="Rectángulo 3437" width="5.221" height="39.337" transform="translate(383.359 12489.579)" fill="#d8ac38"/>
        <rect id="Rectángulo_3438" data-name="Rectángulo 3438" width="36.401" height="2.943" transform="translate(368.899 12527.973) rotate(-71.297)" fill="#d16652"/>
        <rect id="Rectángulo_3439" data-name="Rectángulo 3439" width="34.875" height="4.177" transform="matrix(0.501, -0.865, 0.865, 0.501, 357.766, 12526.822)" fill="#e68038"/>
        <rect id="Rectángulo_3440" data-name="Rectángulo 3440" width="4.163" height="23.727" transform="translate(467.48 12510.177) rotate(-37.838)" fill="#e6d0c6"/>
        <rect id="Rectángulo_3441" data-name="Rectángulo 3441" width="2.997" height="23.727" transform="translate(463.071 12506.459) rotate(-18.831)" fill="#d16652"/>
        <rect id="Rectángulo_3442" data-name="Rectángulo 3442" width="4.246" height="27.89" transform="translate(458.826 12501.026)" fill="#6c5f80"/>
        <rect id="Rectángulo_3443" data-name="Rectángulo 3443" width="4.745" height="25.393" transform="translate(454.081 12503.523)" fill="#e6d0c6"/>
        <rect id="Rectángulo_3444" data-name="Rectángulo 3444" width="2.747" height="25.393" transform="translate(451.333 12503.523)" fill="#6c3e47"/>
      </g>
      <g id="Grupo_10005" data-name="Grupo 10005">
        <g id="Grupo_10001" data-name="Grupo 10001">
          <path id="Trazado_7125" data-name="Trazado 7125" d="M510.082,12504.105a12.038,12.038,0,0,0-7.781-8.59,11.441,11.441,0,0,0-1.656-.408c3.517.821,5.191,3.957,6.181,6.263a14.385,14.385,0,0,1,1.138,6,17.481,17.481,0,0,1-4.72,11.454,10.45,10.45,0,0,1-3.071,2.288c-.281.138-.537.256-.775.348a2.06,2.06,0,0,1-.544.254,8.52,8.52,0,0,0,3.484-1.431c.914-.587,1.755-1.247,2.445-1.774a16.274,16.274,0,0,0,5.072-6.034C510.849,12510.157,510.65,12506.522,510.082,12504.105Z" fill="#9a8a48"/>
          <path id="Trazado_7126" data-name="Trazado 7126" d="M503.244,12518.825a17.481,17.481,0,0,0,4.72-11.454,14.385,14.385,0,0,0-1.138-6c-.99-2.306-2.664-5.441-6.181-6.263-.349-.061-.7-.1-1.045-.13a3.707,3.707,0,0,1,1.872,1.322c2.433,3.017,2.447,7.942,2.447,11.953a26.512,26.512,0,0,1-.964,8.178,9.4,9.4,0,0,1-3.389,4.922c-.057.039-.115.075-.168.108.238-.092.494-.21.775-.348A10.45,10.45,0,0,0,503.244,12518.825Z" fill="#aba557"/>
          <path id="Trazado_7127" data-name="Trazado 7127" d="M502.955,12516.431a26.512,26.512,0,0,0,.964-8.178c0-4.011-.014-8.937-2.447-11.953a3.707,3.707,0,0,0-1.872-1.322c-.168-.013-.334-.023-.5-.028a54.091,54.091,0,0,1,.619,12.755c-.176,4.67-.581,9.354-1.073,13.989a4.5,4.5,0,0,0,.752-.232c.053-.033.111-.069.168-.108A9.4,9.4,0,0,0,502.955,12516.431Z" fill="#9a8a48"/>
          <path id="Trazado_7128" data-name="Trazado 7128" d="M499.1,12494.949c-.187-.006-.375-.007-.562,0-2.34.408-3.522,3.8-4.223,6.252a24.286,24.286,0,0,0-.878,5.972,25.823,25.823,0,0,0,2.244,11.548,7.77,7.77,0,0,0,1.656,2.353,2.338,2.338,0,0,0,1.026.669c.094-.012.189-.025.283-.045.492-4.635.9-9.319,1.073-13.989A54.091,54.091,0,0,0,499.1,12494.949Z" fill="#aba557"/>
          <path id="Trazado_7129" data-name="Trazado 7129" d="M495.681,12518.717a25.823,25.823,0,0,1-2.244-11.548,24.286,24.286,0,0,1,.878-5.972c.7-2.452,1.883-5.844,4.223-6.252-.275,0-.548.017-.823.043a8.026,8.026,0,0,0-3.136,1.215c-4.477,2.918-4.832,7.841-5.105,11.85-.189,2.764-.161,5.6,1.143,8.208a9.893,9.893,0,0,0,2.119,2.811q2.006,1.245,4.114,2.313a3.3,3.3,0,0,0,1.486.355h.027a2.338,2.338,0,0,1-1.026-.669A7.77,7.77,0,0,1,495.681,12518.717Z" fill="#9a8a48"/>
          <path id="Trazado_7130" data-name="Trazado 7130" d="M490.617,12516.261c-1.3-2.607-1.332-5.444-1.143-8.208.273-4.009.628-8.932,5.105-11.85a8.026,8.026,0,0,1,3.136-1.215,13.339,13.339,0,0,0-11.295,9.539c-1.671,5.665.263,10.585,5.1,13.769.4.262.809.523,1.216.775A9.893,9.893,0,0,1,490.617,12516.261Z" fill="#aba557"/>
        </g>
        <g id="Grupo_10002" data-name="Grupo 10002">
          <path id="Trazado_7131" data-name="Trazado 7131" d="M512.815,12490.628a2.27,2.27,0,0,0-1.149,1.438.015.015,0,0,0,.029.01,2.351,2.351,0,0,1,.508-.841c.2-.2.456-.325.653-.52C512.887,12490.684,512.868,12490.612,512.815,12490.628Z" fill="#6c4e47"/>
          <path id="Trazado_7132" data-name="Trazado 7132" d="M515.343,12492.557a1.567,1.567,0,0,0-1.343.738c-.009.013.011.028.02.014a1.441,1.441,0,0,1,1.312-.615C515.42,12492.7,515.43,12492.559,515.343,12492.557Z" fill="#6c4e47"/>
          <path id="Trazado_7133" data-name="Trazado 7133" d="M489.049,12498.374l-.015,0-.071,0c-.091,0-.072.139.008.15a.976.976,0,0,1,.907.617.015.015,0,0,0,.028-.011A1.1,1.1,0,0,0,489.049,12498.374Z" fill="#6c4e47"/>
          <path id="Trazado_7134" data-name="Trazado 7134" d="M510.065,12501.859a.935.935,0,0,0-.536.186,1.5,1.5,0,0,0-.42.363c-.009.011.008.027.02.017a1.5,1.5,0,0,1,.452-.337c.163-.073.34-.069.5-.134C510.132,12501.936,510.111,12501.865,510.065,12501.859Z" fill="#6c4e47"/>
          <path id="Trazado_7135" data-name="Trazado 7135" d="M511.481,12504.142a1.366,1.366,0,0,0-1.365.385.014.014,0,0,0,.017.021,1.4,1.4,0,0,1,.667-.308c.225-.031.437.019.658.008A.055.055,0,0,0,511.481,12504.142Z" fill="#6c4e47"/>
          <path id="Trazado_7136" data-name="Trazado 7136" d="M505.926,12518.516h0c-.07-.315-.5-.519-.787-.547-.015,0-.021.021-.006.026a.973.973,0,0,1,.422.239c.1.1.175.228.274.327C505.867,12518.6,505.939,12518.568,505.926,12518.516Z" fill="#6c4e47"/>
          <path id="Trazado_7137" data-name="Trazado 7137" d="M503.458,12520.176a1.609,1.609,0,0,0-.278-.949c-.01-.013-.03,0-.024.016a2.515,2.515,0,0,1,.188.926.056.056,0,0,0,.112.008Z" fill="#6c4e47"/>
          <path id="Trazado_7138" data-name="Trazado 7138" d="M508.175,12516.5l-.046-.046a.057.057,0,0,0-.058-.017,3.225,3.225,0,0,0-1.063-.356.013.013,0,0,0-.006.024,5.435,5.435,0,0,1,1.053.524C508.135,12516.679,508.25,12516.569,508.175,12516.5Z" fill="#6c4e47"/>
          <path id="Trazado_7139" data-name="Trazado 7139" d="M486.176,12509.342a1.27,1.27,0,0,0-1.176.349c-.061.056.023.154.082.1a1.483,1.483,0,0,1,1.088-.419C486.185,12509.369,486.192,12509.346,486.176,12509.342Z" fill="#6c4e47"/>
          <path id="Trazado_7140" data-name="Trazado 7140" d="M487.03,12503.475a1.415,1.415,0,0,0-1.16-.277.051.051,0,0,0,.019.1h0a1.59,1.59,0,0,1,1.129.2A.011.011,0,0,0,487.03,12503.475Z" fill="#6c4e47"/>
          <path id="Trazado_7141" data-name="Trazado 7141" d="M488.25,12514.845a1.026,1.026,0,0,0-.982.48c-.033.075.079.124.123.063h0a1.8,1.8,0,0,1,.314-.347.976.976,0,0,1,.542-.162A.018.018,0,0,0,488.25,12514.845Z" fill="#6c4e47"/>
          <path id="Trazado_7142" data-name="Trazado 7142" d="M516.07,12494.853a.713.713,0,0,0-.444.012,2.888,2.888,0,0,0-.528.178.012.012,0,0,0,.011.021,1.655,1.655,0,0,1,.561-.118,1.485,1.485,0,0,0,.4-.016A.04.04,0,0,0,516.07,12494.853Z" fill="#6c4e47"/>
          <path id="Trazado_7143" data-name="Trazado 7143" d="M508.264,12492.13a1.022,1.022,0,0,0-.313-.493v0c-.052-.036-.138.014-.1.083a4.171,4.171,0,0,0,.312.457,1.836,1.836,0,0,1,.253.7c0,.021.031.014.03-.006A3.228,3.228,0,0,0,508.264,12492.13Z" fill="#6c4e47"/>
          <path id="Trazado_7144" data-name="Trazado 7144" d="M486.18,12506.468a1.377,1.377,0,0,0-1.051-.358.048.048,0,0,0-.049-.011l-.057.024a.08.08,0,0,0,.049.15,1.242,1.242,0,0,1,1.087.218C486.173,12506.5,486.193,12506.48,486.18,12506.468Z" fill="#6c4e47"/>
          <path id="Trazado_7145" data-name="Trazado 7145" d="M506.957,12494.48a.979.979,0,0,0-1.106-.286.032.032,0,0,0-.042,0,.421.421,0,0,1-.083.062c-.068.047.006.163.08.124a.871.871,0,0,1,1.127.117C506.947,12494.513,506.969,12494.5,506.957,12494.48Z" fill="#6c4e47"/>
          <path id="Trazado_7146" data-name="Trazado 7146" d="M515.385,12498.55l-.034-.044,0,0a1.369,1.369,0,0,0-.992-.44.018.018,0,0,0,0,.035,1.3,1.3,0,0,1,.54.2,3.2,3.2,0,0,1,.374.357A.079.079,0,0,0,515.385,12498.55Z" fill="#6c4e47"/>
          <path id="Trazado_7147" data-name="Trazado 7147" d="M510.545,12511.659c-.169-.207-.62-.182-.847-.1a.017.017,0,0,0,.006.031,1.322,1.322,0,0,1,.451.026,1.883,1.883,0,0,0,.352.117A.045.045,0,0,0,510.545,12511.659Z" fill="#6c4e47"/>
          <path id="Trazado_7148" data-name="Trazado 7148" d="M512.232,12508.237a1.973,1.973,0,0,0-1.031-.094,3.1,3.1,0,0,0-1.081.284c-.017.008-.009.039.011.032a3.78,3.78,0,0,1,1.029-.211c.358-.014.7.095,1.049.1A.058.058,0,0,0,512.232,12508.237Z" fill="#6c4e47"/>
          <path id="Trazado_7149" data-name="Trazado 7149" d="M504.369,12494.972a1.466,1.466,0,0,0-1.028.268,2.342,2.342,0,0,0-.823.771c-.011.016.012.03.023.017a2.264,2.264,0,0,1,.875-.732c.31-.139.658-.1.956-.229A.052.052,0,0,0,504.369,12494.972Z" fill="#6c4e47"/>
          <path id="Trazado_7150" data-name="Trazado 7150" d="M498.147,12494.175a1.487,1.487,0,0,0-.3-.841.059.059,0,0,0-.1.048,4.934,4.934,0,0,0,.273.722,2.766,2.766,0,0,1,.115,1.051.021.021,0,0,0,.041,0A4.1,4.1,0,0,0,498.147,12494.175Z" fill="#6c4e47"/>
          <path id="Trazado_7151" data-name="Trazado 7151" d="M493.018,12495.87c-.17-.217-.428-.566-.727-.581a.057.057,0,0,0-.047.093c.185.212.5.286.7.5a2.254,2.254,0,0,1,.468.885.015.015,0,0,0,.03-.006A1.956,1.956,0,0,0,493.018,12495.87Z" fill="#6c4e47"/>
        </g>
        <g id="Grupo_10003" data-name="Grupo 10003">
          <path id="Trazado_7152" data-name="Trazado 7152" d="M513.639,12493.647a2.333,2.333,0,0,0-.039-.985.563.563,0,0,0-.037-.1,4.046,4.046,0,0,1,.468.354,4.546,4.546,0,0,1,.133,4.82,4.875,4.875,0,0,1-5.168,2,3.989,3.989,0,0,1-.473-.34A6.989,6.989,0,0,0,513.639,12493.647Z" fill="#beb766"/>
          <path id="Trazado_7153" data-name="Trazado 7153" d="M513.062,12492.275c.1.049.2.1.3.16l-.02.036a8.471,8.471,0,0,0-5.013,6.754,3.934,3.934,0,0,1-.883-2.667,4.318,4.318,0,0,1,3.971-4.361A4.834,4.834,0,0,1,513.062,12492.275Z" fill="#beb766"/>
          <path id="Trazado_7154" data-name="Trazado 7154" d="M515.358,12496.528a4.432,4.432,0,0,1-4.534,3.771,3.82,3.82,0,0,1-1.828-.566,4.875,4.875,0,0,0,5.168-2,4.546,4.546,0,0,0-.133-4.82A3.94,3.94,0,0,1,515.358,12496.528Z" fill="#aba557"/>
          <path id="Trazado_7155" data-name="Trazado 7155" d="M513.6,12492.662a2.333,2.333,0,0,1,.039.985,6.989,6.989,0,0,1-5.116,5.745c-.067-.054-.13-.109-.193-.167a8.471,8.471,0,0,1,5.013-6.754l.02-.036c.069.039.136.081.2.125A.563.563,0,0,1,513.6,12492.662Z" fill="#aba557"/>
          <path id="Trazado_7156" data-name="Trazado 7156" d="M510.311,12491.841a4.789,4.789,0,0,1,2.751.435,4.834,4.834,0,0,0-1.644-.078,4.318,4.318,0,0,0-3.971,4.361,3.934,3.934,0,0,0,.883,2.667,5.777,5.777,0,0,1-1.749-4.136c0-1.771,2.1-3,3.649-3.237Z" fill="#aba557"/>
        </g>
        <g id="Grupo_10004" data-name="Grupo 10004">
          <path id="Trazado_7157" data-name="Trazado 7157" d="M489.845,12520.733a.567.567,0,0,0-.565.6,10.919,10.919,0,0,0,3.025,7.1,1.6,1.6,0,0,0,1.147.483H503.8a1.6,1.6,0,0,0,1.146-.483,10.925,10.925,0,0,0,3.026-7.1.566.566,0,0,0-.156-.419.56.56,0,0,0-.41-.177Z" fill="#483453"/>
        </g>
      </g>
      <g id="Grupo_10006" data-name="Grupo 10006">
        <rect id="Rectángulo_3445" data-name="Rectángulo 3445" width="18.971" height="0.918" transform="translate(537.948 12508.874)" fill="#887171"/>
        <rect id="Rectángulo_3446" data-name="Rectángulo 3446" width="18.753" height="0.918" transform="translate(537.948 12514.682)" fill="#887171"/>
        <path id="Trazado_7158" data-name="Trazado 7158" d="M559.837,12514.682H538.674c.563-.309.563-4.581,0-4.89h21.163Z" fill="#dec9b3"/>
        <path id="Trazado_7159" data-name="Trazado 7159" d="M559.837,12508.392H538.674c.372-.063.372-2.943,0-3.008h21.163Z" fill="#dec9b3"/>
        <path id="Trazado_7160" data-name="Trazado 7160" d="M581.416,12515.6H555.451c.635-.127.635-6.611,0-6.726h25.965C582.05,12508.988,582.05,12515.473,581.416,12515.6Z" fill="#b3988e"/>
        <rect id="Rectángulo_3447" data-name="Rectángulo 3447" width="21.284" height="0.621" transform="translate(538.674 12524.944)" fill="#a88d58"/>
        <rect id="Rectángulo_3448" data-name="Rectángulo 3448" width="21.284" height="0.621" transform="translate(537.948 12498.886)" fill="#d16652"/>
        <rect id="Rectángulo_3449" data-name="Rectángulo 3449" width="21.284" height="0.621" transform="translate(537.948 12501.272)" fill="#d16652"/>
        <rect id="Rectángulo_3450" data-name="Rectángulo 3450" width="21.284" height="0.621" transform="translate(538.674 12528.296)" fill="#a88d58"/>
        <path id="Trazado_7161" data-name="Trazado 7161" d="M563.8,12528.295H539.454c.371-.059.371-2.67,0-2.729H563.8Z" fill="#d4bfac"/>
        <path id="Trazado_7162" data-name="Trazado 7162" d="M580.094,12528.916H559.417c.6,0,.6-3.96,0-3.972h20.677C580.691,12524.956,580.691,12528.916,580.094,12528.916Z" fill="#c4ae66"/>
        <rect id="Rectángulo_3451" data-name="Rectángulo 3451" width="20.021" height="1.136" transform="translate(557.011 12515.584)" fill="#8ca7ba"/>
        <rect id="Rectángulo_3452" data-name="Rectángulo 3452" width="20.953" height="1.137" transform="translate(556.079 12523.808)" fill="#8ca7ba"/>
        <path id="Trazado_7163" data-name="Trazado 7163" d="M553.4,12523.808h22.9c-.35-.151-.35-6.936,0-7.088H553.4Z" fill="#e7d7c2"/>
        <path id="Trazado_7164" data-name="Trazado 7164" d="M538.18,12524.944h24.47c-.706,0-.706-9.331,0-9.36H538.18C537.474,12515.613,537.474,12524.944,538.18,12524.944Z" fill="#8491aa"/>
        <path id="Trazado_7165" data-name="Trazado 7165" d="M559.417,12501.273H538.254c.563-.112.563-1.655,0-1.767h21.163Z" fill="#dec9b3"/>
        <rect id="Rectángulo_3453" data-name="Rectángulo 3453" width="21.284" height="0.621" transform="translate(537.948 12501.894)" fill="#d16652"/>
        <rect id="Rectángulo_3454" data-name="Rectángulo 3454" width="21.284" height="0.621" transform="translate(537.948 12504.281)" fill="#d16652"/>
        <rect id="Rectángulo_3455" data-name="Rectángulo 3455" width="21.284" height="0.621" transform="translate(537.948 12504.901)" fill="#4e395c"/>
        <rect id="Rectángulo_3456" data-name="Rectángulo 3456" width="21.284" height="0.621" transform="translate(537.948 12508.253)" fill="#4e395c"/>
        <path id="Trazado_7166" data-name="Trazado 7166" d="M559.417,12504.281H538.254c.563-.112.563-1.655,0-1.767h21.163Z" fill="#dec9b3"/>
        <path id="Trazado_7167" data-name="Trazado 7167" d="M575.07,12501.894H558.307c.571-.14.571-2.868,0-3.008H575.07C575.641,12499.025,575.641,12501.754,575.07,12501.894Z" fill="#d16652"/>
        <path id="Trazado_7168" data-name="Trazado 7168" d="M575.493,12504.9h-19.3c.572-.141.572-2.869,0-3.009h19.3C576.065,12502.033,576.065,12504.762,575.493,12504.9Z" fill="#c67730"/>
        <path id="Trazado_7169" data-name="Trazado 7169" d="M577.585,12508.874H555.451c.6,0,.6-3.96,0-3.972h22.134C578.182,12504.914,578.182,12508.874,577.585,12508.874Z" fill="#6c5f80"/>
      </g>
      <path id="Rectángulo_3457" data-name="Rectángulo 3457" d="M3.053,0H259.946A3.054,3.054,0,0,1,263,3.054V4.465a3.053,3.053,0,0,1-3.053,3.053H3.053A3.053,3.053,0,0,1,0,4.465V3.053A3.053,3.053,0,0,1,3.053,0Z" transform="translate(339.306 12528.916)" fill="#532c42"/>
    </g>
    <g id="Grupo_10081" data-name="Grupo 10081">
      <g id="Grupo_10008" data-name="Grupo 10008" style="mix-blend-mode: multiply;isolation: isolate">
        <path id="Trazado_7170" data-name="Trazado 7170" d="M214.211,12752.189h507.56a4.585,4.585,0,0,0,0-9.171H214.211a4.585,4.585,0,0,0,0,9.171Z" fill="#d3c9d0"/>
      </g>
      <g id="Grupo_10022" data-name="Grupo 10022">
        <g id="Grupo_10010" data-name="Grupo 10010">
          <path id="Trazado_7171" data-name="Trazado 7171" d="M400.332,12647.846l.046-.028.052,0c.049-.032,7.158-2.426,7.212-2.443l.085-.029.055-.018.008,0,.044-.028.053,0,0-.013.027,0c2.4,1.133,5.966,4.871,9.11,12.528a.779.779,0,0,1-.47,1.034c-8.449,2.86-6.546,2.215-14.883,5.038a.779.779,0,0,1-1-.533c-2.105-7.768-1.755-12.812-.374-15.488l.022-.015Z" fill="#eceef1"/>
          <g id="Grupo_10009" data-name="Grupo 10009">
            <path id="Trazado_7172" data-name="Trazado 7172" d="M385.968,12694.331a.452.452,0,0,0,.283-.572l-.987-2.918a.55.55,0,0,0-.7-.343l-8.364-24.7,21.133-21.123a.576.576,0,0,0,.281-.019l1.778-.6.9,3.8.023-.013.01,0,.047-.023.05-.009c.051-.026,7.159-2.425,7.213-2.442l.085-.029.054-.018.009,0,.045-.023.052-.009.005-.009.026-.006-2.93-6.565a.683.683,0,0,0-.351-.349l-.024-.011a.685.685,0,0,0-.492-.021l-5.126,1.735a.4.4,0,0,0-.225.188l-.052.093a.755.755,0,0,0-.075.539l.44,1.851-1.432-1.838a.684.684,0,0,0-.912-.153l-.561.362a.626.626,0,0,0-.134.121l-.006,0-20.994,20.985-.217.073-.224.229-3.337,1.131a.451.451,0,0,0-.282.572l9.38,27.7a.453.453,0,0,0-.283.573c.034.1,1.049,3.1,1.019,3.009a.45.45,0,0,0,.572.283Zm-10.1-29.521-.359-1.058.187-.158.072-.067.053-.092.014-.046,20.643-20.633.564.862a.542.542,0,0,0-.121.148Z" fill="#d3d0da"/>
          </g>
          <path id="Trazado_7173" data-name="Trazado 7173" d="M375.1,12699.6a1.607,1.607,0,0,1,1.608-1.607h16.613a1.607,1.607,0,0,1,1.608,1.607v.434a.451.451,0,0,1-.451.451H375.548a.451.451,0,0,1-.451-.451Z" fill="#eceef1"/>
          <rect id="Rectángulo_3458" data-name="Rectángulo 3458" width="1.869" height="5.331" transform="translate(381.327 12692.663)" fill="#d3d0da"/>
        </g>
        <g id="Grupo_10011" data-name="Grupo 10011">
          <path id="Trazado_7174" data-name="Trazado 7174" d="M431.812,12687.235H445.5c-.364-.287-.364-4.265,0-4.552H431.812Z" fill="#eddfc9"/>
          <path id="Trazado_7175" data-name="Trazado 7175" d="M420.252,12681.38h24.691c-.433-.06-.433-2.74,0-2.8H420.252Z" fill="#eddfc9"/>
          <path id="Trazado_7176" data-name="Trazado 7176" d="M442.79,12678.575H420.114v2.8H442.79C442.357,12681.315,442.357,12678.635,442.79,12678.575Z" fill="#dec9b3"/>
          <path id="Trazado_7177" data-name="Trazado 7177" d="M440.433,12681.829h-22.58c-.411.105-.411,6.143,0,6.261h22.58Z" fill="#887171"/>
          <path id="Trazado_7178" data-name="Trazado 7178" d="M418.624,12688.09h23.285c-.41-.118-.41-6.155,0-6.261H418.624C418.214,12681.935,418.214,12687.972,418.624,12688.09Z" fill="#dec9b3"/>
          <rect id="Rectángulo_3459" data-name="Rectángulo 3459" width="22.152" height="0.578" transform="translate(424.639 12672.53)" fill="#d16652"/>
          <rect id="Rectángulo_3460" data-name="Rectángulo 3460" width="22.152" height="0.578" transform="translate(424.639 12674.753)" fill="#d16652"/>
          <path id="Trazado_7179" data-name="Trazado 7179" d="M417.875,12700.486h19.248c-.555,0-.555-3.687,0-3.7H417.875C417.319,12696.8,417.319,12700.486,417.875,12700.486Z" fill="#a88d58"/>
          <path id="Trazado_7180" data-name="Trazado 7180" d="M423.348,12695.73h23.684c-.325-.141-.325-6.456,0-6.6H423.348Z" fill="#eddfc9"/>
          <path id="Trazado_7181" data-name="Trazado 7181" d="M423.265,12688.075h-6.992c-.658.026-.658,8.713,0,8.713h6.992Z" fill="#8491aa"/>
          <path id="Trazado_7182" data-name="Trazado 7182" d="M424.188,12688.075H417.2c-.658.026-.658,8.713,0,8.713h6.992Z" fill="#dec9b3"/>
          <path id="Trazado_7183" data-name="Trazado 7183" d="M424.446,12674.753h22.025c-.376-.078-.376-1.567,0-1.644H424.446Z" fill="#eddfc9"/>
          <rect id="Rectángulo_3461" data-name="Rectángulo 3461" width="25.143" height="0.578" transform="translate(420.265 12678.131)" fill="#4e395c"/>
          <rect id="Rectángulo_3462" data-name="Rectángulo 3462" width="25.143" height="0.578" transform="translate(420.265 12681.251)" fill="#4e395c"/>
          <rect id="Rectángulo_3463" data-name="Rectángulo 3463" width="2.615" height="0.578" transform="translate(442.793 12678.131)" fill="#6c5f80"/>
          <rect id="Rectángulo_3464" data-name="Rectángulo 3464" width="2.615" height="0.578" transform="translate(442.793 12681.251)" fill="#6c5f80"/>
          <path id="Trazado_7184" data-name="Trazado 7184" d="M421.819,12677.553l22.139,0c-.523-.1-.523-1.541,0-1.644l-22.139,0Z" fill="#dec9b3"/>
          <path id="Trazado_7185" data-name="Trazado 7185" d="M418.884,12675.331h6.207a6.242,6.242,0,0,1,0-2.8h-6.207C418.382,12672.537,418.382,12675.324,418.884,12675.331Z" fill="#d16652"/>
          <path id="Trazado_7186" data-name="Trazado 7186" d="M422.323,12675.909h21.821v-.578l-21.482,0h-.732c-.532.129-.532,2.669,0,2.8l.062,0v.01h22.152v-.578h-21.87A4.187,4.187,0,0,1,422.323,12675.909Z" fill="#d16652"/>
          <path id="Trazado_7187" data-name="Trazado 7187" d="M417.8,12699.726l26.026-.008c-.615-.138-.615-2.031,0-2.168l-26.026.007Z" fill="#dec9b3"/>
          <path id="Trazado_7188" data-name="Trazado 7188" d="M418.389,12697.557h25.654v-.761l-25.254-.008h-.862c-.624.172-.624,3.52,0,3.692l.073-.008v.014h26.043v-.761H418.332A6.218,6.218,0,0,1,418.389,12697.557Z" fill="#a88d58"/>
          <path id="Trazado_7189" data-name="Trazado 7189" d="M420.736,12681.824h-.685c-.378,0-.378-3.687,0-3.7h.685C420.346,12678.137,420.346,12681.824,420.736,12681.824Z" fill="#4e395c"/>
          <rect id="Rectángulo_3465" data-name="Rectángulo 3465" width="24.819" height="1.057" transform="translate(416.508 12688.075)" fill="#8491aa"/>
          <rect id="Rectángulo_3466" data-name="Rectángulo 3466" width="24.819" height="1.058" transform="translate(416.508 12695.73)" fill="#8491aa"/>
          <rect id="Rectángulo_3467" data-name="Rectángulo 3467" width="24.819" height="1.057" transform="translate(422.896 12688.075)" fill="#8ca7ba"/>
          <rect id="Rectángulo_3468" data-name="Rectángulo 3468" width="24.819" height="1.058" transform="translate(422.896 12695.73)" fill="#8ca7ba"/>
          <rect id="Rectángulo_3469" data-name="Rectángulo 3469" width="27.875" height="0.855" transform="translate(418.099 12681.829)" fill="#887171"/>
          <rect id="Rectángulo_3470" data-name="Rectángulo 3470" width="27.555" height="0.855" transform="translate(418.418 12687.235)" fill="#887171"/>
          <rect id="Rectángulo_3471" data-name="Rectángulo 3471" width="3.953" height="0.855" transform="translate(442.02 12681.829)" fill="#b3988e"/>
          <rect id="Rectángulo_3472" data-name="Rectángulo 3472" width="3.953" height="0.855" transform="translate(442.02 12687.235)" fill="#b3988e"/>
        </g>
        <g id="Grupo_10019" data-name="Grupo 10019">
          <path id="Trazado_7190" data-name="Trazado 7190" d="M406.975,12688.294c0-2.614-1.505-4.741-3.353-4.741H385.7c-1.849,0-3.353,2.127-3.353,4.741v4.6c0,2.616,1.5,4.743,3.353,4.743h17.926c1.848,0,3.353-2.127,3.353-4.743Z" fill="#d16652"/>
          <path id="Trazado_7191" data-name="Trazado 7191" d="M406.444,12688.294c0-2.2-1.263-3.99-2.822-3.99H385.7c-1.558,0-2.821,1.786-2.821,3.99v4.6c0,2.205,1.263,3.991,2.821,3.991h17.926c1.559,0,2.822-1.786,2.822-3.991Z" fill="#efe4df"/>
          <path id="Trazado_7192" data-name="Trazado 7192" d="M383.621,12692.895v-4.6c0-2.2,1.263-3.99,2.822-3.99H385.7c-1.558,0-2.821,1.786-2.821,3.99v4.6c0,2.205,1.263,3.991,2.821,3.991h.747C384.884,12696.886,383.621,12695.1,383.621,12692.895Z" fill="#d16652"/>
          <path id="Trazado_7193" data-name="Trazado 7193" d="M402.084,12686.483h-5.609c-.512,0-.929.587-.929,1.313v5.6c0,.725.417,1.313.929,1.313h5.609c.513,0,.928-.588.928-1.312v-5.6C403.012,12687.07,402.6,12686.483,402.084,12686.483Z" fill="#9fa5a6"/>
          <path id="Trazado_7194" data-name="Trazado 7194" d="M393.772,12687.8c0-.726-.416-1.312-.929-1.312h-5.609c-.512,0-.929.587-.929,1.313v5.6c0,.725.417,1.313.929,1.313h5.609c.513,0,.929-.588.929-1.312Z" fill="#9fa5a6"/>
          <g id="Grupo_10012" data-name="Grupo 10012">
            <path id="Trazado_7195" data-name="Trazado 7195" d="M400.1,12690.2v-1.812l-.2-.28-.2.28v1.813l.2.28Z" fill="#3b0e19"/>
            <path id="Trazado_7196" data-name="Trazado 7196" d="M401.554,12692.991h-1.322l-.2.282.194.279h1.327l.2-.281Z" fill="#3b0e19"/>
            <path id="Trazado_7197" data-name="Trazado 7197" d="M400.232,12688.2h1.322l.2-.281-.2-.28h-1.322l-.2.28Z" fill="#3b0e19"/>
            <path id="Trazado_7198" data-name="Trazado 7198" d="M401.684,12691v1.812l.2.281.2-.281V12691l-.2-.28Z" fill="#3b0e19"/>
            <path id="Trazado_7199" data-name="Trazado 7199" d="M401.554,12690.876l.2-.281-.2-.28h-1.322l-.2.28.2.281Z" fill="#3b0e19"/>
          </g>
          <g id="Grupo_10013" data-name="Grupo 10013">
            <path id="Trazado_7200" data-name="Trazado 7200" d="M398.327,12692.991h-1.322l-.2.282.194.279h1.327l.2-.281Z" fill="#3b0e19"/>
            <path id="Trazado_7201" data-name="Trazado 7201" d="M397.006,12688.2h1.322l.2-.281-.2-.28h-1.322l-.2.28Z" fill="#3b0e19"/>
            <path id="Trazado_7202" data-name="Trazado 7202" d="M398.457,12688.383v1.828l.2.266.2-.281v-1.812l-.2-.28Z" fill="#3b0e19"/>
            <path id="Trazado_7203" data-name="Trazado 7203" d="M396.876,12692.807V12691l-.2-.28-.2.28v1.812l.2.281Z" fill="#3b0e19"/>
            <path id="Trazado_7204" data-name="Trazado 7204" d="M398.327,12690.876l.2-.281-.2-.28h-1.322l-.2.28.2.281Z" fill="#3b0e19"/>
          </g>
          <g id="Grupo_10014" data-name="Grupo 10014">
            <path id="Trazado_7205" data-name="Trazado 7205" d="M390.861,12690.2v-1.812l-.2-.28-.2.28v1.813l.2.28Z" fill="#3b0e19"/>
            <path id="Trazado_7206" data-name="Trazado 7206" d="M392.313,12692.991h-1.322l-.2.282.194.279h1.327l.2-.281Z" fill="#3b0e19"/>
            <path id="Trazado_7207" data-name="Trazado 7207" d="M390.991,12688.2h1.322l.2-.281-.2-.28h-1.322l-.2.28Z" fill="#3b0e19"/>
            <path id="Trazado_7208" data-name="Trazado 7208" d="M392.443,12691v1.812l.2.281.2-.281V12691l-.2-.28Z" fill="#3b0e19"/>
            <path id="Trazado_7209" data-name="Trazado 7209" d="M392.443,12688.383v1.828l.2.266.2-.281v-1.812l-.2-.28Z" fill="#3b0e19"/>
            <path id="Trazado_7210" data-name="Trazado 7210" d="M390.861,12692.807V12691l-.2-.28-.2.28v1.812l.2.281Z" fill="#3b0e19"/>
          </g>
          <g id="Grupo_10015" data-name="Grupo 10015">
            <path id="Trazado_7211" data-name="Trazado 7211" d="M389.217,12691v1.812l.2.281.2-.281V12691l-.2-.28Z" fill="#3b0e19"/>
            <path id="Trazado_7212" data-name="Trazado 7212" d="M389.217,12688.383v1.828l.2.266.2-.281v-1.812l-.2-.28Z" fill="#3b0e19"/>
          </g>
          <path id="Trazado_7213" data-name="Trazado 7213" d="M413.433,12697.638v1.605a1.244,1.244,0,0,1-1.245,1.243H390.327a1.244,1.244,0,0,1-1.245-1.243v-1.605Z" fill="#d16652"/>
          <path id="Trazado_7214" data-name="Trazado 7214" d="M403.936,12697.615l.042-.008c.089-.015.177-.031.265-.055h0l.01,0a2.6,2.6,0,0,0,.641-.269.15.15,0,0,0,.025-.014l.042-.026a.24.24,0,0,0,.022-.016c.061-.038.122-.08.181-.123a.2.2,0,0,1,.024-.016l.041-.033a4.585,4.585,0,0,0,1.49-2.346h0l.009-.034c.011-.038.02-.077.029-.114.047-.174.085-.351.117-.533.017-.1.033-.2.046-.3.007-.056.013-.111.018-.168.009-.092.018-.185.023-.278s.008-.188.01-.283c0-.032,0-.063,0-.1v-4.6c0-.033,0-.064,0-.1,0-.1,0-.187-.01-.28s-.014-.189-.023-.282v-.011c-.009-.087-.016-.176-.028-.262a6.2,6.2,0,0,0-.19-.879,4.6,4.6,0,0,0-1.472-2.333.329.329,0,0,0-.046-.037.3.3,0,0,0-.037-.027,2.59,2.59,0,0,0-1.541-.536h13.2c.049,0,.1,0,.145,0s.07.01.105.015c.051,0,.1.011.153.019s.117.023.175.038.1.024.148.04c.018,0,.036.008.055.014s.05.024.075.034a2.521,2.521,0,0,1,.254.11c.04.019.08.04.12.062a3.068,3.068,0,0,1,.261.166c.021.016.044.026.065.041a.236.236,0,0,1,.023.021c.022.016.043.035.064.051.065.052.129.107.19.164.026.024.052.049.077.075.061.059.119.12.176.185l.06.067c.075.088.146.179.215.275l.039.06c.054.08.107.161.158.246.02.034.04.066.059.1.044.079.086.159.128.242.016.033.033.063.048.1.052.112.1.228.149.346v.006q.09.233.161.482c.014.049.025.1.039.149.031.121.06.244.084.37.006.029.016.059.021.091s.011.075.016.113c.012.069.023.141.031.212s.019.162.027.245.012.145.016.218c0,.037.007.073.008.11q.006.136.006.272v4.6c0,.189-.01.375-.025.559,0,.018,0,.036,0,.053-.005.054-.014.107-.021.16-.009.086-.02.173-.033.258s-.025.144-.039.214-.032.165-.051.245c-.006.026-.009.052-.016.077-.016.068-.037.132-.055.2-.01.036-.02.072-.029.106-.04.128-.082.254-.129.376-.009.023-.019.044-.029.068-.039.1-.08.2-.124.291-.018.038-.037.075-.055.112-.04.08-.081.156-.123.231l-.061.107c-.05.083-.1.163-.155.24-.015.021-.029.046-.045.067-.069.1-.142.19-.217.278-.018.022-.038.043-.057.063-.057.065-.117.13-.178.189l-.082.077c-.058.054-.116.1-.176.15l-.084.068c-.074.055-.15.107-.227.154-.014.009-.027.019-.041.026a2.805,2.805,0,0,1-.279.146c-.028.013-.056.021-.083.034-.07.027-.14.054-.212.077l-.1.028a2.074,2.074,0,0,1-.213.046l-.1.018a2.535,2.535,0,0,1-.312.021h-13.2a2.471,2.471,0,0,0,.308-.021Z" fill="#d16652"/>
          <g id="Grupo_10018" data-name="Grupo 10018">
            <g id="Grupo_10017" data-name="Grupo 10017" style="isolation: isolate">
              <path id="Trazado_7215" data-name="Trazado 7215" d="M411.312,12690.777v-.028c-.007-.092-.012-.185-.012-.281,0-.045,0-.092,0-.138,0-.01,0-.019,0-.028a3.333,3.333,0,0,1,.043-.393.262.262,0,0,0,0-.029c0-.016.007-.03.01-.046.013-.062.027-.123.043-.183.006-.026.012-.052.019-.076.024-.082.05-.163.08-.241v0l.006-.011a2.692,2.692,0,0,1,.114-.248c.01-.021.02-.04.031-.061a2.533,2.533,0,0,1,.142-.229l.016-.02a1.989,1.989,0,0,1,.152-.183l.041-.043a1.767,1.767,0,0,1,.183-.163l.006,0c.011-.008.022-.013.032-.021.043-.03.088-.06.133-.086l.06-.029a1.341,1.341,0,0,1,.128-.057.341.341,0,0,1,.038-.015c.009,0,.019,0,.028-.009.025-.007.05-.015.076-.021a.805.805,0,0,1,.087-.018c.025,0,.051-.008.078-.01a.3.3,0,0,1,.052-.008l.072,0h1.32a.9.9,0,0,0-.125.01c-.026,0-.052.006-.078.01s-.058.011-.088.018l-.074.021-.067.023a1.324,1.324,0,0,0-.127.057l-.059.029c-.046.026-.091.056-.134.086-.013.01-.026.017-.038.025a1.668,1.668,0,0,0-.183.163c-.014.014-.028.029-.041.043a2.174,2.174,0,0,0-.153.183l-.015.02c-.051.073-.1.149-.143.229-.01.021-.02.04-.031.061a2.692,2.692,0,0,0-.114.248l-.005.013c-.03.078-.056.159-.08.241-.007.024-.013.05-.019.075-.016.06-.031.122-.042.185-.006.024-.01.049-.014.074a3.107,3.107,0,0,0-.043.393c0,.056-.006.11-.006.166,0,.1,0,.189.012.281l.007.056a2.953,2.953,0,0,0,.072.429l.015.06c.025.1.053.19.086.28l.008.02a2.236,2.236,0,0,0,.122.271l.029.057a2.693,2.693,0,0,0,.148.238l.018.023a2.253,2.253,0,0,0,.159.188c.012.013.024.027.037.04a1.744,1.744,0,0,0,.19.164l.039.025a1.423,1.423,0,0,0,.189.111l.033.017a1.227,1.227,0,0,0,.223.077l.051.012a1.247,1.247,0,0,0,.241.026h-1.32a1.237,1.237,0,0,1-.24-.026c-.018,0-.035-.008-.052-.012a1.228,1.228,0,0,1-.223-.077l-.032-.017a1.5,1.5,0,0,1-.19-.111l-.039-.025a1.848,1.848,0,0,1-.19-.164c-.013-.013-.024-.027-.037-.04a2.106,2.106,0,0,1-.159-.188l-.018-.023a2.476,2.476,0,0,1-.147-.238c-.011-.019-.021-.038-.031-.057a2.918,2.918,0,0,1-.121-.27c0-.007,0-.016-.007-.021a2.822,2.822,0,0,1-.087-.278c0-.014-.009-.026-.012-.039a.142.142,0,0,1,0-.021,3.1,3.1,0,0,1-.071-.429C411.316,12690.795,411.313,12690.786,411.312,12690.777Z" fill="#3b0e19"/>
              <g id="Grupo_10016" data-name="Grupo 10016">
                <path id="Trazado_7216" data-name="Trazado 7216" d="M414.3,12688.1c.926,0,1.677,1.062,1.677,2.371s-.751,2.375-1.677,2.375-1.679-1.061-1.679-2.375S413.369,12688.1,414.3,12688.1Z" fill="#643c4d"/>
              </g>
            </g>
          </g>
        </g>
        <g id="Grupo_10021" data-name="Grupo 10021">
          <g id="Grupo_10020" data-name="Grupo 10020">
            <path id="Trazado_7217" data-name="Trazado 7217" d="M432,12705.127H386.21l-2.6,8.329h51Z" fill="#442037"/>
            <path id="Trazado_7218" data-name="Trazado 7218" d="M378.206,12705.127h-1.115l-6.725,39.231a.813.813,0,0,0,.8.952h1.438a1.414,1.414,0,0,0,1.35-.991l9.648-30.862,2.6-8.33Z" fill="#532c42"/>
            <path id="Trazado_7219" data-name="Trazado 7219" d="M444.25,12744.319a1.413,1.413,0,0,0,1.35.991h1.438a.813.813,0,0,0,.8-.952l-6.725-39.231H432l2.6,8.33Z" fill="#532c42"/>
          </g>
          <path id="Trazado_7220" data-name="Trazado 7220" d="M451.788,12700.486H366.419a2.32,2.32,0,1,0,0,4.641h85.369a2.32,2.32,0,1,0,0-4.641Z" fill="#532c42"/>
          <path id="Trazado_7221" data-name="Trazado 7221" d="M386.21,12705.127h-9.119l-.955,5.572h65.935l-.955-5.572H386.21Z" fill="#d9c6d4" style="mix-blend-mode: multiply;isolation: isolate"/>
        </g>
      </g>
      <g id="Grupo_10063" data-name="Grupo 10063">
        <path id="Trazado_7222" data-name="Trazado 7222" d="M287.952,12688.336a10.281,10.281,0,0,0,2.33-3.335,11.787,11.787,0,0,0,.895-3.822l-1.117.213-.022,0c-.338.063-3.922.567-4.916-6.78-.287-2.129-.692-5.351-1.185-9.174l-12.256,2.334c.819,4.423,1.423,7.878,1.661,9.276.8,4.709.437,7.439-4.488,8.377l-10.413,1.983c.182.313.38.62.589.923Z" fill="#af8080"/>
        <g id="Grupo_10059" data-name="Grupo 10059">
          <g id="Grupo_10031" data-name="Grupo 10031">
            <g id="Grupo_10026" data-name="Grupo 10026">
              <g id="Grupo_10023" data-name="Grupo 10023">
                <path id="Trazado_7223" data-name="Trazado 7223" d="M224.263,12718.7l-3.758,26.615h3.261l5.965-26.615Z" fill="#4c273d"/>
                <path id="Trazado_7224" data-name="Trazado 7224" d="M229.731,12718.7l-5.965,26.615h3.629l7.725-26.615Z" fill="#532c42"/>
              </g>
              <g id="Grupo_10024" data-name="Grupo 10024">
                <path id="Trazado_7225" data-name="Trazado 7225" d="M277.225,12718.7h-5.468l2.068,26.615h3.4Z" fill="#4c273d"/>
                <path id="Trazado_7226" data-name="Trazado 7226" d="M277.225,12718.7h5.469l-2.068,26.615h-3.4Z" fill="#532c42"/>
              </g>
              <g id="Grupo_10025" data-name="Grupo 10025">
                <path id="Trazado_7227" data-name="Trazado 7227" d="M330.189,12718.7l3.758,26.615h-3.261l-5.965-26.615Z" fill="#532c42"/>
                <path id="Trazado_7228" data-name="Trazado 7228" d="M324.72,12718.7l5.965,26.615h-3.629l-7.725-26.615Z" fill="#4c273d"/>
              </g>
            </g>
            <path id="Trazado_7229" data-name="Trazado 7229" d="M343.441,12695.311v-25.16c0-1.362.781-2.466,1.743-2.466H282.709c-.963,0-1.743,1.1-1.743,2.466v25.16c0,6.068-3.492,11.006-7.783,11.006h62.475C339.949,12706.316,343.441,12701.379,343.441,12695.311Z" fill="#d16652"/>
            <path id="Trazado_7230" data-name="Trazado 7230" d="M281.6,12646.253c-.573-2.921-2.394-4.861-4.407-4.974v-.008H214v0c2.045.066,3.906,2.019,4.486,4.979l9.812,50.059-14.3,5.724v.011H277.2V12702l14.219-5.691Z" fill="#e38073"/>
            <path id="Trazado_7231" data-name="Trazado 7231" d="M207.476,12643.579l5.131-2.054c2.539-1.017,5.173,1.1,5.883,4.728l9.812,50.059-14.323,5.734-9.811-50.059C203.456,12648.359,204.938,12644.595,207.476,12643.579Z" fill="#d16652"/>
            <path id="Trazado_7232" data-name="Trazado 7232" d="M347.211,12695.156c0-3.767-2.164-6.82-4.832-6.82H275.9c-2.668,0-4.831,3.054-4.831,6.82v4.339c0,3.767,2.163,6.821,4.831,6.821h66.474c2.668,0,4.832-3.055,4.832-6.821Z" fill="#d16652"/>
            <g id="Grupo_10028" data-name="Grupo 10028">
              <g id="Grupo_10027" data-name="Grupo 10027">
                <path id="Trazado_7233" data-name="Trazado 7233" d="M268.8,12695.311v-25.16c0-1.362.78-2.466,1.743-2.466H202.622c-.963,0-1.743,1.1-1.743,2.466v25.16c0,12.895,7.419,23.386,16.539,23.386h67.919C276.217,12718.7,268.8,12708.205,268.8,12695.311Z" fill="#d16652"/>
              </g>
            </g>
            <g id="Grupo_10030" data-name="Grupo 10030">
              <g id="Grupo_10029" data-name="Grupo 10029">
                <path id="Trazado_7234" data-name="Trazado 7234" d="M352.2,12695.311c0,12.895-7.419,23.386-16.539,23.386H285.337c-9.12,0-16.539-10.491-16.539-23.386v-25.16c0-1.362.78-2.466,1.743-2.466h5.27c.962,0,1.743,1.1,1.743,2.466v25.16c0,6.068,3.492,11.006,7.783,11.006h50.321c4.291,0,7.783-4.937,7.783-11.006v-25.16c0-1.362.781-2.466,1.743-2.466h5.27c.963,0,1.743,1.1,1.743,2.466Z" fill="#e38073"/>
              </g>
            </g>
            <path id="Trazado_7235" data-name="Trazado 7235" d="M343.312,12701.5v-3.725c0-.134-.008-.265-.014-.4-.687,5.081-3.849,8.936-7.64,8.936H285.337c-3.961,0-7.234-4.211-7.715-9.632a9.525,9.525,0,0,0-.068,1.092v3.725c0,6.078,3.485,11,7.784,11h50.191C339.828,12712.506,343.312,12707.579,343.312,12701.5Z" fill="#d3c9d0" style="mix-blend-mode: multiply;isolation: isolate"/>
            <path id="Trazado_7236" data-name="Trazado 7236" d="M342.379,12688.336H285.895c-2.668,0-4.832,3.054-4.832,6.82v4.339c0,3.767,2.164,6.821,4.832,6.821h56.484c2.668,0,4.832-3.055,4.832-6.821v-4.339C347.211,12691.39,345.047,12688.336,342.379,12688.336Z" fill="#d16652"/>
          </g>
          <g id="Grupo_10058" data-name="Grupo 10058">
            <path id="Trazado_7237" data-name="Trazado 7237" d="M287.952,12688.336H259.046s-2.585-1.072-2.585-3.476v-3.4H290.1Z" fill="#af8080"/>
            <path id="Trazado_7238" data-name="Trazado 7238" d="M344.728,12668.111a1.511,1.511,0,0,1-2.565,1.178.385.385,0,0,0-.572.036,1.505,1.505,0,0,1-2.239.144.377.377,0,0,0-.293-.108.384.384,0,0,0-.278.145,1.507,1.507,0,0,1-2.423-.072.387.387,0,0,0-.551-.084,1.48,1.48,0,0,1-.819.313,1.512,1.512,0,0,1-1.607-1.414l-.073-1.134a1.126,1.126,0,0,0-.575-.912c-1.87-1.046-3.046-2.5-2.954-3.937.151-2.335,3.583-3.74,7.667-3.14C345.335,12660.287,344.231,12660.37,344.728,12668.111Z" fill="#f2baba"/>
            <path id="Trazado_7239" data-name="Trazado 7239" d="M336.11,12661.087a3.009,3.009,0,1,1-3.515,4.885l-3.419-2.461,3.515-4.885Z" fill="#f2baba"/>
            <path id="Trazado_7240" data-name="Trazado 7240" d="M330.927,12657.357l.586-.814,1.237.89a.65.65,0,0,1,.148.906l-.207.287-3.515,4.885-.207.288a.649.649,0,0,1-.906.147l-1.237-.891.586-.813Z" fill="#dedbe1"/>
            <path id="Trazado_7241" data-name="Trazado 7241" d="M285.983,12612a5.017,5.017,0,0,1,9.15-4.116l10.533,23.382a33.029,33.029,0,0,0,10.8,13.211l15.632,11.25-.586.814-.586.814-3.515,4.885-.586.813-.207.288a.65.65,0,0,1-.906.147l-15.105-10.871a43.089,43.089,0,0,1-14.086-17.231Z" fill="#372140"/>
            <g id="Grupo_10033" data-name="Grupo 10033">
              <g id="Grupo_10032" data-name="Grupo 10032">
                <path id="Trazado_7242" data-name="Trazado 7242" d="M271.438,12615.867a6.01,6.01,0,0,0,4.923-5.258l2.438-22a6.009,6.009,0,1,0-11.945-1.323l-2.437,21.994a6.007,6.007,0,0,0,5.309,6.636A6.1,6.1,0,0,0,271.438,12615.867Z" fill="#f2baba"/>
              </g>
              <path id="Trazado_7243" data-name="Trazado 7243" d="M265.811,12596.709l1.043-9.418a6.009,6.009,0,1,1,11.945,1.323l-1.408,12.7a28.752,28.752,0,0,1-6.85-2.045A30.8,30.8,0,0,1,265.811,12596.709Z" fill="#e79aa0"/>
            </g>
            <g id="Grupo_10034" data-name="Grupo 10034">
              <path id="Trazado_7244" data-name="Trazado 7244" d="M257.423,12664.61h7.985a1.133,1.133,0,0,1,1.137,1.13v1.788a4.215,4.215,0,0,1-4.217,4.211h-7.9a25.406,25.406,0,0,1,1.812-7.129h1.185Z" fill="#28112d"/>
              <path id="Trazado_7245" data-name="Trazado 7245" d="M273.263,12609.8l-.073.339a.791.791,0,0,1-1.078.56l-2.5-1.06c-.215-.52-.436-1.032-.658-1.544a48.211,48.211,0,0,0-3.14-6.021c-.162-.268-.336-.535-.5-.795a1.92,1.92,0,0,1,1.4.726,20.481,20.481,0,0,0,7.749,2.232Z" fill="#dedbe1"/>
              <path id="Trazado_7246" data-name="Trazado 7246" d="M279.368,12608.49c.031.2.062.4.092.6l-.061.008-1.259,1.189a.787.787,0,0,1-1.268-.269l-.079-.187-2.338-5.593c1.672,0,2.433-.564,2.754-1.276l.187-1.682.406.022c.13.459.252.909.367,1.361C278.673,12604.624,279.07,12606.572,279.368,12608.49Z" fill="#dedbe1"/>
              <path id="Trazado_7247" data-name="Trazado 7247" d="M276.572,12612.739c-.023-.106-.042-.2-.061-.293h0c-.009-.04-.015-.075-.023-.112s-.012-.054-.018-.081c-.022-.1-.042-.2-.061-.288l0-.02a2.191,2.191,0,0,1,.064-1.142l.1-.306h0l.223-.671.079.188a.787.787,0,0,0,1.268.269l1.259-1.189.061-.008c.183,1.306.328,2.606.436,3.89a68.825,68.825,0,0,1-.627,15.9C278.26,12621.419,277.091,12615.337,276.572,12612.739Z" fill="#dedbe1"/>
              <path id="Trazado_7248" data-name="Trazado 7248" d="M270.809,12612.739c-.382-1.047-.779-2.087-1.2-3.1l2.5,1.06a.791.791,0,0,0,1.078-.56l.073-.339.557.734h0l.231.306a2.182,2.182,0,0,1,.44,1.206c0,.022,0,.043,0,.066,0,.046.005.094.008.144s0,.1.007.158c.005.1.009.211.015.328.145,2.85.466,9.635.542,15.366A117.51,117.51,0,0,0,270.809,12612.739Z" fill="#dedbe1"/>
              <path id="Trazado_7249" data-name="Trazado 7249" d="M244.889,12612.562a5.732,5.732,0,0,1,2.454-7.725,37.471,37.471,0,0,1,14.473-3.53l.092,1.308.321,4.783a1.147,1.147,0,0,0,.657.954l2.422,1.1-.58.214a1.155,1.155,0,0,0-.7.741,1.139,1.139,0,0,0,.184,1q.4.538.916,1.33c3.568,5.494,10.722,19.547,11.837,27.455v-.573c3.431-7.5,6.206-19.883,6.725-25.836a12.938,12.938,0,0,0,.015-2.72,1.526,1.526,0,0,0-.894-1.154l-.664-.275.816-.726a1.128,1.128,0,0,0,.321-1.215,33.973,33.973,0,0,0-1.781-4.21c-.328-.657-.7-1.33-1.114-2a36.992,36.992,0,0,1,11.942,3.347,5.722,5.722,0,0,1,2.454,7.718,5.644,5.644,0,0,1-.548.869,8.394,8.394,0,0,0-1.707,5.7,84.7,84.7,0,0,1-1.734,23.384,55.933,55.933,0,0,0-.42,23.826s.488,6.5,1.948,16.689a1.882,1.882,0,0,1-1.933,1.835h-6.182c-5.41,0-7.244-4.174-7.244-9.331,0,5.157-2.308,9.331-9.131,9.331h-12.6a2.189,2.189,0,0,1-2.423-1.835l1.528-10.676h.031c.015-.206.038-.413.053-.61h7.9a4.215,4.215,0,0,0,4.217-4.211v-1.788a1.133,1.133,0,0,0-1.137-1.13h-9.17c3.037-7.037,3.982-13.854.488-21.542-.879-1.927-1.627-3.807-2.346-5.617-.588-1.46-1.138-2.842-1.673-4.034a41.838,41.838,0,0,1-3.894-13.7,8.4,8.4,0,0,0-2.7-5.562A5.794,5.794,0,0,1,244.889,12612.562Z" fill="#3f2949"/>
              <path id="Trazado_7250" data-name="Trazado 7250" d="M268.953,12608.092c.222.512.443,1.024.658,1.544.419,1.017.816,2.057,1.2,3.1a117.51,117.51,0,0,1,4.257,15.366v.008c1.354,6.411,1.9,11.126,1.9,11.126v.367c-.008.015-.008.037-.015.054.007-.017.007-.023.015-.039v.573c-1.115-7.908-8.269-21.961-11.837-27.455q-.514-.791-.916-1.33a1.139,1.139,0,0,1-.184-1,1.155,1.155,0,0,1,.7-.741l.58-.214-2.422-1.1a1.147,1.147,0,0,1-.657-.954l-.321-4.783-.092-1.308c.45-.022.918-.03,1.383-.03h2.109c.169.26.343.527.5.795A48.211,48.211,0,0,1,268.953,12608.092Z" fill="#28112d"/>
              <path id="Trazado_7251" data-name="Trazado 7251" d="M283.288,12607.7a1.128,1.128,0,0,1-.321,1.215l-.816.726.664.275a1.526,1.526,0,0,1,.894,1.154,12.938,12.938,0,0,1-.015,2.72c-.519,5.953-3.294,18.34-6.725,25.836v-.015a92.051,92.051,0,0,0,2.3-10.729,68.825,68.825,0,0,0,.627-15.9c-.108-1.283-.253-2.584-.436-3.89-.03-.2-.061-.4-.092-.6-.3-1.918-.7-3.866-1.2-5.83-.115-.452-.237-.9-.367-1.361q1.341.057,2.591.191c.411.665.786,1.338,1.114,2A33.973,33.973,0,0,1,283.288,12607.7Z" fill="#28112d"/>
              <path id="Trazado_7252" data-name="Trazado 7252" d="M272.782,12610.668a.793.793,0,0,0,.408-.532l.073-.339,1.192-5.562,2.338,5.593.079.188a.787.787,0,0,0,1.268.269l1.259-1.189.061-.008c.042.3.074.6.113.895l-.907.858a1.55,1.55,0,0,1-1.067.424,1.679,1.679,0,0,1-.321-.032,1.558,1.558,0,0,1-1.111-.919l-1.476-3.532-.755,3.518a1.545,1.545,0,0,1-.8,1.051,1.564,1.564,0,0,1-.714.174,1.536,1.536,0,0,1-.605-.123l-1.82-.771c-.129-.33-.25-.667-.383-.992l2.5,1.06A.789.789,0,0,0,272.782,12610.668Z" fill="#b5afbc"/>
              <path id="Trazado_7253" data-name="Trazado 7253" d="M276.793,12609.827l-.223.671h0l-.1.306a2.191,2.191,0,0,0-.064,1.142l0,.014c.02.093.04.189.062.294.006.027.011.053.018.081s.014.072.023.112h0c.019.095.038.187.061.293.519,2.6,1.688,8.68,2.7,16.138a92.051,92.051,0,0,1-2.3,10.729v-.367s-.549-4.715-1.9-11.126v-.008c-.076-5.731-.4-12.517-.542-15.366-.006-.117-.01-.225-.015-.328,0-.056-.006-.106-.007-.158s-.006-.1-.008-.144c0-.023,0-.044,0-.066a2.182,2.182,0,0,0-.44-1.206l-.231-.306h0l-.557-.734,1.192-5.562Z" fill="#d16652"/>
            </g>
            <g id="Grupo_10054" data-name="Grupo 10054">
              <g id="Grupo_10044" data-name="Grupo 10044">
                <g id="Grupo_10035" data-name="Grupo 10035">
                  <path id="Trazado_7254" data-name="Trazado 7254" d="M255.134,12573.673c0-9.388,8.591-17,19.189-17a21.01,21.01,0,0,1,4.68.527,19.7,19.7,0,0,1,11.422,7.289,16.918,16.918,0,0,1,2.736,5.939c.691,2.673.52,5.356.52,8.118a70.064,70.064,0,0,1-.042,7.7,15.714,15.714,0,0,1-7.051,11.32c-4.558,2.939-10.484,1.6-15.145-.4a29.06,29.06,0,0,1-11.548-9.013,24.273,24.273,0,0,1-4.757-14.016C255.135,12573.983,255.134,12573.828,255.134,12573.673Z" fill="#f2baba"/>
                </g>
                <g id="Grupo_10043" data-name="Grupo 10043">
                  <g id="Grupo_10038" data-name="Grupo 10038">
                    <g id="Grupo_10036" data-name="Grupo 10036">
                      <path id="Trazado_7255" data-name="Trazado 7255" d="M281.505,12590.933c3.893,0,5.4-2.215,5.465-2.309a.6.6,0,0,0-1-.667c-.055.08-1.259,1.774-4.464,1.774a.6.6,0,1,0,0,1.2Z" fill="#d27d80"/>
                    </g>
                    <g id="Grupo_10037" data-name="Grupo 10037">
                      <path id="Trazado_7256" data-name="Trazado 7256" d="M281.505,12590.933a.6.6,0,1,0,0-1.2c-3.21,0-4.413-1.7-4.463-1.775a.6.6,0,0,0-1,.668C276.105,12588.718,277.614,12590.933,281.505,12590.933Z" fill="#d27d80"/>
                    </g>
                  </g>
                  <path id="Trazado_7257" data-name="Trazado 7257" d="M289.108,12579.649h0a1.174,1.174,0,0,0-1.175,1.174v.8a1.173,1.173,0,0,0,1.174,1.174h0a1.173,1.173,0,0,0,1.174-1.173v-.8A1.173,1.173,0,0,0,289.108,12579.649Z" fill="#532442"/>
                  <path id="Trazado_7258" data-name="Trazado 7258" d="M273.907,12579.649h0a1.172,1.172,0,0,0-1.173,1.173v.8a1.174,1.174,0,0,0,2.349,0v-.8A1.173,1.173,0,0,0,273.907,12579.649Z" fill="#532442"/>
                  <g id="Grupo_10040" data-name="Grupo 10040">
                    <g id="Grupo_10039" data-name="Grupo 10039">
                      <path id="Trazado_7259" data-name="Trazado 7259" d="M270.875,12577.934a.761.761,0,0,0,.463-.157c1.035-.792,3.172-.731,3.91-.643a.764.764,0,0,0,.185-1.517c-.334-.041-3.316-.362-5.023.944a.765.765,0,0,0,.465,1.372Z" fill="#d16652"/>
                    </g>
                  </g>
                  <g id="Grupo_10042" data-name="Grupo 10042">
                    <g id="Grupo_10041" data-name="Grupo 10041">
                      <path id="Trazado_7260" data-name="Trazado 7260" d="M292.137,12577.934a.765.765,0,0,0,.465-1.372c-1.708-1.307-4.688-.985-5.023-.944a.764.764,0,0,0,.185,1.517c.738-.087,2.88-.145,3.91.643A.761.761,0,0,0,292.137,12577.934Z" fill="#d16652"/>
                    </g>
                  </g>
                </g>
              </g>
              <path id="Trazado_7261" data-name="Trazado 7261" d="M254.2,12573.717c0,.168.008.336.008.5a26.637,26.637,0,0,0,.7,5.663.054.054,0,0,0,.015.038c1.788,5.456,3.561,6.1,3.561,6.1s-2.407-4.058-1.612-7.549c.664-2.9,2.185-3.47,3.675-3.53h.007c.153.022,1.9.306,2.805,3.033.947,2.851.947,6.641,1.085,10.285,0,0-.787,6.2,4.065,9.323a.068.068,0,0,1,.039.022c.4.223.8.443,1.207.643l.046.022c.451.236.909.451,1.368.656,4.852,2.141,11.019,3.577,15.764.429a16.922,16.922,0,0,0,7.336-12.149,76.233,76.233,0,0,0,.046-8.253c0-1.75.061-3.469-.038-5.174-.337-5.982-1.827-10.89-5.556-14.106a12.679,12.679,0,0,0-1.734-1.268c-.008-.017-.008-.023-.016-.017a20.454,20.454,0,0,0-8.749-2.7c-1.055-.114-2.171-.184-3.355-.2h-8.855a.321.321,0,0,0-.274.487c.106.174.24.386.4.63a.321.321,0,0,1-.146.474C259.038,12559.925,254.2,12566.3,254.2,12573.717Zm11.134,1.823a3.476,3.476,0,0,1,.8-2.452,5.511,5.511,0,0,0,1.135-2.253c.436-1.826.23-3.736.589-5.578a6.12,6.12,0,0,1,1.761-3.279,1.233,1.233,0,0,1,1.542-.094,12.047,12.047,0,0,0,6.982,2.372,13.991,13.991,0,0,0,8.365-2.48,1.148,1.148,0,0,1,1.426.064,15.456,15.456,0,0,1,2.511,2.8,15.033,15.033,0,0,1,1.4,2.76,24.74,24.74,0,0,1,1.467,5.387c.016,1.039-.007,2.094-.007,3.156,0,2.346.167,4.8-.031,7.138a15.95,15.95,0,0,1-1.353,5.211,13.626,13.626,0,0,1-1.4,2.407,10.365,10.365,0,0,1-8.567,4.446c-5.119,0-8.9-1.39-11.568-4.249a11.881,11.881,0,0,1-1.246-1.558C266.935,12586.13,265.725,12581.553,265.331,12575.54Z" fill="#9c4a3f"/>
              <path id="Trazado_7262" data-name="Trazado 7262" d="M273.9,12585.675a27.664,27.664,0,0,1,4.394-.878c.894-.115,2.88-.459,3.683.146.634-.6,2.208-.261,2.919-.146a17.946,17.946,0,0,1,3.469.878c1.123.42,2.942,1.185,3.553,2.614a2.541,2.541,0,0,1,.214,1.039,9.479,9.479,0,0,1-.1,1.5.34.34,0,0,1-.214.252.387.387,0,0,1-.343-.023,3.5,3.5,0,0,0-.956-.358,10.938,10.938,0,0,0-2.744-.283,6.613,6.613,0,0,1-5.8-3.63c-1.223,2.354-4.807,3.63-7.336,3.63a14.113,14.113,0,0,0-4.256.48,4.128,4.128,0,0,0-.413.161.61.61,0,0,1-.436.023.36.36,0,0,1-.267-.252,7.323,7.323,0,0,1-.13-1.49v-.008C269.136,12587.211,272.169,12586.187,273.9,12585.675Z" fill="#9c4a3f"/>
              <g id="Grupo_10052" data-name="Grupo 10052">
                <g id="Grupo_10051" data-name="Grupo 10051">
                  <g id="Grupo_10045" data-name="Grupo 10045">
                    <path id="Trazado_7263" data-name="Trazado 7263" d="M286.016,12583.493a.382.382,0,0,0,.319-.592,3.337,3.337,0,0,1-.561-1.83,3.432,3.432,0,0,1,.972-2.354.382.382,0,1,0-.555-.525,4.19,4.19,0,0,0-1.181,2.88,4.1,4.1,0,0,0,.687,2.25A.381.381,0,0,0,286.016,12583.493Z" fill="#d16652"/>
                  </g>
                  <g id="Grupo_10046" data-name="Grupo 10046">
                    <path id="Trazado_7264" data-name="Trazado 7264" d="M290.059,12585.551a4.512,4.512,0,1,0,0-8.96,5.32,5.32,0,0,0-3.868,1.6.382.382,0,0,0,.555.525,4.555,4.555,0,0,1,3.313-1.361,3.753,3.753,0,1,1,0,7.431,4.447,4.447,0,0,1-3.724-1.885.382.382,0,1,0-.638.42A5.216,5.216,0,0,0,290.059,12585.551Z" fill="#d16652"/>
                  </g>
                  <g id="Grupo_10047" data-name="Grupo 10047">
                    <path id="Trazado_7265" data-name="Trazado 7265" d="M273.632,12585.551a5.2,5.2,0,0,0,4.384-2.262.382.382,0,0,0-.642-.413,4.439,4.439,0,0,1-3.742,1.91,3.753,3.753,0,1,1,0-7.431,4.542,4.542,0,0,1,3.337,1.388.382.382,0,1,0,.56-.521,5.307,5.307,0,0,0-3.9-1.632,4.512,4.512,0,1,0,0,8.96Z" fill="#d16652"/>
                  </g>
                  <g id="Grupo_10048" data-name="Grupo 10048">
                    <path id="Trazado_7266" data-name="Trazado 7266" d="M277.7,12583.465a.38.38,0,0,0,.321-.175,4.094,4.094,0,0,0,.665-2.219,4.192,4.192,0,0,0-1.152-2.849.382.382,0,0,0-.56.521,3.382,3.382,0,0,1,.948,2.328,3.334,3.334,0,0,1-.543,1.8.382.382,0,0,0,.321.589Z" fill="#d16652"/>
                  </g>
                  <g id="Grupo_10049" data-name="Grupo 10049">
                    <path id="Trazado_7267" data-name="Trazado 7267" d="M277.249,12578.865a.38.38,0,0,0,.258-.1,7.311,7.311,0,0,1,8.707-.025.382.382,0,0,0,.509-.57,8.054,8.054,0,0,0-9.731.031.383.383,0,0,0-.025.54A.378.378,0,0,0,277.249,12578.865Z" fill="#d16652"/>
                  </g>
                  <g id="Grupo_10050" data-name="Grupo 10050">
                    <path id="Trazado_7268" data-name="Trazado 7268" d="M257.936,12582.215a.381.381,0,0,0,.377-.327l.419-2.852a1.524,1.524,0,0,1,1.5-1.295h7.518a1.367,1.367,0,0,1,1.366,1.366.382.382,0,0,0,.764,0,2.133,2.133,0,0,0-2.13-2.131h-7.518a2.29,2.29,0,0,0-2.254,1.948l-.42,2.853a.382.382,0,0,0,.323.433A.361.361,0,0,0,257.936,12582.215Z" fill="#d16652"/>
                  </g>
                </g>
              </g>
              <g id="Grupo_10053" data-name="Grupo 10053">
                <path id="Trazado_7269" data-name="Trazado 7269" d="M259.933,12576.329c1.626-.3,3.47,1.828,4.12,4.761s-.144,5.555-1.77,5.858-3.472-1.829-4.121-4.762S258.306,12576.632,259.933,12576.329Z" fill="#e79aa0"/>
              </g>
            </g>
            <g id="Grupo_10056" data-name="Grupo 10056">
              <path id="Trazado_7270" data-name="Trazado 7270" d="M290.792,12647.469a3.438,3.438,0,1,1,0,6.877h-4.814v-6.877Z" fill="#f2baba"/>
              <g id="Grupo_10055" data-name="Grupo 10055">
                <path id="Trazado_7271" data-name="Trazado 7271" d="M304.556,12654.931a.122.122,0,0,1-.056.14.124.124,0,0,1-.146-.035l-.661-.9.52-.267Z" fill="#412139"/>
                <path id="Trazado_7272" data-name="Trazado 7272" d="M299.027,12641.4c.354.736.7,1.472,1.048,2.193s.679,1.441.99,2.141.624,1.371.9,2.015.541,1.255.782,1.819c.475,1.126.861,2.078,1.118,2.744.11.284.191.516.256.689l-1.078.554c-.1-.153-.244-.355-.411-.609-.392-.6-.941-1.465-1.58-2.507-.318-.524-.661-1.1-1.023-1.7s-.726-1.246-1.113-1.906-.773-1.35-1.163-2.051-.781-1.412-1.173-2.129c-.428-.811-.863-1.609-1.285-2.4l2.533-1.3C298.222,12639.765,298.618,12640.584,299.027,12641.4Z" fill="#412139"/>
                <path id="Trazado_7273" data-name="Trazado 7273" d="M297.828,12638.963l-2.533,1.3q-.252-.472-.5-.936l2.563-1.316C297.513,12638.327,297.669,12638.643,297.828,12638.963Z" fill="#da8030"/>
                <path id="Trazado_7274" data-name="Trazado 7274" d="M291.152,12630.79a.8.8,0,0,1,1.387-.713s.052.064.148.192l-1.464.753C291.175,12630.87,291.152,12630.79,291.152,12630.79Z" fill="#da8030"/>
                <path id="Trazado_7275" data-name="Trazado 7275" d="M293.242,12639.243a.442.442,0,0,0,.238-.354,1.043,1.043,0,0,0-.132-.6l-2.646-4.807a1.447,1.447,0,0,1,.157-1.628l.454-.537.177-.213a.258.258,0,0,1,.368-.03.261.261,0,0,1,.031.368l-.383.45-.248.3a.921.921,0,0,0-.1,1.037l2.651,4.8a1.651,1.651,0,0,1,.192.894.974.974,0,0,1-.518.783.262.262,0,0,1-.24-.467Z" fill="#da8030"/>
                <path id="Trazado_7276" data-name="Trazado 7276" d="M291.858,12631.073a.258.258,0,0,0-.368.03l-.177.213c-.035-.116-.067-.216-.09-.294l1.464-.753c.12.151.3.395.529.721.418.589.979,1.444,1.62,2.492.306.523.663,1.089,1,1.7s.706,1.258,1.06,1.934c.156.292.309.59.465.894l-2.563,1.316c-.156-.3-.309-.6-.455-.9-.344-.681-.654-1.355-.954-1.986s-.556-1.248-.8-1.8c-.472-1.12-.836-2.065-1.076-2.747l.383-.45A.261.261,0,0,0,291.858,12631.073Z" fill="#f2994c"/>
                <path id="Trazado_7277" data-name="Trazado 7277" d="M304.213,12653.872h0l-.52.267h0a.562.562,0,0,1-.434-.252s-.076-.112-.216-.327l1.078-.554c.093.238.14.367.14.367A.544.544,0,0,1,304.213,12653.872Z" fill="#da8030"/>
              </g>
              <path id="Trazado_7278" data-name="Trazado 7278" d="M300.613,12642.446a1.525,1.525,0,0,1,.147,2.846.389.389,0,0,0-.179.55,1.52,1.52,0,0,1-.7,2.154.388.388,0,0,0-.179.549,1.522,1.522,0,0,1-.973,2.246.389.389,0,0,0-.284.486,1.5,1.5,0,0,1-.014.885,1.527,1.527,0,0,1-1.926.979l-1.091-.354a1.137,1.137,0,0,0-1.071.2c-1.68,1.362-3.482,1.924-4.8,1.3-2.134-1.014-2.172-4.759-.082-8.365C293.5,12638.954,293.166,12640.02,300.613,12642.446Z" fill="#f2baba"/>
              <path id="Trazado_7279" data-name="Trazado 7279" d="M244.125,12643.6v-33.63a5.731,5.731,0,0,1,11.462,0v33.63a1.583,1.583,0,0,0,1.575,1.574h25.591a.741.741,0,0,1,.741.741v9.98a.741.741,0,0,1-.741.741H257.162A13.054,13.054,0,0,1,244.125,12643.6Z" fill="#483352"/>
              <path id="Trazado_7280" data-name="Trazado 7280" d="M283.494,12647.469v-1.146h1.742a.742.742,0,0,1,.742.742v7.687a.742.742,0,0,1-.742.741h-1.742v-8.023Z" fill="#dedbe1"/>
            </g>
            <g id="Grupo_10057" data-name="Grupo 10057">
              <path id="Trazado_7281" data-name="Trazado 7281" d="M285.773,12668.393l26.473-13.774a3.366,3.366,0,0,1,1.552-.379h20.221a.663.663,0,0,1,.672.647h0v-1.342h0a.666.666,0,0,0-.673-.652H313.8a3.368,3.368,0,0,0-1.552.381l-26.473,13.774a.653.653,0,0,0-.359.662l0,0v1.314h0A.653.653,0,0,1,285.773,12668.393Z" fill="#e5e1e4"/>
              <path id="Trazado_7282" data-name="Trazado 7282" d="M334.019,12654.239H313.8a3.366,3.366,0,0,0-1.552.379l-26.473,13.774a.653.653,0,0,0-.361.634.663.663,0,0,0,.671.636H306.3a3.363,3.363,0,0,0,1.552-.379l26.473-13.775a.649.649,0,0,0,.362-.621A.663.663,0,0,0,334.019,12654.239Z" fill="#d7d4da"/>
            </g>
            <path id="Trazado_7283" data-name="Trazado 7283" d="M341.718,12738.434a4.585,4.585,0,0,1-9.17,0v-4.981h9.17Z" fill="#805c5f"/>
            <path id="Trazado_7284" data-name="Trazado 7284" d="M363.425,12696.464a4.585,4.585,0,0,1-5.665,7.211l-3.918-3.078,5.665-7.211Z" fill="#805c5f"/>
            <path id="Trazado_7285" data-name="Trazado 7285" d="M331.862,12737.833a.671.671,0,0,1,.921-.207,5.822,5.822,0,0,1,.957.781c.99.976,1.364.955,3.375.955,1.679,0,2.561-3.5,4.6-4.658a2.587,2.587,0,0,1,1.724-.3,17.127,17.127,0,0,1,12.076,7.9,1.845,1.845,0,0,1-.089,2.017,2.438,2.438,0,0,1-2.007.983H334.054a3.911,3.911,0,0,1-2.814-1.147,2.95,2.95,0,0,1-.813-2.629A10.672,10.672,0,0,1,331.862,12737.833Z" fill="#28112d"/>
            <path id="Trazado_7286" data-name="Trazado 7286" d="M274.809,12682.223a6.12,6.12,0,0,1,6.113-6.112H327.1a16.163,16.163,0,0,1,16.146,16.139v40.44a.762.762,0,0,1-.762.763h-10.7a.762.762,0,0,1-.762-.763v-40.44a3.922,3.922,0,0,0-3.92-3.913H280.922A6.121,6.121,0,0,1,274.809,12682.223Z" fill="#af8080"/>
            <path id="Trazado_7287" data-name="Trazado 7287" d="M356.864,12703.842a.67.67,0,0,1,.406-.851,5.7,5.7,0,0,1,1.205-.271c1.379-.177,1.6-.483,2.836-2.063,1.037-1.321-1.173-4.18-.819-6.5a2.6,2.6,0,0,1,.831-1.54,17.134,17.134,0,0,1,13.676-4.613,1.846,1.846,0,0,1,1.53,1.316,2.439,2.439,0,0,1-.466,2.186l-11.964,15.231a3.916,3.916,0,0,1-2.642,1.5,2.95,2.95,0,0,1-2.569-.984A10.689,10.689,0,0,1,356.864,12703.842Z" fill="#28112d"/>
            <path id="Trazado_7288" data-name="Trazado 7288" d="M359.249,12691.24l-31.163-24.481a23.62,23.62,0,0,0-23.319-3.343l-42.825,17.171a6.1,6.1,0,0,0-3.647,7.151.778.778,0,0,0,.751.6h16.28a.747.747,0,0,0,.285-.055l33.708-13.516a11.364,11.364,0,0,1,11.214,1.608l31.163,24.479a1.528,1.528,0,0,0,2.146-.257h0l5.665-7.211h0A1.528,1.528,0,0,0,359.249,12691.24Z" fill="#c69684"/>
            <path id="Trazado_7289" data-name="Trazado 7289" d="M327.1,12676.11h-6.928c.121.087.243.172.361.264l22.713,17.842v-1.967A16.163,16.163,0,0,0,327.1,12676.11Z" fill="#af8080"/>
          </g>
        </g>
        <path id="Trazado_7290" data-name="Trazado 7290" d="M267.838,12684.86h-12.6a2.189,2.189,0,0,1-2.423-1.835l1.528-10.676h.031c.015-.206.038-.413.053-.611h7.9a4.215,4.215,0,0,0,4.217-4.21v-1.789a1.133,1.133,0,0,0-1.137-1.129h-9.17a36.652,36.652,0,0,0,1.938-5.625h7.717a6.318,6.318,0,0,1,5.837,3.9l5.239,12.645-.106,1.813C276.346,12681.63,273.84,12684.86,267.838,12684.86Z" fill="#3f2949"/>
        <g id="Grupo_10062" data-name="Grupo 10062">
          <g id="Grupo_10061" data-name="Grupo 10061">
            <g id="Grupo_10060" data-name="Grupo 10060">
              <path id="Trazado_7291" data-name="Trazado 7291" d="M268.836,12693.191v-23.041c0-1.362.781-2.466,1.743-2.466H202.66c-.963,0-1.743,1.1-1.743,2.466v23.041Z" fill="#d16652"/>
            </g>
            <path id="Trazado_7292" data-name="Trazado 7292" d="M277.592,12693.191v-23.041c0-1.362-.78-2.466-1.743-2.466h-5.27c-.962,0-1.743,1.1-1.743,2.466v23.041Z" fill="#e38073"/>
          </g>
        </g>
      </g>
      <g id="Grupo_10080" data-name="Grupo 10080">
        <g id="Grupo_10066" data-name="Grupo 10066">
          <path id="Trazado_7293" data-name="Trazado 7293" d="M725.922,12714.682H476.478v-69.348a2.037,2.037,0,0,1,2.037-2.037h245.37a2.037,2.037,0,0,1,2.037,2.037Z" fill="#e38073"/>
          <rect id="Rectángulo_3473" data-name="Rectángulo 3473" width="249.437" height="10.724" transform="translate(476.478 12703.958)" fill="#d16652"/>
          <g id="Grupo_10065" data-name="Grupo 10065">
            <g id="Grupo_10064" data-name="Grupo 10064">
              <path id="Trazado_7294" data-name="Trazado 7294" d="M739.677,12702.455a26.011,26.011,0,0,1-25.981,25.981H488.7a26.011,26.011,0,0,1-25.982-25.981V12674.5a2.739,2.739,0,0,1,2.739-2.738h8.278a2.739,2.739,0,0,1,2.738,2.738v27.955a12.226,12.226,0,0,0,12.227,12.227H713.7a12.24,12.24,0,0,0,12.226-12.227V12674.5a2.739,2.739,0,0,1,2.739-2.738h8.278a2.739,2.739,0,0,1,2.738,2.738Z" fill="#d16652"/>
            </g>
          </g>
          <path id="Trazado_7295" data-name="Trazado 7295" d="M713.7,12721.559a12.225,12.225,0,0,0,12.226-12.226v-4.14a7.543,7.543,0,0,0-.106-1.211,12.236,12.236,0,0,1-12.12,10.7H488.7a12.223,12.223,0,0,1-12.122-10.7,7.636,7.636,0,0,0-.105,1.209v4.14a12.226,12.226,0,0,0,12.227,12.226Z" fill="#d3c9d0" style="mix-blend-mode: multiply;isolation: isolate"/>
          <path id="Trazado_7296" data-name="Trazado 7296" d="M705.944,12745.312h-7.737l-8.788-16.875h12.226Z" fill="#532c42"/>
          <path id="Trazado_7297" data-name="Trazado 7297" d="M496.456,12745.312h7.737l8.788-16.875H500.755Z" fill="#532c42"/>
        </g>
        <path id="Trazado_7298" data-name="Trazado 7298" d="M502.159,12676.728h-3.664a28.282,28.282,0,0,1-8.545-1.32l-6.477-2.051a6.952,6.952,0,0,0-5.075.342,3.35,3.35,0,0,0-1.92,3.029v4.519a9.493,9.493,0,0,0,9.493,9.493h17.517a9.493,9.493,0,0,0,9.493-9.493v-1.2a3.642,3.642,0,0,0-3.808-3.638Z" fill="#d16652"/>
        <g id="Grupo_10079" data-name="Grupo 10079">
          <g id="Grupo_10067" data-name="Grupo 10067">
            <path id="Trazado_7299" data-name="Trazado 7299" d="M509.115,12648.839a3.479,3.479,0,1,1-.521-6.939l3.825-.287.521,6.94Z" fill="#ff9484"/>
            <path id="Trazado_7300" data-name="Trazado 7300" d="M498.089,12646.165a9.069,9.069,0,0,0-.628,3.081l-.1,3.692a1.275,1.275,0,0,0,1.241,1.309,1.239,1.239,0,0,0,.218-.013.817.817,0,0,1,.933.831l0,.075a1.276,1.276,0,0,0,2.524.3,1.163,1.163,0,0,0,.026-.229.253.253,0,0,1,.4-.2,1.25,1.25,0,0,0,.709.243,1.28,1.28,0,0,0,1.31-1.242.281.281,0,0,1,.435-.229,1.028,1.028,0,0,0,.558.165,1.045,1.045,0,0,0,1.047-1.04l.01-2.632a1.152,1.152,0,0,1,1.2-1.146c3.078.12,5.651-.917,6.233-2.714.737-2.275-1.993-4.9-6.1-5.872C500.256,12638.693,500.79,12639.3,498.089,12646.165Z" fill="#ff9484"/>
            <path id="Trazado_7301" data-name="Trazado 7301" d="M550.9,12641.773a8.425,8.425,0,0,1,.628,8.375l-15.144,31.46a4.643,4.643,0,0,1-8.367-4.026L542.5,12647.5l-28.7,2.153a.776.776,0,0,1-.831-.716l-.029-.383-.521-6.94-.028-.385a.774.774,0,0,1,.715-.83l30.221-2.268A8.421,8.421,0,0,1,550.9,12641.773Z" fill="#bf8380"/>
          </g>
          <g id="Grupo_10068" data-name="Grupo 10068">
            <path id="Trazado_7302" data-name="Trazado 7302" d="M674.708,12680.622a4.64,4.64,0,0,1-7.874,4.91l-2.668-4.278,7.874-4.911Z" fill="#4b3856"/>
            <path id="Trazado_7303" data-name="Trazado 7303" d="M597.308,12672.154l32.127-34.391a13.624,13.624,0,0,1,2.754-2.264,13.72,13.72,0,0,1,18.927,4.366l21.828,35a.771.771,0,0,1-.246,1.063l-.658.41-7.874,4.911-.658.41a.772.772,0,0,1-1.063-.246l-21.829-35a1.378,1.378,0,0,0-1.017-.623,1.316,1.316,0,0,0-.85.2,1.616,1.616,0,0,0-.268.213l-32.13,34.4a6.191,6.191,0,0,1-8.74.292,6.177,6.177,0,0,1-.3-8.743Z" fill="#28112d"/>
            <path id="Trazado_7304" data-name="Trazado 7304" d="M664.348,12683.17a.679.679,0,0,1,.931-.209,5.84,5.84,0,0,1,.969.79c1,.988,1.381.967,3.415.967,1.7,0,2.593-3.547,4.659-4.715a2.624,2.624,0,0,1,1.745-.3,17.331,17.331,0,0,1,12.222,8,1.865,1.865,0,0,1-.091,2.04,2.469,2.469,0,0,1-2.031,1h-19.6a3.951,3.951,0,0,1-2.848-1.163,2.983,2.983,0,0,1-.823-2.66A10.819,10.819,0,0,1,664.348,12683.17Z" fill="#28112d"/>
          </g>
          <g id="Grupo_10070" data-name="Grupo 10070">
            <g id="Grupo_10069" data-name="Grupo 10069">
              <path id="Trazado_7305" data-name="Trazado 7305" d="M710.5,12690.348a.772.772,0,0,1-.962.7c-41.5-10.616-72.77-13.058-106.88-8.528a6.195,6.195,0,0,1-6.95-5.317,6.541,6.541,0,0,1-.035-1.228,6.2,6.2,0,0,1,5.361-5.723c35.276-4.676,67.452-2.312,109.609,8.314a.772.772,0,0,1,.582.8l-.062.926-.62,9.415Z" fill="#321a39"/>
              <path id="Trazado_7306" data-name="Trazado 7306" d="M717.31,12682.119a4.636,4.636,0,0,1,3.428,4.783,4.446,4.446,0,0,1-.145.9,4.638,4.638,0,0,1-5.68,3.284c-1.866-.5-2.553-.905-4.373-1.381l.62-9.415C713.562,12680.895,714.834,12681.46,717.31,12682.119Z" fill="#4b3856"/>
            </g>
            <path id="Trazado_7307" data-name="Trazado 7307" d="M715.069,12691.98a.68.68,0,0,1-.147-.943,5.784,5.784,0,0,1,.852-.915c1.052-.937,1.056-1.315,1.19-3.345s-4.839-3.231-4.677-6.316a17.422,17.422,0,0,1,8.881-12.073,1.866,1.866,0,0,1,2.029.226,2.47,2.47,0,0,1,.861,2.093l-1.29,19.559a3.958,3.958,0,0,1-1.348,2.766,2.988,2.988,0,0,1-2.708.646A10.847,10.847,0,0,1,715.069,12691.98Z" fill="#28112d"/>
          </g>
          <g id="Grupo_10071" data-name="Grupo 10071">
            <path id="Trazado_7308" data-name="Trazado 7308" d="M536.006,12680.919a6.081,6.081,0,0,0-3.231-6.534l-19.973-10.131a6.081,6.081,0,1,0-5.5,10.847l19.974,10.131a6.085,6.085,0,0,0,8.732-4.312Z" fill="#ff9d8d"/>
          </g>
          <path id="Trazado_7309" data-name="Trazado 7309" d="M526.044,12684.3a.643.643,0,0,1-.775.285l-6.924-2.465a.645.645,0,0,1-.342-.931l7.1-12.28a.647.647,0,0,1,.775-.285l6.925,2.466a.645.645,0,0,1,.342.931Z" fill="#4b3856"/>
          <path id="Trazado_7310" data-name="Trazado 7310" d="M610.086,12673.553c0-6.153-5.065-7.362-10.929-8.762-.995-.238-2.023-.483-3.064-.76a23.657,23.657,0,0,0-7.735-.759,90.53,90.53,0,0,1-22.574-1.286c-13.743-2.521-28.759,2.449-35.91,8.407-3.346,2.788-5.114,5.812-5.114,8.744a7.329,7.329,0,0,0,.3,2.074c2.358,8,18.219,11.249,33.942,6.951a54,54,0,0,1,28.478-.125c10.9,2.9,18.4.236,21.136-7.494A21.538,21.538,0,0,0,610.086,12673.553Z" fill="#3f2949"/>
          <path id="Trazado_7311" data-name="Trazado 7311" d="M588.278,12662.115a24.777,24.777,0,0,1,8.113.795c1.032.273,2.05.517,3.035.752,5.811,1.387,11.82,2.821,11.82,9.891a22.654,22.654,0,0,1-1.535,7.378c-2.964,8.383-10.965,11.3-22.528,8.229-.569-.152-1.139-.29-1.709-.421a.771.771,0,0,1-.6-.752v-24.967a.772.772,0,0,1,.744-.771C586.51,12662.218,587.4,12662.175,588.278,12662.115Z" fill="#321a39"/>
          <g id="Grupo_10073" data-name="Grupo 10073">
            <g id="Grupo_10072" data-name="Grupo 10072">
              <path id="Trazado_7312" data-name="Trazado 7312" d="M591.268,12675.237h-4.382v-13.044h0c.465-.022.93-.046,1.392-.078.531-.037,1.063-.048,1.6-.044q.7.006,1.394.043Z" fill="#d16652"/>
              <path id="Trazado_7313" data-name="Trazado 7313" d="M591.268,12677.171v12.847q-.98-.148-2-.362t-2.084-.5c-.1-.026-.2-.046-.3-.072h0v-11.916Z" fill="#d16652"/>
            </g>
          </g>
          <g id="Grupo_10074" data-name="Grupo 10074">
            <path id="Trazado_7314" data-name="Trazado 7314" d="M584.267,12689.182a.11.11,0,0,0-.046-.015,50.572,50.572,0,0,0-23.951.858c-15.676,4.354-31.043,1.307-35.111-6.59a9.347,9.347,0,0,1-.673-1.678c-.054-.186-.1-.371-.139-.564,0-3.448,2.032-6.738,5.33-9.7a2.275,2.275,0,0,0,.563-.775l1.067-2.421.94.665a.571.571,0,0,0,.657,0,57.842,57.842,0,0,1,13.174-6.492,66.435,66.435,0,0,1,15.375-3c.008,0,.015-.007.023,0a138.9,138.9,0,0,1,15.173-.563c.116.008.178.008.178.008,2.954.147,6.04.324,9.273.5a119.9,119.9,0,0,1,13.461,1.252,2.811,2.811,0,0,1,2.331,2.766v28.284a.663.663,0,0,1-.626.662C593.657,12692.8,587.218,12689.89,584.267,12689.182Z" fill="#c88f86"/>
            <path id="Trazado_7315" data-name="Trazado 7315" d="M561.476,12659.477c-.008-.007-.015,0-.023,0a66.416,66.416,0,0,0-15.374,3,57.83,57.83,0,0,0-13.175,6.492.571.571,0,0,1-.657,0l-.94-.665-1.067,2.421a2.275,2.275,0,0,1-.563.775c-3.3,2.958-5.33,6.248-5.33,9.7.039.193.085.379.139.564a9.247,9.247,0,0,0,.673,1.678,11.94,11.94,0,0,0,3.872,4.243,7.087,7.087,0,0,1-4.52-3.536,12.143,12.143,0,0,1-1.185-5.626c0-4.508,2.761-8.2,6.713-11.119,6.581-4.873,16.473-7.579,22.358-8.307,7.091-.874,15.018-.649,24.252-.178A138.9,138.9,0,0,0,561.476,12659.477Z" fill="#d6a199"/>
          </g>
          <g id="Grupo_10077" data-name="Grupo 10077">
            <g id="Grupo_10076" data-name="Grupo 10076">
              <path id="Trazado_7316" data-name="Trazado 7316" d="M486.79,12677.994c-8.4-4.44-11.145-15.727-6.132-25.208a21.283,21.283,0,0,1,2.686-3.938,19.941,19.941,0,0,1,11.924-6.771,17.125,17.125,0,0,1,6.608.36c2.719.647,5.039,2.069,7.51,3.375a70.723,70.723,0,0,1,6.866,3.679,15.9,15.9,0,0,1,6.793,11.662c.474,5.468-3.529,10.136-7.521,13.361a29.414,29.414,0,0,1-13.525,6.071,24.582,24.582,0,0,1-14.79-2.374C487.069,12678.14,486.929,12678.068,486.79,12677.994Z" fill="#ff9d8d"/>
              <path id="Trazado_7317" data-name="Trazado 7317" d="M491.437,12674.957c.5-1.6,3.277-2.241,6.208-1.434s4.9,2.756,4.4,4.354-3.278,2.242-6.208,1.435S490.939,12676.556,491.437,12674.957Z" fill="#e98080"/>
              <g id="Grupo_10075" data-name="Grupo 10075">
                <path id="Trazado_7318" data-name="Trazado 7318" d="M509.812,12649.929l.718.379a1.189,1.189,0,0,1,.495,1.606h0a1.188,1.188,0,0,1-1.6.5l-.717-.379a1.188,1.188,0,1,1,1.109-2.1Z" fill="#532442"/>
                <path id="Trazado_7319" data-name="Trazado 7319" d="M503.835,12665.516a1.187,1.187,0,0,1-1.6.494l-.718-.379a1.188,1.188,0,1,1,1.111-2.1l.716.379A1.188,1.188,0,0,1,503.835,12665.516Z" fill="#532442"/>
                <path id="Trazado_7320" data-name="Trazado 7320" d="M496.6,12665.694c-.362-2.146,1.333-4.662,1.529-4.941a.773.773,0,1,1,1.269.882c-.427.618-1.492,2.5-1.274,3.8a.761.761,0,0,1-.078.489.773.773,0,0,1-1.446-.231Z" fill="#521b3b"/>
                <path id="Trazado_7321" data-name="Trazado 7321" d="M505.321,12650.437a.774.774,0,0,1-1.445-.553c.121-.317,1.245-3.136,3.222-4.046a.773.773,0,1,1,.647,1.4C506.553,12647.791,505.591,12649.736,505.321,12650.437Z" fill="#521b3b"/>
                <path id="Trazado_7322" data-name="Trazado 7322" d="M514.471,12658.966a2.5,2.5,0,0,1,1.044,3.383l-.556,1.053a2.5,2.5,0,1,1-4.426-2.341l.556-1.052A2.5,2.5,0,0,1,514.471,12658.966Z" fill="#d16652"/>
              </g>
            </g>
            <path id="Trazado_7323" data-name="Trazado 7323" d="M476.7,12671.259a12.979,12.979,0,0,0-.593,2.2,9.559,9.559,0,0,1-.984-14.289,9.9,9.9,0,0,0-4.314,3.808,12.931,12.931,0,0,1,5.654-11.024,14.713,14.713,0,0,0-4.34,2.368,23.445,23.445,0,0,1,8.326-10.951,11.989,11.989,0,0,0-5.067,1.441,13.851,13.851,0,0,1,4.742-5,10.79,10.79,0,0,1,7.424-1.517,8.5,8.5,0,0,1,1.263.328,1.574,1.574,0,0,0,1,.012,10.682,10.682,0,0,1,11.929,3.9,11.487,11.487,0,0,0-7.877.472,10.513,10.513,0,0,1,.9,4.674c-.013,1.646.175,3.871-.818,5.271a10.3,10.3,0,0,1-3.664,2.893,47.2,47.2,0,0,0-4.217,2.6,7.408,7.408,0,0,0-3.162,3.2c-.747,1.977.891,3.761,2.12,5.109.9,1,2.127.906,3.432,1.02,1.375.113,2.753.187,4.12.331.735.082.744.928.78,1.453.133,1.637,1.811,1.754,3.181,1.928.565.07.907-.028,1.321.444.574.636.85,2.05-.364,2.046a7.888,7.888,0,0,0-3.381.637,11.226,11.226,0,0,0-2.978,2.108l0,.007a14.75,14.75,0,0,0,10.574,3.893c-7.737,2.877-16.652,1.138-20.686-1.925A11.564,11.564,0,0,1,476.7,12671.259Z" fill="#521b3b"/>
            <path id="Trazado_7324" data-name="Trazado 7324" d="M499.473,12673.08c.387.327.156.153.536.476a8.669,8.669,0,0,0,5.892,1.978c2.084-.087,3.757-1.25,5.444-2.405s4.343-3.119,4.17-5.389a10.282,10.282,0,0,1-.321-2.769,4.968,4.968,0,0,1,1.552-2.853c1.2-1.063,2.738-.679,3.613-2.219.692-1.227.316-3.263.031-4.576a11.462,11.462,0,0,0-1.51-3.712,17.319,17.319,0,0,1,2.62,2.522,8.912,8.912,0,0,1,2.373,7.789c-.362,2.854-1.811,5.445-3.209,7.908a23.391,23.391,0,0,1-3.818,4.525,10.688,10.688,0,0,1-7.051,3.376,15.058,15.058,0,0,1-4.48-.76,22.825,22.825,0,0,1-5.809-2.729C499.51,12673.922,499.5,12673.569,499.473,12673.08Z" fill="#521b3b"/>
          </g>
          <g id="Grupo_10078" data-name="Grupo 10078">
            <path id="Trazado_7325" data-name="Trazado 7325" d="M588.418,12649.778a3.48,3.48,0,0,1,6.2,3.17l-1.747,3.415-6.2-3.17Z" fill="#ff9d8d"/>
            <path id="Trazado_7326" data-name="Trazado 7326" d="M593.068,12640.837a1.185,1.185,0,0,1-.981-1.434l1.645-7.265a1.3,1.3,0,1,0-2.532-.572l-.726,3.205a51.519,51.519,0,0,1-2.678,8.392c-.428,1.026-.721,2.28-1.116,3.589-1.219,4.042.28,8.148,3.35,9.17s6.549-1.426,7.769-5.469C598.526,12648.043,601.6,12642.113,593.068,12640.837Z" fill="#ff9d8d"/>
            <path id="Trazado_7327" data-name="Trazado 7327" d="M564.358,12691.224l-33.193-7.112a4.909,4.909,0,0,1-1.145-.411,4.639,4.639,0,0,1-.4-8.025,4.579,4.579,0,0,1,3.489-.639l33.193,7.113a5.121,5.121,0,0,0,5.624-2.675l13.362-26.119a.776.776,0,0,1,1.044-.338l.342.176,6.2,3.17.342.175a.776.776,0,0,1,.337,1.044l-13.362,26.12A14.415,14.415,0,0,1,564.358,12691.224Z" fill="#d6a199"/>
          </g>
        </g>
        <path id="Rectángulo_3474" data-name="Rectángulo 3474" d="M7.577,0H117.144a7.578,7.578,0,0,1,7.578,7.578v8.787a7.578,7.578,0,0,1-7.578,7.578H7.578A7.578,7.578,0,0,1,0,16.365V7.577A7.577,7.577,0,0,1,7.577,0Z" transform="translate(476.478 12690.738)" fill="#d16652"/>
        <path id="Rectángulo_3475" data-name="Rectángulo 3475" d="M7.577,0H117.144a7.578,7.578,0,0,1,7.578,7.578v8.787a7.578,7.578,0,0,1-7.578,7.578H7.578A7.578,7.578,0,0,1,0,16.365V7.577A7.577,7.577,0,0,1,7.577,0Z" transform="translate(601.2 12690.738)" fill="#d16652"/>
      </g>
    </g>
  </g>
</svg>
