<svg xmlns="http://www.w3.org/2000/svg" width="292" height="255" viewBox="0 0 292 255">
  <g id="Grupo_73294" data-name="Grupo 73294" transform="translate(7772 6849)">
    <path id="Trazado_117682" data-name="Trazado 117682" d="M20,0H272a20,20,0,0,1,20,20V235a20,20,0,0,1-20,20H20A20,20,0,0,1,0,235V20A20,20,0,0,1,20,0Z" transform="translate(-7772 -6849)" fill="#f6f6f6"/>
    <path id="Trazado_117683" data-name="Trazado 117683" d="M20,0H272a20,20,0,0,1,20,20V235a20,20,0,0,1-20,20H20A20,20,0,0,1,0,235V20A20,20,0,0,1,20,0Z" transform="translate(-7772 -6849)" fill="#f6f6f6"/>
    <path id="Trazado_117684" data-name="Trazado 117684" d="M70.554,0A70.554,70.554,0,1,1,0,70.554,70.554,70.554,0,0,1,70.554,0Z" transform="translate(-7662.112 -6821)" fill="#0068ff" opacity="0.9"/>
    <path id="Trazado_117685" data-name="Trazado 117685" d="M70.554,0A70.554,70.554,0,1,1,0,70.554,70.554,70.554,0,0,1,70.554,0Z" transform="translate(-7734.515 -6821)" fill="#ffda32" opacity="0.9"/>
    <path id="Trazado_117686" data-name="Trazado 117686" d="M34.352,0C53.324,0,68.7,27.113,68.7,60.559s-15.38,60.559-34.352,60.559S0,94.006,0,60.559,15.38,0,34.352,0Z" transform="translate(-7662.112 -6811.006)" fill="#2ab169"/>
    <g id="Grupo_9968" data-name="Grupo 9968" transform="translate(-8073.847 -11980.529)">
      <path id="Trazado_6985" data-name="Trazado 6985" d="M395.52,5333.426l-1.536-3.633h-4.942l-1.518,3.633h-1.451l4.875-11.469h1.206l4.85,11.469Zm-1.982-4.829-1.434-3.539q-.279-.671-.574-1.648a13.9,13.9,0,0,1-.531,1.648l-1.451,3.539Z" fill="#14233a"/>
      <path id="Trazado_6986" data-name="Trazado 6986" d="M410.271,5333.426v-5.571a2.194,2.194,0,0,0-.472-1.535,1.908,1.908,0,0,0-1.468-.512,2.467,2.467,0,0,0-1.931.7,3.131,3.131,0,0,0-.624,2.14v4.782h-1.4v-5.571a2.195,2.195,0,0,0-.473-1.535,1.92,1.92,0,0,0-1.476-.512,2.374,2.374,0,0,0-1.927.731,3.727,3.727,0,0,0-.611,2.394v4.493h-1.4v-8.563h1.139l.228,1.172h.067a2.682,2.682,0,0,1,1.118-.977,3.644,3.644,0,0,1,1.615-.351,2.787,2.787,0,0,1,2.834,1.453h.067a2.866,2.866,0,0,1,1.2-1.063,3.96,3.96,0,0,1,1.788-.39,3.284,3.284,0,0,1,2.349.746,3.178,3.178,0,0,1,.781,2.387v5.586Z" fill="#14233a"/>
      <path id="Trazado_6987" data-name="Trazado 6987" d="M420.24,5333.426l-.278-1.219h-.067a3.836,3.836,0,0,1-1.379,1.09,4.508,4.508,0,0,1-1.717.285,3.252,3.252,0,0,1-2.155-.656,2.305,2.305,0,0,1-.78-1.868q0-2.594,4.479-2.718l1.569-.047v-.532a2.063,2.063,0,0,0-.469-1.488,2.018,2.018,0,0,0-1.5-.48,6.472,6.472,0,0,0-2.614.656l-.431-.992a6.9,6.9,0,0,1,1.5-.539,6.988,6.988,0,0,1,1.632-.2,3.717,3.717,0,0,1,2.45.68,2.718,2.718,0,0,1,.8,2.18v5.844Zm-3.162-.915a2.978,2.978,0,0,0,2.053-.664,2.357,2.357,0,0,0,.747-1.859v-.773l-1.4.054a5.43,5.43,0,0,0-2.408.481,1.423,1.423,0,0,0-.738,1.324,1.285,1.285,0,0,0,.46,1.07A2.006,2.006,0,0,0,417.078,5332.511Z" fill="#14233a"/>
      <path id="Trazado_6988" data-name="Trazado 6988" d="M428.38,5324.707a5.864,5.864,0,0,1,1.1.094l-.194,1.2a5.142,5.142,0,0,0-1.012-.118,2.547,2.547,0,0,0-1.919.844,2.945,2.945,0,0,0-.8,2.1v4.594h-1.4v-8.563h1.155l.161,1.586h.067a3.875,3.875,0,0,1,1.24-1.289A2.947,2.947,0,0,1,428.38,5324.707Z" fill="#14233a"/>
      <path id="Trazado_6989" data-name="Trazado 6989" d="M431.1,5322.543a.824.824,0,0,1,.237-.653.926.926,0,0,1,1.172,0,.812.812,0,0,1,.245.649.821.821,0,0,1-.245.652.849.849,0,0,1-.582.215.782.782,0,0,1-.827-.867Zm1.519,10.883h-1.4v-8.563h1.4Z" fill="#14233a"/>
      <path id="Trazado_6990" data-name="Trazado 6990" d="M436.983,5333.426h-1.4v-12.157h1.4Z" fill="#14233a"/>
      <path id="Trazado_6991" data-name="Trazado 6991" d="M441.352,5333.426h-1.4v-12.157h1.4Z" fill="#14233a"/>
      <path id="Trazado_6992" data-name="Trazado 6992" d="M452.3,5329.136a4.5,4.5,0,0,1-1.138,3.27,4.176,4.176,0,0,1-3.146,1.176,4.424,4.424,0,0,1-2.2-.539,3.66,3.66,0,0,1-1.485-1.547,5.05,5.05,0,0,1-.523-2.36,4.5,4.5,0,0,1,1.13-3.261,4.162,4.162,0,0,1,3.138-1.168,4.062,4.062,0,0,1,3.082,1.195A4.482,4.482,0,0,1,452.3,5329.136Zm-7.043,0a3.845,3.845,0,0,0,.709,2.5,2.964,2.964,0,0,0,4.171,0,3.825,3.825,0,0,0,.713-2.5,3.767,3.767,0,0,0-.713-2.48,2.594,2.594,0,0,0-2.1-.848,2.551,2.551,0,0,0-2.074.836A3.8,3.8,0,0,0,445.256,5329.136Z" fill="#14233a"/>
      <path id="Trazado_6993" data-name="Trazado 6993" d="M463.264,5327.246h3.475v1.078h-3.475v3.328h-1.172v-3.328h-3.459v-1.078h3.459V5323.9h1.172Z" fill="#14233a"/>
      <path id="Trazado_6994" data-name="Trazado 6994" d="M481.566,5333.426l-1.535-3.633h-4.943l-1.518,3.633h-1.45l4.875-11.469H478.2l4.849,11.469Zm-1.982-4.829-1.433-3.539c-.187-.447-.377-1-.574-1.648a14.083,14.083,0,0,1-.531,1.648L475.6,5328.6Z" fill="#14233a"/>
      <path id="Trazado_6995" data-name="Trazado 6995" d="M490.448,5333.426h-6.706v-.883l5.044-6.672h-4.731v-1.008h6.266v1.008l-4.976,6.547h5.1Z" fill="#14233a"/>
      <path id="Trazado_6996" data-name="Trazado 6996" d="M493.931,5324.863v5.555a2.13,2.13,0,0,0,.514,1.562,2.2,2.2,0,0,0,1.612.516,2.742,2.742,0,0,0,2.121-.735,3.506,3.506,0,0,0,.67-2.4v-4.5h1.4v8.563h-1.156l-.2-1.149h-.076a2.737,2.737,0,0,1-1.194.969,4.3,4.3,0,0,1-1.741.336,3.715,3.715,0,0,1-2.526-.742,3.017,3.017,0,0,1-.84-2.375v-5.6Z" fill="#14233a"/>
      <path id="Trazado_6997" data-name="Trazado 6997" d="M504.618,5333.426h-1.4v-12.157h1.4Z" fill="#14233a"/>
    </g>
    <path id="Trazado_117690" data-name="Trazado 117690" d="M0,0H142.3V19.966H0Z" transform="translate(-7698.909 -6641.915)" fill="#2ab169"/>
    <g id="Grupo_9974" data-name="Grupo 9974" transform="translate(-8073.847 -11980.529)">
      <path id="Trazado_7020" data-name="Trazado 7020" d="M431.175,5343.365h1.544l-4.445,11.422h-1.417l-4.419-11.422h1.518l2.834,7.391a19.6,19.6,0,0,1,.776,2.477,19.347,19.347,0,0,1,.793-2.524Z" fill="#fff"/>
      <path id="Trazado_7021" data-name="Trazado 7021" d="M438.109,5354.944a4.433,4.433,0,0,1-3.235-1.157,4.277,4.277,0,0,1-1.185-3.211,4.724,4.724,0,0,1,1.1-3.289,3.785,3.785,0,0,1,2.956-1.218,3.626,3.626,0,0,1,2.749,1.058,3.873,3.873,0,0,1,1.012,2.793v.82h-6.368a3.245,3.245,0,0,0,.823,2.29,2.967,2.967,0,0,0,2.2.781,7.96,7.96,0,0,0,2.952-.578v1.156a7.858,7.858,0,0,1-1.4.426A8.5,8.5,0,0,1,438.109,5354.944Zm-.38-7.789a2.383,2.383,0,0,0-1.776.671,2.982,2.982,0,0,0-.78,1.86h4.833a2.71,2.71,0,0,0-.59-1.879A2.159,2.159,0,0,0,437.729,5347.155Z" fill="#fff"/>
      <path id="Trazado_7022" data-name="Trazado 7022" d="M448.111,5346.069a5.942,5.942,0,0,1,1.105.093l-.194,1.2a5.13,5.13,0,0,0-1.012-.117,2.548,2.548,0,0,0-1.919.844,2.944,2.944,0,0,0-.8,2.1v4.593h-1.4v-8.562h1.156l.16,1.586h.067a3.889,3.889,0,0,1,1.24-1.289A2.954,2.954,0,0,1,448.111,5346.069Z" fill="#fff"/>
      <path id="Trazado_7023" data-name="Trazado 7023" d="M457.237,5353.639h-.075a3.387,3.387,0,0,1-2.9,1.3,3.554,3.554,0,0,1-2.821-1.149,4.794,4.794,0,0,1-1.008-3.265,4.876,4.876,0,0,1,1.012-3.29,3.524,3.524,0,0,1,2.817-1.171,3.465,3.465,0,0,1,2.885,1.265h.11l-.06-.617-.033-.6v-3.484h1.4v12.156h-1.139Zm-2.8.219a2.657,2.657,0,0,0,2.079-.723,3.452,3.452,0,0,0,.646-2.332v-.273a4.056,4.056,0,0,0-.654-2.6,2.581,2.581,0,0,0-2.087-.777,2.2,2.2,0,0,0-1.886.886,4.165,4.165,0,0,0-.654,2.5,3.988,3.988,0,0,0,.65,2.477A2.267,2.267,0,0,0,454.437,5353.858Z" fill="#fff"/>
      <path id="Trazado_7024" data-name="Trazado 7024" d="M465.436,5354.944a4.433,4.433,0,0,1-3.235-1.157,4.277,4.277,0,0,1-1.185-3.211,4.724,4.724,0,0,1,1.1-3.289,3.786,3.786,0,0,1,2.956-1.218,3.625,3.625,0,0,1,2.749,1.058,3.874,3.874,0,0,1,1.013,2.793v.82h-6.369a3.246,3.246,0,0,0,.823,2.29,2.968,2.968,0,0,0,2.2.781,7.956,7.956,0,0,0,2.952-.578v1.156a7.858,7.858,0,0,1-1.4.426A8.5,8.5,0,0,1,465.436,5354.944Zm-.38-7.789a2.385,2.385,0,0,0-1.776.671,2.975,2.975,0,0,0-.779,1.86h4.832a2.71,2.71,0,0,0-.59-1.879A2.159,2.159,0,0,0,465.056,5347.155Z" fill="#fff"/>
    </g>
    <path id="Trazado_117687" data-name="Trazado 117687" d="M70.554,0A70.554,70.554,0,1,1,0,70.554,70.554,70.554,0,0,1,70.554,0Z" transform="translate(-7662.112 -6821)" fill="#0068ff" opacity="0.9"/>
    <path id="Trazado_117688" data-name="Trazado 117688" d="M70.554,0A70.554,70.554,0,1,1,0,70.554,70.554,70.554,0,0,1,70.554,0Z" transform="translate(-7734.515 -6821)" fill="#ffda32" opacity="0.9"/>
    <path id="Trazado_117689" data-name="Trazado 117689" d="M34.352,0C53.324,0,68.7,27.113,68.7,60.559s-15.38,60.559-34.352,60.559S0,94.006,0,60.559,15.38,0,34.352,0Z" transform="translate(-7662.112 -6811.006)" fill="#2ab169"/>
    <path id="Trazado_6985-2" data-name="Trazado 6985" d="M395.52,5333.426l-1.536-3.633h-4.942l-1.518,3.633h-1.451l4.875-11.469h1.206l4.85,11.469Zm-1.982-4.829-1.434-3.539q-.279-.671-.574-1.648a13.9,13.9,0,0,1-.531,1.648l-1.451,3.539Z" transform="translate(-8073.847 -11980.529)" fill="#14233a"/>
    <path id="Trazado_6986-2" data-name="Trazado 6986" d="M410.271,5333.426v-5.571a2.194,2.194,0,0,0-.472-1.535,1.908,1.908,0,0,0-1.468-.512,2.467,2.467,0,0,0-1.931.7,3.131,3.131,0,0,0-.624,2.14v4.782h-1.4v-5.571a2.195,2.195,0,0,0-.473-1.535,1.92,1.92,0,0,0-1.476-.512,2.374,2.374,0,0,0-1.927.731,3.727,3.727,0,0,0-.611,2.394v4.493h-1.4v-8.563h1.139l.228,1.172h.067a2.682,2.682,0,0,1,1.118-.977,3.644,3.644,0,0,1,1.615-.351,2.787,2.787,0,0,1,2.834,1.453h.067a2.866,2.866,0,0,1,1.2-1.063,3.96,3.96,0,0,1,1.788-.39,3.284,3.284,0,0,1,2.349.746,3.178,3.178,0,0,1,.781,2.387v5.586Z" transform="translate(-8073.847 -11980.529)" fill="#14233a"/>
    <path id="Trazado_6987-2" data-name="Trazado 6987" d="M420.24,5333.426l-.278-1.219h-.067a3.836,3.836,0,0,1-1.379,1.09,4.508,4.508,0,0,1-1.717.285,3.252,3.252,0,0,1-2.155-.656,2.305,2.305,0,0,1-.78-1.868q0-2.594,4.479-2.718l1.569-.047v-.532a2.063,2.063,0,0,0-.469-1.488,2.018,2.018,0,0,0-1.5-.48,6.472,6.472,0,0,0-2.614.656l-.431-.992a6.9,6.9,0,0,1,1.5-.539,6.988,6.988,0,0,1,1.632-.2,3.717,3.717,0,0,1,2.45.68,2.718,2.718,0,0,1,.8,2.18v5.844Zm-3.162-.915a2.978,2.978,0,0,0,2.053-.664,2.357,2.357,0,0,0,.747-1.859v-.773l-1.4.054a5.43,5.43,0,0,0-2.408.481,1.423,1.423,0,0,0-.738,1.324,1.285,1.285,0,0,0,.46,1.07A2.006,2.006,0,0,0,417.078,5332.511Z" transform="translate(-8073.847 -11980.529)" fill="#14233a"/>
    <path id="Trazado_6988-2" data-name="Trazado 6988" d="M428.38,5324.707a5.864,5.864,0,0,1,1.1.094l-.194,1.2a5.142,5.142,0,0,0-1.012-.118,2.547,2.547,0,0,0-1.919.844,2.945,2.945,0,0,0-.8,2.1v4.594h-1.4v-8.563h1.155l.161,1.586h.067a3.875,3.875,0,0,1,1.24-1.289A2.947,2.947,0,0,1,428.38,5324.707Z" transform="translate(-8073.847 -11980.529)" fill="#14233a"/>
    <path id="Trazado_6989-2" data-name="Trazado 6989" d="M431.1,5322.543a.824.824,0,0,1,.237-.653.926.926,0,0,1,1.172,0,.812.812,0,0,1,.245.649.821.821,0,0,1-.245.652.849.849,0,0,1-.582.215.782.782,0,0,1-.827-.867Zm1.519,10.883h-1.4v-8.563h1.4Z" transform="translate(-8073.847 -11980.529)" fill="#14233a"/>
    <path id="Trazado_6990-2" data-name="Trazado 6990" d="M436.983,5333.426h-1.4v-12.157h1.4Z" transform="translate(-8073.847 -11980.529)" fill="#14233a"/>
    <path id="Trazado_6991-2" data-name="Trazado 6991" d="M441.352,5333.426h-1.4v-12.157h1.4Z" transform="translate(-8073.847 -11980.529)" fill="#14233a"/>
    <path id="Trazado_6992-2" data-name="Trazado 6992" d="M452.3,5329.136a4.5,4.5,0,0,1-1.138,3.27,4.176,4.176,0,0,1-3.146,1.176,4.424,4.424,0,0,1-2.2-.539,3.66,3.66,0,0,1-1.485-1.547,5.05,5.05,0,0,1-.523-2.36,4.5,4.5,0,0,1,1.13-3.261,4.162,4.162,0,0,1,3.138-1.168,4.062,4.062,0,0,1,3.082,1.195A4.482,4.482,0,0,1,452.3,5329.136Zm-7.043,0a3.845,3.845,0,0,0,.709,2.5,2.964,2.964,0,0,0,4.171,0,3.825,3.825,0,0,0,.713-2.5,3.767,3.767,0,0,0-.713-2.48,2.594,2.594,0,0,0-2.1-.848,2.551,2.551,0,0,0-2.074.836A3.8,3.8,0,0,0,445.256,5329.136Z" transform="translate(-8073.847 -11980.529)" fill="#14233a"/>
    <path id="Trazado_6993-2" data-name="Trazado 6993" d="M463.264,5327.246h3.475v1.078h-3.475v3.328h-1.172v-3.328h-3.459v-1.078h3.459V5323.9h1.172Z" transform="translate(-8073.847 -11980.529)" fill="#14233a"/>
    <path id="Trazado_6994-2" data-name="Trazado 6994" d="M481.566,5333.426l-1.535-3.633h-4.943l-1.518,3.633h-1.45l4.875-11.469H478.2l4.849,11.469Zm-1.982-4.829-1.433-3.539c-.187-.447-.377-1-.574-1.648a14.083,14.083,0,0,1-.531,1.648L475.6,5328.6Z" transform="translate(-8073.847 -11980.529)" fill="#14233a"/>
    <path id="Trazado_6995-2" data-name="Trazado 6995" d="M490.448,5333.426h-6.706v-.883l5.044-6.672h-4.731v-1.008h6.266v1.008l-4.976,6.547h5.1Z" transform="translate(-8073.847 -11980.529)" fill="#14233a"/>
    <path id="Trazado_6996-2" data-name="Trazado 6996" d="M493.931,5324.863v5.555a2.13,2.13,0,0,0,.514,1.562,2.2,2.2,0,0,0,1.612.516,2.742,2.742,0,0,0,2.121-.735,3.506,3.506,0,0,0,.67-2.4v-4.5h1.4v8.563h-1.156l-.2-1.149h-.076a2.737,2.737,0,0,1-1.194.969,4.3,4.3,0,0,1-1.741.336,3.715,3.715,0,0,1-2.526-.742,3.017,3.017,0,0,1-.84-2.375v-5.6Z" transform="translate(-8073.847 -11980.529)" fill="#14233a"/>
    <path id="Trazado_6997-2" data-name="Trazado 6997" d="M504.618,5333.426h-1.4v-12.157h1.4Z" transform="translate(-8073.847 -11980.529)" fill="#14233a"/>
    <path id="Trazado_117691" data-name="Trazado 117691" d="M0,0H142.3V19.966H0Z" transform="translate(-7698.909 -6641.915)" fill="#2ab169"/>
    <path id="Trazado_7020-2" data-name="Trazado 7020" d="M431.175,5343.365h1.544l-4.445,11.422h-1.417l-4.419-11.422h1.518l2.834,7.391a19.6,19.6,0,0,1,.776,2.477,19.347,19.347,0,0,1,.793-2.524Z" transform="translate(-8073.847 -11980.529)" fill="#fff"/>
    <path id="Trazado_7021-2" data-name="Trazado 7021" d="M438.109,5354.944a4.433,4.433,0,0,1-3.235-1.157,4.277,4.277,0,0,1-1.185-3.211,4.724,4.724,0,0,1,1.1-3.289,3.785,3.785,0,0,1,2.956-1.218,3.626,3.626,0,0,1,2.749,1.058,3.873,3.873,0,0,1,1.012,2.793v.82h-6.368a3.245,3.245,0,0,0,.823,2.29,2.967,2.967,0,0,0,2.2.781,7.96,7.96,0,0,0,2.952-.578v1.156a7.858,7.858,0,0,1-1.4.426A8.5,8.5,0,0,1,438.109,5354.944Zm-.38-7.789a2.383,2.383,0,0,0-1.776.671,2.982,2.982,0,0,0-.78,1.86h4.833a2.71,2.71,0,0,0-.59-1.879A2.159,2.159,0,0,0,437.729,5347.155Z" transform="translate(-8073.847 -11980.529)" fill="#fff"/>
    <path id="Trazado_7022-2" data-name="Trazado 7022" d="M448.111,5346.069a5.942,5.942,0,0,1,1.105.093l-.194,1.2a5.13,5.13,0,0,0-1.012-.117,2.548,2.548,0,0,0-1.919.844,2.944,2.944,0,0,0-.8,2.1v4.593h-1.4v-8.562h1.156l.16,1.586h.067a3.889,3.889,0,0,1,1.24-1.289A2.954,2.954,0,0,1,448.111,5346.069Z" transform="translate(-8073.847 -11980.529)" fill="#fff"/>
    <path id="Trazado_7023-2" data-name="Trazado 7023" d="M457.237,5353.639h-.075a3.387,3.387,0,0,1-2.9,1.3,3.554,3.554,0,0,1-2.821-1.149,4.794,4.794,0,0,1-1.008-3.265,4.876,4.876,0,0,1,1.012-3.29,3.524,3.524,0,0,1,2.817-1.171,3.465,3.465,0,0,1,2.885,1.265h.11l-.06-.617-.033-.6v-3.484h1.4v12.156h-1.139Zm-2.8.219a2.657,2.657,0,0,0,2.079-.723,3.452,3.452,0,0,0,.646-2.332v-.273a4.056,4.056,0,0,0-.654-2.6,2.581,2.581,0,0,0-2.087-.777,2.2,2.2,0,0,0-1.886.886,4.165,4.165,0,0,0-.654,2.5,3.988,3.988,0,0,0,.65,2.477A2.267,2.267,0,0,0,454.437,5353.858Z" transform="translate(-8073.847 -11980.529)" fill="#fff"/>
    <path id="Trazado_7024-2" data-name="Trazado 7024" d="M465.436,5354.944a4.433,4.433,0,0,1-3.235-1.157,4.277,4.277,0,0,1-1.185-3.211,4.724,4.724,0,0,1,1.1-3.289,3.786,3.786,0,0,1,2.956-1.218,3.625,3.625,0,0,1,2.749,1.058,3.874,3.874,0,0,1,1.013,2.793v.82h-6.369a3.246,3.246,0,0,0,.823,2.29,2.968,2.968,0,0,0,2.2.781,7.956,7.956,0,0,0,2.952-.578v1.156a7.858,7.858,0,0,1-1.4.426A8.5,8.5,0,0,1,465.436,5354.944Zm-.38-7.789a2.385,2.385,0,0,0-1.776.671,2.975,2.975,0,0,0-.779,1.86h4.832a2.71,2.71,0,0,0-.59-1.879A2.159,2.159,0,0,0,465.056,5347.155Z" transform="translate(-8073.847 -11980.529)" fill="#fff"/>
  </g>
</svg>
