<svg xmlns="http://www.w3.org/2000/svg" width="334.05" height="391.37" viewBox="0 0 334.05 391.37">
  <g id="Grupo_73023" data-name="Grupo 73023" transform="translate(-941.159 -453.16)">
    <g id="Grupo_11467" data-name="Grupo 11467" transform="translate(22.239 -133.176)">
      <ellipse id="Elipse_218" data-name="Elipse 218" cx="100.331" cy="13.572" rx="100.331" ry="13.572" transform="translate(1052.308 765.631)" fill="#8cb8be"/>
      <path id="Trazado_11569" data-name="Trazado 11569" d="M1234.117,772.986c.257.1.56.291.519.565a.489.489,0,0,1-.144.255,2.1,2.1,0,0,1-1.195.484l-5.122.905c-1.127.2-2.41.252-2.909-.988a1.99,1.99,0,0,1,.868-2.509C1228.207,770.5,1232.133,772.184,1234.117,772.986Z" fill="#7f4d32"/>
      <path id="Trazado_11570" data-name="Trazado 11570" d="M1234.683,747.421c.276-.028.631-.005.723.257a.5.5,0,0,1-.008.293,2.108,2.108,0,0,1-.831.986l-4.1,3.193c-.9.7-2.014,1.348-3.034.486a1.991,1.991,0,0,1-.405-2.624C1228.3,747.983,1232.555,747.638,1234.683,747.421Z" fill="#7f4d32"/>
      <path id="Trazado_11571" data-name="Trazado 11571" d="M1238.815,750.4c.269-.025.616,0,.708.256a.478.478,0,0,1-.006.285,2,2,0,0,1-.8.955l-3.989,3.081c-.877.678-1.958,1.3-2.961.452a1.945,1.945,0,0,1-.413-2.558C1232.578,750.908,1236.737,750.6,1238.815,750.4Z" fill="#7f4d32"/>
      <path id="Trazado_11572" data-name="Trazado 11572" d="M1244.4,756.382c.262.091.573.264.546.539a.488.488,0,0,1-.131.262,2.1,2.1,0,0,1-1.171.542l-5.071,1.153c-1.116.254-2.4.369-2.954-.845a1.99,1.99,0,0,1,.744-2.548C1238.376,754.186,1242.38,755.678,1244.4,756.382Z" fill="#7f4d32"/>
      <path id="Trazado_11573" data-name="Trazado 11573" d="M1215.708,765.795c6.349,1.439,13.384,1.271,18.912-2.169,2.347-1.461,4.5-3.872,4.244-6.624-.192-2.04-1.652-3.711-3.114-5.146-3.155-3.1-6.872-5.936-11.239-6.634s-9.429,1.387-10.855,5.573Z" fill="#91613b"/>
      <g id="Grupo_11413" data-name="Grupo 11413">
        <path id="Trazado_11574" data-name="Trazado 11574" d="M1177.858,595.079a12.685,12.685,0,0,0,1.783-3.819,4.292,4.292,0,0,0-.936-3.947,4.125,4.125,0,0,0-4.329-.651,9.016,9.016,0,0,0-3.55,2.89,23.206,23.206,0,0,0-4.3,8.283Z" fill="#91613b"/>
        <path id="Trazado_11575" data-name="Trazado 11575" d="M1176.387,590.868a6.939,6.939,0,0,0-.056-4.526,3.59,3.59,0,0,1,2.374.97,4.291,4.291,0,0,1,.936,3.947,12.623,12.623,0,0,1-1.783,3.818l-3.826.931A23.784,23.784,0,0,0,1176.387,590.868Z" fill="#7f4d32"/>
        <path id="Trazado_11576" data-name="Trazado 11576" d="M1175.131,590.769c.118-.54.128-1.217-.336-1.516a1.276,1.276,0,0,0-1.3.148,7.5,7.5,0,0,0-2.56,3.356q-.579,1.186-1.131,2.388a.512.512,0,0,0-.064.382.446.446,0,0,0,.219.209,2.4,2.4,0,0,0,2.518-.353A8.359,8.359,0,0,0,1175.131,590.769Z" fill="#d59861"/>
        <path id="Trazado_11577" data-name="Trazado 11577" d="M1219.084,626.845c-1.686-6.99-12.12-26.281-24.366-30.929-15.547-5.9-34.024-2.869-37.891,2.418s-4.088,11.559-11.8,13.005-11.446,3.718-10.832,9.855c.82,8.2,3.838,19.718,14.534,23.209,14.875,4.855,44.36,8.812,44.36,8.812Z" fill="#91613b"/>
        <path id="Trazado_11578" data-name="Trazado 11578" d="M1196.175,602.789c1.585-1.875,2.939-6.046,3.555-8.423s-.106-5.292-2.284-6.427c-2.491-1.3-5.5.207-7.735,1.907a40.189,40.189,0,0,0-7.987,8.093Z" fill="#91613b"/>
        <path id="Trazado_11579" data-name="Trazado 11579" d="M1187.791,601.521c4.168-.948,6.926-6.631,7.542-9.008a6.4,6.4,0,0,0-.727-5.005,4.614,4.614,0,0,1,2.84.431c2.178,1.135,2.9,4.05,2.285,6.427s-1.516,6.444-4.959,8.062C1191.095,604.156,1187.791,601.521,1187.791,601.521Z" fill="#7f4d32"/>
        <path id="Trazado_11580" data-name="Trazado 11580" d="M1190.666,598.225a9.287,9.287,0,0,0,1.756-3.115,6.217,6.217,0,0,0,.538-2.29,1.726,1.726,0,0,0-.3-1.027,1.7,1.7,0,0,0-1.856-.4,6.022,6.022,0,0,0-2.153,1.476c-.68.63-1.36,1.26-2,1.931a3.4,3.4,0,0,0-.83,1.2c-.333.982.312,3.352,1.378,3.753C1188.209,600.129,1190.02,598.907,1190.666,598.225Z" fill="#d59861"/>
        <path id="Trazado_11581" data-name="Trazado 11581" d="M1166.122,616.858a8.371,8.371,0,0,1-.423,2.78,2.9,2.9,0,0,1-1.977,1.854c-1.428.29-2.766-.952-3.275-2.317a29.027,29.027,0,0,1-.764-4.293c-.344-1.645-1.144-3.2-1.214-4.881-.111-2.7,3.3-9.506,6.628-6.25,1.431,1.4,1.1,3.869,1.129,5.681C1166.267,611.908,1166.213,614.384,1166.122,616.858Z" fill="#7f4d32"/>
        <path id="Trazado_11582" data-name="Trazado 11582" d="M1171.054,604.486a1.486,1.486,0,0,1-.422.8,1.186,1.186,0,0,1-1.483-.116,2.99,2.99,0,0,1-.787-1.391c-.075-.232-.145-.468-.228-.7a3.125,3.125,0,0,0-.4-.788,8.308,8.308,0,0,0-1.159-1.087,1.8,1.8,0,0,1-.688-1.375c.159-1.992,2.991-1.506,3.931-.579A5.8,5.8,0,0,1,1171.054,604.486Z" fill="#7f4d32"/>
        <path id="Trazado_11583" data-name="Trazado 11583" d="M1162.7,610.621a1.478,1.478,0,0,1-2.474-.613,3.2,3.2,0,0,1,.862-3.416,1.477,1.477,0,0,1,2.473.613A3.2,3.2,0,0,1,1162.7,610.621Z"/>
        <path id="Trazado_11584" data-name="Trazado 11584" d="M1162.994,608.629a.513.513,0,0,1-.7.012.443.443,0,0,1-.106-.281c-.013-.263.126-.575.089-.853a1.7,1.7,0,0,0-.3-.617c-.476-.8.339-.453.673-.161C1163.163,607.179,1163.64,608.047,1162.994,608.629Z" fill="#fff"/>
        <path id="Trazado_11585" data-name="Trazado 11585" d="M1145.036,611.294a12.737,12.737,0,0,0,2.04-.552,7.528,7.528,0,0,1,4.161,5.062,12.406,12.406,0,0,1-.983,7.764c-1.033,2.447-2.482,4.7-3.631,7.089a31.545,31.545,0,0,0-1.993,5.349c-.355,1.3-.734,2.779-1.907,3.446a2.5,2.5,0,0,1-1.3.314c-4.9-5.109-6.627-12.721-7.217-18.618C1133.59,615.011,1137.322,612.74,1145.036,611.294Z" fill="#d59861"/>
        <path id="Trazado_11586" data-name="Trazado 11586" d="M1138.639,613.141a11.9,11.9,0,0,1,3.7,1.81c1.2.877,2.267,2.352,1.769,3.751-.506,1.422-2.247,1.858-3.691,2.3a16.023,16.023,0,0,0-2.785,1.148c-1.007.532-2.1,1.192-3.2.927-.09-.659-.166-1.3-.229-1.928C1133.8,617.068,1135.311,614.7,1138.639,613.141Z"/>
      </g>
      <path id="Trazado_11587" data-name="Trazado 11587" d="M1236.169,687.581c-1.7-17.431-3.637-21.223-8.346-38.091s-12.342-33.2-24.235-46.059l-37.066,38.982c-4.366,16.077-4.061,16.886-16.628,27.824s-26.854,19.688-40.247,29.6c-7.8,5.776-15.468,12.128-20.461,20.455a42.543,42.543,0,0,0,13.336,57.572c10.674,6.924,23.881,8.718,36.6,8.778,16.721.078,34.045.968,50.222-3.262,9.794-2.561,19-9.333,26.981-15.556,11.365-8.86,17.745-22.925,20.11-37.14S1237.566,701.923,1236.169,687.581Z" fill="#91613b"/>
      <path id="Trazado_11588" data-name="Trazado 11588" d="M1216.737,735.643c-.722-4.877-4.194-9.048-8.452-11.532s-9.474-4.748-14.389-5.136c-6.961-.55-16.771.477-22.99,3.938,7.473-.738,16.474-2.178,22.99,2.817,9.914,7.6,10.758,12.836,8.563,21.449-1.993,7.82-10.431,16.886-16.9,21.709,3.614-.327,26.276-.92,29.861-.361-.528-.5-14.122-4.969-14.65-5.473,3.2-4,4.494-4,7.7-8C1213,749.394,1217.8,742.812,1216.737,735.643Z" fill="#7f4d32"/>
      <path id="Trazado_11589" data-name="Trazado 11589" d="M1114.873,776.25l-17.035-4.4c-4.111,1.148-8.751,2.748-10.361,6.7-1.276,3.132-.055,6.907,2.382,9.253a14.921,14.921,0,0,0,9.234,3.693c4.356.348,8.965-.635,12.292-3.466S1116.441,780.328,1114.873,776.25Z" fill="#91613b"/>
      <path id="Trazado_11590" data-name="Trazado 11590" d="M1228.561,649.946c-2.086-7.472-7.765-19.8-11.114-26.809-1.149-1.453,2.282,14.91,3.66,20.737a162.406,162.406,0,0,1,3.37,20.419c1.428,13.592-.618,35.448-20.881,57.4,0,0,15.488,28.023-9.7,43.9,4.391-.059,14.859,3.6,18.759,5.693,1.186-.9,2.35-1.795,3.488-2.682,11.366-8.859,17.746-22.925,20.112-37.14s1.126-28.758-.271-43.1C1234.286,670.928,1233.27,666.814,1228.561,649.946Z" fill="#7f4d32"/>
      <path id="Trazado_11591" data-name="Trazado 11591" d="M1223.063,770.163c-16.9-4.732-33.749-1.576-51.276-.682l-20.278,17.288c8.953,0,42.221-.635,54.075-1.246,7.7-.4,19.3.061,22.227-2.506C1231.508,779.775,1225.5,770.845,1223.063,770.163Z" fill="#91613b"/>
      <path id="Trazado_11592" data-name="Trazado 11592" d="M1232.02,784.4c.224.163.472.419.366.674a.485.485,0,0,1-.2.213,2.1,2.1,0,0,1-1.278.179l-5.187-.367c-1.142-.08-2.4-.341-2.583-1.665a1.992,1.992,0,0,1,1.452-2.223C1226.891,780.554,1230.291,783.142,1232.02,784.4Z" fill="#7f4d32"/>
      <path id="Trazado_11593" data-name="Trazado 11593" d="M1235.473,780.023c.223.163.472.418.365.674a.491.491,0,0,1-.2.213,2.113,2.113,0,0,1-1.277.179l-5.188-.367c-1.141-.081-2.4-.342-2.582-1.666a1.99,1.99,0,0,1,1.451-2.222C1230.344,776.174,1233.743,778.763,1235.473,780.023Z" fill="#7f4d32"/>
      <g id="Grupo_11466" data-name="Grupo 11466">
        <g id="Grupo_11414" data-name="Grupo 11414">
          <path id="Trazado_11594" data-name="Trazado 11594" d="M1090.273,748.608a24.292,24.292,0,0,1-2.135-11.391c.022-.414-.621-.412-.643,0a25,25,0,0,0,2.223,11.716c.171.376.725.049.555-.325Z" fill="#7f4d32"/>
        </g>
        <g id="Grupo_11415" data-name="Grupo 11415">
          <path id="Trazado_11595" data-name="Trazado 11595" d="M1091.49,730.8a15.341,15.341,0,0,1,1.868-7.667c.2-.364-.358-.689-.555-.324a16.024,16.024,0,0,0-1.956,7.991.322.322,0,0,0,.643,0Z" fill="#7f4d32"/>
        </g>
        <g id="Grupo_11416" data-name="Grupo 11416">
          <path id="Trazado_11596" data-name="Trazado 11596" d="M1095.858,730.459a14.253,14.253,0,0,1,1.545-6.316c.186-.368-.368-.694-.555-.324a14.994,14.994,0,0,0-1.632,6.64.321.321,0,0,0,.642,0Z" fill="#7f4d32"/>
        </g>
        <g id="Grupo_11417" data-name="Grupo 11417">
          <path id="Trazado_11597" data-name="Trazado 11597" d="M1095.135,744.053a7.891,7.891,0,0,1-1.982-4.811c-.025-.411-.668-.414-.643,0a8.619,8.619,0,0,0,2.171,5.266c.274.311.727-.146.454-.455Z" fill="#7f4d32"/>
        </g>
        <g id="Grupo_11418" data-name="Grupo 11418">
          <path id="Trazado_11598" data-name="Trazado 11598" d="M1093.79,763.636a14.15,14.15,0,0,1-3.7-7.247c-.076-.406-.7-.235-.62.17a14.766,14.766,0,0,0,3.869,7.532c.287.3.741-.156.455-.455Z" fill="#7f4d32"/>
        </g>
        <g id="Grupo_11419" data-name="Grupo 11419">
          <path id="Trazado_11599" data-name="Trazado 11599" d="M1101.534,765.688a8.324,8.324,0,0,1-1.981-4.235c-.066-.407-.685-.234-.62.171a8.941,8.941,0,0,0,2.147,4.518c.273.312.726-.145.454-.454Z" fill="#7f4d32"/>
        </g>
        <g id="Grupo_11420" data-name="Grupo 11420">
          <path id="Trazado_11600" data-name="Trazado 11600" d="M1113.187,770.543q-.731-2.688-1.46-5.375a.322.322,0,0,0-.62.171q.73,2.687,1.46,5.375a.322.322,0,0,0,.62-.171Z" fill="#7f4d32"/>
        </g>
        <g id="Grupo_11421" data-name="Grupo 11421">
          <path id="Trazado_11601" data-name="Trazado 11601" d="M1105.975,756.386a43.069,43.069,0,0,1-.659-7.687.322.322,0,0,0-.643,0,44.047,44.047,0,0,0,.682,7.858c.072.407.692.235.62-.171Z" fill="#7f4d32"/>
        </g>
        <g id="Grupo_11422" data-name="Grupo 11422">
          <path id="Trazado_11602" data-name="Trazado 11602" d="M1111.109,723.358a24.926,24.926,0,0,1,7.416-11.116c.313-.271-.143-.724-.455-.455a25.575,25.575,0,0,0-7.581,11.4c-.129.394.491.563.62.171Z" fill="#7f4d32"/>
        </g>
        <g id="Grupo_11423" data-name="Grupo 11423">
          <path id="Trazado_11603" data-name="Trazado 11603" d="M1104.538,720.439l4.044-6.086c.23-.346-.326-.668-.554-.325l-4.045,6.086c-.229.346.327.668.555.325Z" fill="#7f4d32"/>
        </g>
        <g id="Grupo_11424" data-name="Grupo 11424">
          <path id="Trazado_11604" data-name="Trazado 11604" d="M1097.459,717.412a65,65,0,0,1,4.814-6.932c.256-.32-.2-.778-.454-.454a66.342,66.342,0,0,0-4.915,7.061.322.322,0,0,0,.555.325Z" fill="#7f4d32"/>
        </g>
        <g id="Grupo_11425" data-name="Grupo 11425">
          <path id="Trazado_11605" data-name="Trazado 11605" d="M1116.683,699.225l5.431-4.359c.323-.258-.135-.711-.455-.454l-5.43,4.358c-.323.259.135.711.454.455Z" fill="#7f4d32"/>
        </g>
        <g id="Grupo_11426" data-name="Grupo 11426">
          <path id="Trazado_11606" data-name="Trazado 11606" d="M1122.7,699.618l6.475-4.992c.323-.249,0-.808-.324-.555l-6.476,4.992c-.322.249,0,.808.325.555Z" fill="#7f4d32"/>
        </g>
        <g id="Grupo_11427" data-name="Grupo 11427">
          <path id="Trazado_11607" data-name="Trazado 11607" d="M1144.393,689.109l6.8-5.686c.318-.266-.139-.718-.454-.455l-6.8,5.686c-.318.266.139.718.454.455Z" fill="#7f4d32"/>
        </g>
        <g id="Grupo_11428" data-name="Grupo 11428">
          <path id="Trazado_11608" data-name="Trazado 11608" d="M1145.851,680.781l4.342-4.106c.3-.284-.154-.738-.454-.454q-2.172,2.052-4.342,4.106c-.3.284.154.738.454.454Z" fill="#7f4d32"/>
        </g>
        <g id="Grupo_11429" data-name="Grupo 11429">
          <path id="Trazado_11609" data-name="Trazado 11609" d="M1164.185,662.347l2.229-6.129c.142-.389-.479-.557-.62-.171l-2.229,6.129c-.142.39.479.558.62.171Z" fill="#7f4d32"/>
        </g>
        <g id="Grupo_11430" data-name="Grupo 11430">
          <path id="Trazado_11610" data-name="Trazado 11610" d="M1213.1,631.688a19.29,19.29,0,0,1,2.453,8.244c.027.41.669.413.642,0a20.058,20.058,0,0,0-2.54-8.569.322.322,0,0,0-.555.325Z" fill="#7f4d32"/>
        </g>
        <g id="Grupo_11431" data-name="Grupo 11431">
          <path id="Trazado_11611" data-name="Trazado 11611" d="M1212.828,622.529a10.952,10.952,0,0,1,1.659,4.318c.065.407.684.234.62-.171a11.421,11.421,0,0,0-1.724-4.471c-.225-.346-.782-.024-.555.324Z" fill="#7f4d32"/>
        </g>
        <g id="Grupo_11432" data-name="Grupo 11432">
          <path id="Trazado_11612" data-name="Trazado 11612" d="M1205.055,616.452a19.976,19.976,0,0,1,2.315,5.333.321.321,0,0,0,.619-.171,20.579,20.579,0,0,0-2.379-5.486c-.218-.352-.774-.029-.555.324Z" fill="#7f4d32"/>
        </g>
        <g id="Grupo_11433" data-name="Grupo 11433">
          <path id="Trazado_11613" data-name="Trazado 11613" d="M1206.142,610.325q1.188,1.854,2.375,3.708c.223.347.779.026.555-.324L1206.7,610c-.222-.347-.779-.025-.555.325Z" fill="#7f4d32"/>
        </g>
        <g id="Grupo_11434" data-name="Grupo 11434">
          <path id="Trazado_11614" data-name="Trazado 11614" d="M1214.771,653.788a63.78,63.78,0,0,1-.554,17.827c-.07.4.549.578.62.17a64.383,64.383,0,0,0,.577-18c-.045-.407-.688-.411-.643,0Z" fill="#7f4d32"/>
        </g>
        <g id="Grupo_11435" data-name="Grupo 11435">
          <path id="Trazado_11615" data-name="Trazado 11615" d="M1220.187,659.19l.407,8.441c.02.411.663.414.643,0l-.407-8.441c-.02-.412-.663-.414-.643,0Z" fill="#7f4d32"/>
        </g>
        <g id="Grupo_11436" data-name="Grupo 11436">
          <path id="Trazado_11616" data-name="Trazado 11616" d="M1222.232,673.624q-.68,2.871-1.358,5.741c-.095.4.524.574.62.17q.678-2.869,1.358-5.74c.095-.4-.524-.574-.62-.171Z" fill="#7f4d32"/>
        </g>
        <g id="Grupo_11437" data-name="Grupo 11437">
          <path id="Trazado_11617" data-name="Trazado 11617" d="M1218.23,679.717q-.662,2.537-1.325,5.074a.322.322,0,0,0,.62.17q.661-2.536,1.325-5.073a.322.322,0,0,0-.62-.171Z" fill="#7f4d32"/>
        </g>
        <g id="Grupo_11438" data-name="Grupo 11438">
          <path id="Trazado_11618" data-name="Trazado 11618" d="M1209.8,690.536l-2.153,5.694c-.147.388.474.555.62.171q1.076-2.847,2.153-5.694c.146-.387-.475-.555-.62-.171Z" fill="#7f4d32"/>
        </g>
        <g id="Grupo_11439" data-name="Grupo 11439">
          <path id="Trazado_11619" data-name="Trazado 11619" d="M1213.124,696.163l-2.313,4.419c-.191.366.363.691.555.324l2.313-4.418c.191-.366-.363-.692-.555-.325Z" fill="#7f4d32"/>
        </g>
        <g id="Grupo_11440" data-name="Grupo 11440">
          <path id="Trazado_11620" data-name="Trazado 11620" d="M1218.864,689.164a10.739,10.739,0,0,1-1.626,3.321c-.242.336.315.657.555.325a11.257,11.257,0,0,0,1.69-3.475.321.321,0,0,0-.619-.171Z" fill="#7f4d32"/>
        </g>
        <g id="Grupo_11441" data-name="Grupo 11441">
          <path id="Trazado_11621" data-name="Trazado 11621" d="M1214.181,687.153l-.984,2.713c-.141.39.48.558.62.171q.492-1.356.983-2.713c.141-.389-.479-.557-.619-.171Z" fill="#7f4d32"/>
        </g>
        <g id="Grupo_11442" data-name="Grupo 11442">
          <path id="Trazado_11622" data-name="Trazado 11622" d="M1199.255,706.95a30.456,30.456,0,0,1-8.958,8.018.321.321,0,0,0,.325.554,31.225,31.225,0,0,0,9.188-8.248c.248-.331-.31-.652-.555-.324Z" fill="#7f4d32"/>
        </g>
        <g id="Grupo_11443" data-name="Grupo 11443">
          <path id="Trazado_11623" data-name="Trazado 11623" d="M1202.689,712.281q-3.7,3.738-7.6,7.271c-.307.278.149.731.455.454q3.9-3.532,7.6-7.27a.322.322,0,0,0-.454-.455Z" fill="#7f4d32"/>
        </g>
        <g id="Grupo_11444" data-name="Grupo 11444">
          <path id="Trazado_11624" data-name="Trazado 11624" d="M1209.721,710.176a.321.321,0,0,0,0-.642.321.321,0,0,0,0,.642Z" fill="#7f4d32"/>
        </g>
        <g id="Grupo_11445" data-name="Grupo 11445">
          <path id="Trazado_11625" data-name="Trazado 11625" d="M1209.51,709.731a20.1,20.1,0,0,1-4.085,4.946c-.311.273.145.726.454.454a20.6,20.6,0,0,0,4.186-5.076.321.321,0,0,0-.555-.324Z" fill="#7f4d32"/>
        </g>
        <g id="Grupo_11446" data-name="Grupo 11446">
          <path id="Trazado_11626" data-name="Trazado 11626" d="M1179.835,767.92a28.339,28.339,0,0,0,8.5-6.492c.275-.308-.178-.764-.454-.454a27.879,27.879,0,0,1-8.371,6.391c-.37.185-.044.739.325.555Z" fill="#7f4d32"/>
        </g>
        <g id="Grupo_11447" data-name="Grupo 11447">
          <path id="Trazado_11627" data-name="Trazado 11627" d="M1174.341,766.912a14.85,14.85,0,0,0,5.881-4.138c.27-.312-.183-.768-.454-.455a14.187,14.187,0,0,1-5.6,3.973c-.38.149-.215.771.172.62Z" fill="#7f4d32"/>
        </g>
        <g id="Grupo_11448" data-name="Grupo 11448">
          <path id="Trazado_11628" data-name="Trazado 11628" d="M1167.746,768.2l3.705-3.054c.319-.263-.138-.715-.455-.454l-3.7,3.053c-.319.264.138.716.454.455Z" fill="#7f4d32"/>
        </g>
        <g id="Grupo_11449" data-name="Grupo 11449">
          <path id="Trazado_11629" data-name="Trazado 11629" d="M1183.6,758.045a14.4,14.4,0,0,0,3.474-7.995c.044-.41-.6-.407-.643,0a13.648,13.648,0,0,1-3.286,7.541c-.27.311.183.767.455.454Z" fill="#7f4d32"/>
        </g>
        <g id="Grupo_11450" data-name="Grupo 11450">
          <path id="Trazado_11630" data-name="Trazado 11630" d="M1189.053,756.965a27.189,27.189,0,0,0,4.049-8.866.322.322,0,0,0-.62-.171,26.69,26.69,0,0,1-3.984,8.713c-.237.34.32.662.555.324Z" fill="#7f4d32"/>
        </g>
        <g id="Grupo_11451" data-name="Grupo 11451">
          <path id="Trazado_11631" data-name="Trazado 11631" d="M1196.521,754.621a19.289,19.289,0,0,0,2.065-7.609c.025-.413-.617-.412-.643,0a18.459,18.459,0,0,1-1.977,7.285c-.187.368.368.693.555.324Z" fill="#7f4d32"/>
        </g>
        <g id="Grupo_11452" data-name="Grupo 11452">
          <path id="Trazado_11632" data-name="Trazado 11632" d="M1196.519,743.631a16.017,16.017,0,0,0-.63-5.84.322.322,0,0,0-.62.171,15.505,15.505,0,0,1,.607,5.669c-.031.413.612.411.643,0Z" fill="#7f4d32"/>
        </g>
        <g id="Grupo_11453" data-name="Grupo 11453">
          <path id="Trazado_11633" data-name="Trazado 11633" d="M1200.92,741.944a11.048,11.048,0,0,0-1.649-5.956c-.216-.352-.773-.03-.555.324a10.386,10.386,0,0,1,1.561,5.632.322.322,0,0,0,.643,0Z" fill="#7f4d32"/>
        </g>
        <g id="Grupo_11454" data-name="Grupo 11454">
          <path id="Trazado_11634" data-name="Trazado 11634" d="M1216.464,771.813a9.969,9.969,0,0,1,6.294,1.785c.341.236.663-.321.325-.555a10.523,10.523,0,0,0-6.619-1.872c-.412.022-.414.665,0,.642Z" fill="#7f4d32"/>
        </g>
        <g id="Grupo_11455" data-name="Grupo 11455">
          <path id="Trazado_11635" data-name="Trazado 11635" d="M1219.854,776.369a7.294,7.294,0,0,1,3.211.654c.373.171.7-.383.324-.555a8.048,8.048,0,0,0-3.535-.742.322.322,0,0,0,0,.643Z" fill="#7f4d32"/>
        </g>
        <g id="Grupo_11456" data-name="Grupo 11456">
          <path id="Trazado_11636" data-name="Trazado 11636" d="M1197.148,782.735a27.852,27.852,0,0,0,6.492.39c.412-.024.414-.667,0-.643a27.059,27.059,0,0,1-6.322-.367c-.4-.072-.578.547-.17.62Z" fill="#7f4d32"/>
        </g>
        <g id="Grupo_11457" data-name="Grupo 11457">
          <path id="Trazado_11637" data-name="Trazado 11637" d="M1210.822,782.467l4.4-.613c.408-.057.234-.677-.171-.62l-4.4.613c-.408.056-.234.676.171.62Z" fill="#7f4d32"/>
        </g>
        <g id="Grupo_11458" data-name="Grupo 11458">
          <path id="Trazado_11638" data-name="Trazado 11638" d="M1208.45,780.735a18.609,18.609,0,0,1,4.985-.286c.413.031.411-.612,0-.643a19.259,19.259,0,0,0-5.156.309c-.405.079-.234.7.171.62Z" fill="#7f4d32"/>
        </g>
        <g id="Grupo_11459" data-name="Grupo 11459">
          <path id="Trazado_11639" data-name="Trazado 11639" d="M1219.271,783.143l3.01-1.1c.386-.14.219-.761-.171-.619l-3.01,1.095c-.385.14-.219.761.171.619Z" fill="#7f4d32"/>
        </g>
        <g id="Grupo_11460" data-name="Grupo 11460">
          <path id="Trazado_11640" data-name="Trazado 11640" d="M1093.147,787.731a11.23,11.23,0,0,0,8.794-.649c.369-.189.044-.744-.324-.555a10.582,10.582,0,0,1-8.3.585c-.392-.134-.561.486-.171.619Z" fill="#7f4d32"/>
        </g>
        <g id="Grupo_11461" data-name="Grupo 11461">
          <path id="Trazado_11641" data-name="Trazado 11641" d="M1095.89,785.869a6.51,6.51,0,0,0,4.939-2.167c.277-.306-.176-.762-.454-.454a5.865,5.865,0,0,1-4.485,1.978.322.322,0,0,0,0,.643Z" fill="#7f4d32"/>
        </g>
        <g id="Grupo_11462" data-name="Grupo 11462">
          <path id="Trazado_11642" data-name="Trazado 11642" d="M1101.969,789.574a7.17,7.17,0,0,0,7-4.671c.144-.388-.477-.556-.62-.171a6.513,6.513,0,0,1-6.378,4.2c-.413-.018-.412.625,0,.643Z" fill="#7f4d32"/>
        </g>
        <g id="Grupo_11463" data-name="Grupo 11463">
          <path id="Trazado_11643" data-name="Trazado 11643" d="M1105.611,784.316a9.259,9.259,0,0,0,1.613-3.47c.094-.4-.526-.574-.62-.171a8.816,8.816,0,0,1-1.548,3.317c-.248.331.31.652.555.324Z" fill="#7f4d32"/>
        </g>
        <g id="Grupo_11464" data-name="Grupo 11464">
          <path id="Trazado_11644" data-name="Trazado 11644" d="M1104.7,780.117q.176-1.52.349-3.038c.047-.411-.6-.408-.643,0q-.174,1.518-.348,3.038c-.048.41.6.407.642,0Z" fill="#7f4d32"/>
        </g>
        <g id="Grupo_11465" data-name="Grupo 11465">
          <path id="Trazado_11645" data-name="Trazado 11645" d="M1111.362,784.663a8.556,8.556,0,0,0,.735-3.538.322.322,0,0,0-.643,0,7.783,7.783,0,0,1-.647,3.213c-.165.376.389.7.555.325Z" fill="#7f4d32"/>
        </g>
      </g>
      <path id="Trazado_11646" data-name="Trazado 11646" d="M1094.154,775.334a11.319,11.319,0,0,0-3.124,1.873,3.826,3.826,0,0,0-1.309,3.263c.353,2.175,3.031,3.141,5.226,2.941a5.3,5.3,0,0,0,4.073-2.071,4.081,4.081,0,0,0-.756-4.985,5.393,5.393,0,0,0-5.11-1.1Z" fill="#d16652"/>
      <path id="Trazado_11647" data-name="Trazado 11647" d="M1174.183,642.072c3.329-1.846,6.766-4.369,7.523-8.1.1,2.22.177,4.536-.74,6.561-1.77,3.909-6.446,5.339-10.124,7.551-3.131,1.883-5.853,5.131-8.438,7.913C1164.989,643.8,1168.979,644.959,1174.183,642.072Z" fill="#7f4d32"/>
    </g>
    <g id="Grupo_11614" data-name="Grupo 11614" transform="translate(22.239 -162.336)">
      <g id="Grupo_11591" data-name="Grupo 11591">
        <g id="Grupo_11590" data-name="Grupo 11590">
          <path id="Trazado_13403" data-name="Trazado 13403" d="M1179.956,845.045c3.466-25.211-9.115-51.916-30.761-65.3-14.554-9-40.116-15.279-40.771-32.376A65.808,65.808,0,0,0,1075.04,693.3a62.668,62.668,0,0,0-53.6-3.1c-18,7.393-34.815,25.594-36.787,45.438-.7,7.07.326,14.232-.436,21.3-1.611,14.946-14.612,21.881-26.769,28.211-12.3,6.4-25.813,12.382-33.265,24.071a35.07,35.07,0,0,0-.968,35.3c3.825,6.8,10.285,10.363,14.443,16.367,4.973,7.183,6.229,17,6.2,25.51-.041,10.6-2.08,21.114-2.291,31.715s1.663,21.791,8.386,29.991c9.359,11.416,26.311,14.3,40.554,10.426s26.269-13.331,37.152-23.3,21.2-20.8,33.835-28.44c14.861-8.983,30.83-11.875,47.916-11.69,12.326.134,22.79-1.123,34.548-5.324C1162.656,883.082,1177.252,864.718,1179.956,845.045Z" fill="#d8e6e9"/>
          <path id="Trazado_13404" data-name="Trazado 13404" d="M1052.324,958.346a13.551,13.551,0,0,1-2.694-1.59c-2.2-1.715-3.414-4.369-4.886-6.744a30.747,30.747,0,0,0-14.027-11.985c-3.1-1.316-6.432-2.064-9.617-3.26-3.555-1.335-7.121-2.639-10.72-3.851-5.713-1.926-12.607-3.434-17.289.364-3.22,2.61-4.356,7-6.946,10.234-3.189,3.985-8.3,5.892-13.285,7s-10.156,1.608-14.856,3.6a49.968,49.968,0,0,0-5.849,3.117l-12.566,7.428a11.957,11.957,0,0,0-3.724,2.935,4.075,4.075,0,0,0-.462,4.467c1.069,1.679,3.407,1.861,5.4,1.863,8.7.007,17.445-.139,26.164-.139h39.223c7.9,0,15.808.05,23.711.093,5.436.029,10.872-.014,16.307-.051,3.428-.023,6.8,0,10.255.16a9.366,9.366,0,0,0,4.076-.413c4.392-1.843,3.079-6.862.167-9.253C1058.234,960.29,1055.127,959.633,1052.324,958.346Z" fill="#d8e6e9"/>
          <ellipse id="Elipse_231" data-name="Elipse 231" cx="100.331" cy="13.572" rx="100.331" ry="13.572" transform="translate(938.367 972.002)" fill="#8cb8be"/>
          <ellipse id="Elipse_232" data-name="Elipse 232" cx="57.065" cy="7.719" rx="57.065" ry="7.719" transform="translate(1079.291 991.427)" fill="#8cb8be"/>
        </g>
      </g>
      <g id="Grupo_11599" data-name="Grupo 11599">
        <g id="Grupo_11596" data-name="Grupo 11596">
          <path id="Trazado_13405" data-name="Trazado 13405" d="M1075.848,983.97h0a45.325,45.325,0,0,1-40.089-51.021l31.115-233.1c2.558-19.161,22.128-32.451,43.761-30.055h0c21.633,2.4,37.821,19.644,36.125,38.9l-20.632,234.265A45.326,45.326,0,0,1,1075.848,983.97Z" fill="#c9daef"/>
          <path id="Trazado_13406" data-name="Trazado 13406" d="M1076.45,978.538h0a45.326,45.326,0,0,1-40.09-51.021l31.116-233.105c2.557-19.161,22.127-32.451,43.76-30.055h0c21.633,2.4,37.822,19.644,36.126,38.9l-20.633,234.265A45.326,45.326,0,0,1,1076.45,978.538Z" fill="#fff"/>
          <g id="Grupo_11592" data-name="Grupo 11592">
            <path id="Trazado_13407" data-name="Trazado 13407" d="M1081.6,975.5a43.533,43.533,0,0,1-4.783-.265,42,42,0,0,1-37.161-47.279l31.116-233.1c2.294-17.187,20.279-29.384,40.1-27.191s34.7,18.032,33.181,35.305l-20.632,234.266A41.992,41.992,0,0,1,1081.6,975.5Zm24.654-305.88c-16.833,0-31.318,10.784-33.286,25.525l-31.115,233.1a39.931,39.931,0,1,0,79.361,8.787l20.632-234.266c1.417-16.084-12.588-30.846-31.218-32.909A39.7,39.7,0,0,0,1106.252,669.62Z" fill="#c9daef"/>
          </g>
          <g id="Grupo_11595" data-name="Grupo 11595">
            <g id="Grupo_11593" data-name="Grupo 11593">
              <path id="Trazado_13408" data-name="Trazado 13408" d="M1101.3,906.13a.8.8,0,0,0-.71-.888l-16.9-1.871a.8.8,0,1,0-.177,1.6l16.9,1.872A.8.8,0,0,0,1101.3,906.13Z" fill="#95bdef"/>
              <path id="Trazado_13409" data-name="Trazado 13409" d="M1086.665,876.513l16.9,1.871a.8.8,0,1,0,.177-1.6l-16.9-1.871a.8.8,0,1,0-.177,1.6Z" fill="#95bdef"/>
              <path id="Trazado_13410" data-name="Trazado 13410" d="M1089.816,848.056l16.9,1.871a.8.8,0,1,0,.177-1.6l-16.9-1.871a.8.8,0,1,0-.177,1.6Z" fill="#95bdef"/>
              <path id="Trazado_13411" data-name="Trazado 13411" d="M1092.967,819.6l16.9,1.871a.8.8,0,1,0,.177-1.6l-16.9-1.871a.8.8,0,1,0-.177,1.6Z" fill="#95bdef"/>
              <path id="Trazado_13412" data-name="Trazado 13412" d="M1096.117,791.142l16.9,1.871a.8.8,0,1,0,.177-1.6l-16.9-1.871a.8.8,0,0,0-.177,1.6Z" fill="#95bdef"/>
              <path id="Trazado_13413" data-name="Trazado 13413" d="M1099.268,762.685l16.9,1.871a.8.8,0,0,0,.177-1.6l-16.9-1.871a.8.8,0,0,0-.177,1.6Z" fill="#95bdef"/>
              <path id="Trazado_13414" data-name="Trazado 13414" d="M1102.419,734.228l16.9,1.871a.8.8,0,0,0,.177-1.6l-16.9-1.871a.8.8,0,0,0-.177,1.6Z" fill="#95bdef"/>
              <path id="Trazado_13415" data-name="Trazado 13415" d="M1105.57,705.771l16.9,1.871a.8.8,0,0,0,.177-1.6l-16.9-1.871a.8.8,0,0,0-.177,1.6Z" fill="#95bdef"/>
              <path id="Rectángulo_3636" data-name="Rectángulo 3636" d="M1.315,0h.07A1.314,1.314,0,0,1,2.7,1.314V17.3A1.315,1.315,0,0,1,1.384,18.61h-.07A1.314,1.314,0,0,1,0,17.3V1.315A1.315,1.315,0,0,1,1.315,0Z" transform="translate(1085.551 920.147) rotate(-83.682)" fill="#95bdef"/>
              <rect id="Rectángulo_3637" data-name="Rectángulo 3637" width="2.699" height="18.61" rx="1.314" transform="translate(1088.702 891.69) rotate(-83.682)" fill="#95bdef"/>
              <path id="Rectángulo_3638" data-name="Rectángulo 3638" d="M1.314,0h.071A1.313,1.313,0,0,1,2.7,1.313V17.294A1.316,1.316,0,0,1,1.383,18.61H1.314A1.314,1.314,0,0,1,0,17.3V1.314A1.314,1.314,0,0,1,1.314,0Z" transform="translate(1091.853 863.233) rotate(-83.682)" fill="#95bdef"/>
              <path id="Rectángulo_3639" data-name="Rectángulo 3639" d="M1.315,0h.07A1.314,1.314,0,0,1,2.7,1.314V17.3A1.314,1.314,0,0,1,1.385,18.61H1.314A1.314,1.314,0,0,1,0,17.3V1.315A1.315,1.315,0,0,1,1.315,0Z" transform="translate(1095.004 834.776) rotate(-83.682)" fill="#95bdef"/>
              <rect id="Rectángulo_3640" data-name="Rectángulo 3640" width="2.699" height="18.61" rx="1.314" transform="translate(1098.155 806.319) rotate(-83.682)" fill="#95bdef"/>
              <path id="Rectángulo_3641" data-name="Rectángulo 3641" d="M1.314,0h.071A1.314,1.314,0,0,1,2.7,1.314V17.3A1.315,1.315,0,0,1,1.384,18.61h-.07A1.314,1.314,0,0,1,0,17.3V1.314A1.314,1.314,0,0,1,1.314,0Z" transform="translate(1101.305 777.862) rotate(-83.682)" fill="#95bdef"/>
              <path id="Rectángulo_3642" data-name="Rectángulo 3642" d="M1.314,0h.07A1.314,1.314,0,0,1,2.7,1.314V17.3A1.315,1.315,0,0,1,1.384,18.61h-.07A1.314,1.314,0,0,1,0,17.3V1.314A1.314,1.314,0,0,1,1.314,0Z" transform="translate(1104.456 749.405) rotate(-83.682)" fill="#95bdef"/>
              <path id="Rectángulo_3643" data-name="Rectángulo 3643" d="M1.315,0h.07A1.314,1.314,0,0,1,2.7,1.314V17.3A1.314,1.314,0,0,1,1.385,18.61h-.07A1.314,1.314,0,0,1,0,17.3V1.315A1.315,1.315,0,0,1,1.315,0Z" transform="matrix(0.11, -0.994, 0.994, 0.11, 1107.607, 720.948)" fill="#95bdef"/>
              <path id="Rectángulo_3644" data-name="Rectángulo 3644" d="M1.316,0h.069A1.314,1.314,0,0,1,2.7,1.314V17.3A1.315,1.315,0,0,1,1.384,18.61h-.07A1.315,1.315,0,0,1,0,17.3V1.316A1.316,1.316,0,0,1,1.316,0Z" transform="translate(1110.758 692.491) rotate(-83.682)" fill="#95bdef"/>
            </g>
            <path id="Trazado_13416" data-name="Trazado 13416" d="M1108.912,685.206a6.123,6.123,0,0,0-6.759,5.412l-20.247,182.867,12.171,1.347,20.247-182.866A6.124,6.124,0,0,0,1108.912,685.206Z" fill="#95bdef"/>
            <path id="Trazado_13417" data-name="Trazado 13417" d="M1108.927,685.209l-.015,0a6.123,6.123,0,0,0-6.759,5.412l-20.735,187.271,6.1.676Z" fill="#aecbef"/>
            <g id="Grupo_11594" data-name="Grupo 11594">
              <path id="Trazado_13418" data-name="Trazado 13418" d="M1088.622,924.1l6.318-57.064a6.123,6.123,0,0,0-5.412-6.76h0a6.124,6.124,0,0,0-6.76,5.412l-6.318,57.064a20.075,20.075,0,1,0,12.172,1.348Z" fill="#0385d5"/>
              <path id="Trazado_13419" data-name="Trazado 13419" d="M1082.768,865.693l-6.318,57.064a20.076,20.076,0,0,0,1.773,39.63l11.3-102.106A6.124,6.124,0,0,0,1082.768,865.693Z" fill="#2fa4ec"/>
              <path id="Trazado_13420" data-name="Trazado 13420" d="M1076.039,936.22c-2.533,2.662-6.081,3.4-7.924,1.644s-1.283-5.333,1.25-7.995,6.081-3.4,7.924-1.644S1078.572,933.558,1076.039,936.22Z" fill="#63bcff"/>
              <path id="Trazado_13421" data-name="Trazado 13421" d="M1088.151,864.709a1.843,1.843,0,1,1-1.629-2.035A1.843,1.843,0,0,1,1088.151,864.709Z" fill="#63bcff"/>
            </g>
          </g>
        </g>
        <path id="Trazado_13422" data-name="Trazado 13422" d="M1114.751,657.922c8.842,1.881,18.1,3.961,24.928,9.881a31,31,0,0,1,9.1,14.982,46.662,46.662,0,0,1,1.618,8.827c.233,2.606.755,6.006-.173,8.5-.889,2.386-3.491,4.34-5.924,3.587a5.006,5.006,0,0,1-2.771-2.447,12.906,12.906,0,0,1-1.18-3.587c-.809-3.8-1.3-7.73-2.982-11.229a17.9,17.9,0,0,0-8.1-8.206,19.591,19.591,0,0,0-10.454-1.665c-3.214.214-6.165,2.267-9.451,1.96-4.6-.429-7.672-5.392-12.223-6.168-5.118-.874-10.079,2.982-15.243,2.56-3.661-.3-5.525-3.007-3.444-6.372a5.17,5.17,0,0,1,3.534-2.387c3.328-.674,3.929-3.658,6.095-5.836a14.275,14.275,0,0,1,7.037-3.683c5.611-1.278,11.586-.331,17.144.77C1113.091,657.572,1113.921,657.746,1114.751,657.922Z" fill="#afdaff"/>
        <g id="Grupo_11598" data-name="Grupo 11598">
          <path id="Trazado_13423" data-name="Trazado 13423" d="M1167.912,979.142c-8.434-3.136-17.2-3.437-23.918-10.559-2.527-2.68-4.354-5.937-6.674-8.8-3.089-3.809-6.683-5.272-11.173-6.786-5.64-1.9-12.446-3.389-17.068.36-3.179,2.577-4.3,6.908-6.857,10.1-3.148,3.934-8.2,5.816-13.115,6.907s-10.026,1.587-14.665,3.554a49.481,49.481,0,0,0-5.775,3.077q-6.2,3.668-12.4,7.333a11.815,11.815,0,0,0-3.677,2.9,4.025,4.025,0,0,0-.456,4.41c1.056,1.658,3.364,1.837,5.329,1.839,8.586.007,17.222-.137,25.828-.137,8.347,0,16.692.271,25.039.173,3.471-.041,6.95-.01,10.409-.04,1.623-.014,8.5-.386,6.194,3.493-.586.984-2.047,1.525-2,2.67s1.538,1.544,2.687,1.6a204.278,204.278,0,0,0,28.293-.507c4.232-.37,8.409-1.232,12.6-1.685,3.663-.4,6.822-.074,9.455-3.263a9.333,9.333,0,0,0,.916-10.247c-1.6-2.855-4.61-4.629-7.637-5.877Q1168.577,979.389,1167.912,979.142Z" fill="#afdaff"/>
          <g id="Grupo_11597" data-name="Grupo 11597">
            <path id="Trazado_13424" data-name="Trazado 13424" d="M1159.429,980.765c-3.057-3.089-8.054-2.856-11.65-1.253a33.362,33.362,0,0,0-7.529,5.185c-.725.6-1.475,1.23-2.223,1.82-3.963,3.123-7.306,4.509-10.5,4.363a.443.443,0,0,0-.041.886c.168.008.334.011.5.011,3.268,0,6.648-1.46,10.586-4.565.757-.6,1.512-1.226,2.242-1.834a32.664,32.664,0,0,1,7.322-5.057c3.318-1.477,7.9-1.721,10.659,1.067a.443.443,0,1,0,.63-.623Z" fill="#fff"/>
            <path id="Trazado_13425" data-name="Trazado 13425" d="M1141.531,974.361a19.048,19.048,0,0,0,2.689-.184.443.443,0,1,0-.124-.877c-3.814.543-7.941-.1-13.373-2.079-1.449-.528-2.909-1.114-4.321-1.682a71.82,71.82,0,0,0-8.762-3.088c-5.307-1.366-10.115-1.165-13.9.584a.443.443,0,0,0,.372.805c4.549-2.1,9.749-1.448,13.31-.53a70.894,70.894,0,0,1,8.652,3.051c1.419.57,2.886,1.16,4.348,1.693A33.205,33.205,0,0,0,1141.531,974.361Z" fill="#fff"/>
          </g>
        </g>
      </g>
      <g id="Grupo_11613" data-name="Grupo 11613">
        <g id="Grupo_11600" data-name="Grupo 11600">
          <path id="Trazado_13426" data-name="Trazado 13426" d="M947.824,782.85a7.477,7.477,0,0,0-3.217,8.844c.1.253.205.505.316.757a3.984,3.984,0,0,1,.52,2.115,3.91,3.91,0,0,1-1.365,1.978,9.071,9.071,0,0,0-1.106,1.222,4.484,4.484,0,0,0,2.823,6.991.486.486,0,1,0,.182-.955,3.512,3.512,0,0,1-2.212-5.475,8.41,8.41,0,0,1,.993-1.089,4.658,4.658,0,0,0,1.645-2.521,4.743,4.743,0,0,0-.59-2.655c-.1-.237-.207-.473-.3-.71A6.471,6.471,0,0,1,948.3,783.7a.486.486,0,1,0-.478-.847Z" fill="#e1ebff"/>
          <path id="Trazado_13427" data-name="Trazado 13427" d="M943.023,807.526c-.316-.226-.648-.425-.969-.617a7.69,7.69,0,0,1-1.4-.98,4.975,4.975,0,0,1-1.318-3.733,15.879,15.879,0,0,1,.9-4.234.486.486,0,0,0-.928-.288,16.58,16.58,0,0,0-.947,4.5,5.938,5.938,0,0,0,1.617,4.458,8.52,8.52,0,0,0,1.569,1.112c.318.19.618.37.9.573a2.564,2.564,0,0,1,1.23,1.974.485.485,0,0,0,.449.52l.036,0a.486.486,0,0,0,.484-.451A3.348,3.348,0,0,0,943.023,807.526Z" fill="#e1ebff"/>
          <path id="Trazado_13428" data-name="Trazado 13428" d="M953.532,696.942a17.648,17.648,0,0,0-10.227,18.85.486.486,0,0,0,.48.411.5.5,0,0,0,.076-.006.488.488,0,0,0,.4-.556,16.674,16.674,0,0,1,9.663-17.812.486.486,0,1,0-.4-.887Z" fill="#e1ebff"/>
          <path id="Trazado_13429" data-name="Trazado 13429" d="M939.258,721.614a.473.473,0,0,0,.083-.007.486.486,0,0,0,.4-.562,24.988,24.988,0,0,1,1.651-13.979.486.486,0,0,0-.893-.384,25.976,25.976,0,0,0-1.716,14.529A.486.486,0,0,0,939.258,721.614Z" fill="#e1ebff"/>
          <path id="Trazado_13430" data-name="Trazado 13430" d="M1049.579,705.132a20.031,20.031,0,0,0-9.794-11.661.486.486,0,1,0-.448.862,19.053,19.053,0,0,1,9.315,11.092.486.486,0,0,0,.463.34.5.5,0,0,0,.147-.023A.486.486,0,0,0,1049.579,705.132Z" fill="#e1ebff"/>
          <path id="Trazado_13431" data-name="Trazado 13431" d="M1044.448,693.262a.486.486,0,0,0,.436.27.5.5,0,0,0,.216-.051.486.486,0,0,0,.218-.652,10.953,10.953,0,0,0-9.136-5.972.486.486,0,1,0-.047.971A10.1,10.1,0,0,1,1044.448,693.262Z" fill="#e1ebff"/>
          <path id="Trazado_13432" data-name="Trazado 13432" d="M961.022,902.236a2.79,2.79,0,0,1-2.127-2.478,9.6,9.6,0,0,1,.425-3.567l.086-.347a7.926,7.926,0,0,0,.142-4.368,8.476,8.476,0,0,0-1.485-2.457,8.837,8.837,0,0,1-1.241-1.916c-.711-1.7-.233-3.668.23-5.575q.087-.357.17-.711c.731-3.134.353-5.419-1.123-6.791a.486.486,0,1,0-.662.712c1.2,1.118,1.484,3.089.839,5.858q-.082.349-.169.7c-.5,2.06-1.016,4.19-.181,6.18a9.667,9.667,0,0,0,1.368,2.134,7.624,7.624,0,0,1,1.331,2.17,7.1,7.1,0,0,1-.164,3.831l-.084.345a10.277,10.277,0,0,0-.444,3.938,3.72,3.72,0,0,0,2.987,3.305l.052,0a.486.486,0,0,0,.05-.969Z" fill="#e1ebff"/>
          <path id="Trazado_13433" data-name="Trazado 13433" d="M957.8,905.058a12.9,12.9,0,0,1-1.454-1.676,6.387,6.387,0,0,1,.185-7.29.486.486,0,0,0-.774-.588,7.385,7.385,0,0,0-.214,8.427,13.943,13.943,0,0,0,1.559,1.8,14.182,14.182,0,0,1,1.349,1.525c.748,1.031,1.189,2.527.491,3.546a.486.486,0,1,0,.8.55c1.033-1.505.374-3.455-.505-4.666A15.192,15.192,0,0,0,957.8,905.058Z" fill="#e1ebff"/>
        </g>
        <g id="Grupo_11612" data-name="Grupo 11612">
          <g id="Grupo_11607" data-name="Grupo 11607">
            <path id="Trazado_13434" data-name="Trazado 13434" d="M959.113,840.275c.972,13.852,7.533,72.66,10.449,90.642s8.641,34.022,13.676,34.508,10.139-.729,11.6-8.992,3.646-67.07,3.646-67.07,4.642,33.064,7.558,49.346,4.835,25.015,10.181,25.744,11.179-.972,12.394-8.506,6.8-96.717,4.86-123.205c0,0-8.748-2.673-34.993-2.916S959.113,840.275,959.113,840.275Z" fill="#2e80c6"/>
            <g id="Grupo_11603" data-name="Grupo 11603">
              <path id="Trazado_13435" data-name="Trazado 13435" d="M977.634,959.365s.3,5.493,0,10.677S964,979.716,962.383,983.119s2.76,5.407,8.055,4.921,9.761-1.2,13.487-4.435,9.808-.609,9.614-3.843c-.3-4.983.529-20.4.529-20.4Z" fill="#2b1b59"/>
              <path id="Trazado_13436" data-name="Trazado 13436" d="M987.824,971.666a1.42,1.42,0,0,0,1.022.456,1.689,1.689,0,0,0,1.225-.552c1.919-1.948,2.078-9.246,2.061-12.205h-.973c.03,4.572-.412,10.134-1.78,11.522a.747.747,0,0,1-.533.263.447.447,0,0,1-.33-.166c-1.437-1.457-1.358-8.949-1.321-11.619h-.972C986.159,964.307,986.291,970.112,987.824,971.666Z" fill="#493680"/>
              <g id="Grupo_11602" data-name="Grupo 11602">
                <g id="Grupo_11601" data-name="Grupo 11601">
                  <path id="Trazado_13437" data-name="Trazado 13437" d="M993.16,963.762a105.713,105.713,0,0,1-15.8,0,4.012,4.012,0,0,1-3.711-4.486h0a4.144,4.144,0,0,1,4.577-3.3,59.2,59.2,0,0,0,14.065,0,4.143,4.143,0,0,1,4.577,3.3h0A4.012,4.012,0,0,1,993.16,963.762Z" fill="#fff"/>
                </g>
              </g>
            </g>
            <g id="Grupo_11606" data-name="Grupo 11606">
              <path id="Trazado_13438" data-name="Trazado 13438" d="M1027.563,959.458s-.3,5.493,0,10.677,13.631,9.675,15.251,13.077-2.76,5.407-8.055,4.921-9.761-1.2-13.487-4.435-9.808-.608-9.614-3.842c.3-4.984-.529-20.4-.529-20.4Z" fill="#2b1b59"/>
              <path id="Trazado_13439" data-name="Trazado 13439" d="M1017.373,971.76a1.424,1.424,0,0,1-1.022.456,1.687,1.687,0,0,1-1.225-.553c-1.919-1.947-2.078-9.246-2.061-12.205h.973c-.03,4.573.412,10.134,1.78,11.523a.747.747,0,0,0,.533.263.445.445,0,0,0,.33-.167c1.437-1.457,1.358-8.949,1.321-11.619h.972C1019.038,964.4,1018.906,970.206,1017.373,971.76Z" fill="#493680"/>
              <g id="Grupo_11605" data-name="Grupo 11605">
                <g id="Grupo_11604" data-name="Grupo 11604">
                  <path id="Trazado_13440" data-name="Trazado 13440" d="M1012.037,963.855a105.436,105.436,0,0,0,15.8,0,4.012,4.012,0,0,0,3.711-4.486h0a4.145,4.145,0,0,0-4.577-3.3,59.189,59.189,0,0,1-14.065,0,4.144,4.144,0,0,0-4.577,3.3h0A4.012,4.012,0,0,0,1012.037,963.855Z" fill="#fff"/>
                </g>
              </g>
            </g>
            <path id="Trazado_13441" data-name="Trazado 13441" d="M996.983,859.447a.486.486,0,0,0-.486-.485h0a.484.484,0,0,0-.485.486c.007,3.249.522,10.47,1.02,17.453.487,6.831.991,13.9,1.018,17.219a.479.479,0,0,0,.233.4c.126-3.217.2-5.158.2-5.158s.19,1.356.518,3.654c-.105-3.65-.558-10.008-1-16.185C997.5,869.866,996.99,862.662,996.983,859.447Z" fill="#1872af"/>
          </g>
          <path id="Trazado_13442" data-name="Trazado 13442" d="M1049.755,726.79s6.562-17.74-11.664-26.731c0,0-2.77-15.2-40.431-15.148-6.713.009-20.981,2.1-29.892,6.474s-10.194,9.889-10.194,9.889-9.882,3.888-11.664,12.8.972,14.9.972,14.9-9.7,7.4-3.219,23.116c0,0-4.306,14.007,8.71,18.974,0,0-2.008,7.727,3.581,12.587,0,0-5.2,4.146-5.82,10.7a24.654,24.654,0,0,0,1.689,10.927,34.221,34.221,0,0,0-3.645,20.656c1.7,11.664,10.692,18.468,18.711,21.141,6.391,2.13,17.375,2.187,21.574,2.123a5.664,5.664,0,0,0,3.075-.966l6.573-4.417,9.5,4.343a5.67,5.67,0,0,0,2.546.512,69.893,69.893,0,0,0,19.916-3.539c10.206-3.645,14.266-13.5,14.094-25.516-.2-13.615-7.533-18.468-7.533-18.468s6.588-8.855-4.106-20.276c0,0,4.374-6.319.972-15.31,0,0,9.863-4.507,15.041-11.072C1054.519,746.913,1054.859,731.65,1049.755,726.79Z" fill="#2b1b59"/>
          <g id="Grupo_11609" data-name="Grupo 11609">
            <path id="Trazado_13443" data-name="Trazado 13443" d="M1025.637,726.811l-.341-.91c-10.324,3.859-23.566.988-26.3.324.045-12.138.089-25.979.089-33.158h-.972c0,7.162-.044,20.956-.089,33.075-10.353,2.51-25.69-1.347-25.845-1.386l-.241.942c.637.163,15.509,3.9,26.083,1.443-.044,11.836-.087,21.826-.088,22.029l.972,0c0-.2.044-10.148.087-21.95a63.415,63.415,0,0,0,13.842,1.618A37.021,37.021,0,0,0,1025.637,726.811Z" fill="#493680"/>
            <path id="Trazado_13444" data-name="Trazado 13444" d="M1013.856,752.065s2.768-2.125,5.8-4.519,5.4-6.684,7.8-4.989.652,5.922-.65,6.773a58.578,58.578,0,0,0,8.7-4.17c2.87-1.921,4.091-1.926,4.855,1.565s-2,11.449-6.376,14.341c-6.777,4.476-18.236,1.729-18.236,1.729A15.794,15.794,0,0,0,1013.856,752.065Z" fill="#d16652"/>
            <path id="Trazado_13445" data-name="Trazado 13445" d="M1030.449,704.544a.485.485,0,0,0-.687.01,20.739,20.739,0,0,0-5.715,14.1c-.1,8.618,4.15,17.236,5.226,19.278-6.494,3.46-13.134,9.889-13.2,9.955a.487.487,0,0,0,.339.835.482.482,0,0,0,.339-.138c.069-.066,6.9-6.687,13.407-10.017a.486.486,0,0,0,.2-.67c-.054-.1-5.447-9.833-5.34-19.232a19.768,19.768,0,0,1,5.44-13.435A.485.485,0,0,0,1030.449,704.544Z" fill="#493680"/>
            <g id="Grupo_11608" data-name="Grupo 11608">
              <path id="Trazado_13446" data-name="Trazado 13446" d="M963.407,774.043a22.773,22.773,0,0,1-10.5-2.232.486.486,0,1,1,.448-.863c11.023,5.726,29.506-2.093,29.691-2.173a.494.494,0,0,1,.333-.018,23.915,23.915,0,0,0,14.1-.283.483.483,0,0,1,.454.054c2.253,1.573,11.547,1.545,15.185-1.86,1.453-1.358,2.226-3.909,2.123-7-.133-3.966-1.658-7.705-3.884-9.525-4.2-3.436-14.778.048-14.884.084a.484.484,0,0,1-.455-.079c-5.421-4.267-15.344.019-15.443.063a.486.486,0,0,1-.429-.018,17.913,17.913,0,0,0-13.865-1.063.486.486,0,0,1-.543-.772c5-5.731-.02-16.256-.071-16.362a.486.486,0,0,1,.266-.667c2.016-.756,7.255-4.854,7.3-14.614.041-9.053-6.97-11.269-7.268-11.359a.486.486,0,0,1,.278-.931c.08.024,8.006,2.495,7.962,12.294-.04,8.766-4.311,13.819-7.452,15.316.9,2.038,4.077,10.152.611,15.751a18.475,18.475,0,0,1,13.04,1.442c1.558-.643,10.516-4.062,16.007,0,1.7-.538,11.274-3.339,15.561.164,2.434,1.99,4.1,6.012,4.24,10.246.113,3.368-.773,6.189-2.429,7.739-3.765,3.522-13.089,3.92-16.187,2.087a24.592,24.592,0,0,1-14.329.272C981.843,770.332,972.587,774.042,963.407,774.043Z" fill="#493680"/>
            </g>
            <path id="Trazado_13447" data-name="Trazado 13447" d="M980.194,807.517l.04-.084a.487.487,0,0,0-.387-.69c-7.523-.836-19.72-4.427-19.842-4.464a.486.486,0,0,0-.579.262l-3.766,8.141a.484.484,0,0,0,.109.56,8.473,8.473,0,0,0,2.443,1.43l-3.6,17.761a.485.485,0,0,0,.148.455,31.094,31.094,0,0,0,19.558,6.857c.207,0,.416,0,.625-.006a.5.5,0,0,0,.187-.042l5.1-2.258a.486.486,0,0,0,.29-.45Zm-20.061-4.188c2.119.611,12.1,3.43,18.934,4.3l-3.576,7.6c-2.275-.243-15.261-1.74-18.794-4.472Zm-4.512,27.017,3.511-17.319c5.879,2.131,16.07,3.151,16.6,3.2l.047,0a.486.486,0,0,0,.44-.279l1.978-4.2-3.688,25.017A30.319,30.319,0,0,1,955.621,830.346Zm19.922,6.106,3.723-25.257.281,23.485Z" fill="#493680"/>
            <path id="Trazado_13448" data-name="Trazado 13448" d="M987.949,770.438a19.138,19.138,0,0,1-10.828-5.906c-2.526-2.725-4.678-.79-4.5,1.276s2.858,5.254,0,3.858-10.611-3.38-10.678-.455,4.2,5.879,11.513,6.942S989.993,770.7,987.949,770.438Z" fill="#d16652"/>
            <path id="Trazado_13449" data-name="Trazado 13449" d="M1031.856,782.084a.486.486,0,1,0-.652-.721c-11.008,9.939-28.908,6.231-32.371,5.392l.073-17.429-.972-.005-.072,17.3c-26.917,4.708-40.787-2.935-40.925-3.013a.486.486,0,0,0-.481.845c.108.061,8.435,4.67,24.612,4.67a98.428,98.428,0,0,0,16.79-1.515l-.088,21.207a98.958,98.958,0,0,1-17.729,1.415l-.008.972c.287,0,.575,0,.865,0a99.559,99.559,0,0,0,16.868-1.4l-.141,34.015.972,0,.141-33.989a96.019,96.019,0,0,0,15.172.974l-.028-.972a95.167,95.167,0,0,1-15.14-.983l.087-21.1C1002.89,788.706,1020.716,792.143,1031.856,782.084Z" fill="#493680"/>
            <path id="Trazado_13450" data-name="Trazado 13450" d="M965.741,732.11l.726-.646c-4.912-5.515-14.995-3.982-19.741-2.868.095.249.156.381.156.381a8.727,8.727,0,0,0-.87.8C950.042,728.759,960.884,726.657,965.741,732.11Z" fill="#493680"/>
            <path id="Trazado_13451" data-name="Trazado 13451" d="M1049.986,726.065c-10.327-.491-18.279,7.253-18.365,7.34a.486.486,0,1,0,.684.69c.083-.083,7.773-7.558,17.688-7.055-.079-.084-.156-.172-.238-.25C1049.755,726.79,1049.851,726.532,1049.986,726.065Z" fill="#493680"/>
            <path id="Trazado_13452" data-name="Trazado 13452" d="M1013.41,834.989a.486.486,0,0,0,.29.45l5.1,2.258a.5.5,0,0,0,.187.042c.209,0,.419.006.625.006a31.094,31.094,0,0,0,19.558-6.857.485.485,0,0,0,.148-.455l-3.6-17.761a8.47,8.47,0,0,0,2.443-1.43.484.484,0,0,0,.109-.56l-3.766-8.141a.486.486,0,0,0-.579-.262c-.122.037-12.319,3.628-19.842,4.464a.487.487,0,0,0-.387.69l.04.084Zm23.826-24.234c-3.533,2.732-16.519,4.229-18.794,4.472l-3.576-7.6c6.831-.869,16.815-3.688,18.934-4.3Zm-17.817,26.013-3.688-25.017,1.978,4.2a.486.486,0,0,0,.44.279l.047,0c.535-.052,10.726-1.072,16.605-3.2l3.511,17.319A30.319,30.319,0,0,1,1019.419,836.768Zm-5.033-2.088.281-23.485,3.723,25.257Z" fill="#493680"/>
          </g>
          <path id="Trazado_13453" data-name="Trazado 13453" d="M1017.435,676.487c-4.009-2.187-12.009-2.286-20.016-2.286-6.958,0-16.921,3.38-19.108,5.2s-.608,5.107-1.7,9.783c-.5,2.153,1.78,6.329,5.679,10.042-2.406,6.429-8.928,24.435-9.324,31.693-.486,8.91,5.67,7.452,10.206,6.48s7.614-6.156,8.1-16.2c6.157,1.782,9.235-.486,10.207-4.374.6-2.4.459-7.227.264-10.587,12.616-1.921,19.134-8.99,20.675-14.443C1024,686.208,1021.445,678.674,1017.435,676.487Z" fill="#d16652"/>
          <path id="Trazado_13454" data-name="Trazado 13454" d="M1013.311,669.163a1.673,1.673,0,0,0-1.222-.018c-.46-4.957-3.119-10.8-14.135-11.056-7.3-.167-13.272,5.213-13.841,10.332-.015.14-.027.29-.037.444a1.543,1.543,0,0,0-.838.1c-1.212.535-1.458,2.641-.548,4.7a5.292,5.292,0,0,0,2.315,2.658c1.624,6.008,5.495,12.665,12.949,12.852,8.289.207,12.045-6.782,13.475-12.608a5.171,5.171,0,0,0,2.431-2.709C1014.769,671.8,1014.524,669.7,1013.311,669.163Z" fill="#ffbe99"/>
          <path id="Trazado_13455" data-name="Trazado 13455" d="M1011.776,668.685s-.96,7.76-6.485,11.294a10.016,10.016,0,0,0-6.947-2.575,10.131,10.131,0,0,0-6.739,2.377c-5.259-3.617-6.181-11.1-6.181-11.1l-.419,7.646a22.915,22.915,0,0,0,6.485,12v0c1.619,1.513,4.018,3.418,6.785,3.418s5.3-1.9,6.924-3.418v0s5.754-4.723,7-12Zm-13.432,18.292c-2.371,0-4.292-1.284-4.292-2.868s1.921-2.868,4.292-2.868,4.293,1.284,4.293,2.868S1000.715,686.977,998.344,686.977Z" fill="#231139"/>
          <ellipse id="Elipse_233" data-name="Elipse 233" cx="6.592" cy="5.966" rx="6.592" ry="5.966" transform="translate(991.519 635.723)" fill="#e1ebff"/>
          <path id="Trazado_13456" data-name="Trazado 13456" d="M998.3,652.335c-11.177-.021-15.295,4.26-17.875,8.209s-1.395,10.874.647,11.706,8.737-7.966,17.694-8.382,11.4,9.355,15.7,8.835,3.257-8.107,2.934-11.12S1012.839,652.364,998.3,652.335Z" fill="#d16652"/>
          <path id="Trazado_13457" data-name="Trazado 13457" d="M980.379,660.544s3.565-15.793,17.732-16.417,16.348,14.858,16.348,14.858S996.38,649.53,980.379,660.544Z" fill="#d16652"/>
          <path id="Trazado_13458" data-name="Trazado 13458" d="M997.405,652.829c9.206.269,15.022,2.988,18.146,5.054a11.43,11.43,0,0,0-1.744-1.6c-.066-.211-.139-.434-.217-.661a37.633,37.633,0,0,0-16.157-3.766c-8.586-.253-13.693,3.457-16.251,6.145a22.272,22.272,0,0,0-.788,2.48C981.777,658.474,986.785,652.522,997.405,652.829Z" fill="#d16652"/>
          <g id="Grupo_11611" data-name="Grupo 11611">
            <g id="Grupo_11610" data-name="Grupo 11610">
              <path id="Trazado_13459" data-name="Trazado 13459" d="M1016.913,680.332a.487.487,0,0,0-.567.388,16.326,16.326,0,0,1-6.9,10.393,16.585,16.585,0,0,1-12.339,2.665,22.625,22.625,0,0,1-10.027-4.954c-3.906-3.5-6.045-6.358-6.54-8.739a.486.486,0,0,0-.952.2c.539,2.593,2.778,5.623,6.844,9.266a23.623,23.623,0,0,0,10.468,5.18,14.364,14.364,0,0,0,3.065.321,18.44,18.44,0,0,0,10.019-3.126A17.084,17.084,0,0,0,1017.3,680.9.485.485,0,0,0,1016.913,680.332Z" fill="#d16652"/>
              <path id="Trazado_13460" data-name="Trazado 13460" d="M1001.112,705.815h-.1a26.22,26.22,0,0,1-17.461-6.743.486.486,0,0,0-.675.7,25.767,25.767,0,0,0,8.785,5.309c-.112,2.54-.251,4.707-.385,6.8-.142,2.2-.288,4.469-.4,7.174a.487.487,0,0,0,.465.506h.021a.485.485,0,0,0,.485-.465c.115-2.694.261-4.961.4-7.152.13-2.018.263-4.1.373-6.524a26.928,26.928,0,0,0,8.394,1.367h.1a.486.486,0,0,0,0-.972Z" fill="#d16652"/>
            </g>
          </g>
        </g>
      </g>
    </g>
  </g>
</svg>
