<svg xmlns="http://www.w3.org/2000/svg" xmlns:xlink="http://www.w3.org/1999/xlink" width="404.692" height="201.751" viewBox="0 0 404.692 201.751">
  <defs>
    <clipPath id="clip-path">
      <path id="Trazado_9727" data-name="Trazado 9727" d="M565.828,8097.05s-92.342-2.364-101.371,3.121-63.387,81.7-62.29,82.917,18.976,47.038,18.976,47.038a55.018,55.018,0,0,1,90.995-33.119l65.436-5.725Z" transform="translate(-402.151 -8096.543)" fill="none"/>
    </clipPath>
  </defs>
  <g id="Grupo_73303" data-name="Grupo 73303" transform="translate(7690 4010.819)">
    <g id="Grupo_73300" data-name="Grupo 73300" transform="translate(-7496.17 -4010.818)">
      <g id="Grupo_10396" data-name="Grupo 10396" transform="translate(81.099 4.04)">
        <g id="Grupo_10395" data-name="Grupo 10395">
          <ellipse id="Elipse_159" data-name="Elipse 159" cx="28.888" cy="48.417" rx="28.888" ry="48.417" fill="#fffb00"/>
        </g>
      </g>
      <g id="Grupo_10398" data-name="Grupo 10398" transform="translate(64.723 0.495)">
        <g id="Grupo_10397" data-name="Grupo 10397">
          <ellipse id="Elipse_160" data-name="Elipse 160" cx="28.888" cy="48.417" rx="28.888" ry="48.417" transform="matrix(0.985, -0.174, 0.174, 0.985, 0, 10.033)" fill="#ffed00"/>
        </g>
      </g>
      <g id="Grupo_10400" data-name="Grupo 10400" transform="translate(49.722 0)">
        <g id="Grupo_10399" data-name="Grupo 10399">
          <ellipse id="Elipse_161" data-name="Elipse 161" cx="28.888" cy="48.417" rx="28.888" ry="48.417" transform="translate(0 19.761) rotate(-20)" fill="#ffdf00"/>
        </g>
      </g>
      <g id="Grupo_10402" data-name="Grupo 10402" transform="translate(36.552 2.57)">
        <g id="Grupo_10401" data-name="Grupo 10401">
          <ellipse id="Elipse_162" data-name="Elipse 162" cx="28.888" cy="48.417" rx="28.888" ry="48.417" transform="translate(0 28.888) rotate(-30)" fill="#ffd000"/>
        </g>
      </g>
      <g id="Grupo_10404" data-name="Grupo 10404" transform="translate(25.613 8.126)">
        <g id="Grupo_10403" data-name="Grupo 10403">
          <ellipse id="Elipse_163" data-name="Elipse 163" cx="28.888" cy="48.417" rx="28.888" ry="48.417" transform="translate(0 37.138) rotate(-40)" fill="#ffc000"/>
        </g>
      </g>
      <g id="Grupo_10406" data-name="Grupo 10406" transform="translate(17.239 16.501)">
        <g id="Grupo_10405" data-name="Grupo 10405">
          <ellipse id="Elipse_164" data-name="Elipse 164" cx="28.888" cy="48.417" rx="28.888" ry="48.417" transform="translate(0 44.26) rotate(-50)" fill="#ffb200"/>
        </g>
      </g>
      <g id="Grupo_10408" data-name="Grupo 10408" transform="translate(11.682 27.44)">
        <g id="Grupo_10407" data-name="Grupo 10407">
          <ellipse id="Elipse_165" data-name="Elipse 165" cx="28.888" cy="48.417" rx="28.888" ry="48.417" transform="translate(0 50.036) rotate(-60)" fill="#ffa000"/>
        </g>
      </g>
      <g id="Grupo_10410" data-name="Grupo 10410" transform="translate(9.112 40.609)">
        <g id="Grupo_10409" data-name="Grupo 10409">
          <ellipse id="Elipse_166" data-name="Elipse 166" cx="28.888" cy="48.417" rx="28.888" ry="48.417" transform="translate(0 54.293) rotate(-70)" fill="#ff9300"/>
        </g>
      </g>
      <g id="Grupo_10412" data-name="Grupo 10412" transform="translate(9.607 55.611)">
        <g id="Grupo_10411" data-name="Grupo 10411">
          <ellipse id="Elipse_167" data-name="Elipse 167" cx="28.888" cy="48.417" rx="28.888" ry="48.417" transform="translate(0 56.899) rotate(-80)" fill="#ff8700"/>
        </g>
      </g>
      <g id="Grupo_10414" data-name="Grupo 10414" transform="translate(13.153 71.987)">
        <g id="Grupo_10413" data-name="Grupo 10413">
          <ellipse id="Elipse_168" data-name="Elipse 168" cx="48.417" cy="28.889" rx="48.417" ry="28.889" fill="#ff7900"/>
        </g>
      </g>
      <g id="Grupo_10416" data-name="Grupo 10416" transform="translate(9.608 72.426)">
        <g id="Grupo_10415" data-name="Grupo 10415">
          <ellipse id="Elipse_169" data-name="Elipse 169" cx="48.417" cy="28.888" rx="48.417" ry="28.888" transform="translate(0 16.815) rotate(-10)" fill="#ff5700"/>
        </g>
      </g>
      <g id="Grupo_10418" data-name="Grupo 10418" transform="translate(9.112 73.729)">
        <g id="Grupo_10417" data-name="Grupo 10417">
          <ellipse id="Elipse_170" data-name="Elipse 170" cx="48.417" cy="28.888" rx="48.417" ry="28.888" transform="translate(0 33.119) rotate(-20)" fill="#ff3b00"/>
        </g>
      </g>
      <g id="Grupo_10420" data-name="Grupo 10420" transform="translate(11.682 75.856)">
        <g id="Grupo_10419" data-name="Grupo 10419">
          <ellipse id="Elipse_171" data-name="Elipse 171" cx="48.417" cy="28.888" rx="48.417" ry="28.888" transform="matrix(0.866, -0.5, 0.5, 0.866, 0, 48.418)" fill="#ff2600"/>
        </g>
      </g>
      <g id="Grupo_10422" data-name="Grupo 10422" transform="translate(17.239 78.746)">
        <g id="Grupo_10421" data-name="Grupo 10421">
          <ellipse id="Elipse_172" data-name="Elipse 172" cx="48.417" cy="28.889" rx="48.417" ry="28.889" transform="matrix(0.766, -0.643, 0.643, 0.766, 0, 62.244)" fill="#f22540"/>
        </g>
      </g>
      <g id="Grupo_10424" data-name="Grupo 10424" transform="translate(25.613 82.305)">
        <g id="Grupo_10423" data-name="Grupo 10423">
          <ellipse id="Elipse_173" data-name="Elipse 173" cx="48.417" cy="28.888" rx="48.417" ry="28.888" transform="translate(0 74.18) rotate(-50)" fill="#e5276f"/>
        </g>
      </g>
      <g id="Grupo_10426" data-name="Grupo 10426" transform="translate(36.552 86.431)">
        <g id="Grupo_10425" data-name="Grupo 10425">
          <ellipse id="Elipse_174" data-name="Elipse 174" cx="48.417" cy="28.888" rx="48.417" ry="28.888" transform="matrix(0.5, -0.866, 0.866, 0.5, 0, 83.861)" fill="#d2278d"/>
        </g>
      </g>
      <g id="Grupo_10428" data-name="Grupo 10428" transform="translate(49.722 90.994)">
        <g id="Grupo_10427" data-name="Grupo 10427">
          <ellipse id="Elipse_175" data-name="Elipse 175" cx="48.417" cy="28.888" rx="48.417" ry="28.888" transform="translate(0 90.995) rotate(-70)" fill="#c82db3"/>
        </g>
      </g>
      <g id="Grupo_10430" data-name="Grupo 10430" transform="translate(64.723 95.859)">
        <g id="Grupo_10429" data-name="Grupo 10429">
          <ellipse id="Elipse_176" data-name="Elipse 176" cx="48.417" cy="28.888" rx="48.417" ry="28.888" transform="matrix(0.174, -0.985, 0.985, 0.174, 0, 95.363)" fill="#a92bbc"/>
        </g>
      </g>
      <g id="Grupo_10432" data-name="Grupo 10432" transform="translate(81.099 100.875)">
        <g id="Grupo_10431" data-name="Grupo 10431">
          <ellipse id="Elipse_177" data-name="Elipse 177" cx="28.888" cy="48.417" rx="28.888" ry="48.417" fill="#7524af"/>
        </g>
      </g>
      <g id="Grupo_10434" data-name="Grupo 10434" transform="translate(81.538 95.859)">
        <g id="Grupo_10433" data-name="Grupo 10433">
          <ellipse id="Elipse_178" data-name="Elipse 178" cx="28.888" cy="48.417" rx="28.888" ry="48.417" transform="translate(0 10.033) rotate(-10)" fill="#4d22b3"/>
        </g>
      </g>
      <g id="Grupo_10436" data-name="Grupo 10436" transform="translate(82.841 90.995)">
        <g id="Grupo_10435" data-name="Grupo 10435">
          <ellipse id="Elipse_179" data-name="Elipse 179" cx="28.888" cy="48.417" rx="28.888" ry="48.417" transform="translate(0 19.761) rotate(-20)" fill="#1b1ca1"/>
        </g>
      </g>
      <g id="Grupo_10438" data-name="Grupo 10438" transform="translate(84.97 86.431)">
        <g id="Grupo_10437" data-name="Grupo 10437">
          <ellipse id="Elipse_180" data-name="Elipse 180" cx="28.888" cy="48.417" rx="28.888" ry="48.417" transform="matrix(0.866, -0.5, 0.5, 0.866, 0, 28.888)" fill="#0229ba"/>
        </g>
      </g>
      <g id="Grupo_10440" data-name="Grupo 10440" transform="translate(87.858 82.306)">
        <g id="Grupo_10439" data-name="Grupo 10439">
          <ellipse id="Elipse_181" data-name="Elipse 181" cx="28.888" cy="48.417" rx="28.888" ry="48.417" transform="matrix(0.766, -0.643, 0.643, 0.766, 0, 37.138)" fill="#0040ba"/>
        </g>
      </g>
      <g id="Grupo_10442" data-name="Grupo 10442" transform="translate(91.418 78.746)">
        <g id="Grupo_10441" data-name="Grupo 10441">
          <ellipse id="Elipse_182" data-name="Elipse 182" cx="28.888" cy="48.417" rx="28.888" ry="48.417" transform="translate(0 44.26) rotate(-50)" fill="#005dbc"/>
        </g>
      </g>
      <g id="Grupo_10444" data-name="Grupo 10444" transform="translate(95.543 75.857)">
        <g id="Grupo_10443" data-name="Grupo 10443">
          <ellipse id="Elipse_183" data-name="Elipse 183" cx="28.888" cy="48.417" rx="28.888" ry="48.417" transform="matrix(0.5, -0.866, 0.866, 0.5, 0, 50.036)" fill="#0074bf"/>
        </g>
      </g>
      <g id="Grupo_10446" data-name="Grupo 10446" transform="translate(100.107 73.729)">
        <g id="Grupo_10445" data-name="Grupo 10445">
          <ellipse id="Elipse_184" data-name="Elipse 184" cx="28.888" cy="48.417" rx="28.888" ry="48.417" transform="translate(0 54.292) rotate(-70)" fill="#0087c3"/>
        </g>
      </g>
      <g id="Grupo_10448" data-name="Grupo 10448" transform="translate(104.971 72.425)">
        <g id="Grupo_10447" data-name="Grupo 10447">
          <ellipse id="Elipse_185" data-name="Elipse 185" cx="28.888" cy="48.417" rx="28.888" ry="48.417" transform="matrix(0.174, -0.985, 0.985, 0.174, 0, 56.899)" fill="#009bcc"/>
        </g>
      </g>
      <g id="Grupo_10450" data-name="Grupo 10450" transform="translate(109.988 71.987)">
        <g id="Grupo_10449" data-name="Grupo 10449">
          <ellipse id="Elipse_186" data-name="Elipse 186" cx="48.417" cy="28.888" rx="48.417" ry="28.888" fill="#00afcf"/>
        </g>
      </g>
      <g id="Grupo_10452" data-name="Grupo 10452" transform="translate(104.971 55.611)">
        <g id="Grupo_10451" data-name="Grupo 10451">
          <ellipse id="Elipse_187" data-name="Elipse 187" cx="48.417" cy="28.888" rx="48.417" ry="28.888" transform="matrix(0.985, -0.174, 0.174, 0.985, 0, 16.815)" fill="#00c6a0"/>
        </g>
      </g>
      <g id="Grupo_10454" data-name="Grupo 10454" transform="translate(100.107 40.609)">
        <g id="Grupo_10453" data-name="Grupo 10453">
          <ellipse id="Elipse_188" data-name="Elipse 188" cx="48.417" cy="28.888" rx="48.417" ry="28.888" transform="matrix(0.94, -0.342, 0.342, 0.94, 0, 33.12)" fill="#00bd4f"/>
        </g>
      </g>
      <g id="Grupo_10456" data-name="Grupo 10456" transform="translate(95.543 27.44)">
        <g id="Grupo_10455" data-name="Grupo 10455">
          <ellipse id="Elipse_189" data-name="Elipse 189" cx="48.417" cy="28.888" rx="48.417" ry="28.888" transform="translate(0 48.417) rotate(-30)" fill="#00b600"/>
        </g>
      </g>
      <g id="Grupo_10458" data-name="Grupo 10458" transform="translate(91.418 16.501)">
        <g id="Grupo_10457" data-name="Grupo 10457">
          <ellipse id="Elipse_190" data-name="Elipse 190" cx="48.417" cy="28.888" rx="48.417" ry="28.888" transform="translate(0 62.244) rotate(-40)" fill="#3bbe00"/>
        </g>
      </g>
      <g id="Grupo_10460" data-name="Grupo 10460" transform="translate(87.858 8.126)">
        <g id="Grupo_10459" data-name="Grupo 10459">
          <ellipse id="Elipse_191" data-name="Elipse 191" cx="48.417" cy="28.888" rx="48.417" ry="28.888" transform="translate(0 74.18) rotate(-50)" fill="#70c700"/>
        </g>
      </g>
      <g id="Grupo_10462" data-name="Grupo 10462" transform="translate(84.969 2.569)">
        <g id="Grupo_10461" data-name="Grupo 10461">
          <ellipse id="Elipse_192" data-name="Elipse 192" cx="48.417" cy="28.888" rx="48.417" ry="28.888" transform="translate(0 83.862) rotate(-60)" fill="#9cce00"/>
        </g>
      </g>
      <g id="Grupo_10464" data-name="Grupo 10464" transform="translate(82.841)">
        <g id="Grupo_10463" data-name="Grupo 10463">
          <ellipse id="Elipse_193" data-name="Elipse 193" cx="48.417" cy="28.888" rx="48.417" ry="28.888" transform="translate(0 90.995) rotate(-70)" fill="#badf00"/>
        </g>
      </g>
      <g id="Grupo_10466" data-name="Grupo 10466" transform="translate(89.101 5.512)">
        <g id="Grupo_10465" data-name="Grupo 10465">
          <path id="Trazado_9726" data-name="Trazado 9726" d="M531.464,8101.787a55.019,55.019,0,0,0-16.815,95.363,55.018,55.018,0,0,0,16.815-95.363Z" transform="translate(-493.763 -8101.787)" fill="#dced00"/>
        </g>
      </g>
      <g id="Grupo_10491" data-name="Grupo 10491" transform="translate(0 0.412)">
        <g id="Grupo_10490" data-name="Grupo 10490" clip-path="url(#clip-path)">
          <g id="Grupo_10489" data-name="Grupo 10489" transform="translate(9.112 -0.413)">
            <g id="Grupo_10468" data-name="Grupo 10468" transform="translate(71.987 4.041)">
              <g id="Grupo_10467" data-name="Grupo 10467">
                <ellipse id="Elipse_194" data-name="Elipse 194" cx="28.888" cy="48.417" rx="28.888" ry="48.417" fill="#fffb00"/>
              </g>
            </g>
            <g id="Grupo_10470" data-name="Grupo 10470" transform="translate(55.611 0.496)">
              <g id="Grupo_10469" data-name="Grupo 10469">
                <ellipse id="Elipse_195" data-name="Elipse 195" cx="28.888" cy="48.417" rx="28.888" ry="48.417" transform="matrix(0.985, -0.174, 0.174, 0.985, 0, 10.033)" fill="#ffed00"/>
              </g>
            </g>
            <g id="Grupo_10472" data-name="Grupo 10472" transform="translate(40.61)">
              <g id="Grupo_10471" data-name="Grupo 10471">
                <ellipse id="Elipse_196" data-name="Elipse 196" cx="28.888" cy="48.417" rx="28.888" ry="48.417" transform="translate(0 19.761) rotate(-20)" fill="#ffdf00"/>
              </g>
            </g>
            <g id="Grupo_10474" data-name="Grupo 10474" transform="translate(27.44 2.57)">
              <g id="Grupo_10473" data-name="Grupo 10473">
                <ellipse id="Elipse_197" data-name="Elipse 197" cx="28.888" cy="48.417" rx="28.888" ry="48.417" transform="translate(0 28.888) rotate(-30)" fill="#ffd000"/>
              </g>
            </g>
            <g id="Grupo_10476" data-name="Grupo 10476" transform="translate(16.501 8.126)">
              <g id="Grupo_10475" data-name="Grupo 10475">
                <ellipse id="Elipse_198" data-name="Elipse 198" cx="28.888" cy="48.417" rx="28.888" ry="48.417" transform="translate(0 37.138) rotate(-40)" fill="#ffc000"/>
              </g>
            </g>
            <g id="Grupo_10478" data-name="Grupo 10478" transform="translate(8.127 16.502)">
              <g id="Grupo_10477" data-name="Grupo 10477">
                <ellipse id="Elipse_199" data-name="Elipse 199" cx="28.888" cy="48.417" rx="28.888" ry="48.417" transform="translate(0 44.26) rotate(-50)" fill="#ffb200"/>
              </g>
            </g>
            <g id="Grupo_10480" data-name="Grupo 10480" transform="translate(2.57 27.44)">
              <g id="Grupo_10479" data-name="Grupo 10479">
                <ellipse id="Elipse_200" data-name="Elipse 200" cx="28.888" cy="48.417" rx="28.888" ry="48.417" transform="translate(0 50.036) rotate(-60)" fill="#ffa000"/>
              </g>
            </g>
            <g id="Grupo_10482" data-name="Grupo 10482" transform="translate(0 40.609)">
              <g id="Grupo_10481" data-name="Grupo 10481">
                <ellipse id="Elipse_201" data-name="Elipse 201" cx="28.888" cy="48.417" rx="28.888" ry="48.417" transform="translate(0 54.293) rotate(-70)" fill="#ff9300"/>
              </g>
            </g>
            <g id="Grupo_10484" data-name="Grupo 10484" transform="translate(0.495 55.611)">
              <g id="Grupo_10483" data-name="Grupo 10483">
                <ellipse id="Elipse_202" data-name="Elipse 202" cx="28.888" cy="48.417" rx="28.888" ry="48.417" transform="translate(0 56.899) rotate(-80)" fill="#ff8700"/>
              </g>
            </g>
            <g id="Grupo_10486" data-name="Grupo 10486" transform="translate(4.041 71.987)">
              <g id="Grupo_10485" data-name="Grupo 10485">
                <ellipse id="Elipse_203" data-name="Elipse 203" cx="48.417" cy="28.889" rx="48.417" ry="28.889" fill="#ff7900"/>
              </g>
            </g>
            <g id="Grupo_10488" data-name="Grupo 10488" transform="translate(0.495 72.426)">
              <g id="Grupo_10487" data-name="Grupo 10487">
                <ellipse id="Elipse_204" data-name="Elipse 204" cx="48.417" cy="28.888" rx="48.417" ry="28.888" transform="translate(0 16.815) rotate(-10)" fill="#ff5700"/>
              </g>
            </g>
          </g>
        </g>
      </g>
    </g>
    <g id="Grupo_73302" data-name="Grupo 73302" transform="translate(-7690 -4006.928)">
      <g id="Grupo_10518" data-name="Grupo 10518" transform="translate(0 0)">
        <g id="Grupo_10517" data-name="Grupo 10517">
          <g id="Grupo_10494" data-name="Grupo 10494" transform="translate(161.716 71.525)">
            <g id="Grupo_10493" data-name="Grupo 10493">
              <path id="Trazado_9728" data-name="Trazado 9728" d="M397.083,8173.011a95.972,95.972,0,0,1,.016,49.934l-.016,0-27.943-7.485a67.2,67.2,0,0,0-.008-34.956Z" transform="translate(-369.132 -8173.011)" fill="#009d7e"/>
            </g>
          </g>
          <g id="Grupo_10496" data-name="Grupo 10496" transform="translate(144.243 113.97)">
            <g id="Grupo_10495" data-name="Grupo 10495">
              <path id="Trazado_9729" data-name="Trazado 9729" d="M396.591,8224.138l.016,0a96.955,96.955,0,0,1-24.969,43.255l-.012-.011-20.458-20.459a67.84,67.84,0,0,0,17.48-30.274Z" transform="translate(-351.167 -8216.652)" fill="#0059a8"/>
            </g>
          </g>
          <g id="Grupo_10498" data-name="Grupo 10498" transform="translate(144.243 28.269)">
            <g id="Grupo_10497" data-name="Grupo 10497">
              <path id="Trazado_9730" data-name="Trazado 9730" d="M396.591,8171.792l-27.951,7.489A67.185,67.185,0,0,0,351.167,8149l20.458-20.458.012-.007A95.944,95.944,0,0,1,396.591,8171.792Z" transform="translate(-351.167 -8128.536)" fill="#34a83f"/>
            </g>
          </g>
          <g id="Grupo_10500" data-name="Grupo 10500" transform="translate(113.968 3.3)">
            <g id="Grupo_10499" data-name="Grupo 10499">
              <path id="Trazado_9731" data-name="Trazado 9731" d="M370.784,8127.833l-.012.007L350.314,8148.3a67.825,67.825,0,0,0-30.275-17.479l7.49-27.944,0-.012A96.841,96.841,0,0,1,370.784,8127.833Z" transform="translate(-320.039 -8102.863)" fill="#b6d124"/>
            </g>
          </g>
          <g id="Grupo_10502" data-name="Grupo 10502" transform="translate(113.968 144.245)">
            <g id="Grupo_10501" data-name="Grupo 10501">
              <path id="Trazado_9732" data-name="Trazado 9732" d="M370.772,8268.239l.012.011a96.052,96.052,0,0,1-43.255,24.954l-7.49-27.952a67.189,67.189,0,0,0,30.275-17.472Z" transform="translate(-320.039 -8247.78)" fill="#3e2e85"/>
            </g>
          </g>
          <g id="Grupo_10504" data-name="Grupo 10504" transform="translate(71.523)">
            <g id="Grupo_10503" data-name="Grupo 10503">
              <path id="Trazado_9733" data-name="Trazado 9733" d="M326.337,8102.77l0,.012-7.49,27.944a67.182,67.182,0,0,0-34.955.008l-7.49-27.953A95.964,95.964,0,0,1,326.337,8102.77Z" transform="translate(-276.398 -8099.471)" fill="#fff100"/>
            </g>
          </g>
          <g id="Grupo_10506" data-name="Grupo 10506" transform="translate(71.52 161.716)">
            <g id="Grupo_10505" data-name="Grupo 10505">
              <path id="Trazado_9734" data-name="Trazado 9734" d="M318.843,8265.744l7.49,27.952a95.99,95.99,0,0,1-49.939.016l0-.016,7.49-27.944A67.192,67.192,0,0,0,318.843,8265.744Z" transform="translate(-276.394 -8265.744)" fill="#5e2a84"/>
            </g>
          </g>
          <g id="Grupo_10508" data-name="Grupo 10508" transform="translate(28.267 3.311)">
            <g id="Grupo_10507" data-name="Grupo 10507">
              <path id="Trazado_9735" data-name="Trazado 9735" d="M275.179,8102.875l7.49,27.953A67.187,67.187,0,0,0,252.39,8148.3l-20.456-20.455-.012-.011A95.993,95.993,0,0,1,275.179,8102.875Z" transform="translate(-231.923 -8102.875)" fill="#f9ab16"/>
            </g>
          </g>
          <g id="Grupo_10510" data-name="Grupo 10510" transform="translate(28.267 144.245)">
            <g id="Grupo_10509" data-name="Grupo 10509">
              <path id="Trazado_9736" data-name="Trazado 9736" d="M282.669,8265.26l-7.49,27.944,0,.016a96.955,96.955,0,0,1-43.252-24.97l.012-.011,20.458-20.459A67.838,67.838,0,0,0,282.669,8265.26Z" transform="translate(-231.923 -8247.78)" fill="#7e2583"/>
            </g>
          </g>
          <g id="Grupo_10512" data-name="Grupo 10512" transform="translate(3.31 113.966)">
            <g id="Grupo_10511" data-name="Grupo 10511">
              <path id="Trazado_9737" data-name="Trazado 9737" d="M251.69,8246.927l-20.458,20.459-.012.011a96.055,96.055,0,0,1-24.958-43.259l27.956-7.489A67.184,67.184,0,0,0,251.69,8246.927Z" transform="translate(-206.262 -8216.648)" fill="#cb1e2c"/>
            </g>
          </g>
          <g id="Grupo_10514" data-name="Grupo 10514" transform="translate(3.295 28.265)">
            <g id="Grupo_10513" data-name="Grupo 10513">
              <path id="Trazado_9738" data-name="Trazado 9738" d="M231.231,8128.543,251.686,8149a67.814,67.814,0,0,0-17.48,30.278l-27.944-7.485-.015,0a96.9,96.9,0,0,1,24.972-43.255Z" transform="translate(-206.247 -8128.532)" fill="#ed7023"/>
            </g>
          </g>
          <g id="Grupo_10516" data-name="Grupo 10516" transform="translate(0 71.521)">
            <g id="Grupo_10515" data-name="Grupo 10515">
              <path id="Trazado_9739" data-name="Trazado 9739" d="M234.125,8215.452l-27.956,7.489a96.025,96.025,0,0,1-.015-49.935l.015,0,27.944,7.485A67.195,67.195,0,0,0,234.125,8215.452Z" transform="translate(-202.859 -8173.007)" fill="#e64927"/>
            </g>
          </g>
        </g>
      </g>
      <g id="Grupo_10526" data-name="Grupo 10526" transform="translate(46.212 38.613)">
        <g id="Grupo_10525" data-name="Grupo 10525">
          <g id="Grupo_10520" data-name="Grupo 10520" transform="translate(50.287)">
            <g id="Grupo_10519" data-name="Grupo 10519">
              <path id="Trazado_9740" data-name="Trazado 9740" d="M352.346,8225.709l-50.268-86.538,50.268,29.2Z" transform="translate(-302.077 -8139.171)" fill="#34a83f"/>
            </g>
          </g>
          <g id="Grupo_10522" data-name="Grupo 10522">
            <g id="Grupo_10521" data-name="Grupo 10521">
              <path id="Trazado_9741" data-name="Trazado 9741" d="M300.66,8139.171l-50.287,86.538V8168.4Z" transform="translate(-250.373 -8139.171)" fill="#ed7023"/>
            </g>
          </g>
          <g id="Grupo_10524" data-name="Grupo 10524" transform="translate(0 86.537)">
            <g id="Grupo_10523" data-name="Grupo 10523">
              <path id="Trazado_9742" data-name="Trazado 9742" d="M250.373,8228.147H350.928l-50.276,29.222Z" transform="translate(-250.373 -8228.147)" fill="#5e2a84"/>
            </g>
          </g>
        </g>
      </g>
      <g id="Grupo_10528" data-name="Grupo 10528" transform="translate(46.211 81.88)">
        <g id="Grupo_10527" data-name="Grupo 10527">
          <path id="Trazado_9743" data-name="Trazado 9743" d="M300.651,8226.928v-28.66l-25.135-14.609-25.143,43.27Z" transform="translate(-250.372 -8183.658)" fill="#cb1e2c"/>
        </g>
      </g>
      <g id="Grupo_10530" data-name="Grupo 10530" transform="translate(96.49 81.88)">
        <g id="Grupo_10529" data-name="Grupo 10529">
          <path id="Trazado_9744" data-name="Trazado 9744" d="M302.068,8226.928v-28.66l25.135-14.609,25.143,43.27Z" transform="translate(-302.068 -8183.658)" fill="#0059a8"/>
        </g>
      </g>
      <g id="Grupo_10532" data-name="Grupo 10532" transform="translate(71.354 38.611)">
        <g id="Grupo_10531" data-name="Grupo 10531">
          <path id="Trazado_9745" data-name="Trazado 9745" d="M301.36,8197.049l25.135-14.61-25.128-43.269-25.143,43.269Z" transform="translate(-276.224 -8139.169)" fill="#fff100"/>
        </g>
      </g>
    </g>
  </g>
</svg>
