<svg xmlns="http://www.w3.org/2000/svg" width="812" height="227.62" viewBox="0 0 812 227.62">
  <g id="Grupo_73304" data-name="Grupo 73304" transform="translate(8155 3590.619)">
    <path id="Trazado_117725" data-name="Trazado 117725" d="M32.014,0A32.014,32.014,0,1,1,0,32.014,32.014,32.014,0,0,1,32.014,0Z" transform="translate(-8064.557 -3590.619)" fill="#349d3f"/>
    <path id="Trazado_117726" data-name="Trazado 117726" d="M32.014,0A32.014,32.014,0,1,1,0,32.014,32.014,32.014,0,0,1,32.014,0Z" transform="translate(-8064.557 -3509.246)" fill="#e27023"/>
    <path id="Trazado_117727" data-name="Trazado 117727" d="M32.014,0A32.014,32.014,0,1,1,0,32.014,32.014,32.014,0,0,1,32.014,0Z" transform="translate(-8064.557 -3431.497)" fill="#5e2a80"/>
    <path id="Trazado_117728" data-name="Trazado 117728" d="M32.014,0A32.014,32.014,0,1,1,0,32.014,32.014,32.014,0,0,1,32.014,0Z" transform="translate(-8155 -3590.619)" fill="#ff2600"/>
    <path id="Trazado_117729" data-name="Trazado 117729" d="M32.014,0A32.014,32.014,0,1,1,0,32.014,32.014,32.014,0,0,1,32.014,0Z" transform="translate(-8155 -3509.246)" fill="#ffe600"/>
    <path id="Trazado_117730" data-name="Trazado 117730" d="M32.014,0A32.014,32.014,0,1,1,0,32.014,32.014,32.014,0,0,1,32.014,0Z" transform="translate(-8155 -3431.497)" fill="#00afcf"/>
    <path id="Trazado_117731" data-name="Trazado 117731" d="M2.566,0A2.566,2.566,0,1,1,0,2.566,2.566,2.566,0,0,1,2.566,0Z" transform="translate(-7812.824 -3438.614)" fill="#ffe600"/>
    <path id="Trazado_7328" data-name="Trazado 7328" d="M890.656,8249.175a3.284,3.284,0,1,1,3.284-3.284A3.289,3.289,0,0,1,890.656,8249.175Zm0-5.132a1.847,1.847,0,1,0,1.848,1.848A1.848,1.848,0,0,0,890.656,8244.043Z" transform="translate(-8700.914 -11681.938)"/>
    <path id="Trazado_7329" data-name="Trazado 7329" d="M979.876,8249.17a3.285,3.285,0,1,1,3.284-3.285A3.288,3.288,0,0,1,979.876,8249.17Zm0-5.133a1.848,1.848,0,1,0,1.848,1.848A1.849,1.849,0,0,0,979.876,8244.037Z" transform="translate(-8668.555 -11681.939)"/>
    <g id="Grupo_10134" data-name="Grupo 10134" transform="translate(-7968.283 -3575.961)">
      <path id="Trazado_9477" data-name="Trazado 9477" d="M773.818,8171.582h41.349l-29.238-29.239A41.225,41.225,0,0,0,773.818,8171.582Z" transform="translate(-773.818 -8142.342)" fill="#97c7e5"/>
    </g>
    <g id="Grupo_10135" data-name="Grupo 10135" transform="translate(-7956.173 -3588.071)">
      <path id="Trazado_9478" data-name="Trazado 9478" d="M811.943,8174.8v-41.349a41.224,41.224,0,0,0-29.238,12.11Z" transform="translate(-782.705 -8133.456)" fill="#704ec2"/>
    </g>
    <g id="Grupo_10136" data-name="Grupo 10136" transform="translate(-7926.935 -3546.723)">
      <path id="Trazado_9479" data-name="Trazado 9479" d="M804.161,8205.147a41.217,41.217,0,0,0,29.238-12.11L804.161,8163.8Z" transform="translate(-804.161 -8163.8)" fill="#f4d3ef"/>
    </g>
    <g id="Grupo_10137" data-name="Grupo 10137" transform="translate(-7926.935 -3546.723)">
      <path id="Trazado_9480" data-name="Trazado 9480" d="M845.51,8163.8H804.161l29.238,29.237A41.218,41.218,0,0,0,845.51,8163.8Z" transform="translate(-804.161 -8163.8)" fill="#65c3e0"/>
    </g>
    <g id="Grupo_10138" data-name="Grupo 10138" transform="translate(-7926.935 -3575.961)">
      <path id="Trazado_9481" data-name="Trazado 9481" d="M804.161,8171.582H845.51a41.226,41.226,0,0,0-12.11-29.239Z" transform="translate(-804.161 -8142.342)" fill="#4c79ce"/>
    </g>
    <g id="Grupo_10139" data-name="Grupo 10139" transform="translate(-7926.935 -3588.071)">
      <path id="Trazado_9482" data-name="Trazado 9482" d="M804.161,8133.456V8174.8l29.238-29.238A41.225,41.225,0,0,0,804.161,8133.456Z" transform="translate(-804.161 -8133.456)" fill="#cb7fd7"/>
    </g>
    <g id="Grupo_10140" data-name="Grupo 10140" transform="translate(-7956.173 -3546.723)">
      <path id="Trazado_9483" data-name="Trazado 9483" d="M811.943,8163.8l-29.238,29.237a41.216,41.216,0,0,0,29.238,12.11Z" transform="translate(-782.705 -8163.8)" fill="#32d1b3"/>
    </g>
    <g id="Grupo_10141" data-name="Grupo 10141" transform="translate(-7968.283 -3546.723)">
      <path id="Trazado_9484" data-name="Trazado 9484" d="M773.818,8163.8a41.217,41.217,0,0,0,12.11,29.237l29.238-29.237Z" transform="translate(-773.818 -8163.8)" fill="#9e65c7"/>
    </g>
    <g id="Grupo_10143" data-name="Grupo 10143" transform="translate(-7859.767 -3575.961)">
      <path id="Trazado_9485" data-name="Trazado 9485" d="M853.451,8171.582H894.8l-29.238-29.239A41.227,41.227,0,0,0,853.451,8171.582Z" transform="translate(-853.451 -8142.342)" fill="#dcef7e"/>
    </g>
    <g id="Grupo_10144" data-name="Grupo 10144" transform="translate(-7847.655 -3588.071)">
      <path id="Trazado_9486" data-name="Trazado 9486" d="M891.577,8174.8v-41.349a41.224,41.224,0,0,0-29.238,12.11Z" transform="translate(-862.339 -8133.456)" fill="#ff6819"/>
    </g>
    <g id="Grupo_10145" data-name="Grupo 10145" transform="translate(-7818.417 -3546.723)">
      <path id="Trazado_9487" data-name="Trazado 9487" d="M883.8,8205.147a41.216,41.216,0,0,0,29.238-12.11L883.8,8163.8Z" transform="translate(-883.795 -8163.8)" fill="#a64f08"/>
    </g>
    <g id="Grupo_10146" data-name="Grupo 10146" transform="translate(-7818.417 -3546.723)">
      <path id="Trazado_9488" data-name="Trazado 9488" d="M925.144,8163.8H883.8l29.238,29.237A41.217,41.217,0,0,0,925.144,8163.8Z" transform="translate(-883.795 -8163.8)" fill="#ffe365"/>
    </g>
    <g id="Grupo_10147" data-name="Grupo 10147" transform="translate(-7818.417 -3575.961)">
      <path id="Trazado_9489" data-name="Trazado 9489" d="M883.8,8171.582h41.349a41.226,41.226,0,0,0-12.11-29.239Z" transform="translate(-883.795 -8142.342)" fill="#ff2600"/>
    </g>
    <g id="Grupo_10148" data-name="Grupo 10148" transform="translate(-7818.417 -3588.071)">
      <path id="Trazado_9490" data-name="Trazado 9490" d="M883.8,8133.456V8174.8l29.238-29.238A41.224,41.224,0,0,0,883.8,8133.456Z" transform="translate(-883.795 -8133.456)" fill="#ffe532"/>
    </g>
    <g id="Grupo_10149" data-name="Grupo 10149" transform="translate(-7847.655 -3546.723)">
      <path id="Trazado_9491" data-name="Trazado 9491" d="M891.577,8163.8l-29.238,29.237a41.216,41.216,0,0,0,29.238,12.11Z" transform="translate(-862.339 -8163.8)" fill="#dfef19"/>
    </g>
    <g id="Grupo_10150" data-name="Grupo 10150" transform="translate(-7859.767 -3546.723)">
      <path id="Trazado_9492" data-name="Trazado 9492" d="M853.451,8163.8a41.219,41.219,0,0,0,12.112,29.237L894.8,8163.8Z" transform="translate(-853.451 -8163.8)" fill="#ffb34c"/>
    </g>
    <g id="Grupo_10152" data-name="Grupo 10152" transform="translate(-7751.25 -3575.961)">
      <path id="Trazado_9493" data-name="Trazado 9493" d="M933.085,8171.582h41.348L945.2,8142.342A41.226,41.226,0,0,0,933.085,8171.582Z" transform="translate(-933.085 -8142.342)" fill="#fff132"/>
    </g>
    <g id="Grupo_10153" data-name="Grupo 10153" transform="translate(-7739.139 -3588.071)">
      <path id="Trazado_9494" data-name="Trazado 9494" d="M971.21,8174.8v-41.349a41.227,41.227,0,0,0-29.238,12.11Z" transform="translate(-941.972 -8133.456)" fill="#ff4e19"/>
    </g>
    <g id="Grupo_10154" data-name="Grupo 10154" transform="translate(-7709.901 -3546.723)">
      <path id="Trazado_9495" data-name="Trazado 9495" d="M963.428,8205.147a41.216,41.216,0,0,0,29.238-12.11L963.428,8163.8Z" transform="translate(-963.428 -8163.8)" fill="#3bbe00"/>
    </g>
    <g id="Grupo_10155" data-name="Grupo 10155" transform="translate(-7709.901 -3546.723)">
      <path id="Trazado_9496" data-name="Trazado 9496" d="M1004.778,8163.8h-41.35l29.238,29.237A41.218,41.218,0,0,0,1004.778,8163.8Z" transform="translate(-963.428 -8163.8)" fill="#5f38bb"/>
    </g>
    <g id="Grupo_10156" data-name="Grupo 10156" transform="translate(-7709.901 -3575.961)">
      <path id="Trazado_9497" data-name="Trazado 9497" d="M963.428,8171.582h41.35a41.226,41.226,0,0,0-12.112-29.239Z" transform="translate(-963.428 -8142.342)" fill="#00afcf"/>
    </g>
    <g id="Grupo_10157" data-name="Grupo 10157" transform="translate(-7709.901 -3588.071)">
      <path id="Trazado_9498" data-name="Trazado 9498" d="M963.428,8133.456V8174.8l29.238-29.238A41.224,41.224,0,0,0,963.428,8133.456Z" transform="translate(-963.428 -8133.456)" fill="#a92bbc"/>
    </g>
    <g id="Grupo_10158" data-name="Grupo 10158" transform="translate(-7739.138 -3546.723)">
      <path id="Trazado_9499" data-name="Trazado 9499" d="M971.21,8163.8l-29.237,29.237a41.213,41.213,0,0,0,29.237,12.11Z" transform="translate(-941.973 -8163.8)" fill="#dced00"/>
    </g>
    <g id="Grupo_10159" data-name="Grupo 10159" transform="translate(-7751.25 -3546.723)">
      <path id="Trazado_9500" data-name="Trazado 9500" d="M933.085,8163.8a41.213,41.213,0,0,0,12.112,29.237l29.237-29.237Z" transform="translate(-933.085 -8163.8)" fill="#ffb200"/>
    </g>
    <g id="Grupo_10161" data-name="Grupo 10161" transform="translate(-7425.699 -3575.961)">
      <path id="Trazado_9501" data-name="Trazado 9501" d="M1171.986,8171.582h41.348l-29.238-29.239A41.225,41.225,0,0,0,1171.986,8171.582Z" transform="translate(-1171.986 -8142.342)" fill="#c799ff"/>
    </g>
    <g id="Grupo_10162" data-name="Grupo 10162" transform="translate(-7413.588 -3588.071)">
      <path id="Trazado_9502" data-name="Trazado 9502" d="M1210.111,8174.8v-41.349a41.224,41.224,0,0,0-29.238,12.11Z" transform="translate(-1180.873 -8133.456)" fill="#aba196"/>
    </g>
    <g id="Grupo_10163" data-name="Grupo 10163" transform="translate(-7384.35 -3546.723)">
      <path id="Trazado_9503" data-name="Trazado 9503" d="M1202.329,8205.147a41.217,41.217,0,0,0,29.238-12.11l-29.238-29.237Z" transform="translate(-1202.329 -8163.8)" fill="#9be37b"/>
    </g>
    <g id="Grupo_10164" data-name="Grupo 10164" transform="translate(-7384.35 -3546.723)">
      <path id="Trazado_9504" data-name="Trazado 9504" d="M1243.679,8163.8h-41.35l29.238,29.237A41.218,41.218,0,0,0,1243.679,8163.8Z" transform="translate(-1202.329 -8163.8)" fill="#ff9"/>
    </g>
    <g id="Grupo_10165" data-name="Grupo 10165" transform="translate(-7384.35 -3575.961)">
      <path id="Trazado_9505" data-name="Trazado 9505" d="M1202.329,8171.582h41.35a41.226,41.226,0,0,0-12.112-29.239Z" transform="translate(-1202.329 -8142.342)" fill="#ff87bf"/>
    </g>
    <g id="Grupo_10166" data-name="Grupo 10166" transform="translate(-7384.35 -3588.071)">
      <path id="Trazado_9506" data-name="Trazado 9506" d="M1202.329,8133.456V8174.8l29.238-29.238A41.225,41.225,0,0,0,1202.329,8133.456Z" transform="translate(-1202.329 -8133.456)" fill="#88bde3"/>
    </g>
    <g id="Grupo_10167" data-name="Grupo 10167" transform="translate(-7413.588 -3546.723)">
      <path id="Trazado_9507" data-name="Trazado 9507" d="M1210.111,8163.8l-29.238,29.237a41.216,41.216,0,0,0,29.238,12.11Z" transform="translate(-1180.873 -8163.8)" fill="#cceaff"/>
    </g>
    <g id="Grupo_10168" data-name="Grupo 10168" transform="translate(-7425.699 -3546.723)">
      <path id="Trazado_9508" data-name="Trazado 9508" d="M1171.986,8163.8a41.217,41.217,0,0,0,12.11,29.237l29.238-29.237Z" transform="translate(-1171.986 -8163.8)" fill="#ffbc66"/>
    </g>
    <g id="Grupo_10170" data-name="Grupo 10170" transform="translate(-7534.216 -3575.961)">
      <path id="Trazado_9509" data-name="Trazado 9509" d="M1092.352,8171.582h41.35l-29.238-29.239A41.226,41.226,0,0,0,1092.352,8171.582Z" transform="translate(-1092.352 -8142.342)" fill="#ff2600"/>
    </g>
    <g id="Grupo_10171" data-name="Grupo 10171" transform="translate(-7522.104 -3588.071)">
      <path id="Trazado_9510" data-name="Trazado 9510" d="M1130.478,8174.8v-41.349a41.224,41.224,0,0,0-29.238,12.11Z" transform="translate(-1101.24 -8133.456)" fill="#7524af"/>
    </g>
    <g id="Grupo_10172" data-name="Grupo 10172" transform="translate(-7492.866 -3546.723)">
      <path id="Trazado_9511" data-name="Trazado 9511" d="M1122.7,8205.147a41.219,41.219,0,0,0,29.238-12.11L1122.7,8163.8Z" transform="translate(-1122.696 -8163.8)" fill="#badf00"/>
    </g>
    <g id="Grupo_10173" data-name="Grupo 10173" transform="translate(-7492.866 -3546.723)">
      <path id="Trazado_9512" data-name="Trazado 9512" d="M1164.044,8163.8H1122.7l29.238,29.237A41.218,41.218,0,0,0,1164.044,8163.8Z" transform="translate(-1122.696 -8163.8)" fill="#3bbe00"/>
    </g>
    <g id="Grupo_10174" data-name="Grupo 10174" transform="translate(-7492.866 -3575.961)">
      <path id="Trazado_9513" data-name="Trazado 9513" d="M1122.7,8171.582h41.348a41.226,41.226,0,0,0-12.11-29.239Z" transform="translate(-1122.696 -8142.342)" fill="#ff7900"/>
    </g>
    <g id="Grupo_10175" data-name="Grupo 10175" transform="translate(-7492.866 -3588.071)">
      <path id="Trazado_9514" data-name="Trazado 9514" d="M1122.7,8133.456V8174.8l29.238-29.238A41.227,41.227,0,0,0,1122.7,8133.456Z" transform="translate(-1122.696 -8133.456)" fill="#00afcf"/>
    </g>
    <g id="Grupo_10176" data-name="Grupo 10176" transform="translate(-7522.104 -3546.723)">
      <path id="Trazado_9515" data-name="Trazado 9515" d="M1130.478,8163.8l-29.238,29.237a41.216,41.216,0,0,0,29.238,12.11Z" transform="translate(-1101.24 -8163.8)" fill="#009bcc"/>
    </g>
    <g id="Grupo_10177" data-name="Grupo 10177" transform="translate(-7534.216 -3546.723)">
      <path id="Trazado_9516" data-name="Trazado 9516" d="M1092.352,8163.8a41.218,41.218,0,0,0,12.112,29.237L1133.7,8163.8Z" transform="translate(-1092.352 -8163.8)" fill="#c82db3"/>
    </g>
    <g id="Grupo_10179" data-name="Grupo 10179" transform="translate(-7642.732 -3575.961)">
      <path id="Trazado_9517" data-name="Trazado 9517" d="M1012.719,8171.582h41.348l-29.238-29.239A41.225,41.225,0,0,0,1012.719,8171.582Z" transform="translate(-1012.719 -8142.342)" fill="#660064"/>
    </g>
    <g id="Grupo_10180" data-name="Grupo 10180" transform="translate(-7630.622 -3588.071)">
      <path id="Trazado_9518" data-name="Trazado 9518" d="M1050.844,8174.8v-41.349a41.224,41.224,0,0,0-29.238,12.11Z" transform="translate(-1021.606 -8133.456)" fill="#003b66"/>
    </g>
    <g id="Grupo_10181" data-name="Grupo 10181" transform="translate(-7601.384 -3546.723)">
      <path id="Trazado_9519" data-name="Trazado 9519" d="M1043.062,8205.147a41.216,41.216,0,0,0,29.238-12.11l-29.238-29.237Z" transform="translate(-1043.062 -8163.8)" fill="#00663b"/>
    </g>
    <g id="Grupo_10182" data-name="Grupo 10182" transform="translate(-7601.384 -3546.723)">
      <path id="Trazado_9520" data-name="Trazado 9520" d="M1084.411,8163.8h-41.349l29.238,29.237A41.218,41.218,0,0,0,1084.411,8163.8Z" transform="translate(-1043.062 -8163.8)" fill="#999600"/>
    </g>
    <g id="Grupo_10183" data-name="Grupo 10183" transform="translate(-7601.384 -3575.961)">
      <path id="Trazado_9521" data-name="Trazado 9521" d="M1043.062,8171.582h41.349a41.226,41.226,0,0,0-12.11-29.239Z" transform="translate(-1043.062 -8142.342)" fill="#660030"/>
    </g>
    <g id="Grupo_10184" data-name="Grupo 10184" transform="translate(-7601.384 -3588.071)">
      <path id="Trazado_9522" data-name="Trazado 9522" d="M1043.062,8133.456V8174.8l29.238-29.238A41.225,41.225,0,0,0,1043.062,8133.456Z" transform="translate(-1043.062 -8133.456)" fill="#663900"/>
    </g>
    <g id="Grupo_10185" data-name="Grupo 10185" transform="translate(-7630.622 -3546.723)">
      <path id="Trazado_9523" data-name="Trazado 9523" d="M1050.844,8163.8l-29.238,29.237a41.216,41.216,0,0,0,29.238,12.11Z" transform="translate(-1021.606 -8163.8)" fill="#660f00"/>
    </g>
    <g id="Grupo_10186" data-name="Grupo 10186" transform="translate(-7642.732 -3546.723)">
      <path id="Trazado_9524" data-name="Trazado 9524" d="M1012.719,8163.8a41.217,41.217,0,0,0,12.11,29.237l29.238-29.237Z" transform="translate(-1012.719 -8163.8)" fill="#060"/>
    </g>
    <g id="Grupo_10188" data-name="Grupo 10188" transform="translate(-7941.953 -3495.952)">
      <path id="Trazado_9525" data-name="Trazado 9525" d="M798.912,8203.787a2.1,2.1,0,0,0-1.681-.829,2.063,2.063,0,0,0-.815.16,1.94,1.94,0,0,0-1.07,1.092,2.131,2.131,0,0,0-.155.818,2.17,2.17,0,0,0,.155.83,1.983,1.983,0,0,0,1.075,1.1,1.984,1.984,0,0,0,.8.163,2.278,2.278,0,0,0,1.691-.8v2.321l-.2.069a5.787,5.787,0,0,1-.841.235,4.01,4.01,0,0,1-.77.076,3.962,3.962,0,0,1-2.755-1.127,4.134,4.134,0,0,1-.875-1.271,4.06,4.06,0,0,1-.005-3.2,3.92,3.92,0,0,1,2.135-2.07,3.935,3.935,0,0,1,1.51-.3,4.074,4.074,0,0,1,.886.095,5.352,5.352,0,0,1,.916.3Z" transform="translate(-793.14 -8201.058)" fill="#9c9fa2"/>
    </g>
    <g id="Grupo_10189" data-name="Grupo 10189" transform="translate(-7935.171 -3495.952)">
      <path id="Trazado_9526" data-name="Trazado 9526" d="M798.117,8205.039a3.881,3.881,0,0,1,2.486-3.676,4.786,4.786,0,0,1,3.366,0,3.936,3.936,0,0,1,1.325.845,3.85,3.85,0,0,1,.865,1.266,4.1,4.1,0,0,1,0,3.131,3.856,3.856,0,0,1-.865,1.265,3.954,3.954,0,0,1-1.325.846,4.786,4.786,0,0,1-3.366,0,3.9,3.9,0,0,1-2.486-3.676Zm2.049,0a2,2,0,0,0,.172.83,2.068,2.068,0,0,0,.459.659,2.094,2.094,0,0,0,.675.437,2.22,2.22,0,0,0,1.631,0,2.149,2.149,0,0,0,.68-.437,2.062,2.062,0,0,0,.465-.659,2.105,2.105,0,0,0,0-1.659,2.053,2.053,0,0,0-.465-.662,2.091,2.091,0,0,0-.68-.434,2.207,2.207,0,0,0-1.631,0,2.038,2.038,0,0,0-.675.434,2.059,2.059,0,0,0-.459.662A1.981,1.981,0,0,0,800.166,8205.039Z" transform="translate(-798.117 -8201.058)" fill="#9c9fa2"/>
    </g>
    <g id="Grupo_10190" data-name="Grupo 10190" transform="translate(-7925.919 -3495.952)">
      <path id="Trazado_9527" data-name="Trazado 9527" d="M804.906,8205.039a3.883,3.883,0,0,1,2.487-3.676,4.782,4.782,0,0,1,3.365,0,3.942,3.942,0,0,1,1.326.845,3.872,3.872,0,0,1,.865,1.266,4.117,4.117,0,0,1,0,3.131,3.878,3.878,0,0,1-.865,1.265,3.959,3.959,0,0,1-1.326.846,4.782,4.782,0,0,1-3.365,0,3.9,3.9,0,0,1-2.487-3.676Zm2.051,0a2.016,2.016,0,0,0,.17.83,2.08,2.08,0,0,0,1.135,1.1,2.219,2.219,0,0,0,1.631,0,2.163,2.163,0,0,0,.68-.437,2.061,2.061,0,0,0,.465-.659,2.105,2.105,0,0,0,0-1.659,2.053,2.053,0,0,0-.465-.662,2.1,2.1,0,0,0-.68-.434,2.207,2.207,0,0,0-1.631,0,2.046,2.046,0,0,0-.676.434,2.081,2.081,0,0,0-.459.662A2,2,0,0,0,806.957,8205.039Z" transform="translate(-804.906 -8201.058)" fill="#9c9fa2"/>
    </g>
    <g id="Grupo_10191" data-name="Grupo 10191" transform="translate(-7916.328 -3495.741)">
      <path id="Trazado_9528" data-name="Trazado 9528" d="M813.906,8201.211v5.882h2.351v1.661h-4.312v-7.543Z" transform="translate(-811.945 -8201.211)" fill="#9c9fa2"/>
    </g>
    <g id="Grupo_10193" data-name="Grupo 10193" transform="translate(-7835.992 -3495.741)">
      <path id="Trazado_9529" data-name="Trazado 9529" d="M872.948,8201.211l1.3,4.871,1.6-4.871h1.56l1.6,4.871,1.3-4.871h2.051l-2.25,7.543h-2l-1.481-4.371-1.48,4.371h-2l-2.25-7.543Z" transform="translate(-870.898 -8201.211)" fill="#9c9fa2"/>
    </g>
    <g id="Grupo_10194" data-name="Grupo 10194" transform="translate(-7824.86 -3495.741)">
      <path id="Trazado_9530" data-name="Trazado 9530" d="M884.409,8207.443h-2.8l-.451,1.311h-2.09l2.871-7.543h2.141l2.87,7.543h-2.09Zm-.521-1.491-.88-2.511-.88,2.511Z" transform="translate(-879.067 -8201.211)" fill="#9c9fa2"/>
    </g>
    <g id="Grupo_10195" data-name="Grupo 10195" transform="translate(-7816.119 -3495.741)">
      <path id="Trazado_9531" data-name="Trazado 9531" d="M891.755,8208.754h-2.441l-1.871-2.9v2.9h-1.961v-7.543h3.051a3.022,3.022,0,0,1,1.1.185,2.16,2.16,0,0,1,.774.5,2.1,2.1,0,0,1,.461.741,2.571,2.571,0,0,1,.155.9,2.211,2.211,0,0,1-.415,1.395,2.09,2.09,0,0,1-1.225.725Zm-4.312-4.172h.371a1.431,1.431,0,0,0,.89-.24.921.921,0,0,0,0-1.38,1.431,1.431,0,0,0-.89-.241h-.371Z" transform="translate(-885.482 -8201.211)" fill="#9c9fa2"/>
    </g>
    <g id="Grupo_10196" data-name="Grupo 10196" transform="translate(-7809.366 -3495.741)">
      <path id="Trazado_9532" data-name="Trazado 9532" d="M890.437,8208.754l1.279-7.543h1.942l1.51,4.021,1.5-4.021h1.941l1.28,7.543h-1.95l-.65-4.342-1.781,4.342h-.779l-1.691-4.342-.65,4.342Z" transform="translate(-890.437 -8201.211)" fill="#9c9fa2"/>
    </g>
    <g id="Grupo_10198" data-name="Grupo 10198" transform="translate(-7729.632 -3495.741)">
      <path id="Trazado_9533" data-name="Trazado 9533" d="M948.949,8201.211h2.92a2.249,2.249,0,0,1,1.581.5,1.869,1.869,0,0,1,.541,1.439,1.952,1.952,0,0,1-.206.946,1.713,1.713,0,0,1-.625.636,2.337,2.337,0,0,1,.716.245,1.558,1.558,0,0,1,.481.405,1.508,1.508,0,0,1,.264.541,2.469,2.469,0,0,1,.081.638,2.274,2.274,0,0,1-.185.941,1.912,1.912,0,0,1-.521.689,2.187,2.187,0,0,1-.815.42,3.806,3.806,0,0,1-1.081.142h-3.151Zm1.961,2.961h.36c.613,0,.92-.242.92-.73s-.307-.731-.92-.731h-.36Zm0,3.061h.429a2.18,2.18,0,0,0,1.061-.189.743.743,0,0,0,0-1.221,2.192,2.192,0,0,0-1.061-.189h-.429Z" transform="translate(-948.949 -8201.211)" fill="#9c9fa2"/>
    </g>
    <g id="Grupo_10199" data-name="Grupo 10199" transform="translate(-7722.709 -3495.741)">
      <path id="Trazado_9534" data-name="Trazado 9534" d="M960.3,8208.754H957.86l-1.871-2.9v2.9h-1.959v-7.543h3.05a3.023,3.023,0,0,1,1.1.185,2.161,2.161,0,0,1,.774.5,2.107,2.107,0,0,1,.461.741,2.571,2.571,0,0,1,.155.9,2.21,2.21,0,0,1-.416,1.395,2.088,2.088,0,0,1-1.225.725Zm-4.312-4.172h.371a1.428,1.428,0,0,0,.89-.24.921.921,0,0,0,0-1.38,1.428,1.428,0,0,0-.89-.241h-.371Z" transform="translate(-954.029 -8201.211)" fill="#9c9fa2"/>
    </g>
    <g id="Grupo_10200" data-name="Grupo 10200" transform="translate(-7715.618 -3495.741)">
      <path id="Trazado_9535" data-name="Trazado 9535" d="M961.194,8201.211v7.543h-1.961v-7.543Z" transform="translate(-959.233 -8201.211)" fill="#9c9fa2"/>
    </g>
    <g id="Grupo_10201" data-name="Grupo 10201" transform="translate(-7712.418 -3495.952)">
      <path id="Trazado_9536" data-name="Trazado 9536" d="M965.593,8204.589h3.891c0,.4-.016.762-.049,1.089a3.88,3.88,0,0,1-.2.91,3.63,3.63,0,0,1-.571,1.046,3.315,3.315,0,0,1-.845.761,3.949,3.949,0,0,1-1.064.466,4.593,4.593,0,0,1-1.221.16,4.262,4.262,0,0,1-1.605-.292,3.605,3.605,0,0,1-1.245-.814,3.677,3.677,0,0,1-.811-1.26,4.7,4.7,0,0,1,0-3.242,3.535,3.535,0,0,1,.809-1.255,3.705,3.705,0,0,1,1.266-.811,4.51,4.51,0,0,1,1.65-.289,4.089,4.089,0,0,1,2.071.51,3.546,3.546,0,0,1,1.409,1.58l-1.86.771a1.893,1.893,0,0,0-.675-.891,1.7,1.7,0,0,0-.946-.271,1.9,1.9,0,0,0-.8.165,1.737,1.737,0,0,0-.616.472,2.233,2.233,0,0,0-.4.735,2.988,2.988,0,0,0-.146.96,3.058,3.058,0,0,0,.125.891,2.018,2.018,0,0,0,.375.709,1.713,1.713,0,0,0,.62.466,2.11,2.11,0,0,0,.861.165,2.352,2.352,0,0,0,.56-.066,1.4,1.4,0,0,0,.485-.21,1.178,1.178,0,0,0,.354-.375,1.509,1.509,0,0,0,.191-.56h-1.611Z" transform="translate(-961.581 -8201.058)" fill="#9c9fa2"/>
    </g>
    <g id="Grupo_10202" data-name="Grupo 10202" transform="translate(-7703.276 -3495.741)">
      <path id="Trazado_9537" data-name="Trazado 9537" d="M970.251,8204.121h2.83v-2.91h1.961v7.543h-1.961v-3.111h-2.83v3.111H968.29v-7.543h1.961Z" transform="translate(-968.29 -8201.211)" fill="#9c9fa2"/>
    </g>
    <g id="Grupo_10203" data-name="Grupo 10203" transform="translate(-7695.653 -3495.741)">
      <path id="Trazado_9538" data-name="Trazado 9538" d="M977.454,8202.871v5.883h-1.959v-5.883h-1.611v-1.66h5.181v1.66Z" transform="translate(-973.884 -8201.211)" fill="#9c9fa2"/>
    </g>
    <g id="Grupo_10205" data-name="Grupo 10205" transform="translate(-7616.394 -3495.741)">
      <path id="Trazado_9539" data-name="Trazado 9539" d="M1032.047,8201.211h2.9a3.4,3.4,0,0,1,1.444.312,3.953,3.953,0,0,1,1.18.823,3.853,3.853,0,0,1,.8,1.2,3.7,3.7,0,0,1,0,2.862,3.82,3.82,0,0,1-.789,1.2,3.865,3.865,0,0,1-1.18.829,3.434,3.434,0,0,1-1.455.313h-2.9Zm1.961,5.882h.45a2.444,2.444,0,0,0,.91-.16,1.942,1.942,0,0,0,.675-.44,1.89,1.89,0,0,0,.421-.664,2.4,2.4,0,0,0,.145-.846,2.322,2.322,0,0,0-.15-.84,1.917,1.917,0,0,0-.425-.669,1.954,1.954,0,0,0-.676-.442,2.41,2.41,0,0,0-.9-.16h-.45Z" transform="translate(-1032.047 -8201.211)" fill="#9c9fa2"/>
    </g>
    <g id="Grupo_10206" data-name="Grupo 10206" transform="translate(-7609.572 -3495.741)">
      <path id="Trazado_9540" data-name="Trazado 9540" d="M1042.394,8207.443h-2.8l-.45,1.311h-2.09l2.87-7.543h2.141l2.87,7.543h-2.09Zm-.519-1.491-.88-2.511-.88,2.511Z" transform="translate(-1037.053 -8201.211)" fill="#9c9fa2"/>
    </g>
    <g id="Grupo_10207" data-name="Grupo 10207" transform="translate(-7600.831 -3495.741)">
      <path id="Trazado_9541" data-name="Trazado 9541" d="M1049.739,8208.754h-2.44l-1.87-2.9v2.9h-1.961v-7.543h3.05a3.024,3.024,0,0,1,1.1.185,2.182,2.182,0,0,1,.775.5,2.122,2.122,0,0,1,.459.741,2.576,2.576,0,0,1,.155.9,2.21,2.21,0,0,1-.414,1.395,2.092,2.092,0,0,1-1.226.725Zm-4.31-4.172h.369a1.425,1.425,0,0,0,.89-.24.922.922,0,0,0,0-1.38,1.425,1.425,0,0,0-.89-.241h-.369Z" transform="translate(-1043.468 -8201.211)" fill="#9c9fa2"/>
    </g>
    <g id="Grupo_10208" data-name="Grupo 10208" transform="translate(-7593.739 -3495.741)">
      <path id="Trazado_9542" data-name="Trazado 9542" d="M1050.633,8204.322l2.39-3.111h2.42l-2.991,3.571,3.272,3.972h-2.54l-2.551-3.272v3.272h-1.961v-7.543h1.961Z" transform="translate(-1048.672 -8201.211)" fill="#9c9fa2"/>
    </g>
    <g id="Grupo_10210" data-name="Grupo 10210" transform="translate(-7522.096 -3495.952)">
      <path id="Trazado_9543" data-name="Trazado 9543" d="M1105.728,8203.2a2.4,2.4,0,0,0-.641-.386,1.729,1.729,0,0,0-.62-.126,1,1,0,0,0-.62.182.557.557,0,0,0-.24.471.463.463,0,0,0,.12.328,1.039,1.039,0,0,0,.315.227,2.675,2.675,0,0,0,.44.164c.163.047.324.1.485.152a3.021,3.021,0,0,1,1.405.854,2.106,2.106,0,0,1,.445,1.4,2.744,2.744,0,0,1-.195,1.051,2.184,2.184,0,0,1-.571.8,2.611,2.611,0,0,1-.92.521,3.87,3.87,0,0,1-1.236.187,4.548,4.548,0,0,1-2.651-.851l.841-1.582a3.4,3.4,0,0,0,.869.581,2.108,2.108,0,0,0,.852.188,1.01,1.01,0,0,0,.714-.219.667.667,0,0,0,.236-.5.69.69,0,0,0-.06-.3.674.674,0,0,0-.2-.231,1.673,1.673,0,0,0-.365-.193c-.15-.061-.331-.126-.545-.2-.254-.08-.5-.17-.745-.264a2.394,2.394,0,0,1-.65-.388,1.78,1.78,0,0,1-.461-.6,2.146,2.146,0,0,1-.174-.925,2.67,2.67,0,0,1,.185-1.017,2.255,2.255,0,0,1,.519-.779,2.307,2.307,0,0,1,.821-.5,3.05,3.05,0,0,1,1.085-.182,4.736,4.736,0,0,1,1.171.155,5.155,5.155,0,0,1,1.171.455Z" transform="translate(-1101.246 -8201.058)" fill="#9c9fa2"/>
    </g>
    <g id="Grupo_10211" data-name="Grupo 10211" transform="translate(-7516.153 -3495.741)">
      <path id="Trazado_9544" data-name="Trazado 9544" d="M1110.948,8207.443h-2.8l-.45,1.311h-2.09l2.87-7.543h2.141l2.87,7.543H1111.4Zm-.519-1.491-.88-2.511-.88,2.511Z" transform="translate(-1105.607 -8201.211)" fill="#9c9fa2"/>
    </g>
    <g id="Grupo_10212" data-name="Grupo 10212" transform="translate(-7508.451 -3495.741)">
      <path id="Trazado_9545" data-name="Trazado 9545" d="M1114.829,8202.871v5.883h-1.959v-5.883h-1.611v-1.66h5.181v1.66Z" transform="translate(-1111.259 -8201.211)" fill="#9c9fa2"/>
    </g>
    <g id="Grupo_10213" data-name="Grupo 10213" transform="translate(-7502.401 -3495.741)">
      <path id="Trazado_9546" data-name="Trazado 9546" d="M1117.66,8201.211v4.1q0,.33.026.675a1.875,1.875,0,0,0,.149.626,1.055,1.055,0,0,0,.4.455,1.4,1.4,0,0,0,.762.175,1.375,1.375,0,0,0,.755-.175,1.092,1.092,0,0,0,.4-.455,1.782,1.782,0,0,0,.154-.626c.018-.23.026-.455.026-.675v-4.1h1.95v4.372a3.528,3.528,0,0,1-.805,2.569,4.189,4.189,0,0,1-4.956,0,3.516,3.516,0,0,1-.811-2.569v-4.372Z" transform="translate(-1115.699 -8201.211)" fill="#9c9fa2"/>
    </g>
    <g id="Grupo_10214" data-name="Grupo 10214" transform="translate(-7494.248 -3495.741)">
      <path id="Trazado_9547" data-name="Trazado 9547" d="M1127.953,8208.754h-2.441l-1.87-2.9v2.9h-1.961v-7.543h3.05a3.023,3.023,0,0,1,1.1.185,2.177,2.177,0,0,1,.775.5,2.123,2.123,0,0,1,.459.741,2.571,2.571,0,0,1,.155.9,2.211,2.211,0,0,1-.414,1.395,2.093,2.093,0,0,1-1.227.725Zm-4.31-4.172h.369a1.428,1.428,0,0,0,.89-.24.921.921,0,0,0,0-1.38,1.427,1.427,0,0,0-.89-.241h-.369Z" transform="translate(-1121.682 -8201.211)" fill="#9c9fa2"/>
    </g>
    <g id="Grupo_10215" data-name="Grupo 10215" transform="translate(-7487.877 -3495.741)">
      <path id="Trazado_9548" data-name="Trazado 9548" d="M1131.7,8207.443h-2.8l-.451,1.311h-2.09l2.871-7.543h2.141l2.87,7.543h-2.09Zm-.521-1.491-.88-2.511-.88,2.511Z" transform="translate(-1126.357 -8201.211)" fill="#9c9fa2"/>
    </g>
    <g id="Grupo_10216" data-name="Grupo 10216" transform="translate(-7480.175 -3495.741)">
      <path id="Trazado_9549" data-name="Trazado 9549" d="M1135.579,8202.871v5.883h-1.96v-5.883h-1.611v-1.66h5.181v1.66Z" transform="translate(-1132.009 -8201.211)" fill="#9c9fa2"/>
    </g>
    <g id="Grupo_10217" data-name="Grupo 10217" transform="translate(-7474.124 -3495.741)">
      <path id="Trazado_9550" data-name="Trazado 9550" d="M1140.741,8202.871h-2.33v1.259h2.2v1.662h-2.2v1.3h2.33v1.661h-4.291v-7.543h4.291Z" transform="translate(-1136.45 -8201.211)" fill="#9c9fa2"/>
    </g>
    <g id="Grupo_10218" data-name="Grupo 10218" transform="translate(-7468.422 -3495.741)">
      <path id="Trazado_9551" data-name="Trazado 9551" d="M1140.634,8201.211h2.9a3.4,3.4,0,0,1,1.445.312,3.953,3.953,0,0,1,1.18.823,3.847,3.847,0,0,1,.8,1.2,3.707,3.707,0,0,1,.005,2.862,3.805,3.805,0,0,1-.792,1.2,3.865,3.865,0,0,1-1.179.829,3.434,3.434,0,0,1-1.455.313h-2.9Zm1.961,5.882h.448a2.448,2.448,0,0,0,.912-.16,1.955,1.955,0,0,0,.674-.44,1.873,1.873,0,0,0,.421-.664,2.416,2.416,0,0,0,.144-.846,2.325,2.325,0,0,0-.15-.84,1.878,1.878,0,0,0-.427-.669,1.939,1.939,0,0,0-.673-.442,2.42,2.42,0,0,0-.9-.16h-.448Z" transform="translate(-1140.634 -8201.211)" fill="#9c9fa2"/>
    </g>
    <g id="Grupo_10220" data-name="Grupo 10220" transform="translate(-7420.442 -3495.741)">
      <path id="Trazado_9552" data-name="Trazado 9552" d="M1175.843,8201.211h2.9a3.4,3.4,0,0,1,1.444.312,3.951,3.951,0,0,1,1.18.823,3.847,3.847,0,0,1,.8,1.2,3.708,3.708,0,0,1,.005,2.862,3.853,3.853,0,0,1-1.97,2.033,3.434,3.434,0,0,1-1.455.313h-2.9Zm1.961,5.882h.448a2.447,2.447,0,0,0,.912-.16,1.957,1.957,0,0,0,.675-.44,1.851,1.851,0,0,0,.42-.664,2.377,2.377,0,0,0,.146-.846,2.322,2.322,0,0,0-.15-.84,1.918,1.918,0,0,0-.427-.669,1.938,1.938,0,0,0-.673-.442,2.419,2.419,0,0,0-.9-.16h-.448Z" transform="translate(-1175.843 -8201.211)" fill="#9c9fa2"/>
    </g>
    <g id="Grupo_10221" data-name="Grupo 10221" transform="translate(-7412.581 -3495.741)">
      <path id="Trazado_9553" data-name="Trazado 9553" d="M1185.9,8202.871h-2.332v1.259h2.2v1.662h-2.2v1.3h2.332v1.661h-4.292v-7.543h4.292Z" transform="translate(-1181.612 -8201.211)" fill="#9c9fa2"/>
    </g>
    <g id="Grupo_10222" data-name="Grupo 10222" transform="translate(-7407.22 -3495.952)">
      <path id="Trazado_9554" data-name="Trazado 9554" d="M1190.028,8203.2a2.38,2.38,0,0,0-.64-.386,1.725,1.725,0,0,0-.62-.126,1,1,0,0,0-.62.182.561.561,0,0,0-.24.471.463.463,0,0,0,.12.328,1.043,1.043,0,0,0,.315.227,2.675,2.675,0,0,0,.44.164c.164.047.324.1.485.152a3.014,3.014,0,0,1,1.405.854,2.1,2.1,0,0,1,.446,1.4,2.715,2.715,0,0,1-.195,1.051,2.167,2.167,0,0,1-.571.8,2.611,2.611,0,0,1-.92.521,3.868,3.868,0,0,1-1.235.187,4.548,4.548,0,0,1-2.652-.851l.841-1.582a3.384,3.384,0,0,0,.871.581,2.1,2.1,0,0,0,.85.188,1.007,1.007,0,0,0,.714-.219.661.661,0,0,0,.236-.5.688.688,0,0,0-.06-.3.645.645,0,0,0-.2-.231,1.659,1.659,0,0,0-.364-.193c-.151-.061-.333-.126-.546-.2-.252-.08-.5-.17-.744-.264a2.38,2.38,0,0,1-.651-.388,1.76,1.76,0,0,1-.459-.6,2.127,2.127,0,0,1-.176-.925,2.665,2.665,0,0,1,.185-1.017,2.236,2.236,0,0,1,.52-.779,2.282,2.282,0,0,1,.82-.5,3.046,3.046,0,0,1,1.085-.182,4.722,4.722,0,0,1,1.169.155,5.147,5.147,0,0,1,1.171.455Z" transform="translate(-1185.546 -8201.058)" fill="#9c9fa2"/>
    </g>
    <g id="Grupo_10223" data-name="Grupo 10223" transform="translate(-7401.279 -3495.741)">
      <path id="Trazado_9555" data-name="Trazado 9555" d="M1195.249,8207.443h-2.8l-.451,1.311h-2.09l2.873-7.543h2.139l2.871,7.543H1195.7Zm-.521-1.491-.88-2.511-.88,2.511Z" transform="translate(-1189.906 -8201.211)" fill="#9c9fa2"/>
    </g>
    <g id="Grupo_10224" data-name="Grupo 10224" transform="translate(-7393.575 -3495.741)">
      <path id="Trazado_9556" data-name="Trazado 9556" d="M1199.129,8202.871v5.883h-1.96v-5.883h-1.611v-1.66h5.181v1.66Z" transform="translate(-1195.559 -8201.211)" fill="#9c9fa2"/>
    </g>
    <g id="Grupo_10225" data-name="Grupo 10225" transform="translate(-7387.525 -3495.741)">
      <path id="Trazado_9557" data-name="Trazado 9557" d="M1201.96,8201.211v4.1q0,.33.025.675a1.87,1.87,0,0,0,.15.626,1.056,1.056,0,0,0,.4.455,1.4,1.4,0,0,0,.762.175,1.375,1.375,0,0,0,.755-.175,1.1,1.1,0,0,0,.4-.455,1.809,1.809,0,0,0,.154-.626c.016-.23.026-.455.026-.675v-4.1h1.949v4.372a3.533,3.533,0,0,1-.8,2.569,4.189,4.189,0,0,1-4.956,0,3.517,3.517,0,0,1-.811-2.569v-4.372Z" transform="translate(-1199.999 -8201.211)" fill="#9c9fa2"/>
    </g>
    <g id="Grupo_10226" data-name="Grupo 10226" transform="translate(-7379.372 -3495.741)">
      <path id="Trazado_9558" data-name="Trazado 9558" d="M1212.255,8208.754h-2.442l-1.87-2.9v2.9h-1.961v-7.543h3.051a3.02,3.02,0,0,1,1.1.185,2.153,2.153,0,0,1,.775.5,2.122,2.122,0,0,1,.459.741,2.568,2.568,0,0,1,.157.9,2.211,2.211,0,0,1-.415,1.395,2.094,2.094,0,0,1-1.225.725Zm-4.312-4.172h.369a1.434,1.434,0,0,0,.891-.24.924.924,0,0,0,0-1.38,1.434,1.434,0,0,0-.891-.241h-.369Z" transform="translate(-1205.982 -8201.211)" fill="#9c9fa2"/>
    </g>
    <g id="Grupo_10227" data-name="Grupo 10227" transform="translate(-7373 -3495.741)">
      <path id="Trazado_9559" data-name="Trazado 9559" d="M1216,8207.443h-2.8l-.45,1.311h-2.09l2.87-7.543h2.141l2.87,7.543h-2.091Zm-.519-1.491-.88-2.511-.88,2.511Z" transform="translate(-1210.658 -8201.211)" fill="#9c9fa2"/>
    </g>
    <g id="Grupo_10228" data-name="Grupo 10228" transform="translate(-7365.299 -3495.741)">
      <path id="Trazado_9560" data-name="Trazado 9560" d="M1219.881,8202.871v5.883h-1.961v-5.883h-1.611v-1.66h5.181v1.66Z" transform="translate(-1216.309 -8201.211)" fill="#9c9fa2"/>
    </g>
    <g id="Grupo_10229" data-name="Grupo 10229" transform="translate(-7359.248 -3495.741)">
      <path id="Trazado_9561" data-name="Trazado 9561" d="M1225.041,8202.871h-2.33v1.259h2.2v1.662h-2.2v1.3h2.33v1.661h-4.291v-7.543h4.291Z" transform="translate(-1220.75 -8201.211)" fill="#9c9fa2"/>
    </g>
    <g id="Grupo_10230" data-name="Grupo 10230" transform="translate(-7353.546 -3495.741)">
      <path id="Trazado_9562" data-name="Trazado 9562" d="M1224.934,8201.211h2.9a3.4,3.4,0,0,1,1.446.312,3.958,3.958,0,0,1,1.18.823,3.824,3.824,0,0,1,.8,1.2,3.652,3.652,0,0,1,.29,1.437,3.69,3.69,0,0,1-.285,1.426,3.838,3.838,0,0,1-1.972,2.033,3.42,3.42,0,0,1-1.455.313h-2.9Zm1.96,5.882h.451a2.438,2.438,0,0,0,.91-.16,1.947,1.947,0,0,0,.676-.44,1.893,1.893,0,0,0,.42-.664,2.416,2.416,0,0,0,.144-.846,2.324,2.324,0,0,0-.149-.84,1.915,1.915,0,0,0-.427-.669,1.941,1.941,0,0,0-.676-.442,2.4,2.4,0,0,0-.9-.16h-.451Z" transform="translate(-1224.934 -8201.211)" fill="#9c9fa2"/>
    </g>
    <g id="Grupo_10233" data-name="Grupo 10233" transform="translate(-7947.506 -3463.003)">
      <path id="Trazado_9563" data-name="Trazado 9563" d="M809.77,8225.238l-.133,0a41.147,41.147,0,0,0-20.571,5.484l20.7,35.864Z" transform="translate(-789.065 -8225.235)" fill="#fef121"/>
    </g>
    <g id="Grupo_10234" data-name="Grupo 10234" transform="translate(-7962.706 -3457.519)">
      <path id="Trazado_9564" data-name="Trazado 9564" d="M793.111,8229.26a41.2,41.2,0,0,0-15.2,15.133l35.9,20.73Z" transform="translate(-777.911 -8229.26)" fill="#8ad21b"/>
    </g>
    <g id="Grupo_10235" data-name="Grupo 10235" transform="translate(-7926.801 -3457.404)">
      <path id="Trazado_9565" data-name="Trazado 9565" d="M839.963,8244.479a41.194,41.194,0,0,0-15.065-15.134l-20.64,35.748Z" transform="translate(-804.259 -8229.345)" fill="#f6ac43"/>
    </g>
    <g id="Grupo_10236" data-name="Grupo 10236" transform="translate(-7926.801 -3463.001)">
      <path id="Trazado_9566" data-name="Trazado 9566" d="M824.9,8230.834a41.148,41.148,0,0,0-20.64-5.6v41.346Z" transform="translate(-804.259 -8225.237)" fill="#face32"/>
    </g>
    <g id="Grupo_10237" data-name="Grupo 10237" transform="translate(-7926.801 -3442.269)">
      <path id="Trazado_9567" data-name="Trazado 9567" d="M845.474,8261.064a41.139,41.139,0,0,0-5.511-20.614l-35.7,20.614Z" transform="translate(-804.259 -8240.45)" fill="#fb7833"/>
    </g>
    <g id="Grupo_10238" data-name="Grupo 10238" transform="translate(-7968.283 -3442.386)">
      <path id="Trazado_9568" data-name="Trazado 9568" d="M779.4,8240.363a41.158,41.158,0,0,0-5.578,20.732H815.3Z" transform="translate(-773.818 -8240.363)" fill="#34b534"/>
    </g>
    <g id="Grupo_10239" data-name="Grupo 10239" transform="translate(-7962.706 -3421.655)">
      <path id="Trazado_9569" data-name="Trazado 9569" d="M777.911,8276.307a41.172,41.172,0,0,0,15.2,15.132l20.7-35.861Z" transform="translate(-777.911 -8255.577)" fill="#197ac4"/>
    </g>
    <g id="Grupo_10240" data-name="Grupo 10240" transform="translate(-7968.283 -3421.655)">
      <path id="Trazado_9570" data-name="Trazado 9570" d="M773.818,8255.577a41.142,41.142,0,0,0,5.578,20.729l35.9-20.729Z" transform="translate(-773.818 -8255.577)" fill="#1bb3cf"/>
    </g>
    <g id="Grupo_10241" data-name="Grupo 10241" transform="translate(-7926.801 -3421.655)">
      <path id="Trazado_9571" data-name="Trazado 9571" d="M804.259,8255.577l35.7,20.613a41.138,41.138,0,0,0,5.511-20.613Z" transform="translate(-804.259 -8255.577)" fill="#ff4929"/>
    </g>
    <g id="Grupo_10242" data-name="Grupo 10242" transform="translate(-7926.801 -3421.655)">
      <path id="Trazado_9572" data-name="Trazado 9572" d="M824.9,8291.322a41.169,41.169,0,0,0,15.065-15.132l-35.7-20.613Z" transform="translate(-804.259 -8255.577)" fill="#d24499"/>
    </g>
    <g id="Grupo_10243" data-name="Grupo 10243" transform="translate(-7947.506 -3421.655)">
      <path id="Trazado_9573" data-name="Trazado 9573" d="M789.065,8291.438a41.145,41.145,0,0,0,20.571,5.486l.133,0v-41.345Z" transform="translate(-789.065 -8255.577)" fill="#525eba"/>
    </g>
    <g id="Grupo_10244" data-name="Grupo 10244" transform="translate(-7926.801 -3421.655)">
      <path id="Trazado_9574" data-name="Trazado 9574" d="M804.259,8296.922a41.12,41.12,0,0,0,20.64-5.6l-20.64-35.745Z" transform="translate(-804.259 -8255.577)" fill="#7e38b0"/>
    </g>
    <g id="Grupo_10246" data-name="Grupo 10246" transform="translate(-7730.473 -3463.003)">
      <path id="Trazado_9575" data-name="Trazado 9575" d="M969.038,8225.238l-.135,0a41.138,41.138,0,0,0-20.572,5.485l20.706,35.863Z" transform="translate(-948.332 -8225.235)" fill="#fef121"/>
    </g>
    <g id="Grupo_10247" data-name="Grupo 10247" transform="translate(-7745.672 -3457.518)">
      <path id="Trazado_9576" data-name="Trazado 9576" d="M952.378,8229.26a41.192,41.192,0,0,0-15.2,15.132l35.906,20.731Z" transform="translate(-937.178 -8229.26)" fill="#8ad21b"/>
    </g>
    <g id="Grupo_10248" data-name="Grupo 10248" transform="translate(-7709.766 -3457.404)">
      <path id="Trazado_9577" data-name="Trazado 9577" d="M999.231,8244.479a41.213,41.213,0,0,0-15.066-15.134l-20.638,35.748Z" transform="translate(-963.527 -8229.345)" fill="#f6ac43"/>
    </g>
    <g id="Grupo_10249" data-name="Grupo 10249" transform="translate(-7709.766 -3463.001)">
      <path id="Trazado_9578" data-name="Trazado 9578" d="M984.165,8230.834a41.146,41.146,0,0,0-20.638-5.6v41.346Z" transform="translate(-963.527 -8225.237)" fill="#face32"/>
    </g>
    <g id="Grupo_10250" data-name="Grupo 10250" transform="translate(-7709.766 -3442.269)">
      <path id="Trazado_9579" data-name="Trazado 9579" d="M1004.742,8261.064a41.152,41.152,0,0,0-5.511-20.614l-35.7,20.614Z" transform="translate(-963.527 -8240.45)" fill="#fb7833"/>
    </g>
    <g id="Grupo_10251" data-name="Grupo 10251" transform="translate(-7751.25 -3442.386)">
      <path id="Trazado_9580" data-name="Trazado 9580" d="M938.662,8240.363a41.159,41.159,0,0,0-5.577,20.732h41.483Z" transform="translate(-933.085 -8240.363)" fill="#34b534"/>
    </g>
    <g id="Grupo_10252" data-name="Grupo 10252" transform="translate(-7745.672 -3421.655)">
      <path id="Trazado_9581" data-name="Trazado 9581" d="M937.178,8276.307a41.2,41.2,0,0,0,15.2,15.132l20.706-35.861Z" transform="translate(-937.178 -8255.577)" fill="#197ac4"/>
    </g>
    <g id="Grupo_10253" data-name="Grupo 10253" transform="translate(-7751.25 -3421.655)">
      <path id="Trazado_9582" data-name="Trazado 9582" d="M933.085,8255.577a41.143,41.143,0,0,0,5.577,20.729l35.906-20.729Z" transform="translate(-933.085 -8255.577)" fill="#1bb3cf"/>
    </g>
    <g id="Grupo_10254" data-name="Grupo 10254" transform="translate(-7709.766 -3421.655)">
      <path id="Trazado_9583" data-name="Trazado 9583" d="M963.527,8255.577l35.7,20.613a41.151,41.151,0,0,0,5.511-20.613Z" transform="translate(-963.527 -8255.577)" fill="#ff4929"/>
    </g>
    <g id="Grupo_10255" data-name="Grupo 10255" transform="translate(-7709.766 -3421.655)">
      <path id="Trazado_9584" data-name="Trazado 9584" d="M984.165,8291.322a41.188,41.188,0,0,0,15.066-15.132l-35.7-20.613Z" transform="translate(-963.527 -8255.577)" fill="#d24499"/>
    </g>
    <g id="Grupo_10256" data-name="Grupo 10256" transform="translate(-7730.473 -3421.655)">
      <path id="Trazado_9585" data-name="Trazado 9585" d="M948.332,8291.438a41.149,41.149,0,0,0,20.572,5.486l.135,0v-41.345Z" transform="translate(-948.332 -8255.577)" fill="#525eba"/>
    </g>
    <g id="Grupo_10257" data-name="Grupo 10257" transform="translate(-7709.766 -3421.655)">
      <path id="Trazado_9586" data-name="Trazado 9586" d="M963.527,8296.922a41.119,41.119,0,0,0,20.638-5.6l-20.638-35.745Z" transform="translate(-963.527 -8255.577)" fill="#7e38b0"/>
    </g>
    <g id="Grupo_10259" data-name="Grupo 10259" transform="translate(-7621.956 -3463.003)">
      <path id="Trazado_9587" data-name="Trazado 9587" d="M1048.671,8225.238l-.134,0a41.135,41.135,0,0,0-20.571,5.485l20.705,35.863Z" transform="translate(-1027.966 -8225.235)" fill="#fef121"/>
    </g>
    <g id="Grupo_10260" data-name="Grupo 10260" transform="translate(-7637.155 -3457.518)">
      <path id="Trazado_9588" data-name="Trazado 9588" d="M1032.011,8229.26a41.192,41.192,0,0,0-15.2,15.132l35.9,20.731Z" transform="translate(-1016.812 -8229.26)" fill="#8ad21b"/>
    </g>
    <g id="Grupo_10261" data-name="Grupo 10261" transform="translate(-7601.25 -3457.404)">
      <path id="Trazado_9589" data-name="Trazado 9589" d="M1078.864,8244.479a41.189,41.189,0,0,0-15.066-15.134l-20.638,35.748Z" transform="translate(-1043.16 -8229.345)" fill="#f6ac43"/>
    </g>
    <g id="Grupo_10262" data-name="Grupo 10262" transform="translate(-7601.25 -3463.001)">
      <path id="Trazado_9590" data-name="Trazado 9590" d="M1063.8,8230.834a41.139,41.139,0,0,0-20.638-5.6v41.346Z" transform="translate(-1043.16 -8225.237)" fill="#face32"/>
    </g>
    <g id="Grupo_10263" data-name="Grupo 10263" transform="translate(-7601.25 -3442.269)">
      <path id="Trazado_9591" data-name="Trazado 9591" d="M1084.375,8261.064a41.138,41.138,0,0,0-5.511-20.614l-35.7,20.614Z" transform="translate(-1043.16 -8240.45)" fill="#fb7833"/>
    </g>
    <g id="Grupo_10264" data-name="Grupo 10264" transform="translate(-7642.732 -3442.386)">
      <path id="Trazado_9592" data-name="Trazado 9592" d="M1018.3,8240.363a41.158,41.158,0,0,0-5.578,20.732H1054.2Z" transform="translate(-1012.719 -8240.363)" fill="#34b534"/>
    </g>
    <g id="Grupo_10265" data-name="Grupo 10265" transform="translate(-7637.155 -3421.655)">
      <path id="Trazado_9593" data-name="Trazado 9593" d="M1016.812,8276.307a41.173,41.173,0,0,0,15.2,15.132l20.705-35.861Z" transform="translate(-1016.812 -8255.577)" fill="#197ac4"/>
    </g>
    <g id="Grupo_10266" data-name="Grupo 10266" transform="translate(-7642.732 -3421.655)">
      <path id="Trazado_9594" data-name="Trazado 9594" d="M1012.719,8255.577a41.142,41.142,0,0,0,5.578,20.729l35.9-20.729Z" transform="translate(-1012.719 -8255.577)" fill="#1bb3cf"/>
    </g>
    <g id="Grupo_10267" data-name="Grupo 10267" transform="translate(-7601.25 -3421.655)">
      <path id="Trazado_9595" data-name="Trazado 9595" d="M1043.16,8255.577l35.7,20.613a41.138,41.138,0,0,0,5.511-20.613Z" transform="translate(-1043.16 -8255.577)" fill="#ff4929"/>
    </g>
    <g id="Grupo_10268" data-name="Grupo 10268" transform="translate(-7601.25 -3421.655)">
      <path id="Trazado_9596" data-name="Trazado 9596" d="M1063.8,8291.322a41.164,41.164,0,0,0,15.066-15.132l-35.7-20.613Z" transform="translate(-1043.16 -8255.577)" fill="#d24499"/>
    </g>
    <g id="Grupo_10269" data-name="Grupo 10269" transform="translate(-7621.956 -3421.655)">
      <path id="Trazado_9597" data-name="Trazado 9597" d="M1027.966,8291.438a41.146,41.146,0,0,0,20.571,5.486l.134,0v-41.345Z" transform="translate(-1027.966 -8255.577)" fill="#525eba"/>
    </g>
    <g id="Grupo_10270" data-name="Grupo 10270" transform="translate(-7601.25 -3421.655)">
      <path id="Trazado_9598" data-name="Trazado 9598" d="M1043.16,8296.922a41.112,41.112,0,0,0,20.638-5.6l-20.638-35.745Z" transform="translate(-1043.16 -8255.577)" fill="#7e38b0"/>
    </g>
    <g id="Grupo_10272" data-name="Grupo 10272" transform="translate(-7513.438 -3463.003)">
      <path id="Trazado_9599" data-name="Trazado 9599" d="M1128.3,8225.238l-.133,0a41.134,41.134,0,0,0-20.572,5.485l20.7,35.863Z" transform="translate(-1107.6 -8225.235)" fill="#fef121"/>
    </g>
    <g id="Grupo_10273" data-name="Grupo 10273" transform="translate(-7528.638 -3457.518)">
      <path id="Trazado_9600" data-name="Trazado 9600" d="M1111.646,8229.26a41.2,41.2,0,0,0-15.2,15.134l35.906,20.729Z" transform="translate(-1096.445 -8229.26)" fill="#8ad21b"/>
    </g>
    <g id="Grupo_10274" data-name="Grupo 10274" transform="translate(-7492.732 -3457.404)">
      <path id="Trazado_9601" data-name="Trazado 9601" d="M1158.5,8244.479a41.184,41.184,0,0,0-15.066-15.134l-20.638,35.748Z" transform="translate(-1122.794 -8229.345)" fill="#f6ac43"/>
    </g>
    <g id="Grupo_10275" data-name="Grupo 10275" transform="translate(-7492.732 -3463.001)">
      <path id="Trazado_9602" data-name="Trazado 9602" d="M1143.432,8230.834a41.146,41.146,0,0,0-20.638-5.6v41.346Z" transform="translate(-1122.794 -8225.237)" fill="#face32"/>
    </g>
    <g id="Grupo_10276" data-name="Grupo 10276" transform="translate(-7492.732 -3442.269)">
      <path id="Trazado_9603" data-name="Trazado 9603" d="M1164.009,8261.064a41.152,41.152,0,0,0-5.51-20.614l-35.7,20.614Z" transform="translate(-1122.794 -8240.45)" fill="#fb7833"/>
    </g>
    <g id="Grupo_10277" data-name="Grupo 10277" transform="translate(-7534.216 -3442.385)">
      <path id="Trazado_9604" data-name="Trazado 9604" d="M1097.929,8240.365a41.134,41.134,0,0,0-5.577,20.729h41.483Z" transform="translate(-1092.352 -8240.365)" fill="#34b534"/>
    </g>
    <g id="Grupo_10278" data-name="Grupo 10278" transform="translate(-7528.638 -3421.655)">
      <path id="Trazado_9605" data-name="Trazado 9605" d="M1096.445,8276.307a41.194,41.194,0,0,0,15.2,15.132l20.7-35.861Z" transform="translate(-1096.445 -8255.577)" fill="#197ac4"/>
    </g>
    <g id="Grupo_10279" data-name="Grupo 10279" transform="translate(-7534.216 -3421.655)">
      <path id="Trazado_9606" data-name="Trazado 9606" d="M1092.352,8255.577a41.142,41.142,0,0,0,5.577,20.729l35.906-20.729Z" transform="translate(-1092.352 -8255.577)" fill="#1bb3cf"/>
    </g>
    <g id="Grupo_10280" data-name="Grupo 10280" transform="translate(-7492.732 -3421.655)">
      <path id="Trazado_9607" data-name="Trazado 9607" d="M1122.794,8255.577l35.7,20.613a41.151,41.151,0,0,0,5.51-20.613Z" transform="translate(-1122.794 -8255.577)" fill="#ff4929"/>
    </g>
    <g id="Grupo_10281" data-name="Grupo 10281" transform="translate(-7492.732 -3421.655)">
      <path id="Trazado_9608" data-name="Trazado 9608" d="M1143.432,8291.322a41.159,41.159,0,0,0,15.066-15.132l-35.7-20.613Z" transform="translate(-1122.794 -8255.577)" fill="#d24499"/>
    </g>
    <g id="Grupo_10282" data-name="Grupo 10282" transform="translate(-7513.438 -3421.655)">
      <path id="Trazado_9609" data-name="Trazado 9609" d="M1107.6,8291.438a41.124,41.124,0,0,0,20.572,5.486l.133,0v-41.346Z" transform="translate(-1107.6 -8255.577)" fill="#525eba"/>
    </g>
    <g id="Grupo_10283" data-name="Grupo 10283" transform="translate(-7492.732 -3421.655)">
      <path id="Trazado_9610" data-name="Trazado 9610" d="M1122.794,8296.923a41.129,41.129,0,0,0,20.638-5.6l-20.638-35.745Z" transform="translate(-1122.794 -8255.577)" fill="#7e38b0"/>
    </g>
    <g id="Grupo_10284" data-name="Grupo 10284" transform="translate(-7503.084 -3462.229)">
      <path id="Trazado_9611" data-name="Trazado 9611" d="M1154.265,8238.286l-17.6-10.939H1115.2V8225.8h21.91l17.972,11.17Z" transform="translate(-1115.197 -8225.804)" fill="#2b2b2b"/>
    </g>
    <g id="Grupo_10285" data-name="Grupo 10285" transform="translate(-7509.437 -3467.809)">
      <path id="Trazado_9612" data-name="Trazado 9612" d="M1118.109,8233.245a5.577,5.577,0,1,1,3.964-6.819A5.579,5.579,0,0,1,1118.109,8233.245Z" transform="translate(-1110.33 -8221.502)" fill="#fef121"/>
      <path id="Trazado_9613" data-name="Trazado 9613" d="M1116.878,8234.41a6.357,6.357,0,1,1,1.635-.214A6.459,6.459,0,0,1,1116.878,8234.41Zm.018-11.159a4.807,4.807,0,0,0-4.654,6.039,4.8,4.8,0,1,0,4.654-6.039Z" transform="translate(-1110.536 -8221.708)" fill="#2b2b2b"/>
    </g>
    <g id="Grupo_10286" data-name="Grupo 10286" transform="translate(-7487.743 -3467.805)">
      <path id="Trazado_9614" data-name="Trazado 9614" d="M1134.026,8233.245a5.577,5.577,0,1,1,3.964-6.819A5.578,5.578,0,0,1,1134.026,8233.245Z" transform="translate(-1126.25 -8221.506)" fill="#face32"/>
      <path id="Trazado_9615" data-name="Trazado 9615" d="M1132.806,8234.408a6.353,6.353,0,1,1,1.625-.213h0A6.438,6.438,0,0,1,1132.806,8234.408Zm0-11.156a4.817,4.817,0,0,0-1.228.162,4.8,4.8,0,1,0,1.228-.162Z" transform="translate(-1126.455 -8221.71)" fill="#2b2b2b"/>
    </g>
    <g id="Grupo_10287" data-name="Grupo 10287" transform="translate(-7469.962 -3456.754)">
      <path id="Trazado_9616" data-name="Trazado 9616" d="M1147.077,8241.355a5.575,5.575,0,1,1,3.964-6.818A5.573,5.573,0,0,1,1147.077,8241.355Z" transform="translate(-1139.298 -8229.615)" fill="#f6ac43"/>
      <path id="Trazado_9617" data-name="Trazado 9617" d="M1145.856,8242.521a6.35,6.35,0,1,1,1.626-.212A6.36,6.36,0,0,1,1145.856,8242.521Zm.008-11.156a4.844,4.844,0,0,0-1.239.162,4.789,4.789,0,1,0,1.239-.162Z" transform="translate(-1139.503 -8229.821)" fill="#2b2b2b"/>
    </g>
    <g id="Grupo_10289" data-name="Grupo 10289" transform="translate(-7404.921 -3463.003)">
      <path id="Trazado_9618" data-name="Trazado 9618" d="M1207.939,8225.238l-.135,0a41.139,41.139,0,0,0-20.572,5.485l20.706,35.863Z" transform="translate(-1187.233 -8225.235)" fill="#fef121"/>
    </g>
    <g id="Grupo_10290" data-name="Grupo 10290" transform="translate(-7420.121 -3457.518)">
      <path id="Trazado_9619" data-name="Trazado 9619" d="M1191.279,8229.26a41.178,41.178,0,0,0-15.2,15.134l35.906,20.729Z" transform="translate(-1176.079 -8229.26)" fill="#8ad21b"/>
    </g>
    <g id="Grupo_10291" data-name="Grupo 10291" transform="translate(-7384.215 -3457.404)">
      <path id="Trazado_9620" data-name="Trazado 9620" d="M1238.132,8244.479a41.215,41.215,0,0,0-15.066-15.134l-20.638,35.748Z" transform="translate(-1202.428 -8229.345)" fill="#f6ac43"/>
    </g>
    <g id="Grupo_10292" data-name="Grupo 10292" transform="translate(-7384.215 -3463.001)">
      <path id="Trazado_9621" data-name="Trazado 9621" d="M1223.066,8230.834a41.147,41.147,0,0,0-20.638-5.6v41.346Z" transform="translate(-1202.428 -8225.237)" fill="#face32"/>
    </g>
    <g id="Grupo_10293" data-name="Grupo 10293" transform="translate(-7384.215 -3442.269)">
      <path id="Trazado_9622" data-name="Trazado 9622" d="M1243.643,8261.064a41.152,41.152,0,0,0-5.511-20.614l-35.7,20.614Z" transform="translate(-1202.428 -8240.45)" fill="#fb7833"/>
    </g>
    <g id="Grupo_10294" data-name="Grupo 10294" transform="translate(-7425.699 -3442.385)">
      <path id="Trazado_9623" data-name="Trazado 9623" d="M1177.564,8240.365a41.134,41.134,0,0,0-5.578,20.729h41.483Z" transform="translate(-1171.986 -8240.365)" fill="#34b534"/>
    </g>
    <g id="Grupo_10295" data-name="Grupo 10295" transform="translate(-7420.121 -3421.655)">
      <path id="Trazado_9624" data-name="Trazado 9624" d="M1176.079,8276.307a41.173,41.173,0,0,0,15.2,15.132l20.706-35.861Z" transform="translate(-1176.079 -8255.577)" fill="#197ac4"/>
    </g>
    <g id="Grupo_10296" data-name="Grupo 10296" transform="translate(-7425.699 -3421.655)">
      <path id="Trazado_9625" data-name="Trazado 9625" d="M1171.986,8255.577a41.142,41.142,0,0,0,5.578,20.729l35.906-20.729Z" transform="translate(-1171.986 -8255.577)" fill="#1bb3cf"/>
    </g>
    <g id="Grupo_10297" data-name="Grupo 10297" transform="translate(-7384.215 -3421.655)">
      <path id="Trazado_9626" data-name="Trazado 9626" d="M1202.428,8255.577l35.7,20.613a41.151,41.151,0,0,0,5.511-20.613Z" transform="translate(-1202.428 -8255.577)" fill="#ff4929"/>
    </g>
    <g id="Grupo_10298" data-name="Grupo 10298" transform="translate(-7384.215 -3421.655)">
      <path id="Trazado_9627" data-name="Trazado 9627" d="M1223.066,8291.322a41.19,41.19,0,0,0,15.066-15.132l-35.7-20.613Z" transform="translate(-1202.428 -8255.577)" fill="#d24499"/>
    </g>
    <g id="Grupo_10299" data-name="Grupo 10299" transform="translate(-7404.921 -3421.655)">
      <path id="Trazado_9628" data-name="Trazado 9628" d="M1187.233,8291.438a41.13,41.13,0,0,0,20.572,5.486l.135,0v-41.346Z" transform="translate(-1187.233 -8255.577)" fill="#525eba"/>
    </g>
    <g id="Grupo_10300" data-name="Grupo 10300" transform="translate(-7384.215 -3421.655)">
      <path id="Trazado_9629" data-name="Trazado 9629" d="M1202.428,8296.923a41.13,41.13,0,0,0,20.638-5.6l-20.638-35.745Z" transform="translate(-1202.428 -8255.577)" fill="#7e38b0"/>
    </g>
    <g id="Grupo_10302" data-name="Grupo 10302" transform="translate(-7757.079 -3371.113)">
      <path id="Trazado_9630" data-name="Trazado 9630" d="M934.49,8295.354a2.064,2.064,0,0,0-1.654-.817,2,2,0,0,0-.8.16,1.919,1.919,0,0,0-.635.428,1.964,1.964,0,0,0-.418.645,2.106,2.106,0,0,0-.153.807,2.145,2.145,0,0,0,.153.818,1.982,1.982,0,0,0,.424.651,1.988,1.988,0,0,0,1.423.589,2.232,2.232,0,0,0,1.664-.787v2.285l-.2.07a5.789,5.789,0,0,1-.829.229,3.946,3.946,0,0,1-.758.074,3.9,3.9,0,0,1-2.713-1.107,4.106,4.106,0,0,1-.861-1.25,3.829,3.829,0,0,1-.326-1.583,3.781,3.781,0,0,1,.32-1.569,3.919,3.919,0,0,1,3.589-2.329,4.19,4.19,0,0,1,.872.093,5.321,5.321,0,0,1,.9.292Z" transform="translate(-928.807 -8292.667)" fill="#9c9fa2"/>
    </g>
    <g id="Grupo_10303" data-name="Grupo 10303" transform="translate(-7750.402 -3371.113)">
      <path id="Trazado_9631" data-name="Trazado 9631" d="M933.707,8296.586a3.824,3.824,0,0,1,2.447-3.619,4.729,4.729,0,0,1,3.314,0,3.951,3.951,0,0,1,1.306.831,3.817,3.817,0,0,1,.85,1.247,4.023,4.023,0,0,1,0,3.081,3.8,3.8,0,0,1-.85,1.247,3.956,3.956,0,0,1-1.306.833,4.729,4.729,0,0,1-3.314,0,3.909,3.909,0,0,1-1.295-.833,3.862,3.862,0,0,1-1.153-2.787Zm2.02,0a1.948,1.948,0,0,0,.168.816,2.035,2.035,0,0,0,1.117,1.078,2.148,2.148,0,0,0,2.274-.428,2.031,2.031,0,0,0,.459-.65,2.09,2.09,0,0,0,0-1.634,2.049,2.049,0,0,0-.459-.649,2.154,2.154,0,0,0-2.274-.429,2.043,2.043,0,0,0-1.117,1.078A1.955,1.955,0,0,0,935.727,8296.586Z" transform="translate(-933.707 -8292.667)" fill="#9c9fa2"/>
    </g>
    <g id="Grupo_10304" data-name="Grupo 10304" transform="translate(-7741.292 -3370.906)">
      <path id="Trazado_9632" data-name="Trazado 9632" d="M940.392,8300.242l1.26-7.424h1.911l1.487,3.959,1.477-3.959h1.911l1.262,7.424h-1.921l-.641-4.273-1.752,4.273h-.769l-1.664-4.273-.64,4.273Z" transform="translate(-940.392 -8292.818)" fill="#9c9fa2"/>
    </g>
    <g id="Grupo_10305" data-name="Grupo 10305" transform="translate(-7730.765 -3370.906)">
      <path id="Trazado_9633" data-name="Trazado 9633" d="M950.047,8300.242h-1.93v-7.424h3.073a2.628,2.628,0,0,1,1.915.65,2.856,2.856,0,0,1,0,3.664,2.628,2.628,0,0,1-1.915.65h-1.143Zm0-4.018h.642c.707,0,1.063-.307,1.063-.925s-.355-.925-1.063-.925h-.642Z" transform="translate(-948.117 -8292.818)" fill="#9c9fa2"/>
    </g>
    <g id="Grupo_10306" data-name="Grupo 10306" transform="translate(-7724.088 -3370.906)">
      <path id="Trazado_9634" data-name="Trazado 9634" d="M954.947,8292.818v5.789h2.315v1.635h-4.245v-7.424Z" transform="translate(-953.017 -8292.818)" fill="#9c9fa2"/>
    </g>
    <g id="Grupo_10307" data-name="Grupo 10307" transform="translate(-7718.849 -3370.906)">
      <path id="Trazado_9635" data-name="Trazado 9635" d="M961.086,8294.451h-2.295v1.243h2.167v1.635h-2.167v1.278h2.295v1.635h-4.224v-7.424h4.224Z" transform="translate(-956.862 -8292.818)" fill="#9c9fa2"/>
    </g>
    <g id="Grupo_10308" data-name="Grupo 10308" transform="translate(-7713.571 -3370.906)">
      <path id="Trazado_9636" data-name="Trazado 9636" d="M960.735,8300.242l1.26-7.424h1.911l1.488,3.959,1.477-3.959h1.911l1.26,7.424h-1.92l-.641-4.273-1.752,4.273h-.77l-1.664-4.273-.639,4.273Z" transform="translate(-960.735 -8292.818)" fill="#9c9fa2"/>
    </g>
    <g id="Grupo_10309" data-name="Grupo 10309" transform="translate(-7703.042 -3370.906)">
      <path id="Trazado_9637" data-name="Trazado 9637" d="M972.687,8294.451h-2.3v1.243h2.168v1.635h-2.168v1.278h2.3v1.635h-4.226v-7.424h4.226Z" transform="translate(-968.461 -8292.818)" fill="#9c9fa2"/>
    </g>
    <g id="Grupo_10310" data-name="Grupo 10310" transform="translate(-7697.43 -3370.906)">
      <path id="Trazado_9638" data-name="Trazado 9638" d="M972.58,8300.242v-7.424h1.929l3.566,4.54v-4.54H980v7.424h-1.92l-3.566-4.539v4.539Z" transform="translate(-972.58 -8292.818)" fill="#9c9fa2"/>
    </g>
    <g id="Grupo_10311" data-name="Grupo 10311" transform="translate(-7689.157 -3370.906)">
      <path id="Trazado_9639" data-name="Trazado 9639" d="M982.167,8294.451v5.791h-1.931v-5.791h-1.585v-1.633h5.1v1.633Z" transform="translate(-978.651 -8292.818)" fill="#9c9fa2"/>
    </g>
    <g id="Grupo_10312" data-name="Grupo 10312" transform="translate(-7684.252 -3370.906)">
      <path id="Trazado_9640" data-name="Trazado 9640" d="M987.509,8298.953h-2.758l-.443,1.289H982.25l2.826-7.424h2.108l2.826,7.424h-2.059Zm-.512-1.467-.865-2.472-.868,2.472Z" transform="translate(-982.25 -8292.818)" fill="#9c9fa2"/>
    </g>
    <g id="Grupo_10313" data-name="Grupo 10313" transform="translate(-7675.646 -3370.906)">
      <path id="Trazado_9641" data-name="Trazado 9641" d="M994.742,8300.242h-2.4l-1.842-2.855v2.855h-1.93v-7.424h3a2.994,2.994,0,0,1,1.083.182,2.057,2.057,0,0,1,1.217,1.226,2.58,2.58,0,0,1,.152.887,2.176,2.176,0,0,1-.409,1.375,2.063,2.063,0,0,1-1.206.714Zm-4.246-4.1h.365a1.409,1.409,0,0,0,.876-.236.91.91,0,0,0,0-1.36,1.422,1.422,0,0,0-.876-.234H990.5Z" transform="translate(-988.566 -8292.818)" fill="#9c9fa2"/>
    </g>
    <g id="Grupo_10314" data-name="Grupo 10314" transform="translate(-7669.933 -3370.906)">
      <path id="Trazado_9642" data-name="Trazado 9642" d="M995.466,8296.679l-2.708-3.86h2.3l1.379,2.027,1.368-2.027h2.306l-2.719,3.86v3.563h-1.931Z" transform="translate(-992.758 -8292.818)" fill="#9c9fa2"/>
    </g>
    <g id="Grupo_10316" data-name="Grupo 10316" transform="translate(-7527.785 -3370.906)">
      <path id="Trazado_9643" data-name="Trazado 9643" d="M1102.33,8298.953h-2.757l-.444,1.289h-2.058l2.826-7.424h2.108l2.826,7.424h-2.059Zm-.511-1.467-.867-2.472-.867,2.472Z" transform="translate(-1097.071 -8292.818)" fill="#9c9fa2"/>
    </g>
    <g id="Grupo_10317" data-name="Grupo 10317" transform="translate(-7519.177 -3370.906)">
      <path id="Trazado_9644" data-name="Trazado 9644" d="M1103.388,8300.242v-7.424h1.931l3.565,4.54v-4.54h1.92v7.424h-1.92l-3.565-4.539v4.539Z" transform="translate(-1103.388 -8292.818)" fill="#9c9fa2"/>
    </g>
    <g id="Grupo_10318" data-name="Grupo 10318" transform="translate(-7510.896 -3370.906)">
      <path id="Trazado_9645" data-name="Trazado 9645" d="M1114.724,8298.953h-2.758l-.443,1.289h-2.058l2.826-7.424h2.108l2.826,7.424h-2.059Zm-.511-1.467-.868-2.472-.867,2.472Z" transform="translate(-1109.465 -8292.818)" fill="#9c9fa2"/>
    </g>
    <g id="Grupo_10319" data-name="Grupo 10319" transform="translate(-7502.289 -3370.906)">
      <path id="Trazado_9646" data-name="Trazado 9646" d="M1117.713,8292.818v5.789h2.314v1.635h-4.246v-7.424Z" transform="translate(-1115.781 -8292.818)" fill="#9c9fa2"/>
    </g>
    <g id="Grupo_10320" data-name="Grupo 10320" transform="translate(-7497.532 -3371.113)">
      <path id="Trazado_9647" data-name="Trazado 9647" d="M1119.272,8296.586a3.821,3.821,0,0,1,2.446-3.619,4.73,4.73,0,0,1,3.314,0,3.939,3.939,0,0,1,1.305.831,3.819,3.819,0,0,1,.852,1.247,4.039,4.039,0,0,1,0,3.081,3.8,3.8,0,0,1-.852,1.247,3.944,3.944,0,0,1-1.305.833,4.73,4.73,0,0,1-3.314,0,3.9,3.9,0,0,1-1.295-.833,3.811,3.811,0,0,1-.846-1.247A3.851,3.851,0,0,1,1119.272,8296.586Zm2.018,0a1.968,1.968,0,0,0,.168.816,2.034,2.034,0,0,0,1.118,1.078,2.152,2.152,0,0,0,2.276-.428,2.03,2.03,0,0,0,.458-.65,2.076,2.076,0,0,0,0-1.634,2.047,2.047,0,0,0-.458-.649,2.156,2.156,0,0,0-2.276-.429,2.043,2.043,0,0,0-1.118,1.078A1.976,1.976,0,0,0,1121.29,8296.586Z" transform="translate(-1119.272 -8292.667)" fill="#9c9fa2"/>
    </g>
    <g id="Grupo_10321" data-name="Grupo 10321" transform="translate(-7488.423 -3371.113)">
      <path id="Trazado_9648" data-name="Trazado 9648" d="M1129.905,8296.143h3.831c0,.394-.016.752-.048,1.073a3.8,3.8,0,0,1-.2.9,3.57,3.57,0,0,1-.563,1.029,3.238,3.238,0,0,1-.831.749,3.967,3.967,0,0,1-1.048.457,4.533,4.533,0,0,1-1.2.158,4.218,4.218,0,0,1-1.581-.286,3.522,3.522,0,0,1-1.225-.8,3.6,3.6,0,0,1-.8-1.24,4.642,4.642,0,0,1,0-3.19,3.508,3.508,0,0,1,.8-1.236,3.619,3.619,0,0,1,1.247-.8,4.39,4.39,0,0,1,1.624-.285,4.045,4.045,0,0,1,2.039.5,3.476,3.476,0,0,1,1.389,1.557l-1.832.759a1.861,1.861,0,0,0-.665-.878,1.671,1.671,0,0,0-.931-.266,1.839,1.839,0,0,0-.788.163,1.715,1.715,0,0,0-.606.462,2.235,2.235,0,0,0-.394.725,2.981,2.981,0,0,0-.143.945,2.949,2.949,0,0,0,.124.876,2,2,0,0,0,.369.7,1.7,1.7,0,0,0,.61.46,2.076,2.076,0,0,0,.848.161,2.516,2.516,0,0,0,.552-.064,1.487,1.487,0,0,0,.477-.207,1.216,1.216,0,0,0,.35-.37,1.5,1.5,0,0,0,.187-.551h-1.586Z" transform="translate(-1125.956 -8292.667)" fill="#9c9fa2"/>
    </g>
    <g id="Grupo_10322" data-name="Grupo 10322" transform="translate(-7479.755 -3371.113)">
      <path id="Trazado_9649" data-name="Trazado 9649" d="M1132.317,8296.586a3.866,3.866,0,0,1,1.151-2.788,3.914,3.914,0,0,1,1.295-.831,4.733,4.733,0,0,1,3.315,0,3.968,3.968,0,0,1,1.306.831,3.911,3.911,0,0,1,0,5.575,3.972,3.972,0,0,1-1.306.833,4.733,4.733,0,0,1-3.315,0,3.919,3.919,0,0,1-1.295-.833,3.866,3.866,0,0,1-1.151-2.787Zm2.018,0a1.968,1.968,0,0,0,.168.816,2.034,2.034,0,0,0,.454.65,2.013,2.013,0,0,0,.665.428,2.148,2.148,0,0,0,2.274-.428,2.026,2.026,0,0,0,.458-.65,2.076,2.076,0,0,0,0-1.634,2.043,2.043,0,0,0-.458-.649,2.154,2.154,0,0,0-2.274-.429,2.053,2.053,0,0,0-1.119,1.078A1.976,1.976,0,0,0,1134.335,8296.586Z" transform="translate(-1132.317 -8292.667)" fill="#9c9fa2"/>
    </g>
    <g id="Grupo_10323" data-name="Grupo 10323" transform="translate(-7470.312 -3370.906)">
      <path id="Trazado_9650" data-name="Trazado 9650" d="M1141.178,8292.818v4.039c0,.216.008.438.025.663a1.8,1.8,0,0,0,.147.616,1,1,0,0,0,.39.447,1.368,1.368,0,0,0,.748.173,1.35,1.35,0,0,0,.744-.173,1.063,1.063,0,0,0,.388-.447,1.775,1.775,0,0,0,.153-.616c.016-.226.024-.447.024-.663v-4.039h1.92v4.3a3.479,3.479,0,0,1-.793,2.534,4.134,4.134,0,0,1-4.88,0,3.474,3.474,0,0,1-.8-2.534v-4.3Z" transform="translate(-1139.247 -8292.818)" fill="#9c9fa2"/>
    </g>
    <g id="Grupo_10324" data-name="Grupo 10324" transform="translate(-7462.621 -3371.113)">
      <path id="Trazado_9651" data-name="Trazado 9651" d="M1149.3,8294.773a2.5,2.5,0,0,0-.631-.381,1.715,1.715,0,0,0-.61-.12,1,1,0,0,0-.61.175.556.556,0,0,0-.236.465.454.454,0,0,0,.117.324.963.963,0,0,0,.311.221,2.676,2.676,0,0,0,.432.164c.162.045.322.1.478.147a2.965,2.965,0,0,1,1.383.842,2.074,2.074,0,0,1,.439,1.375,2.709,2.709,0,0,1-.191,1.033,2.142,2.142,0,0,1-.563.793,2.545,2.545,0,0,1-.906.512,3.745,3.745,0,0,1-1.216.183,4.474,4.474,0,0,1-2.609-.838l.827-1.556a3.382,3.382,0,0,0,.857.572,2.1,2.1,0,0,0,.835.187,1,1,0,0,0,.706-.217.675.675,0,0,0,.172-.783.617.617,0,0,0-.2-.227,1.54,1.54,0,0,0-.359-.192c-.147-.059-.327-.124-.537-.2-.249-.079-.495-.166-.733-.26a2.393,2.393,0,0,1-.642-.378,1.779,1.779,0,0,1-.451-.6,2.084,2.084,0,0,1-.173-.91,2.667,2.667,0,0,1,.181-1,2.245,2.245,0,0,1,.512-.768,2.337,2.337,0,0,1,.808-.5,3.08,3.08,0,0,1,1.07-.176,4.74,4.74,0,0,1,1.152.151,5.107,5.107,0,0,1,1.152.449Z" transform="translate(-1144.891 -8292.667)" fill="#9c9fa2"/>
    </g>
    <g id="Grupo_10326" data-name="Grupo 10326" transform="translate(-7616.681 -3370.905)">
      <path id="Trazado_9652" data-name="Trazado 9652" d="M1035.353,8294.454v5.79h-1.931v-5.79h-1.586v-1.634h5.1v1.634Z" transform="translate(-1031.836 -8292.82)" fill="#9c9fa2"/>
    </g>
    <g id="Grupo_10327" data-name="Grupo 10327" transform="translate(-7610.722 -3370.905)">
      <path id="Trazado_9653" data-name="Trazado 9653" d="M1042.384,8300.244h-2.4l-1.841-2.856v2.856h-1.931v-7.424h3a2.949,2.949,0,0,1,1.082.182,2.04,2.04,0,0,1,1.217,1.226,2.532,2.532,0,0,1,.151.886,2.168,2.168,0,0,1-.409,1.375,2.05,2.05,0,0,1-1.2.714Zm-4.244-4.105h.364a1.409,1.409,0,0,0,.876-.236.909.909,0,0,0,0-1.359,1.409,1.409,0,0,0-.876-.235h-.364Z" transform="translate(-1036.209 -8292.82)" fill="#9c9fa2"/>
    </g>
    <g id="Grupo_10328" data-name="Grupo 10328" transform="translate(-7603.74 -3370.905)">
      <path id="Trazado_9654" data-name="Trazado 9654" d="M1043.264,8292.82v7.424h-1.931v-7.424Z" transform="translate(-1041.333 -8292.82)" fill="#9c9fa2"/>
    </g>
    <g id="Grupo_10329" data-name="Grupo 10329" transform="translate(-7600.964 -3370.905)">
      <path id="Trazado_9655" data-name="Trazado 9655" d="M1048.629,8298.955h-2.757l-.444,1.289h-2.058l2.828-7.424h2.107l2.826,7.424h-2.059Zm-.511-1.468-.867-2.472-.867,2.472Z" transform="translate(-1043.37 -8292.82)" fill="#9c9fa2"/>
    </g>
    <g id="Grupo_10330" data-name="Grupo 10330" transform="translate(-7592.355 -3370.905)">
      <path id="Trazado_9656" data-name="Trazado 9656" d="M1049.687,8292.82h2.856a3.357,3.357,0,0,1,1.423.306,3.838,3.838,0,0,1,1.162.811,3.778,3.778,0,0,1,.782,1.181,3.592,3.592,0,0,1,.286,1.415,3.637,3.637,0,0,1-.281,1.4,3.79,3.79,0,0,1-1.941,2,3.369,3.369,0,0,1-1.432.306h-2.856Zm1.931,5.79h.443a2.36,2.36,0,0,0,.9-.158,1.912,1.912,0,0,0,.665-.433,1.883,1.883,0,0,0,.414-.654,2.354,2.354,0,0,0,.142-.833,2.267,2.267,0,0,0-.147-.827,1.843,1.843,0,0,0-1.084-1.093,2.344,2.344,0,0,0-.886-.158h-.443Z" transform="translate(-1049.687 -8292.82)" fill="#9c9fa2"/>
    </g>
    <g id="Grupo_10332" data-name="Grupo 10332" transform="translate(-7408.435 -3370.906)">
      <path id="Trazado_9657" data-name="Trazado 9657" d="M1188.172,8294.451v5.791h-1.931v-5.791h-1.586v-1.633h5.1v1.633Z" transform="translate(-1184.655 -8292.818)" fill="#9c9fa2"/>
    </g>
    <g id="Grupo_10333" data-name="Grupo 10333" transform="translate(-7402.476 -3370.906)">
      <path id="Trazado_9658" data-name="Trazado 9658" d="M1193.254,8294.451h-2.295v1.243h2.167v1.635h-2.167v1.278h2.295v1.635h-4.226v-7.424h4.226Z" transform="translate(-1189.028 -8292.818)" fill="#9c9fa2"/>
    </g>
    <g id="Grupo_10334" data-name="Grupo 10334" transform="translate(-7397.562 -3370.906)">
      <path id="Trazado_9659" data-name="Trazado 9659" d="M1196.151,8294.451v5.791h-1.931v-5.791h-1.586v-1.633h5.1v1.633Z" transform="translate(-1192.634 -8292.818)" fill="#9c9fa2"/>
    </g>
    <g id="Grupo_10335" data-name="Grupo 10335" transform="translate(-7391.604 -3370.906)">
      <path id="Trazado_9660" data-name="Trazado 9660" d="M1203.181,8300.242h-2.4l-1.841-2.855v2.855h-1.931v-7.424h3a2.989,2.989,0,0,1,1.082.182,2.12,2.12,0,0,1,.765.5,2.083,2.083,0,0,1,.452.727,2.542,2.542,0,0,1,.151.887,2.177,2.177,0,0,1-.407,1.375,2.063,2.063,0,0,1-1.206.714Zm-4.244-4.1h.364a1.406,1.406,0,0,0,.876-.236.91.91,0,0,0,0-1.36,1.419,1.419,0,0,0-.876-.234h-.364Z" transform="translate(-1197.006 -8292.818)" fill="#9c9fa2"/>
    </g>
    <g id="Grupo_10336" data-name="Grupo 10336" transform="translate(-7385.33 -3370.906)">
      <path id="Trazado_9661" data-name="Trazado 9661" d="M1206.867,8298.953h-2.757l-.443,1.289h-2.058l2.826-7.424h2.108l2.826,7.424h-2.059Zm-.511-1.467-.867-2.472-.867,2.472Z" transform="translate(-1201.61 -8292.818)" fill="#9c9fa2"/>
    </g>
    <g id="Grupo_10337" data-name="Grupo 10337" transform="translate(-7376.723 -3370.906)">
      <path id="Trazado_9662" data-name="Trazado 9662" d="M1207.926,8292.818h2.857a3.347,3.347,0,0,1,1.423.306,3.89,3.89,0,0,1,1.162.812,3.817,3.817,0,0,1,.782,1.181,3.642,3.642,0,0,1,0,2.82,3.748,3.748,0,0,1-.778,1.185,3.787,3.787,0,0,1-1.162.816,3.362,3.362,0,0,1-1.431.3h-2.857Zm1.931,5.789h.444a2.371,2.371,0,0,0,.9-.155,1.962,1.962,0,0,0,.664-.433,1.873,1.873,0,0,0,.416-.656,2.378,2.378,0,0,0,.142-.831,2.273,2.273,0,0,0-.149-.829,1.905,1.905,0,0,0-.417-.659,1.927,1.927,0,0,0-.665-.433,2.348,2.348,0,0,0-.886-.16h-.444Z" transform="translate(-1207.926 -8292.818)" fill="#9c9fa2"/>
    </g>
    <g id="Grupo_10338" data-name="Grupo 10338" transform="translate(-7368.981 -3370.906)">
      <path id="Trazado_9663" data-name="Trazado 9663" d="M1215.538,8292.818v7.424h-1.931v-7.424Z" transform="translate(-1213.607 -8292.818)" fill="#9c9fa2"/>
    </g>
    <g id="Grupo_10339" data-name="Grupo 10339" transform="translate(-7365.831 -3371.113)">
      <path id="Trazado_9664" data-name="Trazado 9664" d="M1221.6,8295.354a2.068,2.068,0,0,0-1.656-.817,1.99,1.99,0,0,0-.8.16,1.9,1.9,0,0,0-.636.428,1.982,1.982,0,0,0-.417.645,2.084,2.084,0,0,0-.154.807,2.122,2.122,0,0,0,.154.818,2.02,2.02,0,0,0,.421.651,1.989,1.989,0,0,0,.636.431,1.958,1.958,0,0,0,.789.158,2.236,2.236,0,0,0,1.664-.787v2.285l-.2.07a5.815,5.815,0,0,1-.827.229,3.964,3.964,0,0,1-.759.074,3.892,3.892,0,0,1-2.713-1.107,4.106,4.106,0,0,1-.861-1.25,4.023,4.023,0,0,1-.005-3.152,3.9,3.9,0,0,1,.858-1.232,3.943,3.943,0,0,1,2.732-1.1,4.189,4.189,0,0,1,.871.093,5.374,5.374,0,0,1,.9.292Z" transform="translate(-1215.919 -8292.667)" fill="#9c9fa2"/>
    </g>
    <g id="Grupo_10341" data-name="Grupo 10341" transform="translate(-7951.124 -3370.905)">
      <path id="Trazado_9665" data-name="Trazado 9665" d="M788.34,8300.244h-1.93v-7.424h3.073a2.63,2.63,0,0,1,1.915.648,2.858,2.858,0,0,1,0,3.665,2.631,2.631,0,0,1-1.915.649H788.34Zm0-4.019h.641c.709,0,1.064-.307,1.064-.926s-.356-.925-1.064-.925h-.641Z" transform="translate(-786.41 -8292.82)" fill="#9c9fa2"/>
    </g>
    <g id="Grupo_10342" data-name="Grupo 10342" transform="translate(-7944.448 -3370.905)">
      <path id="Trazado_9666" data-name="Trazado 9666" d="M797.485,8300.244h-2.4l-1.842-2.856v2.856h-1.931v-7.424h3a2.963,2.963,0,0,1,1.083.182,2.043,2.043,0,0,1,1.215,1.226,2.532,2.532,0,0,1,.153.886,2.184,2.184,0,0,1-.408,1.375,2.062,2.062,0,0,1-1.207.714Zm-4.245-4.105h.365a1.412,1.412,0,0,0,.876-.236.909.909,0,0,0,0-1.359,1.412,1.412,0,0,0-.876-.235h-.365Z" transform="translate(-791.309 -8292.82)" fill="#9c9fa2"/>
    </g>
    <g id="Grupo_10343" data-name="Grupo 10343" transform="translate(-7937.466 -3370.905)">
      <path id="Trazado_9667" data-name="Trazado 9667" d="M798.364,8292.82v7.424h-1.931v-7.424Z" transform="translate(-796.433 -8292.82)" fill="#9c9fa2"/>
    </g>
    <g id="Grupo_10344" data-name="Grupo 10344" transform="translate(-7934.314 -3370.905)">
      <path id="Trazado_9668" data-name="Trazado 9668" d="M798.746,8300.244l1.261-7.424h1.91l1.487,3.957,1.477-3.957h1.911l1.26,7.424h-1.92l-.641-4.274-1.752,4.274h-.768l-1.664-4.274-.64,4.274Z" transform="translate(-798.746 -8292.82)" fill="#9c9fa2"/>
    </g>
    <g id="Grupo_10345" data-name="Grupo 10345" transform="translate(-7924.496 -3370.905)">
      <path id="Trazado_9669" data-name="Trazado 9669" d="M811.21,8298.955h-2.757l-.443,1.289h-2.059l2.828-7.424h2.107l2.826,7.424h-2.058Zm-.512-1.468-.865-2.472-.867,2.472Z" transform="translate(-805.951 -8292.82)" fill="#9c9fa2"/>
    </g>
    <g id="Grupo_10346" data-name="Grupo 10346" transform="translate(-7915.889 -3370.905)">
      <path id="Trazado_9670" data-name="Trazado 9670" d="M818.443,8300.244h-2.4l-1.842-2.856v2.856h-1.931v-7.424h3a2.965,2.965,0,0,1,1.085.182,2.053,2.053,0,0,1,1.215,1.226,2.532,2.532,0,0,1,.153.886,2.176,2.176,0,0,1-.409,1.375,2.057,2.057,0,0,1-1.206.714Zm-4.245-4.105h.365a1.411,1.411,0,0,0,.876-.236.909.909,0,0,0,0-1.359,1.411,1.411,0,0,0-.876-.235H814.2Z" transform="translate(-812.267 -8292.82)" fill="#9c9fa2"/>
    </g>
    <g id="Grupo_10347" data-name="Grupo 10347" transform="translate(-7910.176 -3370.905)">
      <path id="Trazado_9671" data-name="Trazado 9671" d="M819.167,8296.68l-2.708-3.859h2.3l1.379,2.027,1.368-2.027h2.306l-2.72,3.859v3.564h-1.93Z" transform="translate(-816.459 -8292.82)" fill="#9c9fa2"/>
    </g>
    <g id="Grupo_10349" data-name="Grupo 10349" transform="translate(-7839.455 -3371.113)">
      <path id="Trazado_9672" data-name="Trazado 9672" d="M872.769,8294.773a2.447,2.447,0,0,0-.631-.381,1.706,1.706,0,0,0-.611-.12,1,1,0,0,0-.61.175.56.56,0,0,0-.236.465.461.461,0,0,0,.117.324.976.976,0,0,0,.311.221,2.637,2.637,0,0,0,.433.164c.161.045.32.1.478.147a2.966,2.966,0,0,1,1.383.842,2.081,2.081,0,0,1,.439,1.375,2.685,2.685,0,0,1-.192,1.033,2.168,2.168,0,0,1-.562.793,2.556,2.556,0,0,1-.906.512,3.756,3.756,0,0,1-1.215.183,4.481,4.481,0,0,1-2.611-.838l.829-1.556a3.374,3.374,0,0,0,.856.572,2.1,2.1,0,0,0,.837.187.993.993,0,0,0,.7-.217.661.661,0,0,0,.232-.492.684.684,0,0,0-.058-.291.643.643,0,0,0-.2-.227,1.6,1.6,0,0,0-.358-.192c-.149-.059-.327-.124-.537-.2-.251-.079-.495-.166-.735-.26a2.361,2.361,0,0,1-.64-.378,1.782,1.782,0,0,1-.452-.6,2.086,2.086,0,0,1-.173-.91,2.637,2.637,0,0,1,.183-1,2.208,2.208,0,0,1,.512-.768,2.312,2.312,0,0,1,.808-.5,3.069,3.069,0,0,1,1.067-.176,4.734,4.734,0,0,1,1.153.151,5.118,5.118,0,0,1,1.153.449Z" transform="translate(-868.357 -8292.667)" fill="#9c9fa2"/>
    </g>
    <g id="Grupo_10350" data-name="Grupo 10350" transform="translate(-7833.092 -3371.113)">
      <path id="Trazado_9673" data-name="Trazado 9673" d="M873.026,8296.586a3.824,3.824,0,0,1,2.447-3.619,4.729,4.729,0,0,1,3.314,0,3.946,3.946,0,0,1,1.3.831,3.8,3.8,0,0,1,.852,1.247,3.857,3.857,0,0,1,.305,1.541,3.96,3.96,0,0,1-.251,1.427,3.623,3.623,0,0,1-.724,1.174l1.26,1.319-1.773.274-.679-.7a4.885,4.885,0,0,1-.921.309,4.61,4.61,0,0,1-1.029.114,4.458,4.458,0,0,1-1.66-.3,3.907,3.907,0,0,1-1.295-.833,3.827,3.827,0,0,1-.848-1.247A3.876,3.876,0,0,1,873.026,8296.586Zm2.019,0a1.965,1.965,0,0,0,.166.816,2.043,2.043,0,0,0,1.119,1.078,2.108,2.108,0,0,0,.8.153,2.226,2.226,0,0,0,.511-.059l-1.1-1.161,1.822-.226.512.54a1.912,1.912,0,0,0,.354-1.143,1.978,1.978,0,0,0-.168-.817,2.022,2.022,0,0,0-.458-.649,2.154,2.154,0,0,0-2.274-.429,2.052,2.052,0,0,0-1.119,1.078A1.973,1.973,0,0,0,875.046,8296.586Z" transform="translate(-873.026 -8292.667)" fill="#9c9fa2"/>
    </g>
    <g id="Grupo_10351" data-name="Grupo 10351" transform="translate(-7823.648 -3370.906)">
      <path id="Trazado_9674" data-name="Trazado 9674" d="M881.887,8292.818v4.039c0,.216.008.438.025.663a1.831,1.831,0,0,0,.147.616,1.018,1.018,0,0,0,.39.447,1.368,1.368,0,0,0,.748.173,1.346,1.346,0,0,0,.744-.173,1.059,1.059,0,0,0,.388-.447,1.738,1.738,0,0,0,.153-.616c.016-.226.024-.447.024-.663v-4.039h1.922v4.3a3.486,3.486,0,0,1-.793,2.534,4.134,4.134,0,0,1-4.88,0,3.468,3.468,0,0,1-.8-2.534v-4.3Z" transform="translate(-879.956 -8292.818)" fill="#9c9fa2"/>
    </g>
    <g id="Grupo_10352" data-name="Grupo 10352" transform="translate(-7816.578 -3370.906)">
      <path id="Trazado_9675" data-name="Trazado 9675" d="M890.4,8298.953h-2.757l-.444,1.289h-2.058l2.828-7.424h2.107l2.826,7.424h-2.058Zm-.512-1.467-.865-2.472-.867,2.472Z" transform="translate(-885.145 -8292.818)" fill="#9c9fa2"/>
    </g>
    <g id="Grupo_10353" data-name="Grupo 10353" transform="translate(-7807.971 -3370.906)">
      <path id="Trazado_9676" data-name="Trazado 9676" d="M897.637,8300.242h-2.4l-1.841-2.855v2.855h-1.931v-7.424h3a3.006,3.006,0,0,1,1.085.182,2.11,2.11,0,0,1,.762.5,2.067,2.067,0,0,1,.454.727,2.577,2.577,0,0,1,.153.887,2.176,2.176,0,0,1-.409,1.375,2.063,2.063,0,0,1-1.206.714Zm-4.245-4.1h.364a1.413,1.413,0,0,0,.878-.236.91.91,0,0,0,0-1.36,1.426,1.426,0,0,0-.878-.234h-.364Z" transform="translate(-891.461 -8292.818)" fill="#9c9fa2"/>
    </g>
    <g id="Grupo_10354" data-name="Grupo 10354" transform="translate(-7800.988 -3370.906)">
      <path id="Trazado_9677" data-name="Trazado 9677" d="M900.811,8294.451h-2.295v1.243h2.167v1.635h-2.167v1.278h2.295v1.635h-4.226v-7.424h4.226Z" transform="translate(-896.585 -8292.818)" fill="#9c9fa2"/>
    </g>
    <g id="Grupo_10356" data-name="Grupo 10356" transform="translate(-7956.489 -3463.127)">
      <path id="Trazado_9678" data-name="Trazado 9678" d="M782.473,8297.588l18.981-72.444,51.975,52.219Zm19.79-69.444-17.612,67.219,65.836-18.765Z" transform="translate(-782.473 -8225.144)" fill="#2b2b2b"/>
    </g>
    <g id="Grupo_10357" data-name="Grupo 10357" transform="translate(-7943.454 -3467.977)">
      <path id="Trazado_9679" data-name="Trazado 9679" d="M803.626,8228.951a5.577,5.577,0,1,1-4.222-6.662A5.576,5.576,0,0,1,803.626,8228.951Z" transform="translate(-791.833 -8221.381)" fill="#fef121"/>
      <path id="Trazado_9680" data-name="Trazado 9680" d="M798.391,8234.284a6.35,6.35,0,0,1-6.2-7.737,6.349,6.349,0,1,1,12.39,2.778h0A6.358,6.358,0,0,1,798.391,8234.284Zm0-11.155a4.8,4.8,0,1,0,4.689,5.858h0a4.809,4.809,0,0,0-3.637-5.74A4.737,4.737,0,0,0,798.389,8223.129Z" transform="translate(-792.039 -8221.585)" fill="#2b2b2b"/>
    </g>
    <g id="Grupo_10358" data-name="Grupo 10358" transform="translate(-7961.749 -3398.145)">
      <path id="Trazado_9681" data-name="Trazado 9681" d="M790.2,8280.194a5.577,5.577,0,1,1-4.222-6.661A5.578,5.578,0,0,1,790.2,8280.194Z" transform="translate(-778.408 -8272.626)" fill="#197ac4"/>
      <path id="Trazado_9682" data-name="Trazado 9682" d="M784.963,8285.529a6.283,6.283,0,0,1-1.39-.154,6.349,6.349,0,1,1,7.583-4.807h0A6.359,6.359,0,0,1,784.963,8285.529Zm0-11.156a4.8,4.8,0,1,0,4.689,5.857h0a4.811,4.811,0,0,0-3.637-5.74A4.743,4.743,0,0,0,784.962,8274.373Z" transform="translate(-778.614 -8272.83)" fill="#2b2b2b"/>
    </g>
    <g id="Grupo_10359" data-name="Grupo 10359" transform="translate(-7893.353 -3417.642)">
      <path id="Trazado_9683" data-name="Trazado 9683" d="M840.39,8265.89a5.577,5.577,0,1,1-4.22-6.663A5.576,5.576,0,0,1,840.39,8265.89Z" transform="translate(-828.599 -8258.317)" fill="#ff4929"/>
      <path id="Trazado_9684" data-name="Trazado 9684" d="M835.154,8271.222a6.349,6.349,0,1,1,6.193-4.957A6.357,6.357,0,0,1,835.154,8271.222Zm0-11.153a4.8,4.8,0,1,0,4.688,5.857h0a4.8,4.8,0,0,0-3.636-5.739A4.687,4.687,0,0,0,835.154,8260.068Z" transform="translate(-828.805 -8258.523)" fill="#2b2b2b"/>
    </g>
    <g id="Grupo_10361" data-name="Grupo 10361" transform="translate(-7739.17 -3451.304)">
      <rect id="Rectngulo_3495" data-name="Rectngulo 3495" width="82.772" height="1.542" transform="translate(0 58.814) rotate(-45.28)" fill="#2b2b2b"/>
    </g>
    <g id="Grupo_10362" data-name="Grupo 10362" transform="translate(-7686.722 -3457.103)">
      <path id="Trazado_9685" data-name="Trazado 9685" d="M988.01,8241.1a5.577,5.577,0,1,1,3.963-6.817A5.577,5.577,0,0,1,988.01,8241.1Z" transform="translate(-980.233 -8229.359)" fill="#f6ac43"/>
      <path id="Trazado_9686" data-name="Trazado 9686" d="M986.79,8242.263a6.353,6.353,0,1,1,1.623-.213h0A6.339,6.339,0,0,1,986.79,8242.263Zm0-11.155a4.859,4.859,0,0,0-1.229.16,4.805,4.805,0,1,0,5.876,3.415A4.817,4.817,0,0,0,986.785,8231.107Z" transform="translate(-980.438 -8229.565)" fill="#2b2b2b"/>
    </g>
    <g id="Grupo_10363" data-name="Grupo 10363" transform="translate(-7744.98 -3398.304)">
      <path id="Trazado_9687" data-name="Trazado 9687" d="M945.259,8284.25a5.577,5.577,0,1,1,3.964-6.818A5.576,5.576,0,0,1,945.259,8284.25Z" transform="translate(-937.48 -8272.509)" fill="#197ac4"/>
      <path id="Trazado_9688" data-name="Trazado 9688" d="M944.039,8285.412a6.359,6.359,0,1,1,1.623-.213A6.359,6.359,0,0,1,944.039,8285.412Zm0-11.157a4.808,4.808,0,1,0,4.647,3.578A4.809,4.809,0,0,0,944.035,8274.255Z" transform="translate(-937.686 -8272.713)" fill="#2b2b2b"/>
    </g>
    <g id="Grupo_10365" data-name="Grupo 10365" transform="translate(-7642.854 -3451.508)">
      <path id="Trazado_9689" data-name="Trazado 9689" d="M1065.885,8304.89l-53.256-51.066,72.126-20.153Zm-50.234-50.308,49.414,47.379,17.508-66.078Z" transform="translate(-1012.629 -8233.67)" fill="#2b2b2b"/>
    </g>
    <g id="Grupo_10366" data-name="Grupo 10366" transform="translate(-7578.169 -3456.756)">
      <path id="Trazado_9690" data-name="Trazado 9690" d="M1067.933,8241.279a5.577,5.577,0,1,1,3.623-7A5.575,5.575,0,0,1,1067.933,8241.279Z" transform="translate(-1059.892 -8229.613)" fill="#f6ac43"/>
      <path id="Trazado_9691" data-name="Trazado 9691" d="M1066.44,8242.523a6.353,6.353,0,1,1,1.932-.3A6.333,6.333,0,0,1,1066.44,8242.523Zm.011-11.158a4.809,4.809,0,0,0-4.584,6.264,4.8,4.8,0,1,0,4.584-6.264Z" transform="translate(-1060.098 -8229.82)" fill="#2b2b2b"/>
    </g>
    <g id="Grupo_10367" data-name="Grupo 10367" transform="translate(-7647.693 -3437.324)">
      <path id="Trazado_9692" data-name="Trazado 9692" d="M1016.913,8255.536a5.576,5.576,0,1,1,3.623-7A5.575,5.575,0,0,1,1016.913,8255.536Z" transform="translate(-1008.874 -8243.875)" fill="#34b534"/>
      <path id="Trazado_9693" data-name="Trazado 9693" d="M1015.421,8256.779a6.358,6.358,0,1,1,1.931-.3h0A6.331,6.331,0,0,1,1015.421,8256.779Zm.011-11.16a4.822,4.822,0,1,0,2.2.542A4.8,4.8,0,0,0,1015.432,8245.619Z" transform="translate(-1009.079 -8244.08)" fill="#2b2b2b"/>
    </g>
    <g id="Grupo_10368" data-name="Grupo 10368" transform="translate(-7596.361 -3388.105)">
      <path id="Trazado_9694" data-name="Trazado 9694" d="M1054.585,8291.658a5.577,5.577,0,1,1,3.623-7.006A5.576,5.576,0,0,1,1054.585,8291.658Z" transform="translate(-1046.542 -8279.992)" fill="#7e38b0"/>
      <path id="Trazado_9695" data-name="Trazado 9695" d="M1053.092,8292.9a6.362,6.362,0,1,1,1.932-.3h0A6.385,6.385,0,0,1,1053.092,8292.9Zm.014-11.157a4.806,4.806,0,1,0,1.451,9.385h0a4.806,4.806,0,0,0-1.451-9.385Z" transform="translate(-1046.748 -8280.197)" fill="#2b2b2b"/>
    </g>
    <g id="Grupo_10382" data-name="Grupo 10382" transform="translate(-7859.767 -3463.003)">
      <g id="Grupo_10370" data-name="Grupo 10370" transform="translate(20.778)">
        <path id="Trazado_9696" data-name="Trazado 9696" d="M889.4,8225.238l-.134,0a41.142,41.142,0,0,0-20.571,5.484l20.7,35.864Z" transform="translate(-868.699 -8225.235)" fill="#fef121"/>
      </g>
      <g id="Grupo_10371" data-name="Grupo 10371" transform="translate(5.578 5.484)">
        <path id="Trazado_9697" data-name="Trazado 9697" d="M872.745,8229.26a41.222,41.222,0,0,0-15.2,15.133l35.906,20.73Z" transform="translate(-857.544 -8229.26)" fill="#8ad21b"/>
      </g>
      <g id="Grupo_10372" data-name="Grupo 10372" transform="translate(41.483 5.6)">
        <path id="Trazado_9698" data-name="Trazado 9698" d="M919.6,8244.479a41.186,41.186,0,0,0-15.066-15.134l-20.638,35.748Z" transform="translate(-883.893 -8229.345)" fill="#f6ac43"/>
      </g>
      <g id="Grupo_10373" data-name="Grupo 10373" transform="translate(41.483 0.003)">
        <path id="Trazado_9699" data-name="Trazado 9699" d="M904.531,8230.834a41.147,41.147,0,0,0-20.638-5.6v41.346Z" transform="translate(-883.893 -8225.237)" fill="#face32"/>
      </g>
      <g id="Grupo_10374" data-name="Grupo 10374" transform="translate(41.483 20.735)">
        <path id="Trazado_9700" data-name="Trazado 9700" d="M925.108,8261.064a41.138,41.138,0,0,0-5.511-20.614l-35.7,20.614Z" transform="translate(-883.893 -8240.45)" fill="#fb7833"/>
      </g>
      <g id="Grupo_10375" data-name="Grupo 10375" transform="translate(0 20.618)">
        <path id="Trazado_9701" data-name="Trazado 9701" d="M859.029,8240.363a41.156,41.156,0,0,0-5.578,20.732h41.484Z" transform="translate(-853.451 -8240.363)" fill="#34b534"/>
      </g>
      <g id="Grupo_10376" data-name="Grupo 10376" transform="translate(5.578 41.348)">
        <path id="Trazado_9702" data-name="Trazado 9702" d="M857.544,8276.307a41.19,41.19,0,0,0,15.2,15.132l20.7-35.861Z" transform="translate(-857.544 -8255.577)" fill="#197ac4"/>
      </g>
      <g id="Grupo_10377" data-name="Grupo 10377" transform="translate(0 41.348)">
        <path id="Trazado_9703" data-name="Trazado 9703" d="M853.451,8255.577a41.14,41.14,0,0,0,5.578,20.729l35.906-20.729Z" transform="translate(-853.451 -8255.577)" fill="#1bb3cf"/>
      </g>
      <g id="Grupo_10378" data-name="Grupo 10378" transform="translate(41.483 41.348)">
        <path id="Trazado_9704" data-name="Trazado 9704" d="M883.893,8255.577l35.7,20.613a41.138,41.138,0,0,0,5.511-20.613Z" transform="translate(-883.893 -8255.577)" fill="#ff4929"/>
      </g>
      <g id="Grupo_10379" data-name="Grupo 10379" transform="translate(41.483 41.348)">
        <path id="Trazado_9705" data-name="Trazado 9705" d="M904.531,8291.322A41.161,41.161,0,0,0,919.6,8276.19l-35.7-20.613Z" transform="translate(-883.893 -8255.577)" fill="#d24499"/>
      </g>
      <g id="Grupo_10380" data-name="Grupo 10380" transform="translate(20.778 41.348)">
        <path id="Trazado_9706" data-name="Trazado 9706" d="M868.7,8291.438a41.144,41.144,0,0,0,20.571,5.486l.134,0v-41.345Z" transform="translate(-868.699 -8255.577)" fill="#525eba"/>
      </g>
      <g id="Grupo_10381" data-name="Grupo 10381" transform="translate(41.483 41.348)">
        <path id="Trazado_9707" data-name="Trazado 9707" d="M883.893,8296.922a41.12,41.12,0,0,0,20.638-5.6l-20.638-35.745Z" transform="translate(-883.893 -8255.577)" fill="#7e38b0"/>
      </g>
    </g>
    <g id="Grupo_10383" data-name="Grupo 10383" transform="translate(-7848.24 -3452.062)">
      <path id="Trazado_9708" data-name="Trazado 9708" d="M921.824,8293.178H861.91v-59.914h59.914Zm-58.37-1.544H920.28v-56.826H863.454Z" transform="translate(-861.91 -8233.264)" fill="#2b2b2b"/>
    </g>
    <g id="Grupo_10384" data-name="Grupo 10384" transform="translate(-7795.448 -3399.266)">
      <path id="Trazado_9709" data-name="Trazado 9709" d="M908.223,8283.54a5.577,5.577,0,1,1,3.963-6.819A5.577,5.577,0,0,1,908.223,8283.54Z" transform="translate(-900.445 -8271.803)" fill="#d24499"/>
      <path id="Trazado_9710" data-name="Trazado 9710" d="M906.989,8284.7a6.372,6.372,0,1,1,1.637-.215A6.308,6.308,0,0,1,906.989,8284.7Zm.009-11.157a4.806,4.806,0,1,0,4.155,7.22,4.762,4.762,0,0,0,.491-3.645A4.813,4.813,0,0,0,907,8273.547Z" transform="translate(-900.65 -8272.007)" fill="#2b2b2b"/>
    </g>
    <g id="Grupo_10385" data-name="Grupo 10385" transform="translate(-7795.448 -3457.638)">
      <path id="Trazado_9711" data-name="Trazado 9711" d="M908.223,8240.706a5.577,5.577,0,1,1,3.963-6.819A5.578,5.578,0,0,1,908.223,8240.706Z" transform="translate(-900.445 -8228.968)" fill="#f6ac43"/>
      <path id="Trazado_9712" data-name="Trazado 9712" d="M906.989,8241.871a6.372,6.372,0,1,1,1.637-.215A6.308,6.308,0,0,1,906.989,8241.871Zm.009-11.157a4.805,4.805,0,1,0,4.645,3.575A4.768,4.768,0,0,0,907,8230.714Z" transform="translate(-900.65 -8229.172)" fill="#2b2b2b"/>
    </g>
    <g id="Grupo_10386" data-name="Grupo 10386" transform="translate(-7853.818 -3457.638)">
      <path id="Trazado_9713" data-name="Trazado 9713" d="M865.389,8240.706a5.577,5.577,0,1,1,3.963-6.819A5.578,5.578,0,0,1,865.389,8240.706Z" transform="translate(-857.611 -8228.968)" fill="#8ad21b"/>
      <path id="Trazado_9714" data-name="Trazado 9714" d="M864.167,8241.869a6.358,6.358,0,1,1,1.624-.213h0A6.308,6.308,0,0,1,864.167,8241.869Zm0-11.155a4.805,4.805,0,1,0,4.645,3.575A4.768,4.768,0,0,0,864.165,8230.714Z" transform="translate(-857.816 -8229.172)" fill="#2b2b2b"/>
    </g>
    <g id="Grupo_10387" data-name="Grupo 10387" transform="translate(-7853.818 -3399.266)">
      <path id="Trazado_9715" data-name="Trazado 9715" d="M865.389,8283.54a5.577,5.577,0,1,1,3.963-6.819A5.577,5.577,0,0,1,865.389,8283.54Z" transform="translate(-857.611 -8271.803)" fill="#197ac4"/>
      <path id="Trazado_9716" data-name="Trazado 9716" d="M864.167,8284.7a6.365,6.365,0,1,1,1.624-.214h0A6.31,6.31,0,0,1,864.167,8284.7Zm0-11.156a4.806,4.806,0,1,0,4.155,7.22,4.762,4.762,0,0,0,.491-3.645A4.813,4.813,0,0,0,864.165,8273.547Z" transform="translate(-857.816 -8272.007)" fill="#2b2b2b"/>
    </g>
    <path id="Trazado_9717" data-name="Trazado 9717" d="M1199.444,8306.673l-16.968-71.734,38.18-9.031,16.97,71.733Zm-15.111-70.59,16.257,68.733,35.178-8.321-16.257-68.731Z" transform="translate(-8593.88 -11687.994)" fill="#2b2b2b"/>
    <path id="Trazado_9718" data-name="Trazado 9718" d="M1185.346,8239.294a5.576,5.576,0,1,1,3.964-6.817A5.573,5.573,0,0,1,1185.346,8239.294Z" transform="translate(-8595.38 -11687.117)" fill="#8ad21b"/>
    <path id="Trazado_9719" data-name="Trazado 9719" d="M1184.126,8240.459a6.353,6.353,0,1,1,1.623-.213A6.362,6.362,0,0,1,1184.126,8240.459Zm.005-11.157a4.81,4.81,0,1,0,2.408.653A4.791,4.791,0,0,0,1184.131,8229.3Z" transform="translate(-8595.585 -11687.323)" fill="#2b2b2b"/>
    <path id="Trazado_9720" data-name="Trazado 9720" d="M1213.195,8233.245a5.577,5.577,0,1,1,3.964-6.819A5.58,5.58,0,0,1,1213.195,8233.245Z" transform="translate(-8585.279 -11689.311)" fill="#face32"/>
    <path id="Trazado_9721" data-name="Trazado 9721" d="M1211.973,8234.408a6.358,6.358,0,1,1,1.624-.213h0A6.439,6.439,0,0,1,1211.973,8234.408Zm.007-11.158a4.856,4.856,0,0,0-1.239.164,4.8,4.8,0,0,0,2.461,9.289h0a4.808,4.808,0,0,0-1.223-9.453Z" transform="translate(-8585.484 -11689.516)" fill="#2b2b2b"/>
    <path id="Trazado_9722" data-name="Trazado 9722" d="M1225.511,8284.082a5.577,5.577,0,1,1,3.964-6.819A5.577,5.577,0,0,1,1225.511,8284.082Z" transform="translate(-8580.813 -11670.872)" fill="#d24499"/>
    <path id="Trazado_9723" data-name="Trazado 9723" d="M1224.29,8285.245a6.354,6.354,0,1,1,1.623-.213A6.36,6.36,0,0,1,1224.29,8285.245Zm0-11.155a4.8,4.8,0,1,0,4.648,3.575A4.805,4.805,0,0,0,1224.286,8274.09Z" transform="translate(-8581.018 -11671.077)" fill="#2b2b2b"/>
    <path id="Trazado_9724" data-name="Trazado 9724" d="M1197.743,8291.992a5.576,5.576,0,1,1,3.963-6.818A5.577,5.577,0,0,1,1197.743,8291.992Z" transform="translate(-8590.884 -11668.004)" fill="#525eba"/>
    <path id="Trazado_9725" data-name="Trazado 9725" d="M1196.511,8293.158a6.35,6.35,0,0,1-1.615-12.488,6.349,6.349,0,1,1,1.615,12.488Zm.018-11.16a4.836,4.836,0,0,0-1.237.164,4.755,4.755,0,1,0,1.237-.164Z" transform="translate(-8591.09 -11668.208)" fill="#2b2b2b"/>
  </g>
</svg>
