<svg xmlns="http://www.w3.org/2000/svg" width="292" height="255" viewBox="0 0 292 255">
  <g id="Grupo_73297" data-name="Grupo 73297" transform="translate(7772 6454)">
    <path id="Trazado_117692" data-name="Trazado 117692" d="M20,0H272a20,20,0,0,1,20,20V235a20,20,0,0,1-20,20H20A20,20,0,0,1,0,235V20A20,20,0,0,1,20,0Z" transform="translate(-7772 -6454)" fill="#f6f6f6"/>
    <path id="Trazado_117703" data-name="Trazado 117703" d="M70.554,0A70.554,70.554,0,1,1,0,70.554,70.554,70.554,0,0,1,70.554,0Z" transform="translate(-7658.265 -6425)" fill="#5dc182"/>
    <path id="Trazado_117704" data-name="Trazado 117704" d="M70.554,0A70.554,70.554,0,1,1,0,70.554,70.554,70.554,0,0,1,70.554,0Z" transform="translate(-7730.668 -6425)" fill="#ffe063"/>
    <g id="Grupo_9988" data-name="Grupo 9988" transform="translate(-8070 -11883.238)">
      <path id="Trazado_7085" data-name="Trazado 7085" d="M389.675,5629.662l-1.535-3.633H383.2l-1.518,3.633h-1.45l4.875-11.469h1.206l4.849,11.469Zm-1.982-4.828-1.434-3.539c-.186-.449-.377-1-.573-1.649a13.982,13.982,0,0,1-.532,1.649l-1.45,3.539Z" fill="#14233a"/>
      <path id="Trazado_7086" data-name="Trazado 7086" d="M404.426,5629.662v-5.57a2.194,2.194,0,0,0-.472-1.536,1.91,1.91,0,0,0-1.468-.511,2.465,2.465,0,0,0-1.931.7,3.131,3.131,0,0,0-.624,2.141v4.781h-1.4v-5.57a2.2,2.2,0,0,0-.472-1.536,1.922,1.922,0,0,0-1.476-.511,2.376,2.376,0,0,0-1.928.73,3.736,3.736,0,0,0-.611,2.4v4.492h-1.4V5621.1h1.138l.228,1.172h.068a2.665,2.665,0,0,1,1.117-.976,3.631,3.631,0,0,1,1.615-.352,2.787,2.787,0,0,1,2.834,1.453h.068a2.855,2.855,0,0,1,1.2-1.062,3.954,3.954,0,0,1,1.788-.391,3.288,3.288,0,0,1,2.35.746,3.179,3.179,0,0,1,.78,2.387v5.586Z" fill="#14233a"/>
      <path id="Trazado_7087" data-name="Trazado 7087" d="M414.4,5629.662l-.279-1.219h-.067a3.844,3.844,0,0,1-1.379,1.09,4.519,4.519,0,0,1-1.716.285,3.253,3.253,0,0,1-2.156-.656,2.3,2.3,0,0,1-.779-1.867q0-2.595,4.478-2.719l1.569-.047V5624a2.063,2.063,0,0,0-.468-1.488,2.014,2.014,0,0,0-1.5-.481,6.492,6.492,0,0,0-2.615.656l-.43-.992a6.9,6.9,0,0,1,1.5-.539,6.993,6.993,0,0,1,1.632-.195,3.712,3.712,0,0,1,2.45.679,2.714,2.714,0,0,1,.8,2.18v5.844Zm-3.163-.914a2.985,2.985,0,0,0,2.054-.664,2.362,2.362,0,0,0,.746-1.86v-.773l-1.4.055a5.429,5.429,0,0,0-2.408.48,1.424,1.424,0,0,0-.738,1.324,1.29,1.29,0,0,0,.46,1.071A2.008,2.008,0,0,0,411.233,5628.748Z" fill="#14233a"/>
      <path id="Trazado_7088" data-name="Trazado 7088" d="M422.535,5620.943a5.862,5.862,0,0,1,1.105.094l-.194,1.2a5.13,5.13,0,0,0-1.012-.117,2.545,2.545,0,0,0-1.919.844,2.941,2.941,0,0,0-.8,2.1v4.594h-1.4V5621.1h1.156l.16,1.586h.067a3.889,3.889,0,0,1,1.24-1.289A2.951,2.951,0,0,1,422.535,5620.943Z" fill="#14233a"/>
      <path id="Trazado_7089" data-name="Trazado 7089" d="M425.251,5618.779a.82.82,0,0,1,.236-.652.926.926,0,0,1,1.172,0,.809.809,0,0,1,.245.648.823.823,0,0,1-.245.652.849.849,0,0,1-.582.215.781.781,0,0,1-.826-.867Zm1.518,10.883h-1.4V5621.1h1.4Z" fill="#14233a"/>
      <path id="Trazado_7090" data-name="Trazado 7090" d="M431.138,5629.662h-1.4v-12.156h1.4Z" fill="#14233a"/>
      <path id="Trazado_7091" data-name="Trazado 7091" d="M435.507,5629.662h-1.4v-12.156h1.4Z" fill="#14233a"/>
      <path id="Trazado_7092" data-name="Trazado 7092" d="M446.455,5625.373a4.5,4.5,0,0,1-1.139,3.269,4.172,4.172,0,0,1-3.146,1.176,4.419,4.419,0,0,1-2.2-.539,3.666,3.666,0,0,1-1.485-1.547,5.049,5.049,0,0,1-.523-2.359,4.5,4.5,0,0,1,1.13-3.262,4.168,4.168,0,0,1,3.138-1.168,4.067,4.067,0,0,1,3.083,1.2A4.486,4.486,0,0,1,446.455,5625.373Zm-7.043,0a3.847,3.847,0,0,0,.708,2.5,2.966,2.966,0,0,0,4.171,0,3.829,3.829,0,0,0,.713-2.5,3.768,3.768,0,0,0-.713-2.481,2.593,2.593,0,0,0-2.1-.847,2.552,2.552,0,0,0-2.075.836A3.8,3.8,0,0,0,439.412,5625.373Z" fill="#14233a"/>
      <path id="Trazado_7093" data-name="Trazado 7093" d="M457.42,5623.482h3.474v1.078H457.42v3.328h-1.173v-3.328h-3.458v-1.078h3.458v-3.344h1.173Z" fill="#14233a"/>
      <path id="Trazado_7094" data-name="Trazado 7094" d="M469.784,5629.662l-3.508-8.563h1.5l1.99,5.078a22.5,22.5,0,0,1,.793,2.313h.068a16.517,16.517,0,0,1,.586-1.715q.494-1.3,2.214-5.676h1.5l-3.508,8.563Z" fill="#14233a"/>
      <path id="Trazado_7095" data-name="Trazado 7095" d="M480.318,5629.818a4.435,4.435,0,0,1-3.234-1.156,4.28,4.28,0,0,1-1.185-3.211,4.721,4.721,0,0,1,1.1-3.289,3.782,3.782,0,0,1,2.956-1.219A3.623,3.623,0,0,1,482.7,5622a3.872,3.872,0,0,1,1.012,2.793v.82h-6.368a3.239,3.239,0,0,0,.823,2.289,2.967,2.967,0,0,0,2.2.781,7.94,7.94,0,0,0,2.952-.578v1.156a7.78,7.78,0,0,1-1.4.426A8.516,8.516,0,0,1,480.318,5629.818Zm-.379-7.789a2.38,2.38,0,0,0-1.776.672,2.976,2.976,0,0,0-.78,1.859h4.833a2.712,2.712,0,0,0-.59-1.879A2.162,2.162,0,0,0,479.939,5622.029Z" fill="#14233a"/>
      <path id="Trazado_7096" data-name="Trazado 7096" d="M490.321,5620.943a5.854,5.854,0,0,1,1.1.094l-.194,1.2a5.13,5.13,0,0,0-1.012-.117,2.545,2.545,0,0,0-1.919.844,2.94,2.94,0,0,0-.8,2.1v4.594h-1.4V5621.1h1.156l.16,1.586h.067a3.889,3.889,0,0,1,1.24-1.289A2.954,2.954,0,0,1,490.321,5620.943Z" fill="#14233a"/>
      <path id="Trazado_7097" data-name="Trazado 7097" d="M499.447,5628.513h-.075a3.384,3.384,0,0,1-2.9,1.3,3.556,3.556,0,0,1-2.821-1.148,4.8,4.8,0,0,1-1.008-3.266,4.873,4.873,0,0,1,1.012-3.289,3.525,3.525,0,0,1,2.817-1.172,3.466,3.466,0,0,1,2.885,1.266h.109l-.059-.617-.033-.6v-3.484h1.4v12.156h-1.139Zm-2.8.219a2.66,2.66,0,0,0,2.079-.722,3.456,3.456,0,0,0,.646-2.333v-.273a4.058,4.058,0,0,0-.654-2.6,2.582,2.582,0,0,0-2.088-.777,2.2,2.2,0,0,0-1.885.887,4.163,4.163,0,0,0-.654,2.5,3.987,3.987,0,0,0,.65,2.476A2.264,2.264,0,0,0,496.647,5628.732Z" fill="#14233a"/>
      <path id="Trazado_7098" data-name="Trazado 7098" d="M507.646,5629.818a4.436,4.436,0,0,1-3.235-1.156,4.28,4.28,0,0,1-1.185-3.211,4.721,4.721,0,0,1,1.1-3.289,3.784,3.784,0,0,1,2.956-1.219,3.622,3.622,0,0,1,2.749,1.059,3.872,3.872,0,0,1,1.013,2.793v.82h-6.369a3.243,3.243,0,0,0,.823,2.289,2.968,2.968,0,0,0,2.2.781,7.937,7.937,0,0,0,2.952-.578v1.156a7.779,7.779,0,0,1-1.4.426A8.5,8.5,0,0,1,507.646,5629.818Zm-.38-7.789a2.382,2.382,0,0,0-1.776.672,2.97,2.97,0,0,0-.779,1.859h4.832a2.712,2.712,0,0,0-.59-1.879A2.162,2.162,0,0,0,507.266,5622.029Z" fill="#14233a"/>
    </g>
    <path id="Trazado_117708" data-name="Trazado 117708" d="M0,0H168.249V19.966H0Z" transform="translate(-7708.037 -6247.388)" fill="#cdd448"/>
    <g id="Grupo_9990" data-name="Grupo 9990" transform="translate(-8070 -11883.238)">
      <path id="Trazado_7099" data-name="Trazado 7099" d="M387.149,5652.024l-1.536-3.633h-4.942l-1.518,3.633H377.7l4.875-11.469h1.206l4.85,11.469Zm-1.982-4.828-1.434-3.54q-.279-.67-.574-1.648a13.867,13.867,0,0,1-.531,1.648l-1.451,3.54Z"/>
      <path id="Trazado_7100" data-name="Trazado 7100" d="M401.9,5652.024v-5.571a2.2,2.2,0,0,0-.472-1.535,1.908,1.908,0,0,0-1.468-.512,2.466,2.466,0,0,0-1.931.7,3.125,3.125,0,0,0-.625,2.14v4.782h-1.4v-5.571a2.2,2.2,0,0,0-.473-1.535,1.92,1.92,0,0,0-1.476-.512,2.374,2.374,0,0,0-1.927.731,3.726,3.726,0,0,0-.611,2.394v4.493h-1.4v-8.563h1.139l.228,1.172h.067a2.693,2.693,0,0,1,1.118-.977,3.643,3.643,0,0,1,1.615-.351,2.788,2.788,0,0,1,2.834,1.453h.067a2.864,2.864,0,0,1,1.2-1.062,3.954,3.954,0,0,1,1.788-.391,3.286,3.286,0,0,1,2.349.746,3.181,3.181,0,0,1,.78,2.387v5.586Z"/>
      <path id="Trazado_7101" data-name="Trazado 7101" d="M411.869,5652.024l-.278-1.219h-.067a3.831,3.831,0,0,1-1.379,1.09,4.508,4.508,0,0,1-1.717.285,3.252,3.252,0,0,1-2.155-.656,2.306,2.306,0,0,1-.78-1.868q0-2.594,4.479-2.718l1.569-.047v-.531a2.065,2.065,0,0,0-.469-1.489,2.016,2.016,0,0,0-1.5-.48,6.486,6.486,0,0,0-2.614.656l-.431-.992a6.914,6.914,0,0,1,1.5-.539,7,7,0,0,1,1.633-.2,3.714,3.714,0,0,1,2.45.679,2.718,2.718,0,0,1,.8,2.18v5.844Zm-3.162-.914a2.98,2.98,0,0,0,2.053-.664,2.36,2.36,0,0,0,.747-1.86v-.773l-1.4.054a5.423,5.423,0,0,0-2.408.481,1.422,1.422,0,0,0-.738,1.324,1.286,1.286,0,0,0,.46,1.07A2,2,0,0,0,408.707,5651.11Z"/>
      <path id="Trazado_7102" data-name="Trazado 7102" d="M420.009,5643.305a5.865,5.865,0,0,1,1.105.094l-.194,1.2a5.138,5.138,0,0,0-1.012-.117,2.546,2.546,0,0,0-1.919.843,2.945,2.945,0,0,0-.8,2.1v4.594h-1.4v-8.563h1.155l.161,1.586h.067a3.884,3.884,0,0,1,1.24-1.289A2.951,2.951,0,0,1,420.009,5643.305Z"/>
      <path id="Trazado_7103" data-name="Trazado 7103" d="M422.724,5641.141a.823.823,0,0,1,.237-.652.924.924,0,0,1,1.172,0,.812.812,0,0,1,.245.649.821.821,0,0,1-.245.652.849.849,0,0,1-.582.215.782.782,0,0,1-.827-.867Zm1.519,10.883h-1.4v-8.563h1.4Z"/>
      <path id="Trazado_7104" data-name="Trazado 7104" d="M428.612,5652.024h-1.4v-12.157h1.4Z"/>
      <path id="Trazado_7105" data-name="Trazado 7105" d="M432.981,5652.024h-1.4v-12.157h1.4Z"/>
      <path id="Trazado_7106" data-name="Trazado 7106" d="M443.928,5647.735A4.506,4.506,0,0,1,442.79,5651a4.176,4.176,0,0,1-3.146,1.176,4.431,4.431,0,0,1-2.2-.539,3.666,3.666,0,0,1-1.484-1.547,5.051,5.051,0,0,1-.523-2.359,4.5,4.5,0,0,1,1.13-3.262,4.163,4.163,0,0,1,3.138-1.168,4.062,4.062,0,0,1,3.082,1.195A4.486,4.486,0,0,1,443.928,5647.735Zm-7.043,0a3.847,3.847,0,0,0,.709,2.5,2.965,2.965,0,0,0,4.171,0,3.827,3.827,0,0,0,.713-2.5,3.768,3.768,0,0,0-.713-2.481,2.6,2.6,0,0,0-2.105-.848,2.551,2.551,0,0,0-2.074.836A3.805,3.805,0,0,0,436.885,5647.735Z"/>
      <path id="Trazado_7107" data-name="Trazado 7107" d="M452.894,5652.024l-3.509-8.563h1.5l1.99,5.078a22.864,22.864,0,0,1,.793,2.313h.067a16.613,16.613,0,0,1,.587-1.715q.492-1.3,2.214-5.676h1.5l-3.509,8.563Z"/>
      <path id="Trazado_7108" data-name="Trazado 7108" d="M463.428,5652.18a4.436,4.436,0,0,1-3.235-1.156,4.279,4.279,0,0,1-1.185-3.211,4.727,4.727,0,0,1,1.1-3.289,3.786,3.786,0,0,1,2.957-1.219,3.625,3.625,0,0,1,2.749,1.059,3.871,3.871,0,0,1,1.012,2.792v.821h-6.368a3.237,3.237,0,0,0,.823,2.289,2.966,2.966,0,0,0,2.2.781,7.949,7.949,0,0,0,2.952-.578v1.156a7.8,7.8,0,0,1-1.4.426A8.452,8.452,0,0,1,463.428,5652.18Zm-.38-7.789a2.379,2.379,0,0,0-1.775.672,2.98,2.98,0,0,0-.78,1.859h4.833a2.707,2.707,0,0,0-.591-1.879A2.16,2.16,0,0,0,463.048,5644.391Z"/>
      <path id="Trazado_7109" data-name="Trazado 7109" d="M473.432,5643.305a5.864,5.864,0,0,1,1.1.094l-.195,1.2a5.121,5.121,0,0,0-1.011-.117,2.546,2.546,0,0,0-1.919.843,2.941,2.941,0,0,0-.8,2.1v4.594h-1.4v-8.563h1.156l.16,1.586h.068a3.884,3.884,0,0,1,1.24-1.289A2.951,2.951,0,0,1,473.432,5643.305Z"/>
      <path id="Trazado_7110" data-name="Trazado 7110" d="M482.557,5650.875h-.075a3.386,3.386,0,0,1-2.9,1.305,3.554,3.554,0,0,1-2.821-1.149,4.792,4.792,0,0,1-1.008-3.265,4.874,4.874,0,0,1,1.012-3.289,3.525,3.525,0,0,1,2.817-1.172,3.462,3.462,0,0,1,2.884,1.266h.11l-.059-.618-.033-.6v-3.485h1.4v12.157h-1.138Zm-2.8.219a2.658,2.658,0,0,0,2.079-.723,3.452,3.452,0,0,0,.646-2.332v-.273a4.059,4.059,0,0,0-.654-2.6,2.582,2.582,0,0,0-2.088-.777,2.2,2.2,0,0,0-1.885.887,4.161,4.161,0,0,0-.654,2.5,3.987,3.987,0,0,0,.65,2.477A2.264,2.264,0,0,0,479.757,5651.094Z"/>
      <path id="Trazado_7111" data-name="Trazado 7111" d="M494.829,5647.735a4.506,4.506,0,0,1-1.138,3.269,4.178,4.178,0,0,1-3.146,1.176,4.431,4.431,0,0,1-2.2-.539,3.666,3.666,0,0,1-1.484-1.547,5.051,5.051,0,0,1-.523-2.359,4.5,4.5,0,0,1,1.13-3.262,4.163,4.163,0,0,1,3.138-1.168,4.063,4.063,0,0,1,3.082,1.195A4.486,4.486,0,0,1,494.829,5647.735Zm-7.043,0a3.847,3.847,0,0,0,.709,2.5,2.965,2.965,0,0,0,4.171,0,3.827,3.827,0,0,0,.713-2.5,3.768,3.768,0,0,0-.713-2.481,2.6,2.6,0,0,0-2.1-.848,2.555,2.555,0,0,0-2.075.836A3.811,3.811,0,0,0,487.786,5647.735Z"/>
      <path id="Trazado_7112" data-name="Trazado 7112" d="M503.247,5649.688a2.092,2.092,0,0,1-.962,1.843,4.784,4.784,0,0,1-2.7.649,6.269,6.269,0,0,1-2.868-.539v-1.2a7.308,7.308,0,0,0,1.43.492,6.418,6.418,0,0,0,1.471.18,3.554,3.554,0,0,0,1.687-.325,1.071,1.071,0,0,0,.122-1.843,7.6,7.6,0,0,0-1.826-.84,10.233,10.233,0,0,1-1.834-.778,2.412,2.412,0,0,1-.81-.753,1.856,1.856,0,0,1-.266-1.008,1.885,1.885,0,0,1,.92-1.653,4.547,4.547,0,0,1,2.522-.6,7.883,7.883,0,0,1,2.918.562l-.5,1.055a7.148,7.148,0,0,0-2.522-.531,3.1,3.1,0,0,0-1.5.289.885.885,0,0,0-.506.8.918.918,0,0,0,.19.586,1.849,1.849,0,0,0,.611.461,14.117,14.117,0,0,0,1.62.632,6.216,6.216,0,0,1,2.222,1.118A1.892,1.892,0,0,1,503.247,5649.688Z"/>
      <path id="Trazado_7113" data-name="Trazado 7113" d="M513.5,5647.735a4.5,4.5,0,0,1-1.139,3.269,4.175,4.175,0,0,1-3.146,1.176,4.429,4.429,0,0,1-2.2-.539,3.674,3.674,0,0,1-1.485-1.547,5.063,5.063,0,0,1-.523-2.359,4.494,4.494,0,0,1,1.131-3.262,4.162,4.162,0,0,1,3.137-1.168,4.065,4.065,0,0,1,3.083,1.195A4.486,4.486,0,0,1,513.5,5647.735Zm-7.043,0a3.841,3.841,0,0,0,.709,2.5,2.964,2.964,0,0,0,4.17,0,3.821,3.821,0,0,0,.713-2.5,3.763,3.763,0,0,0-.713-2.481,2.593,2.593,0,0,0-2.1-.848,2.553,2.553,0,0,0-2.075.836A3.805,3.805,0,0,0,506.46,5647.735Z"/>
    </g>
    <path id="Trazado_117709" data-name="Trazado 117709" d="M34.352,0C53.324,0,68.7,27.113,68.7,60.559s-15.38,60.559-34.352,60.559S0,94.006,0,60.559,15.38,0,34.352,0Z" transform="translate(-7658.265 -6415.006)" fill="#ebd837"/>
  </g>
</svg>
