<svg xmlns="http://www.w3.org/2000/svg" width="342.895" height="893.708" viewBox="0 0 342.895 893.708">
  <g id="Grupo_73285" data-name="Grupo 73285" transform="translate(-1012 -6095.692)">
    <rect id="Rectángulo_3576" data-name="Rectángulo 3576" width="331.987" height="880.425" transform="translate(1012.001 6095.692)" fill="#d8e6e9"/>
    <path id="Trazado_11562" data-name="Trazado 11562" d="M1284.518,7838.882l5.721-22.884h-14.453l-57.209,85.513-24.69,2.409v20.475l34.024-5.119,37.939-29.207Z" transform="translate(64.656 -934.994)" fill="#1c72b0"/>
    <rect id="Rectángulo_3577" data-name="Rectángulo 3577" width="331.987" height="880.425" transform="translate(1012 6095.726)" fill="#f6f6f6"/>
    <text id="La_funcionalidad_es_entonces_la_característica_relacionada_con_la_prestación_del_servicio_del_vestuario_en_relación_a_Acción-cuerpo-Tecnología_brinda_la_condición_que_expresa_la_satisfacción_de_confort_y_ergonomía_en_el_ajuste_perfecto_al_cuerpo_donde_m" data-name="La funcionalidad, es entonces la característica relacionada con la prestación del servicio del vestuario en relación a Acción-cuerpo-Tecnología, brinda la condición que expresa la satisfacción de confort y ergonomía en el ajuste perfecto al cuerpo, donde m" transform="translate(1049.268 6119.877)" fill="#14233a" font-size="16" font-family="Roboto-Regular, Roboto"><tspan x="0" y="17">La funcionalidad, es entonces la </tspan><tspan x="0" y="39">característica relacionada con la </tspan><tspan x="0" y="61">prestación del servicio del vestuario </tspan><tspan x="0" y="83">en relación a </tspan><tspan y="83" fill="#bf3976">Acción-cuerpo-</tspan><tspan x="0" y="105" fill="#bf3976">Tecnología, </tspan><tspan y="105">brinda la condición que </tspan><tspan x="0" y="127">expresa la satisfacción de confort y </tspan><tspan x="0" y="149">ergonomía en el ajuste perfecto al </tspan><tspan x="0" y="171">cuerpo, donde moldee </tspan><tspan x="0" y="193">perfectamente a la talla para la que </tspan><tspan x="0" y="215">fue diseñada. (Baquero &amp; Baena, </tspan><tspan x="0" y="237">2007, Victoriano, 2011)</tspan></text>
    <path id="Trazado_11662" data-name="Trazado 11662" d="M1290.239,7816v108.4h-96.352Z" transform="translate(64.656 -934.994)" fill="#339ce9"/>
    <g id="Grupo_73060" data-name="Grupo 73060" transform="translate(66.486 346.779)">
      <ellipse id="Elipse_213" data-name="Elipse 213" cx="115.537" cy="16.333" rx="115.537" ry="16.333" transform="translate(1009.159 6555.756)" fill="#a8ccd5"/>
      <g id="Grupo_11589" data-name="Grupo 11589" transform="translate(1088.769 6176.782)">
        <path id="Trazado_13196" data-name="Trazado 13196" d="M1148.353,6921.441c-19.079.256-21.053,13.412-26.609,45s-7.017,53.647-6.14,53.647,85.088-7.451,85.088-7.451-1.754-4.7-13.45-39.454S1170.574,6921.144,1148.353,6921.441Z" transform="translate(-1070.197 -6921.438)" fill="#d16652"/>
        <g id="Grupo_11586" data-name="Grupo 11586" transform="translate(45.492 0)" opacity="0.8">
          <path id="Trazado_13197" data-name="Trazado 13197" d="M1171.016,6939.3a2.576,2.576,0,1,0,2.526,2.576A2.551,2.551,0,0,0,1171.016,6939.3Z" transform="translate(-1120.272 -6922.979)" fill="#fff"/>
          <path id="Trazado_13198" data-name="Trazado 13198" d="M1173.1,6946.575a2.527,2.527,0,1,0,2.526-2.575A2.551,2.551,0,0,0,1173.1,6946.575Z" transform="translate(-1120.669 -6923.385)" fill="#fff"/>
          <path id="Trazado_13199" data-name="Trazado 13199" d="M1166.408,6934.606a2.575,2.575,0,1,0,2.526,2.575A2.551,2.551,0,0,0,1166.408,6934.606Z" transform="translate(-1119.874 -6922.574)" fill="#fff"/>
          <path id="Trazado_13200" data-name="Trazado 13200" d="M1177.706,6941.9a2.552,2.552,0,0,0,2.526,2.575,2.46,2.46,0,0,0,1.287-.371q-1.091-2.435-2.222-4.593A2.573,2.573,0,0,0,1177.706,6941.9Z" transform="translate(-1121.067 -6922.998)" fill="#fff"/>
          <path id="Trazado_13201" data-name="Trazado 13201" d="M1161.8,6929.909a2.575,2.575,0,1,0,2.526,2.575A2.552,2.552,0,0,0,1161.8,6929.909Z" transform="translate(-1119.476 -6922.169)" fill="#fff"/>
          <path id="Trazado_13202" data-name="Trazado 13202" d="M1154.665,6927.787a2.527,2.527,0,1,0,2.526-2.574A2.552,2.552,0,0,0,1154.665,6927.787Z" transform="translate(-1119.079 -6921.764)" fill="#fff"/>
          <path id="Trazado_13203" data-name="Trazado 13203" d="M1201.685,7001.007a2.579,2.579,0,0,0-.937,1.988,2.549,2.549,0,0,0,2.489,2.571C1202.766,7004.183,1202.25,7002.667,1201.685,7001.007Z" transform="translate(-1123.054 -6928.303)" fill="#fff"/>
          <path id="Trazado_13204" data-name="Trazado 13204" d="M1129.688,6939.769a2.575,2.575,0,0,0,.787-5.009,47.281,47.281,0,0,0-1.758,4.811A2.477,2.477,0,0,0,1129.688,6939.769Z" transform="translate(-1116.84 -6922.588)" fill="#fff"/>
          <path id="Trazado_13205" data-name="Trazado 13205" d="M1152.583,6925.745a2.552,2.552,0,0,0,2.527-2.575,2.583,2.583,0,0,0-.586-1.63c-1.023-.072-2.074-.113-3.179-.1-.22,0-.427.017-.642.023a2.583,2.583,0,0,0-.647,1.706A2.552,2.552,0,0,0,1152.583,6925.745Z" transform="translate(-1118.681 -6921.438)" fill="#fff"/>
          <path id="Trazado_13206" data-name="Trazado 13206" d="M1182.759,6988.848a2.527,2.527,0,1,0-2.526,2.575A2.552,2.552,0,0,0,1182.759,6988.848Z" transform="translate(-1121.067 -6927.032)" fill="#fff"/>
          <path id="Trazado_13207" data-name="Trazado 13207" d="M1184.841,6996.12a2.575,2.575,0,1,0-2.526-2.575A2.551,2.551,0,0,0,1184.841,6996.12Z" transform="translate(-1121.464 -6927.437)" fill="#fff"/>
          <path id="Trazado_13208" data-name="Trazado 13208" d="M1175.624,6996.12a2.575,2.575,0,1,0-2.526-2.575A2.552,2.552,0,0,0,1175.624,6996.12Z" transform="translate(-1120.669 -6927.437)" fill="#fff"/>
          <path id="Trazado_13209" data-name="Trazado 13209" d="M1173.543,6988.848a2.527,2.527,0,1,0-2.526,2.575A2.552,2.552,0,0,0,1173.543,6988.848Z" transform="translate(-1120.272 -6927.032)" fill="#fff"/>
          <path id="Trazado_13210" data-name="Trazado 13210" d="M1196.585,7002.939a2.527,2.527,0,1,0-2.526,2.575A2.552,2.552,0,0,0,1196.585,7002.939Z" transform="translate(-1122.259 -6928.248)" fill="#fff"/>
          <path id="Trazado_13211" data-name="Trazado 13211" d="M1198.666,7010.21a2.575,2.575,0,1,0-2.526-2.575A2.551,2.551,0,0,0,1198.666,7010.21Z" transform="translate(-1122.657 -6928.653)" fill="#fff"/>
          <path id="Trazado_13212" data-name="Trazado 13212" d="M1189.449,7010.21a2.575,2.575,0,1,0-2.526-2.575A2.552,2.552,0,0,0,1189.449,7010.21Z" transform="translate(-1121.862 -6928.653)" fill="#fff"/>
          <path id="Trazado_13213" data-name="Trazado 13213" d="M1182.315,7002.939a2.526,2.526,0,1,0,2.526-2.575A2.551,2.551,0,0,0,1182.315,7002.939Z" transform="translate(-1121.464 -6928.248)" fill="#fff"/>
          <path id="Trazado_13214" data-name="Trazado 13214" d="M1132.067,6974.757a2.526,2.526,0,1,0-2.525,2.575A2.55,2.55,0,0,0,1132.067,6974.757Z" transform="translate(-1116.693 -6925.816)" fill="#fff"/>
          <path id="Trazado_13215" data-name="Trazado 13215" d="M1136.676,6960.667a2.527,2.527,0,1,0-2.526,2.574A2.552,2.552,0,0,0,1136.676,6960.667Z" transform="translate(-1117.091 -6924.601)" fill="#fff"/>
          <path id="Trazado_13216" data-name="Trazado 13216" d="M1136.676,6941.879a2.527,2.527,0,1,0-2.526,2.575A2.551,2.551,0,0,0,1136.676,6941.879Z" transform="translate(-1117.091 -6922.979)" fill="#fff"/>
          <path id="Trazado_13217" data-name="Trazado 13217" d="M1136.676,6970.06a2.527,2.527,0,1,0-2.526,2.575A2.551,2.551,0,0,0,1136.676,6970.06Z" transform="translate(-1117.091 -6925.411)" fill="#fff"/>
          <path id="Trazado_13218" data-name="Trazado 13218" d="M1136.676,6951.272a2.527,2.527,0,1,0-2.526,2.575A2.551,2.551,0,0,0,1136.676,6951.272Z" transform="translate(-1117.091 -6923.79)" fill="#fff"/>
          <path id="Trazado_13219" data-name="Trazado 13219" d="M1120.381,6996.12a2.575,2.575,0,0,0,0-5.149,2.481,2.481,0,0,0-1.409.438c-.186,1.287-.36,2.541-.529,3.771A2.492,2.492,0,0,0,1120.381,6996.12Z" transform="translate(-1115.954 -6927.437)" fill="#fff"/>
          <path id="Trazado_13220" data-name="Trazado 13220" d="M1127.71,6951.3a2.573,2.573,0,0,0-1.4-2.293q-.507,2.309-1,4.854A2.548,2.548,0,0,0,1127.71,6951.3Z" transform="translate(-1116.547 -6923.817)" fill="#fff"/>
          <path id="Trazado_13221" data-name="Trazado 13221" d="M1127.015,6946.575a2.526,2.526,0,1,0,2.526-2.575A2.551,2.551,0,0,0,1127.015,6946.575Z" transform="translate(-1116.693 -6923.385)" fill="#fff"/>
          <path id="Trazado_13222" data-name="Trazado 13222" d="M1132.067,6955.969a2.526,2.526,0,1,0-2.525,2.575A2.55,2.55,0,0,0,1132.067,6955.969Z" transform="translate(-1116.693 -6924.195)" fill="#fff"/>
          <path id="Trazado_13223" data-name="Trazado 13223" d="M1123.14,6974.794a2.577,2.577,0,0,0-1.2-2.183q-.413,2.388-.8,4.7A2.565,2.565,0,0,0,1123.14,6974.794Z" transform="translate(-1116.187 -6925.853)" fill="#fff"/>
          <path id="Trazado_13224" data-name="Trazado 13224" d="M1123.3,6965.579a2.768,2.768,0,0,0-.028-.29c-.085.48-.171.964-.257,1.455A2.586,2.586,0,0,0,1123.3,6965.579Z" transform="translate(-1116.349 -6925.222)" fill="#fff"/>
          <path id="Trazado_13225" data-name="Trazado 13225" d="M1127.459,6970.06a2.551,2.551,0,0,0-2.526-2.575,2.525,2.525,0,0,0-2.362,1.685c-.054.308-.107.609-.161.919a2.525,2.525,0,1,0,5.049-.029Z" transform="translate(-1116.296 -6925.411)" fill="#fff"/>
          <path id="Trazado_13226" data-name="Trazado 13226" d="M1123.014,6984.151a2.552,2.552,0,0,0-2.526-2.575c-.013,0-.026,0-.038,0q-.407,2.552-.777,5a2.433,2.433,0,0,0,.815.149A2.552,2.552,0,0,0,1123.014,6984.151Z" transform="translate(-1116.06 -6926.626)" fill="#fff"/>
          <path id="Trazado_13227" data-name="Trazado 13227" d="M1127.459,6979.455a2.527,2.527,0,1,0-2.526,2.574A2.552,2.552,0,0,0,1127.459,6979.455Z" transform="translate(-1116.296 -6926.221)" fill="#fff"/>
          <path id="Trazado_13228" data-name="Trazado 13228" d="M1125.04,6963.241a2.575,2.575,0,0,0,0-5.15,2.486,2.486,0,0,0-.539.063c-.277,1.5-.558,3.055-.844,4.664A2.476,2.476,0,0,0,1125.04,6963.241Z" transform="translate(-1116.404 -6924.601)" fill="#fff"/>
          <path id="Trazado_13229" data-name="Trazado 13229" d="M1132.067,6965.363a2.526,2.526,0,1,0-2.525,2.576A2.55,2.55,0,0,0,1132.067,6965.363Z" transform="translate(-1116.693 -6925.006)" fill="#fff"/>
          <path id="Trazado_13230" data-name="Trazado 13230" d="M1189.449,6991.423a2.575,2.575,0,1,0-2.526-2.575A2.552,2.552,0,0,0,1189.449,6991.423Z" transform="translate(-1121.862 -6927.032)" fill="#fff"/>
          <path id="Trazado_13231" data-name="Trazado 13231" d="M1182.315,6965.363a2.526,2.526,0,1,0,2.526-2.575A2.551,2.551,0,0,0,1182.315,6965.363Z" transform="translate(-1121.464 -6925.006)" fill="#fff"/>
          <path id="Trazado_13232" data-name="Trazado 13232" d="M1180.232,6958.091a2.575,2.575,0,1,0,2.526,2.576A2.552,2.552,0,0,0,1180.232,6958.091Z" transform="translate(-1121.067 -6924.601)" fill="#fff"/>
          <path id="Trazado_13233" data-name="Trazado 13233" d="M1173.1,6965.363a2.527,2.527,0,1,0,2.526-2.575A2.551,2.551,0,0,0,1173.1,6965.363Z" transform="translate(-1120.669 -6925.006)" fill="#fff"/>
          <path id="Trazado_13234" data-name="Trazado 13234" d="M1188.973,6963.28c-.491-1.428-.975-2.821-1.452-4.17a2.575,2.575,0,0,0,1.452,4.17Z" transform="translate(-1121.862 -6924.688)" fill="#fff"/>
          <path id="Trazado_13235" data-name="Trazado 13235" d="M1171.016,6958.091a2.575,2.575,0,1,0,2.526,2.576A2.552,2.552,0,0,0,1171.016,6958.091Z" transform="translate(-1120.272 -6924.601)" fill="#fff"/>
          <path id="Trazado_13236" data-name="Trazado 13236" d="M1175.624,6986.726a2.575,2.575,0,1,0-2.526-2.575A2.552,2.552,0,0,0,1175.624,6986.726Z" transform="translate(-1120.669 -6926.626)" fill="#fff"/>
          <path id="Trazado_13237" data-name="Trazado 13237" d="M1168.49,6970.06a2.527,2.527,0,1,0,2.526-2.575A2.551,2.551,0,0,0,1168.49,6970.06Z" transform="translate(-1120.272 -6925.411)" fill="#fff"/>
          <path id="Trazado_13238" data-name="Trazado 13238" d="M1168.49,6979.455a2.527,2.527,0,1,0,2.526-2.576A2.551,2.551,0,0,0,1168.49,6979.455Z" transform="translate(-1120.272 -6926.221)" fill="#fff"/>
          <path id="Trazado_13239" data-name="Trazado 13239" d="M1182.759,6979.455a2.527,2.527,0,1,0-2.526,2.574A2.552,2.552,0,0,0,1182.759,6979.455Z" transform="translate(-1121.067 -6926.221)" fill="#fff"/>
          <path id="Trazado_13240" data-name="Trazado 13240" d="M1189.449,6982.029a2.576,2.576,0,1,0-2.526-2.574A2.552,2.552,0,0,0,1189.449,6982.029Z" transform="translate(-1121.862 -6926.221)" fill="#fff"/>
          <path id="Trazado_13241" data-name="Trazado 13241" d="M1184.841,6977.332a2.575,2.575,0,1,0-2.526-2.575A2.551,2.551,0,0,0,1184.841,6977.332Z" transform="translate(-1121.464 -6925.816)" fill="#fff"/>
          <path id="Trazado_13242" data-name="Trazado 13242" d="M1175.624,6972.182a2.575,2.575,0,1,0,2.527,2.575A2.551,2.551,0,0,0,1175.624,6972.182Z" transform="translate(-1120.669 -6925.816)" fill="#fff"/>
          <path id="Trazado_13243" data-name="Trazado 13243" d="M1186.923,6970.06a2.552,2.552,0,0,0,2.526,2.575,2.51,2.51,0,0,0,2.073-1.108c-.448-1.331-.887-2.638-1.318-3.912a2.462,2.462,0,0,0-.755-.13A2.552,2.552,0,0,0,1186.923,6970.06Z" transform="translate(-1121.862 -6925.411)" fill="#fff"/>
          <path id="Trazado_13244" data-name="Trazado 13244" d="M1198.465,6991.467q-.714-2.112-1.5-4.446a2.582,2.582,0,0,0-.825,1.892A2.548,2.548,0,0,0,1198.465,6991.467Z" transform="translate(-1122.657 -6927.096)" fill="#fff"/>
          <path id="Trazado_13245" data-name="Trazado 13245" d="M1194.058,6986.726a2.508,2.508,0,0,0,2.149-1.238q-.609-1.8-1.26-3.739a2.463,2.463,0,0,0-.889-.173,2.575,2.575,0,0,0,0,5.15Z" transform="translate(-1122.259 -6926.626)" fill="#fff"/>
          <path id="Trazado_13246" data-name="Trazado 13246" d="M1193.722,6977.369c-.5-1.484-.984-2.927-1.461-4.348a2.59,2.59,0,0,0-.729,1.808A2.549,2.549,0,0,0,1193.722,6977.369Z" transform="translate(-1122.259 -6925.889)" fill="#fff"/>
          <path id="Trazado_13247" data-name="Trazado 13247" d="M1166.408,6977.332a2.575,2.575,0,1,0-2.526-2.575A2.551,2.551,0,0,0,1166.408,6977.332Z" transform="translate(-1119.874 -6925.816)" fill="#fff"/>
          <path id="Trazado_13248" data-name="Trazado 13248" d="M1166.408,6944a2.576,2.576,0,1,0,2.526,2.575A2.551,2.551,0,0,0,1166.408,6944Z" transform="translate(-1119.874 -6923.385)" fill="#fff"/>
          <path id="Trazado_13249" data-name="Trazado 13249" d="M1166.408,6958.543a2.575,2.575,0,1,0-2.526-2.575A2.551,2.551,0,0,0,1166.408,6958.543Z" transform="translate(-1119.874 -6924.195)" fill="#fff"/>
          <path id="Trazado_13250" data-name="Trazado 13250" d="M1171.016,6948.7a2.575,2.575,0,1,0,2.526,2.575A2.551,2.551,0,0,0,1171.016,6948.7Z" transform="translate(-1120.272 -6923.79)" fill="#fff"/>
          <path id="Trazado_13251" data-name="Trazado 13251" d="M1166.408,6996.12a2.575,2.575,0,1,0-2.526-2.575A2.551,2.551,0,0,0,1166.408,6996.12Z" transform="translate(-1119.874 -6927.437)" fill="#fff"/>
          <path id="Trazado_13252" data-name="Trazado 13252" d="M1166.408,6967.938a2.576,2.576,0,1,0-2.526-2.576A2.551,2.551,0,0,0,1166.408,6967.938Z" transform="translate(-1119.874 -6925.006)" fill="#fff"/>
          <path id="Trazado_13253" data-name="Trazado 13253" d="M1166.408,6986.726a2.575,2.575,0,1,0-2.526-2.575A2.551,2.551,0,0,0,1166.408,6986.726Z" transform="translate(-1119.874 -6926.626)" fill="#fff"/>
          <path id="Trazado_13254" data-name="Trazado 13254" d="M1173.1,6955.969a2.527,2.527,0,1,0,2.526-2.575A2.551,2.551,0,0,0,1173.1,6955.969Z" transform="translate(-1120.669 -6924.195)" fill="#fff"/>
          <path id="Trazado_13255" data-name="Trazado 13255" d="M1177.706,6951.272a2.527,2.527,0,1,0,2.526-2.575A2.552,2.552,0,0,0,1177.706,6951.272Z" transform="translate(-1121.067 -6923.79)" fill="#fff"/>
          <path id="Trazado_13256" data-name="Trazado 13256" d="M1186.923,6998.243a2.527,2.527,0,1,0,2.526-2.576A2.552,2.552,0,0,0,1186.923,6998.243Z" transform="translate(-1121.862 -6927.842)" fill="#fff"/>
          <path id="Trazado_13257" data-name="Trazado 13257" d="M1184.841,6986.726a2.575,2.575,0,1,0-2.526-2.575A2.551,2.551,0,0,0,1184.841,6986.726Z" transform="translate(-1121.464 -6926.626)" fill="#fff"/>
          <path id="Trazado_13258" data-name="Trazado 13258" d="M1196.585,6993.545a2.527,2.527,0,1,0-2.526,2.575A2.552,2.552,0,0,0,1196.585,6993.545Z" transform="translate(-1122.259 -6927.437)" fill="#fff"/>
          <path id="Trazado_13259" data-name="Trazado 13259" d="M1127.459,6988.848a2.527,2.527,0,1,0-2.526,2.575A2.551,2.551,0,0,0,1127.459,6988.848Z" transform="translate(-1116.296 -6927.032)" fill="#fff"/>
          <path id="Trazado_13260" data-name="Trazado 13260" d="M1183.79,6949.073c-.439-1.094-.88-2.16-1.323-3.184a2.557,2.557,0,0,0,1.323,3.184Z" transform="translate(-1121.464 -6923.548)" fill="#fff"/>
          <path id="Trazado_13261" data-name="Trazado 13261" d="M1198.666,7000.817a2.514,2.514,0,0,0,2.238-1.4q-.562-1.66-1.189-3.507a2.462,2.462,0,0,0-1.049-.239,2.575,2.575,0,0,0,0,5.15Z" transform="translate(-1122.657 -6927.842)" fill="#fff"/>
          <path id="Trazado_13262" data-name="Trazado 13262" d="M1182.315,6955.969a2.55,2.55,0,0,0,2.526,2.575,2.492,2.492,0,0,0,1.925-.926q-.772-2.159-1.531-4.183a2.476,2.476,0,0,0-2.92,2.535Z" transform="translate(-1121.464 -6924.195)" fill="#fff"/>
          <path id="Trazado_13263" data-name="Trazado 13263" d="M1182.759,6970.06a2.527,2.527,0,1,0-2.526,2.575A2.552,2.552,0,0,0,1182.759,6970.06Z" transform="translate(-1121.067 -6925.411)" fill="#fff"/>
          <path id="Trazado_13264" data-name="Trazado 13264" d="M1147.975,6990.97a2.575,2.575,0,1,0,2.525,2.575A2.551,2.551,0,0,0,1147.975,6990.97Z" transform="translate(-1118.284 -6927.437)" fill="#fff"/>
          <path id="Trazado_13265" data-name="Trazado 13265" d="M1147.975,6962.788a2.576,2.576,0,1,0,2.525,2.575A2.551,2.551,0,0,0,1147.975,6962.788Z" transform="translate(-1118.284 -6925.006)" fill="#fff"/>
          <path id="Trazado_13266" data-name="Trazado 13266" d="M1147.975,6972.182a2.575,2.575,0,1,0,2.525,2.575A2.551,2.551,0,0,0,1147.975,6972.182Z" transform="translate(-1118.284 -6925.816)" fill="#fff"/>
          <path id="Trazado_13267" data-name="Trazado 13267" d="M1147.975,6981.576a2.575,2.575,0,1,0,2.525,2.575A2.551,2.551,0,0,0,1147.975,6981.576Z" transform="translate(-1118.284 -6926.626)" fill="#fff"/>
          <path id="Trazado_13268" data-name="Trazado 13268" d="M1147.975,6953.394a2.575,2.575,0,1,0,2.525,2.575A2.551,2.551,0,0,0,1147.975,6953.394Z" transform="translate(-1118.284 -6924.195)" fill="#fff"/>
          <path id="Trazado_13269" data-name="Trazado 13269" d="M1147.975,6944a2.576,2.576,0,1,0,2.525,2.575A2.552,2.552,0,0,0,1147.975,6944Z" transform="translate(-1118.284 -6923.385)" fill="#fff"/>
          <path id="Trazado_13270" data-name="Trazado 13270" d="M1157.192,6949.15a2.576,2.576,0,1,0-2.526-2.575A2.551,2.551,0,0,0,1157.192,6949.15Z" transform="translate(-1119.079 -6923.385)" fill="#fff"/>
          <path id="Trazado_13271" data-name="Trazado 13271" d="M1164.326,6941.879a2.527,2.527,0,1,0-2.526,2.575A2.552,2.552,0,0,0,1164.326,6941.879Z" transform="translate(-1119.476 -6922.979)" fill="#fff"/>
          <path id="Trazado_13272" data-name="Trazado 13272" d="M1155.11,6941.879a2.527,2.527,0,1,0-2.527,2.575A2.552,2.552,0,0,0,1155.11,6941.879Z" transform="translate(-1118.681 -6922.979)" fill="#fff"/>
          <path id="Trazado_13273" data-name="Trazado 13273" d="M1129.542,7000.364a2.575,2.575,0,1,0,2.525,2.575A2.551,2.551,0,0,0,1129.542,7000.364Z" transform="translate(-1116.693 -6928.248)" fill="#fff"/>
          <path id="Trazado_13274" data-name="Trazado 13274" d="M1129.542,7009.758a2.575,2.575,0,1,0,2.525,2.575A2.551,2.551,0,0,0,1129.542,7009.758Z" transform="translate(-1116.693 -6929.058)" fill="#fff"/>
          <path id="Trazado_13275" data-name="Trazado 13275" d="M1147.975,7005.514a2.575,2.575,0,1,0-2.527-2.575A2.55,2.55,0,0,0,1147.975,7005.514Z" transform="translate(-1118.284 -6928.248)" fill="#fff"/>
          <path id="Trazado_13276" data-name="Trazado 13276" d="M1129.542,7024.3a2.576,2.576,0,1,0-2.526-2.575A2.551,2.551,0,0,0,1129.542,7024.3Z" transform="translate(-1116.693 -6929.868)" fill="#fff"/>
          <path id="Trazado_13277" data-name="Trazado 13277" d="M1145.893,6998.243a2.527,2.527,0,1,0-2.526,2.574A2.552,2.552,0,0,0,1145.893,6998.243Z" transform="translate(-1117.886 -6927.842)" fill="#fff"/>
          <path id="Trazado_13278" data-name="Trazado 13278" d="M1138.758,7005.514a2.575,2.575,0,1,0-2.526-2.575A2.552,2.552,0,0,0,1138.758,7005.514Z" transform="translate(-1117.489 -6928.248)" fill="#fff"/>
          <path id="Trazado_13279" data-name="Trazado 13279" d="M1136.676,6998.243a2.527,2.527,0,1,0-2.526,2.574A2.551,2.551,0,0,0,1136.676,6998.243Z" transform="translate(-1117.091 -6927.842)" fill="#fff"/>
          <path id="Trazado_13280" data-name="Trazado 13280" d="M1173.543,6998.243a2.527,2.527,0,1,0-2.526,2.574A2.552,2.552,0,0,0,1173.543,6998.243Z" transform="translate(-1120.272 -6927.842)" fill="#fff"/>
          <path id="Trazado_13281" data-name="Trazado 13281" d="M1166.408,6925.213a2.581,2.581,0,1,0,1.891.886q-.554-.4-1.13-.754A2.484,2.484,0,0,0,1166.408,6925.213Z" transform="translate(-1119.874 -6921.764)" fill="#fff"/>
          <path id="Trazado_13282" data-name="Trazado 13282" d="M1205.618,7013.278c-.321-.932-.681-1.981-1.086-3.167a2.468,2.468,0,0,0-1.257-.354,2.575,2.575,0,0,0,0,5.15A2.523,2.523,0,0,0,1205.618,7013.278Z" transform="translate(-1123.054 -6929.058)" fill="#fff"/>
          <path id="Trazado_13283" data-name="Trazado 13283" d="M1118.461,7017.032a2.547,2.547,0,0,0-2.3-2.551c-.18,1.876-.328,3.585-.442,5.1.072.006.142.022.216.022A2.552,2.552,0,0,0,1118.461,7017.032Z" transform="translate(-1115.719 -6929.465)" fill="#fff"/>
          <path id="Trazado_13284" data-name="Trazado 13284" d="M1173.1,6937.181a2.52,2.52,0,0,0,5.008.455q-.864-1.535-1.769-2.913a2.461,2.461,0,0,0-.713-.117A2.551,2.551,0,0,0,1173.1,6937.181Z" transform="translate(-1120.669 -6922.574)" fill="#fff"/>
          <path id="Trazado_13285" data-name="Trazado 13285" d="M1168.49,6932.484a2.527,2.527,0,1,0,2.526-2.575A2.551,2.551,0,0,0,1168.49,6932.484Z" transform="translate(-1120.272 -6922.169)" fill="#fff"/>
          <path id="Trazado_13286" data-name="Trazado 13286" d="M1203.274,7019.151a2.551,2.551,0,0,0-2.525,2.567l5.006-.442A2.536,2.536,0,0,0,1203.274,7019.151Z" transform="translate(-1123.055 -6929.868)" fill="#fff"/>
          <path id="Trazado_13287" data-name="Trazado 13287" d="M1196.585,7021.727a2.527,2.527,0,1,0-4.939.726l4.91-.433A2.6,2.6,0,0,0,1196.585,7021.727Z" transform="translate(-1122.259 -6929.868)" fill="#fff"/>
          <path id="Trazado_13288" data-name="Trazado 13288" d="M1187.367,7021.727a2.526,2.526,0,1,0-5.052,0,2.6,2.6,0,0,0,.432,1.441l4.394-.388A2.611,2.611,0,0,0,1187.367,7021.727Z" transform="translate(-1121.464 -6929.868)" fill="#fff"/>
          <path id="Trazado_13289" data-name="Trazado 13289" d="M1166.408,7005.514a2.575,2.575,0,1,0-2.526-2.575A2.551,2.551,0,0,0,1166.408,7005.514Z" transform="translate(-1119.874 -6928.248)" fill="#fff"/>
          <path id="Trazado_13290" data-name="Trazado 13290" d="M1175.624,7005.514a2.575,2.575,0,1,0-2.526-2.575A2.552,2.552,0,0,0,1175.624,7005.514Z" transform="translate(-1120.669 -6928.248)" fill="#fff"/>
          <path id="Trazado_13291" data-name="Trazado 13291" d="M1182.759,6998.243a2.527,2.527,0,1,0-2.526,2.574A2.552,2.552,0,0,0,1182.759,6998.243Z" transform="translate(-1121.067 -6927.842)" fill="#fff"/>
          <path id="Trazado_13292" data-name="Trazado 13292" d="M1127.459,7017.03a2.527,2.527,0,1,0-2.526,2.575A2.551,2.551,0,0,0,1127.459,7017.03Z" transform="translate(-1116.296 -6929.463)" fill="#fff"/>
          <path id="Trazado_13293" data-name="Trazado 13293" d="M1198.666,7019.6a2.575,2.575,0,1,0-2.526-2.575A2.551,2.551,0,0,0,1198.666,7019.6Z" transform="translate(-1122.657 -6929.463)" fill="#fff"/>
          <path id="Trazado_13294" data-name="Trazado 13294" d="M1196.585,7012.333a2.527,2.527,0,1,0-2.526,2.575A2.552,2.552,0,0,0,1196.585,7012.333Z" transform="translate(-1122.259 -6929.058)" fill="#fff"/>
          <path id="Trazado_13295" data-name="Trazado 13295" d="M1189.449,7019.6a2.575,2.575,0,1,0-2.526-2.575A2.552,2.552,0,0,0,1189.449,7019.6Z" transform="translate(-1121.862 -6929.463)" fill="#fff"/>
          <path id="Trazado_13296" data-name="Trazado 13296" d="M1184.841,7014.908a2.575,2.575,0,1,0-2.526-2.575A2.551,2.551,0,0,0,1184.841,7014.908Z" transform="translate(-1121.464 -6929.058)" fill="#fff"/>
          <path id="Trazado_13297" data-name="Trazado 13297" d="M1141.285,6955.969a2.527,2.527,0,1,0-2.526,2.575A2.552,2.552,0,0,0,1141.285,6955.969Z" transform="translate(-1117.489 -6924.195)" fill="#fff"/>
          <path id="Trazado_13298" data-name="Trazado 13298" d="M1134.149,6935.059a2.575,2.575,0,0,0,0-5.149,2.467,2.467,0,0,0-1.271.362,25.088,25.088,0,0,0-1.252,2.182c0,.011,0,.021,0,.031A2.552,2.552,0,0,0,1134.149,6935.059Z" transform="translate(-1117.091 -6922.169)" fill="#fff"/>
          <path id="Trazado_13299" data-name="Trazado 13299" d="M1150.5,6927.787a2.526,2.526,0,1,0-2.525,2.576A2.55,2.55,0,0,0,1150.5,6927.787Z" transform="translate(-1118.284 -6921.764)" fill="#fff"/>
          <path id="Trazado_13300" data-name="Trazado 13300" d="M1143.367,6925.787a2.552,2.552,0,0,0,2.526-2.575,2.582,2.582,0,0,0-.355-1.3,19.834,19.834,0,0,0-4.688,1.389A2.545,2.545,0,0,0,1143.367,6925.787Z" transform="translate(-1117.887 -6921.479)" fill="#fff"/>
          <path id="Trazado_13301" data-name="Trazado 13301" d="M1145.893,6932.484a2.527,2.527,0,1,0-2.526,2.575A2.552,2.552,0,0,0,1145.893,6932.484Z" transform="translate(-1117.886 -6922.169)" fill="#fff"/>
          <path id="Trazado_13302" data-name="Trazado 13302" d="M1118.639,6998.352a2.6,2.6,0,0,0-.422-1.422c-.154,1.144-.3,2.254-.439,3.343A2.576,2.576,0,0,0,1118.639,6998.352Z" transform="translate(-1115.897 -6927.951)" fill="#fff"/>
          <path id="Trazado_13303" data-name="Trazado 13303" d="M1138.758,6930.363a2.575,2.575,0,1,0-2.526-2.576A2.552,2.552,0,0,0,1138.758,6930.363Z" transform="translate(-1117.489 -6921.764)" fill="#fff"/>
          <path id="Trazado_13304" data-name="Trazado 13304" d="M1124.932,7010.21a2.575,2.575,0,1,0-2.526-2.575A2.551,2.551,0,0,0,1124.932,7010.21Z" transform="translate(-1116.296 -6928.653)" fill="#fff"/>
          <path id="Trazado_13305" data-name="Trazado 13305" d="M1120.325,7005.514a2.575,2.575,0,1,0-2.526-2.575A2.552,2.552,0,0,0,1120.325,7005.514Z" transform="translate(-1115.898 -6928.248)" fill="#fff"/>
          <path id="Trazado_13306" data-name="Trazado 13306" d="M1138.758,6986.726a2.575,2.575,0,1,0-2.526-2.575A2.552,2.552,0,0,0,1138.758,6986.726Z" transform="translate(-1117.489 -6926.626)" fill="#fff"/>
          <path id="Trazado_13307" data-name="Trazado 13307" d="M1141.285,6937.181a2.527,2.527,0,1,0-2.526,2.575A2.552,2.552,0,0,0,1141.285,6937.181Z" transform="translate(-1117.489 -6922.574)" fill="#fff"/>
          <path id="Trazado_13308" data-name="Trazado 13308" d="M1127.459,6998.243a2.527,2.527,0,1,0-2.526,2.574A2.551,2.551,0,0,0,1127.459,6998.243Z" transform="translate(-1116.296 -6927.842)" fill="#fff"/>
          <path id="Trazado_13309" data-name="Trazado 13309" d="M1136.676,6979.455a2.527,2.527,0,1,0-2.526,2.574A2.552,2.552,0,0,0,1136.676,6979.455Z" transform="translate(-1117.091 -6926.221)" fill="#fff"/>
          <path id="Trazado_13310" data-name="Trazado 13310" d="M1141.285,6974.757a2.527,2.527,0,1,0-2.526,2.575A2.552,2.552,0,0,0,1141.285,6974.757Z" transform="translate(-1117.489 -6925.816)" fill="#fff"/>
          <path id="Trazado_13311" data-name="Trazado 13311" d="M1141.285,6965.363a2.527,2.527,0,1,0-2.526,2.576A2.552,2.552,0,0,0,1141.285,6965.363Z" transform="translate(-1117.489 -6925.006)" fill="#fff"/>
          <path id="Trazado_13312" data-name="Trazado 13312" d="M1141.285,6946.575a2.527,2.527,0,1,0-2.526,2.575A2.552,2.552,0,0,0,1141.285,6946.575Z" transform="translate(-1117.489 -6923.385)" fill="#fff"/>
          <path id="Trazado_13313" data-name="Trazado 13313" d="M1132.067,6984.151a2.526,2.526,0,1,0-2.525,2.575A2.55,2.55,0,0,0,1132.067,6984.151Z" transform="translate(-1116.693 -6926.626)" fill="#fff"/>
          <path id="Trazado_13314" data-name="Trazado 13314" d="M1145.893,6979.455a2.527,2.527,0,1,0-2.526,2.574A2.552,2.552,0,0,0,1145.893,6979.455Z" transform="translate(-1117.886 -6926.221)" fill="#fff"/>
          <path id="Trazado_13315" data-name="Trazado 13315" d="M1145.893,6941.879a2.527,2.527,0,1,0-2.526,2.575A2.552,2.552,0,0,0,1145.893,6941.879Z" transform="translate(-1117.886 -6922.979)" fill="#fff"/>
          <path id="Trazado_13316" data-name="Trazado 13316" d="M1157.192,6939.756a2.575,2.575,0,1,0-2.526-2.575A2.551,2.551,0,0,0,1157.192,6939.756Z" transform="translate(-1119.079 -6922.574)" fill="#fff"/>
          <path id="Trazado_13317" data-name="Trazado 13317" d="M1150.5,6937.181a2.526,2.526,0,1,0-2.525,2.575A2.55,2.55,0,0,0,1150.5,6937.181Z" transform="translate(-1118.284 -6922.574)" fill="#fff"/>
          <path id="Trazado_13318" data-name="Trazado 13318" d="M1132.067,6993.545a2.526,2.526,0,1,0-2.525,2.575A2.55,2.55,0,0,0,1132.067,6993.545Z" transform="translate(-1116.693 -6927.437)" fill="#fff"/>
          <path id="Trazado_13319" data-name="Trazado 13319" d="M1164.276,6923.74a23.391,23.391,0,0,0-4.775-1.562,2.59,2.59,0,0,0-.228,1.056,2.522,2.522,0,0,0,5,.505Z" transform="translate(-1119.476 -6921.502)" fill="#fff"/>
          <path id="Trazado_13320" data-name="Trazado 13320" d="M1120.325,7014.908a2.575,2.575,0,1,0-2.526-2.575A2.552,2.552,0,0,0,1120.325,7014.908Z" transform="translate(-1115.898 -6929.058)" fill="#fff"/>
          <path id="Trazado_13321" data-name="Trazado 13321" d="M1118.537,7007.662a2.572,2.572,0,0,0-1.4-2.293c-.2,1.679-.379,3.28-.541,4.791A2.562,2.562,0,0,0,1118.537,7007.662Z" transform="translate(-1115.795 -6928.679)" fill="#fff"/>
          <path id="Trazado_13322" data-name="Trazado 13322" d="M1155.11,6932.484a2.527,2.527,0,1,0-2.527,2.575A2.552,2.552,0,0,0,1155.11,6932.484Z" transform="translate(-1118.681 -6922.169)" fill="#fff"/>
          <path id="Trazado_13323" data-name="Trazado 13323" d="M1145.893,6951.272a2.527,2.527,0,1,0-2.526,2.575A2.552,2.552,0,0,0,1145.893,6951.272Z" transform="translate(-1117.886 -6923.79)" fill="#fff"/>
          <path id="Trazado_13324" data-name="Trazado 13324" d="M1136.676,6988.848a2.527,2.527,0,1,0-2.526,2.575A2.551,2.551,0,0,0,1136.676,6988.848Z" transform="translate(-1117.091 -6927.032)" fill="#fff"/>
          <path id="Trazado_13325" data-name="Trazado 13325" d="M1145.893,6988.848a2.527,2.527,0,1,0-2.526,2.575A2.552,2.552,0,0,0,1145.893,6988.848Z" transform="translate(-1117.886 -6927.032)" fill="#fff"/>
          <path id="Trazado_13326" data-name="Trazado 13326" d="M1138.758,6996.12a2.575,2.575,0,1,0-2.526-2.575A2.552,2.552,0,0,0,1138.758,6996.12Z" transform="translate(-1117.489 -6927.437)" fill="#fff"/>
          <path id="Trazado_13327" data-name="Trazado 13327" d="M1145.893,6960.667a2.527,2.527,0,1,0-2.526,2.574A2.552,2.552,0,0,0,1145.893,6960.667Z" transform="translate(-1117.886 -6924.601)" fill="#fff"/>
          <path id="Trazado_13328" data-name="Trazado 13328" d="M1145.893,6970.06a2.527,2.527,0,1,0-2.526,2.575A2.552,2.552,0,0,0,1145.893,6970.06Z" transform="translate(-1117.886 -6925.411)" fill="#fff"/>
          <path id="Trazado_13329" data-name="Trazado 13329" d="M1117.8,7021.727a2.527,2.527,0,1,0,2.526-2.575A2.551,2.551,0,0,0,1117.8,7021.727Z" transform="translate(-1115.898 -6929.868)" fill="#fff"/>
        </g>
        <path id="Trazado_13330" data-name="Trazado 13330" d="M1130.552,6964.316c-1.992,13.561-6.085,25.476-9.594,32.11s-4.076,7.373-4.076,7.373l-.456,5.745,80.41,2.979s-2.193-15.125-12.178-24.094c-4.2-3.776-11.872-11.115-14.431-18.472s-4.02-7.032-10.014-6.411S1130.552,6964.316,1130.552,6964.316Z" transform="translate(-1070.288 -6925.045)" fill="#d16652"/>
        <path id="Trazado_13331" data-name="Trazado 13331" d="M1214.94,7161.6c1.572,9.238-1.937,15.6-3.107,21.061s-5.848,19.352-7.748,14.345-4.484-31.025-3.357-33.022S1214.94,7161.6,1214.94,7161.6Z" transform="translate(-1077.537 -6942.157)" fill="#d37a63"/>
        <path id="Trazado_13332" data-name="Trazado 13332" d="M1070.492,7148.629c-1.561,8.137-6.646,15.892-3.614,26.61s9.473-14.1,9.473-14.1l-1.515-11.275Z" transform="translate(-1065.932 -6941.038)" fill="#d37a63"/>
        <path id="Trazado_13333" data-name="Trazado 13333" d="M1212.451,7019.012c8.264,6.713,3,60.438,3.878,78.16s1.754,49.225,2.339,54.288-18.421,4.5-20.175,4.219-11.4-101.826-10.234-103.232S1212.451,7019.012,1212.451,7019.012Z" transform="translate(-1076.477 -6929.856)" fill="#e5d1ca"/>
        <path id="Trazado_13334" data-name="Trazado 13334" d="M1110.541,7015.2c-9.855,13.282-21.583,65.217-24.4,74.065s-14.71,39.976-17.12,46.31,12.806,13.763,12.806,13.763l35.9-95.25Z" transform="translate(-1066.176 -6929.527)" fill="#e5d1ca"/>
        <path id="Trazado_13335" data-name="Trazado 13335" d="M1118.558,7336.019c-9.357,2.979-15.789,10.839-16.374,13.913s13.4,1.856,19.59,1.932c12.281.148,18.714-2.12,20.468-3.768s4.094-4.848,2.339-7.867S1118.558,7336.019,1118.558,7336.019Z" transform="translate(-1069.058 -6957.204)" fill="#c9b7b1"/>
        <path id="Trazado_13336" data-name="Trazado 13336" d="M1170.877,7338.565c-4.094,4.769-5.848,14.4-3.509,13.461s28.655,2.73,27.486,0-1.17-11.971-6.14-13.461S1170.877,7338.565,1170.877,7338.565Z" transform="translate(-1074.592 -6957.367)" fill="#c9b7b1"/>
        <path id="Trazado_13337" data-name="Trazado 13337" d="M1163.786,6994.449s40.936,20.121,42.285,24.4c.268.852-12.606,40.047-16.407,59.15s-2.778,41.976,2.778,76.25,10.526,155.279,10.526,155.279-9.941,5.2-39.182,2.9-42.983-1.707-54.971-2.9-11.111-5.816-11.111-5.816,7.595-158.7,10.226-175.1,3.809-27.419,2.931-37.852-4.386-26.525-5.848-44.706-4.678-24.44-2.339-29.208,34.211-20.118,34.211-20.118Z" transform="translate(-1068.672 -6927.737)" fill="#efe0db"/>
        <path id="Trazado_13338" data-name="Trazado 13338" d="M1169.388,6962.867l.731,31s-3.6,6.333-15.3,5.737-14.233-5.588-14.233-5.588V6964.8Z" transform="translate(-1072.372 -6925.012)" fill="#d37a63"/>
        <path id="Trazado_13339" data-name="Trazado 13339" d="M1169.84,6982.617l-.306-13-25.341,5.3-3.605,3.581v14.053c.4.3.816.6,1.266.9C1148.133,6997.595,1159.314,6996.555,1169.84,6982.617Z" transform="translate(-1072.372 -6925.595)" fill="#d16652"/>
        <g id="Grupo_11587" data-name="Grupo 11587" transform="translate(59.079 14.763)">
          <path id="Trazado_13340" data-name="Trazado 13340" d="M1136.277,6939.292c-1.1,13.412-4.278,17.867-2.632,26.262s8.505,16.741,12.895,18.529a15.2,15.2,0,0,0,10.7,0c2.195-.745,6.721-4.47,9.876-9.239s3.154-22.353,0-29.506-22.359-8.2-25.24-7.6A49.187,49.187,0,0,0,1136.277,6939.292Z" transform="translate(-1130.813 -6937.595)" fill="#d37a63"/>
          <path id="Trazado_13341" data-name="Trazado 13341" d="M1153.63,6938.549l-15.015,3.444-3.934,2.485c-.525,3.571-1.172,6.415-1.7,8.944,5.153-2.6,5.023-3.4,11.776-1.147,7.164,2.384,14.474-2.831,19.3,3.875a52.512,52.512,0,0,1,6.236,11.451c.846-6.785.271-15.966-1.723-21.179l-2.092-3.122C1163.682,6940.842,1158.567,6939.366,1153.63,6938.549Z" transform="translate(-1130.795 -6937.677)" fill="#d16652"/>
          <path id="Trazado_13342" data-name="Trazado 13342" d="M1146.177,6956.888c2.561,3.079-1.9,11.4.839,12.294s5.721-.377,6.66,0c1.454.583-6.872,2.059-7.958.89s.185-3.944-.181-5.932-7.816-.555-12.927-1.143,1.085-5.861,1.085-5.861Z" transform="translate(-1130.589 -6939.26)" fill="#d16652"/>
          <path id="Trazado_13343" data-name="Trazado 13343" d="M1133.148,6955.8c3.584-2.457,12.306-.3,13.22.894a4.278,4.278,0,0,1,.833,2.63c-4.83-.668-4.359-1.711-7.652-2.01s-3.3-.224-5.464,1.366S1133.148,6955.8,1133.148,6955.8Z" transform="translate(-1130.78 -6939.069)" fill="#373835"/>
          <path id="Trazado_13344" data-name="Trazado 13344" d="M1153.985,6956.651c3.347-1.291,7.149-1.784,9.454-.892s4.867,1.687,5.049,2.084,1.41,2.69.85,2.6-3.5-1.81-6.885-1.81-6.4,1.072-7.682.983S1153.985,6956.651,1153.985,6956.651Z" transform="translate(-1132.6 -6939.123)" fill="#373835"/>
          <path id="Trazado_13345" data-name="Trazado 13345" d="M1169.321,6970.343c-.6,2.161-7.085,9.661-8.365,9.761s-1.916-4.608-2.422-5.639c-.142-.289-.954-2.57-5.442-3.2-4.835-.683-9.054,2.013-9.62,3.2-.833,1.751-.622,4.148-1.171,4.347-.415.15-4.168-1.742-6.829-5.277,2.756,6.417,6.847,12.2,10.326,13.622a17.255,17.255,0,0,0,11.258.348c2.195-.746,7.1-5.067,10.256-9.836.967-1.46,1.636-4.128,2.009-7.326Zm-12.006,13.846c-2,1.49-4.726,1.477-4.612-.609s.62-4.908.62-4.908l-4.927.129s1.145,7.114-.958,6.618-4.039-1.87-3.582-4.884a27.348,27.348,0,0,0,.206-5.808c6.647,1.131,8.813,0,13.134-.262C1158.441,6976.347,1159.315,6982.7,1157.315,6984.189Z" transform="translate(-1131.01 -6940.42)" fill="#373835"/>
          <path id="Trazado_13346" data-name="Trazado 13346" d="M1142.077,6962.071a1.46,1.46,0,1,1-1.417-1.813A1.652,1.652,0,0,1,1142.077,6962.071Z" transform="translate(-1131.336 -6939.55)" fill="#373835"/>
          <path id="Trazado_13347" data-name="Trazado 13347" d="M1161.543,6962.071a1.461,1.461,0,1,1-1.417-1.813A1.652,1.652,0,0,1,1161.543,6962.071Z" transform="translate(-1133.015 -6939.55)" fill="#373835"/>
          <path id="Trazado_13348" data-name="Trazado 13348" d="M1145.247,6975.945c4.622.745,12.911-.522,12.911-.522a7.166,7.166,0,0,1-2.77,2.658c-2.071,1.22-5.683.913-7.372,0C1145.5,6976.717,1145.247,6975.945,1145.247,6975.945Z" transform="translate(-1131.854 -6940.858)" fill="#fff"/>
        </g>
        <path id="Trazado_13349" data-name="Trazado 13349" d="M1123.146,6979.848c9.064-23.843,7.986-32.244,14.036-32.36,10.84-.208,13.8,3.092,22.25,1.93s5.819,1.218,11.375,17.463,21.053,26.469,21.053,26.469l-25.147-64.765-30.7-1-9.3,24.891-3.569,25.255Z" transform="translate(-1070.868 -6921.969)" fill="#d16652"/>
        <g id="Grupo_11588" data-name="Grupo 11588" transform="translate(52.278 5.62)" opacity="0.8">
          <path id="Trazado_13350" data-name="Trazado 13350" d="M1145.893,6932.484a2.527,2.527,0,1,0-2.526,2.575A2.552,2.552,0,0,0,1145.893,6932.484Z" transform="translate(-1124.672 -6927.789)" fill="#fff"/>
          <path id="Trazado_13351" data-name="Trazado 13351" d="M1147.975,6939.756a2.575,2.575,0,1,0-2.527-2.575A2.551,2.551,0,0,0,1147.975,6939.756Z" transform="translate(-1125.07 -6928.194)" fill="#fff"/>
          <path id="Trazado_13352" data-name="Trazado 13352" d="M1132.241,6946.6a2.572,2.572,0,0,0-1.422-2.307l-1.784,4.775a2.494,2.494,0,0,0,.681.106A2.551,2.551,0,0,0,1132.241,6946.6Z" transform="translate(-1123.654 -6929.03)" fill="#fff"/>
          <path id="Trazado_13353" data-name="Trazado 13353" d="M1155.11,6932.484a2.527,2.527,0,1,0-2.527,2.575A2.552,2.552,0,0,0,1155.11,6932.484Z" transform="translate(-1125.468 -6927.789)" fill="#fff"/>
          <path id="Trazado_13354" data-name="Trazado 13354" d="M1136.679,6941.879a2.551,2.551,0,0,0-2.526-2.576,2.479,2.479,0,0,0-1.641.632l-.852,2.282a2.518,2.518,0,0,0,5.019-.338Z" transform="translate(-1123.88 -6928.6)" fill="#fff"/>
          <path id="Trazado_13355" data-name="Trazado 13355" d="M1141.285,6937.181a2.527,2.527,0,1,0-2.526,2.575A2.552,2.552,0,0,0,1141.285,6937.181Z" transform="translate(-1124.275 -6928.194)" fill="#fff"/>
          <path id="Trazado_13356" data-name="Trazado 13356" d="M1159.692,6928.318l-5.014-.163a2.512,2.512,0,0,0,5.014.163Z" transform="translate(-1125.866 -6927.638)" fill="#fff"/>
          <path id="Trazado_13357" data-name="Trazado 13357" d="M1145.893,6941.879a2.527,2.527,0,1,0-2.526,2.575A2.552,2.552,0,0,0,1145.893,6941.879Z" transform="translate(-1124.672 -6928.6)" fill="#fff"/>
          <path id="Trazado_13358" data-name="Trazado 13358" d="M1155.11,6941.879a2.527,2.527,0,1,0-2.527,2.575A2.552,2.552,0,0,0,1155.11,6941.879Z" transform="translate(-1125.468 -6928.6)" fill="#fff"/>
          <path id="Trazado_13359" data-name="Trazado 13359" d="M1136.12,6949.679a2.5,2.5,0,0,0-1.971-.982,2.578,2.578,0,0,0-1.063,4.9C1133.944,6951.506,1134.838,6950.249,1136.12,6949.679Z" transform="translate(-1123.877 -6929.41)" fill="#fff"/>
          <path id="Trazado_13360" data-name="Trazado 13360" d="M1129.542,6962.788a2.578,2.578,0,0,0-.889,4.978c.549-1.795,1.028-3.421,1.463-4.9A2.45,2.45,0,0,0,1129.542,6962.788Z" transform="translate(-1123.48 -6930.625)" fill="#fff"/>
          <path id="Trazado_13361" data-name="Trazado 13361" d="M1147.975,6949.15a2.576,2.576,0,1,0-2.527-2.575A2.551,2.551,0,0,0,1147.975,6949.15Z" transform="translate(-1125.07 -6929.005)" fill="#fff"/>
          <path id="Trazado_13362" data-name="Trazado 13362" d="M1138.758,6944a2.583,2.583,0,0,0-1,4.939,5.518,5.518,0,0,1,.551-.035c.526-.011,1.028-.011,1.519,0a2.579,2.579,0,0,0-1.071-4.9Z" transform="translate(-1124.275 -6929.005)" fill="#fff"/>
          <path id="Trazado_13363" data-name="Trazado 13363" d="M1169.8,6953.515a2.474,2.474,0,0,0,1.218.332,2.575,2.575,0,1,0-2.526-2.575,2.662,2.662,0,0,0,.035.354A4.16,4.16,0,0,1,1169.8,6953.515Z" transform="translate(-1127.058 -6929.41)" fill="#fff"/>
          <path id="Trazado_13364" data-name="Trazado 13364" d="M1136.568,6929.2a2.51,2.51,0,0,0,2.219,1.37,2.552,2.552,0,0,0,2.526-2.576,2.611,2.611,0,0,0-.026-.269l-4.119-.134Z" transform="translate(-1124.304 -6927.589)" fill="#fff"/>
          <path id="Trazado_13365" data-name="Trazado 13365" d="M1129.542,6953.394a2.575,2.575,0,0,0,0,5.149,2.488,2.488,0,0,0,1.873-.861q.324-1.049.63-1.944A2.537,2.537,0,0,0,1129.542,6953.394Z" transform="translate(-1123.48 -6929.815)" fill="#fff"/>
          <path id="Trazado_13366" data-name="Trazado 13366" d="M1168.49,6932.484a2.551,2.551,0,0,0,2.526,2.575,2.476,2.476,0,0,0,1.624-.617l-1.614-4.531A2.552,2.552,0,0,0,1168.49,6932.484Z" transform="translate(-1127.058 -6927.789)" fill="#fff"/>
          <path id="Trazado_13367" data-name="Trazado 13367" d="M1176,6972.2a36.4,36.4,0,0,0,2.051,3.85,2.58,2.58,0,0,0,.351-1.288A2.55,2.55,0,0,0,1176,6972.2Z" transform="translate(-1127.706 -6931.437)" fill="#fff"/>
          <path id="Trazado_13368" data-name="Trazado 13368" d="M1123.834,6977.186l-.582,4.117a2.523,2.523,0,0,0,.758.517c.623-1.693,1.19-3.293,1.716-4.822a2.332,2.332,0,0,0-1.891.188Z" transform="translate(-1123.155 -6931.841)" fill="#fff"/>
          <path id="Trazado_13369" data-name="Trazado 13369" d="M1136.9,6932.539a2.578,2.578,0,0,0-.944-1.992l-1.7,4.556c.04,0,.078.011.118.011A2.551,2.551,0,0,0,1136.9,6932.539Z" transform="translate(-1124.105 -6927.844)" fill="#fff"/>
          <path id="Trazado_13370" data-name="Trazado 13370" d="M1127.752,6960.7a2.573,2.573,0,0,0-1.277-2.227l-.668,4.726A2.561,2.561,0,0,0,1127.752,6960.7Z" transform="translate(-1123.376 -6930.253)" fill="#fff"/>
          <path id="Trazado_13371" data-name="Trazado 13371" d="M1125.2,6967.494l-.714,5.051a2.439,2.439,0,0,0,.63.091,2.573,2.573,0,0,0,.084-5.142Z" transform="translate(-1123.261 -6931.032)" fill="#fff"/>
          <path id="Trazado_13372" data-name="Trazado 13372" d="M1147.975,6930.591a2.551,2.551,0,0,0,2.525-2.571l-5.036-.163c0,.053-.016.1-.016.158A2.552,2.552,0,0,0,1147.975,6930.591Z" transform="translate(-1125.07 -6927.612)" fill="#fff"/>
          <path id="Trazado_13373" data-name="Trazado 13373" d="M1123.146,6984.664c.056-.146.106-.282.16-.427a2.6,2.6,0,0,0-.16-.826Z" transform="translate(-1123.146 -6932.405)" fill="#fff"/>
          <path id="Trazado_13374" data-name="Trazado 13374" d="M1184.841,6977.332a2.522,2.522,0,0,0,2.365-1.7l-1.1-3.1a2.461,2.461,0,0,0-1.262-.357,2.575,2.575,0,0,0,0,5.149Z" transform="translate(-1128.25 -6931.436)" fill="#fff"/>
          <path id="Trazado_13375" data-name="Trazado 13375" d="M1163.924,6928.455a2.51,2.51,0,0,0,4.953.161Z" transform="translate(-1126.664 -6927.664)" fill="#fff"/>
          <path id="Trazado_13376" data-name="Trazado 13376" d="M1187.432,6987.367c1.509,1.411,2.858,2.521,3.854,3.293a2.578,2.578,0,0,0,.712-1.594l-.728-2.047a2.49,2.49,0,0,0-3.838.349Z" transform="translate(-1128.692 -6932.651)" fill="#fff"/>
          <path id="Trazado_13377" data-name="Trazado 13377" d="M1182.759,6970.06a2.527,2.527,0,1,0-2.526,2.575A2.552,2.552,0,0,0,1182.759,6970.06Z" transform="translate(-1127.853 -6931.031)" fill="#fff"/>
          <path id="Trazado_13378" data-name="Trazado 13378" d="M1174.723,6939.705l-1.3-3.643a2.566,2.566,0,0,0,1.3,3.643Z" transform="translate(-1127.455 -6928.32)" fill="#fff"/>
          <path id="Trazado_13379" data-name="Trazado 13379" d="M1143.448,6948.7a2.48,2.48,0,0,0-1.658.647c1.319.057,2.51.168,3.608.311A2.491,2.491,0,0,0,1143.448,6948.7Z" transform="translate(-1124.754 -6929.41)" fill="#fff"/>
          <path id="Trazado_13380" data-name="Trazado 13380" d="M1189.449,6982.07a2.29,2.29,0,0,0,.278-.029l-1.671-4.692a2.583,2.583,0,0,0-1.133,2.146A2.552,2.552,0,0,0,1189.449,6982.07Z" transform="translate(-1128.648 -6931.882)" fill="#fff"/>
          <path id="Trazado_13381" data-name="Trazado 13381" d="M1159.718,6946.575a2.527,2.527,0,1,0-2.526,2.575A2.551,2.551,0,0,0,1159.718,6946.575Z" transform="translate(-1125.865 -6929.005)" fill="#fff"/>
          <path id="Trazado_13382" data-name="Trazado 13382" d="M1182.86,6979.455a2.552,2.552,0,0,0-2.526-2.576,2.474,2.474,0,0,0-1.459.48,45.092,45.092,0,0,0,3.021,4.105A2.582,2.582,0,0,0,1182.86,6979.455Z" transform="translate(-1127.954 -6931.841)" fill="#fff"/>
          <path id="Trazado_13383" data-name="Trazado 13383" d="M1186.316,6986.274a2.587,2.587,0,0,0,1.1-2.123,2.551,2.551,0,0,0-2.526-2.575,2.5,2.5,0,0,0-2.02,1.042C1184.034,6983.978,1185.205,6985.2,1186.316,6986.274Z" transform="translate(-1128.298 -6932.247)" fill="#fff"/>
          <path id="Trazado_13384" data-name="Trazado 13384" d="M1166.408,6949.15a2.576,2.576,0,1,0-2.526-2.575A2.551,2.551,0,0,0,1166.408,6949.15Z" transform="translate(-1126.66 -6929.005)" fill="#fff"/>
          <path id="Trazado_13385" data-name="Trazado 13385" d="M1164.326,6941.879a2.527,2.527,0,1,0-2.526,2.575A2.552,2.552,0,0,0,1164.326,6941.879Z" transform="translate(-1126.263 -6928.6)" fill="#fff"/>
          <path id="Trazado_13386" data-name="Trazado 13386" d="M1182.384,6962l-1.339-3.758a2.45,2.45,0,0,0-.813-.149,2.575,2.575,0,0,0,0,5.15A2.506,2.506,0,0,0,1182.384,6962Z" transform="translate(-1127.853 -6930.22)" fill="#fff"/>
          <path id="Trazado_13387" data-name="Trazado 13387" d="M1171.016,6944.454a2.576,2.576,0,1,0-2.526-2.575A2.552,2.552,0,0,0,1171.016,6944.454Z" transform="translate(-1127.058 -6928.6)" fill="#fff"/>
          <path id="Trazado_13388" data-name="Trazado 13388" d="M1193.454,6992.363l-.4-1.113a2.531,2.531,0,0,0-.594.4C1193.086,6992.118,1193.454,6992.363,1193.454,6992.363Z" transform="translate(-1129.126 -6933.081)" fill="#fff"/>
          <path id="Trazado_13389" data-name="Trazado 13389" d="M1166.408,6939.756a2.575,2.575,0,1,0-2.526-2.575A2.551,2.551,0,0,0,1166.408,6939.756Z" transform="translate(-1126.66 -6928.194)" fill="#fff"/>
          <path id="Trazado_13390" data-name="Trazado 13390" d="M1164.326,6932.484a2.527,2.527,0,1,0-2.526,2.575A2.552,2.552,0,0,0,1164.326,6932.484Z" transform="translate(-1126.263 -6927.789)" fill="#fff"/>
          <path id="Trazado_13391" data-name="Trazado 13391" d="M1179.752,6953.888l-1.474-4.138a2.575,2.575,0,0,0,1.474,4.138Z" transform="translate(-1127.853 -6929.5)" fill="#fff"/>
          <path id="Trazado_13392" data-name="Trazado 13392" d="M1173.1,6946.575a2.551,2.551,0,0,0,2.526,2.575,2.494,2.494,0,0,0,1.9-.895l-1.5-4.215a2.476,2.476,0,0,0-2.926,2.534Z" transform="translate(-1127.455 -6929.005)" fill="#fff"/>
          <path id="Trazado_13393" data-name="Trazado 13393" d="M1159.718,6937.181a2.527,2.527,0,1,0-2.526,2.575A2.551,2.551,0,0,0,1159.718,6937.181Z" transform="translate(-1125.865 -6928.194)" fill="#fff"/>
          <path id="Trazado_13394" data-name="Trazado 13394" d="M1178.161,6965.363a2.516,2.516,0,0,0-4.954-.677q.437,1.306.981,2.785a2.481,2.481,0,0,0,1.445.468A2.552,2.552,0,0,0,1178.161,6965.363Z" transform="translate(-1127.465 -6930.625)" fill="#fff"/>
          <path id="Trazado_13395" data-name="Trazado 13395" d="M1171.18,6958.1c.363,1.324.8,2.9,1.387,4.754a2.578,2.578,0,0,0-1.318-4.761C1171.225,6958.091,1171.2,6958.1,1171.18,6958.1Z" transform="translate(-1127.29 -6930.22)" fill="#fff"/>
          <path id="Trazado_13396" data-name="Trazado 13396" d="M1184.75,6967.992l-1.593-4.473a2.581,2.581,0,0,0-.843,1.907A2.548,2.548,0,0,0,1184.75,6967.992Z" transform="translate(-1128.25 -6930.688)" fill="#fff"/>
          <path id="Trazado_13397" data-name="Trazado 13397" d="M1173.1,6955.969a2.527,2.527,0,1,0,2.526-2.575A2.551,2.551,0,0,0,1173.1,6955.969Z" transform="translate(-1127.455 -6929.815)" fill="#fff"/>
        </g>
        <path id="Trazado_13398" data-name="Trazado 13398" d="M1134.829,6949.8c4.99-4.719,5.335-.141,19.957-.114s7.382,11.415,18.732,23.451c10.65,11.293,12.481,13.1,12.481,13.1s-11.112-11.624-14.913-24.737-5.409-23.694-9.941-29.357-4.684-3.853-4.684-3.853,4.245,1.915,6.877,11.6,2.339,10.581,2.339,10.581-2.047-3.875-8.918-3.726-5.556.447-13.158-1.192-10.2-.746-12.483,5.96,1.078,11.176-2.284,21.906-6.579,14.753-5.7,14.753,5.555-7.3,6.871-13.858a139.851,139.851,0,0,0,2.3-14.455C1132.6,6956.582,1134.829,6949.8,1134.829,6949.8Z" transform="translate(-1070.854 -6922.005)" fill="#fff"/>
        <rect id="Rectángulo_3634" data-name="Rectángulo 3634" width="50" height="4.024" rx="2.012" transform="translate(55.86 10.345)" fill="#373835"/>
        <rect id="Rectángulo_3635" data-name="Rectángulo 3635" width="51.316" height="3.726" rx="1.863" transform="translate(55.203 14.763)" fill="#373835"/>
        <path id="Trazado_13399" data-name="Trazado 13399" d="M1139.506,6993.788l-2.213,4.3s-.893,1.955,5.053,5.035,9.845,2.98,9.845,2.98-4.773,135.665,0,147.509,4.189,16.613,4.774,11.844-2.526-36.659-2.433-65.569.964-93.659.964-93.659,10.131.123,13.64-3.056a19.936,19.936,0,0,0,4.612-5.567l-4-4.517s-1.748,5.908-9.833,6.955-12.894-.629-15.818-1.91A11.04,11.04,0,0,1,1139.506,6993.788Z" transform="translate(-1072.084 -6927.62)" fill="#e5d1ca"/>
        <path id="Trazado_13400" data-name="Trazado 13400" d="M1184.827,7195.978c3.12,92.99,14.528,133.617,14.528,133.617l-5.416.528s-3.508-9.861-7.017-54.767A742.1,742.1,0,0,1,1184.827,7195.978Z" transform="translate(-1076.165 -6945.123)" fill="#e5d1ca"/>
        <path id="Trazado_13401" data-name="Trazado 13401" d="M1114.211,7211.677c-4.678,62.948-8.2,116.084-8.2,116.084l3.525.511Z" transform="translate(-1069.389 -6946.477)" fill="#e5d1ca"/>
        <path id="Trazado_13402" data-name="Trazado 13402" d="M1144.123,7269.383c-1.754,47.773-3.216,64.81-3.216,64.81l3.216.5Z" transform="translate(-1072.4 -6951.456)" fill="#e5d1ca"/>
      </g>
      <g id="Grupo_11720" data-name="Grupo 11720" transform="translate(1027.209 6165.642)">
        <g id="Grupo_11714" data-name="Grupo 11714" transform="translate(54.611 239.426)">
          <path id="Trazado_13748" data-name="Trazado 13748" d="M1074.025,7338.587c3.974,2.839,4.967,13.322,4.967,16.419s-1.632,5.438-4.541,5.792-10.361,1.846-12.419.781-5.393-1.987-2.7-11.708c.714-2.575,3.335-4.755,5.322-6.316S1074.025,7338.587,1074.025,7338.587Z" transform="translate(-1058.327 -7185.712)" fill="#cc503f"/>
          <path id="Trazado_13749" data-name="Trazado 13749" d="M1097.138,7180.718c-6.528,26.325-9.935,40.518-8.8,60.1s-.662,21.951-7.191,50.9c-1.5,6.67-2.642,14.262-4.115,18.624-5.914,17.519-8.235,18.587-9.982,14.214-2.271-5.684-12.49-51.1-3.974-87.146s3.406-66.138,3.406-66.138Z" transform="translate(-1058.449 -7171.277)" fill="#9c5b4b"/>
          <path id="Trazado_13750" data-name="Trazado 13750" d="M1067.987,7198.667a188.866,188.866,0,0,1-4.91,40.723c-5.654,23.935-3.049,52,.005,69.819.561-9.369,1.5-22.768,2.643-30.554,1.892-12.867,3.028-12.111,9.083-20.6s11.164-27.277,10.786-36.928c-.321-8.182.585-9.836,5.595-13.032.873-4.314,1.922-8.895,3.132-13.925Z" transform="translate(-1058.449 -7173.253)" fill="#80473b"/>
          <path id="Trazado_13751" data-name="Trazado 13751" d="M1078.016,7319.631c-1.361,7.665-4.271,12.008-2.8,16.781.832,2.71.094,7.19.757,9.367s2.5,6.15-5.582,6.616c-5.687.328-11.638-.276-10.124-3.209s3.691-6.339,3.311-10.692.379-8.327-.467-18.551C1062.869,7317.08,1078.016,7319.631,1078.016,7319.631Z" transform="translate(-1058.473 -7183.986)" fill="#9c5b4b"/>
        </g>
        <g id="Grupo_11715" data-name="Grupo 11715" transform="translate(24.397 250.497)">
          <path id="Trazado_13752" data-name="Trazado 13752" d="M1074.586,7184.529c2.271,28.668,3.122,31.507,0,39.738s-22.992,42.578-28.385,64.149-5.961,34.345-5.961,34.345.852,11.294-2.838,7.208-12.4-26.367-12.05-60.571c.407-40.376,14.321-51.216,14.321-51.216l-14.321-34.789Z" transform="translate(-1025.267 -7183.394)" fill="#9c5b4b"/>
          <path id="Trazado_13753" data-name="Trazado 13753" d="M1034.912,7206.344l3.906,9.491c18.243,2.06,30.44-8.963,36.072-11.5C1080.744,7201.69,1040.55,7205.762,1034.912,7206.344Z" transform="translate(-1026.093 -7185.124)" fill="#80473b"/>
          <path id="Trazado_13754" data-name="Trazado 13754" d="M1041.744,7322.676c.324,6.011,1.817,13.318,4.371,18.049s4.541,7.853,7.853,9.461,2.839,3.123-4.635,3.5-9.178,1.324-14.287-6.15-9.651-2.941-8.232-9.56,4.447-7.092,3.974-11.823S1041.744,7322.676,1041.744,7322.676Z" transform="translate(-1025.372 -7195.397)" fill="#9c5b4b"/>
          <path id="Trazado_13755" data-name="Trazado 13755" d="M1052.227,7350.091c4.9.781,5.675,1.159,7.378,3.617s.737,8.47-.043,9.109-12.376,1.3-16.491.444-6.387-2.838-6.742-5.818-1.064-6.529-2.555-7.664a3.443,3.443,0,0,0-2.767-.805s-.143,12.229-.781,12.088-2.2-.311-2.342-.4-2.412-13.343-2.554-16.9-.2-4.551,1.108-7.106,2.059-3.8,2.6-3.778,3.384-.4,6.647,6.126,2.839,13.547,4.754,14.043,11.212,1.7,12.206-.425S1052.227,7350.091,1052.227,7350.091Z" transform="translate(-1025.26 -7196.29)" fill="#ed5d49"/>
        </g>
        <g id="Grupo_11716" data-name="Grupo 11716" transform="translate(0 81.466)">
          <path id="Trazado_13756" data-name="Trazado 13756" d="M1093.37,7067.466c-.994,13.057,3.141,25.145,5.393,35.48a60.175,60.175,0,0,1,.567,20.294l-25.688-16.888,4.825-42.788Z" transform="translate(-1005.037 -7004.026)" fill="#9c5b4b"/>
          <path id="Trazado_13757" data-name="Trazado 13757" d="M1084.964,7005.778s4.258-2.533,10.077,0,5.394,14.6,4.4,26.8-3.831,34.062-3.831,34.062-15.612,1.846-19.87.568S1084.964,7005.778,1084.964,7005.778Z" transform="translate(-1005.146 -6998.944)" fill="#ed5d49"/>
          <path id="Trazado_13758" data-name="Trazado 13758" d="M1087.278,7009.522l-3.236.877c-2.967,13.677-11.874,56.158-8.3,57.23,2.146.643,7.172.494,11.633.187,2.293-7.912,6.4-22.312,7.875-29.052C1097.344,7029.2,1096.365,7018.05,1087.278,7009.522Z" transform="translate(-1005.146 -6999.364)" fill="#cc503f"/>
          <path id="Trazado_13759" data-name="Trazado 13759" d="M1080.74,7061.31l-2.7,11.125c5.825.513,17.834-.906,17.834-.906s.51-3.934,1.173-9.389A34.809,34.809,0,0,1,1080.74,7061.31Z" transform="translate(-1005.417 -7003.832)" fill="#fdd188"/>
          <path id="Trazado_13760" data-name="Trazado 13760" d="M1090.373,7062.736a34.429,34.429,0,0,1-9.633-1.426l-2.7,11.125a69.207,69.207,0,0,0,9.6-.151C1088.406,7069.647,1089.371,7066.291,1090.373,7062.736Z" transform="translate(-1005.417 -7003.832)" fill="#e6b461"/>
          <path id="Trazado_13761" data-name="Trazado 13761" d="M1046.892,6998.4l-21.572,9.508s2.129,28.875,5.535,39.274,9.083,22.189,5.251,26.087-22.282,14.116-23.7,48.461a590.212,590.212,0,0,0,1.135,65.046,65.052,65.052,0,0,0,34.771,6.483c19.444-1.987,29.378-7.948,39.029-8.8s13.909-1.419,13.909-1.419-1.987-63.3-6.244-78.341-19.586-30.656-20.437-33.778,5.458-23.192,10.088-28.668c5.161-6.1,5.949-11.069,2.685-21.288s-4.115-15.754-5.96-16.89-15.47-3.122-15.47-3.122Z" transform="translate(-999.717 -6998.405)" fill="#ed5d49"/>
          <path id="Trazado_13762" data-name="Trazado 13762" d="M1013.6,7202.744a65.052,65.052,0,0,0,34.771,6.483c19.444-1.987,29.378-7.948,39.029-8.8s13.909-1.419,13.909-1.419-.2-6.382-.61-15.57a136.951,136.951,0,0,0-28.626,3.648c-14.924,3.822-36.85,9.562-59.38.568C1013.124,7196.979,1013.6,7202.744,1013.6,7202.744Z" transform="translate(-999.779 -7014.368)" fill="#fdd188"/>
          <path id="Trazado_13763" data-name="Trazado 13763" d="M1041.768,7042.249c.567-11.354-3.974-12.678-12.489-24.222,0,0-.627,1.181-1.576,2.984.947,9.263,2.507,21.756,4.509,27.869,3.406,10.4,9.083,22.189,5.251,26.087-1.36,1.383-4.559,3.562-8.183,7.331a52.038,52.038,0,0,1,11.163-3.4C1045.364,7078.081,1041.2,7053.6,1041.768,7042.249Z" transform="translate(-1001.074 -7000.098)" fill="#cc503f"/>
          <path id="Trazado_13764" data-name="Trazado 13764" d="M1005.145,7068.742c-1.277,9.792-4.684,23.417-6.245,34.629s2.7,32.216,3.548,36.332-3.974,10.645-1.277,19.443,11.354,13.341,12.915,12.631.426-16.037-1.135-25.263-.636-32.926,1.881-41.441,7.627-25.638,8.2-31.907S1005.145,7068.742,1005.145,7068.742Z" transform="translate(-998.56 -7004.451)" fill="#9c5b4b"/>
          <path id="Trazado_13765" data-name="Trazado 13765" d="M1005.677,7068.748c-.246,1.887-.573,3.918-.948,6.045a27.3,27.3,0,0,0,17.319,6.288,63.023,63.023,0,0,0,1.512-7.909,2.8,2.8,0,0,0-1.211-2.558l-13.83-2.055C1006.817,7068.634,1005.677,7068.748,1005.677,7068.748Z" transform="translate(-999.092 -7004.457)" fill="#80473b"/>
          <path id="Trazado_13766" data-name="Trazado 13766" d="M1076.173,7070.927c-.852-3.122,5.458-23.192,10.088-28.668.277-.327.535-.649.786-.97a32.983,32.983,0,0,0,.2-8.681c-1.406-9.026-10.36-18.166-10.36-18.166s5.34-5.34,7.021-9.313a2.932,2.932,0,0,0-.918-1.047c-1.846-1.135-15.47-3.122-15.47-3.122L1048.5,6998.4l-17.915,7.9c1.34,11.319,12.459,14.936,17.205,14.811,5.393-.141,7.1,0,7.1,0s-15.783,4.293-3.974,36.828c4.327,11.922,7.9,19.85,17.314,19.228,2.92-.192,5.677-2.4,8.143-5.769A2.969,2.969,0,0,1,1076.173,7070.927Z" transform="translate(-1001.322 -6998.405)" fill="#ae574e"/>
          <path id="Trazado_13767" data-name="Trazado 13767" d="M1028.16,7008.024c-9.651-1.745-15.185-.041-18.733,10.034s-5.251,23.021-5.535,34.432,0,13.964,0,13.964.284,2.868,10.218,3.989,12.773,0,12.773,0,4.825-20.451,4.968-28.115S1028.16,7008.024,1028.16,7008.024Z" transform="translate(-999.009 -6999.184)" fill="#ed5d49"/>
          <path id="Trazado_13768" data-name="Trazado 13768" d="M1069.025,7062.442c4.32,3.305,12.347-22.223,11.922-28.371s-5.251-12.107-6.812-16.649l-1.562-4.542s8.518-5.689,6.53-10.082c-4.6-.937-10.787-1.839-10.787-1.839L1049.3,6998.4l-9.446,4.164c1.192,7.167,6.9,9.548,10.709,10.6a42.8,42.8,0,0,0,9.509,1.136S1058.223,7054.18,1069.025,7062.442Z" transform="translate(-1002.122 -6998.405)" fill="#fdd188"/>
          <path id="Trazado_13769" data-name="Trazado 13769" d="M1054.739,7009.758c2.98.284,8.8,1.277,8.8,1.277s2.981,25.688,8.516,25.546.852-7.379-.852-12.631-3.832-13.2-3.832-13.2,6.806-1.846,7.306-4.684c.259-1.468.535-2.952.742-4.046-3.477-.6-6.629-1.063-6.629-1.063l-19.017-2.554-4.35,1.917C1044.52,7006.21,1051.758,7009.475,1054.739,7009.758Z" transform="translate(-1002.596 -6998.405)" fill="#ae574e"/>
          <path id="Trazado_13770" data-name="Trazado 13770" d="M1003.79,7062.464c-.09,7,.1,8.738.1,8.738s.284,2.868,10.218,3.989,12.773,0,12.773,0,.743-3.148,1.653-7.432C1023.2,7067.326,1012.445,7066.05,1003.79,7062.464Z" transform="translate(-999.009 -7003.931)" fill="#fdd188"/>
        </g>
        <g id="Grupo_11719" data-name="Grupo 11719" transform="translate(29.871)">
          <path id="Trazado_13771" data-name="Trazado 13771" d="M1033.37,6942.126s-5.3,17.4.855,23.406,8.956,5.931,8.956,5.931-2.568,8.143,3.078,10.212,14.549,4.022,14.833-3.571-6.227-18-6.227-18Z" transform="translate(-1031.251 -6912.083)" fill="#ed5d49"/>
          <path id="Trazado_13772" data-name="Trazado 13772" d="M1033.677,6970.472c5.823,7.03,8.57,4.269,11.334,3.033s2.875-4.842,2.572-4.737-3.338-1.987-3.338-1.987.028,1.608-4.229,1.987a8.788,8.788,0,0,1-7.016-2.98A4.444,4.444,0,0,0,1033.677,6970.472Z" transform="translate(-1031.369 -6914.125)" fill="#fdd188"/>
          <path id="Trazado_13773" data-name="Trazado 13773" d="M1055.716,6969.049l-3.974,33.068s15.47,3.689,17.741,2.271,3.122-21.576,3.122-21.576Z" transform="translate(-1033.019 -6914.406)" fill="#9c5b4b"/>
          <g id="Grupo_11717" data-name="Grupo 11717" transform="translate(45.831 62.15)">
            <path id="Trazado_13774" data-name="Trazado 13774" d="M1088.032,6990.509a6.623,6.623,0,1,1,6.623-6.622A6.629,6.629,0,0,1,1088.032,6990.509Zm0-12.11a5.488,5.488,0,1,0,5.488,5.488A5.495,5.495,0,0,0,1088.032,6978.4Z" transform="translate(-1081.409 -6977.264)" fill="#fdd188"/>
          </g>
          <path id="Trazado_13775" data-name="Trazado 13775" d="M1055.956,6969.049l-1.428,11.891c4.963,10.843,14.6,12.186,17.612,12.084.493-5.2.705-10.212.705-10.212Z" transform="translate(-1033.259 -6914.406)" fill="#80473b"/>
          <path id="Trazado_13776" data-name="Trazado 13776" d="M1087.018,6961.449c2.985,11.86.415,25.761-8.392,26.71-14.476,1.562-20.446-7.632-23.621-19.443s2.223-22.189,10.776-24.488S1083.948,6949.256,1087.018,6961.449Z" transform="translate(-1033.221 -6912.228)" fill="#9c5b4b"/>
          <path id="Trazado_13777" data-name="Trazado 13777" d="M1055.545,6967.716c.712,1.419,3.308,6.883,4.032,5.393s1.15-6.15,2.925-8.8c3.738-5.582,10.52-9.621,11.424-10.644s-17.385,9.792-17.6,11.07A24.08,24.08,0,0,1,1055.545,6967.716Z" transform="translate(-1033.347 -6913.073)" fill="#373835"/>
          <path id="Trazado_13778" data-name="Trazado 13778" d="M1049.819,6967.929c-.961.233-16.874-12.606-18.435-26.6s11.921-20.1,23.985-23.643,20.152-3.265,21.855-1.42,5.464,27.32,5.464,27.32S1059.13,6949.336,1049.819,6967.929Z" transform="translate(-1031.252 -6909.737)" fill="#ae574e"/>
          <path id="Trazado_13779" data-name="Trazado 13779" d="M1052.1,6960.909c-3.406-9.225-7.238-16-1.419-23.539s10.4-5.556,10.238-5.981-2.29-6.387,6.083-13.483,12.347-9.792,14.618-8.231,7.239,7.522,8.8,11.5,2.721,3.406-2.685,3.406-18.036,12.794-18.036,12.794Z" transform="translate(-1032.668 -6909.247)" fill="#fdd188"/>
          <path id="Trazado_13780" data-name="Trazado 13780" d="M1053.289,6970.012c.632-8.107,27.32-28.581,32.353-13.629,3.128-2.036,9.655-10.693,6.533-20.77l-3.122-10.076s-12.347-2.758-24.553,10.827-13.482,28.77-12.773,30.757A8.821,8.821,0,0,0,1053.289,6970.012Z" transform="translate(-1033.004 -6910.632)" fill="#ed5d49"/>
          <path id="Trazado_13781" data-name="Trazado 13781" d="M1051.464,6989.884c-1.419,1.257-2.838,10.482-2.838,10.482s-1.252,3.122,4.98,5.534,14.488,2.5,17.1.61,2.755-3.448,2.755-3.448v-7.1s-1.7,1.135-8.657.142S1051.464,6989.884,1051.464,6989.884Z" transform="translate(-1032.741 -6916.203)" fill="#ed5d49"/>
          <path id="Trazado_13782" data-name="Trazado 13782" d="M1093.214,6938.169c-10.9-1.608-21.142,5.667-27.48,14.277s-7,7.947-7,7.947-.378-10.5,13.719-18.828S1093.214,6938.169,1093.214,6938.169Z" transform="translate(-1033.622 -6911.617)" fill="#ae574e"/>
          <ellipse id="Elipse_241" data-name="Elipse 241" cx="4.689" cy="6.523" rx="4.689" ry="6.523" transform="matrix(0.801, -0.599, 0.599, 0.801, 12.765, 56.962)" fill="#9c5b4b"/>
          <path id="Trazado_13783" data-name="Trazado 13783" d="M1053.606,6971.012c-2.287-2.646-5.036-.436-5.083.559s1.049,3.183,1.286,2.276-.692-2.418,1.5-1.9,3.089,3.406,4.6,3.358S1054.661,6972.233,1053.606,6971.012Z" transform="translate(-1032.741 -6914.467)" fill="#80473b"/>
          <g id="Grupo_11718" data-name="Grupo 11718" transform="translate(13.075 62.15)">
            <path id="Trazado_13784" data-name="Trazado 13784" d="M1052.183,6990.509a6.623,6.623,0,1,1,6.624-6.622A6.629,6.629,0,0,1,1052.183,6990.509Zm0-12.11a5.488,5.488,0,1,0,5.488,5.488A5.495,5.495,0,0,0,1052.183,6978.4Z" transform="translate(-1045.56 -6977.264)" fill="#fdd188"/>
          </g>
          <path id="Trazado_13785" data-name="Trazado 13785" d="M1051.742,6975.649l-2.746.836c.141.229.29.456.456.677a7.76,7.76,0,0,0,4.273,2.982c.242-.783.471-1.642.326-1.681-.27-.07-1.079-1.3.53-1.04,0,0,.118-.9.165-1.041A21.444,21.444,0,0,0,1051.742,6975.649Z" transform="translate(-1032.782 -6914.975)" fill="#9c5b4b"/>
          <path id="Trazado_13786" data-name="Trazado 13786" d="M1077.55,6966.049a.669.669,0,0,0-.385-.811c-4.633-1.887-7.13.714-8.09,1.721-.994,1.041-3.309,3.5-2.79,3.4s2.663-2.038,3.627-2.709c1.338-.932,3.516-.934,5.645-.556A1.531,1.531,0,0,0,1077.55,6966.049Z" transform="translate(-1034.267 -6914.02)" fill="#373835"/>
          <path id="Trazado_13787" data-name="Trazado 13787" d="M1089.6,6962.959c-.044-.161-.092-.318-.138-.478-.324-.281-.634-.554-.874-.77-.8-.731-2.231-.566-4.248,1.334a.874.874,0,0,0,.453,1.5c.926.1,2.376-1.6,2.8-2.019.215-.209,1.166.188,2.055.633C1089.637,6963.094,1089.622,6963.026,1089.6,6962.959Z" transform="translate(-1035.808 -6913.738)" fill="#373835"/>
          <path id="Trazado_13788" data-name="Trazado 13788" d="M1082.03,6976.5c1.514-2.46,4.09-3.393,4.1-2.312s-.662,1.46-2.051,2.075S1082.03,6976.5,1082.03,6976.5Z" transform="translate(-1035.632 -6914.811)" fill="#80473b"/>
          <path id="Trazado_13789" data-name="Trazado 13789" d="M1089.437,6967.226c.122.774-.166,1.462-.643,1.538s-.964-.491-1.086-1.266.166-1.463.643-1.538S1089.316,6966.452,1089.437,6967.226Z" transform="translate(-1036.119 -6914.138)" fill="#373835"/>
          <path id="Trazado_13790" data-name="Trazado 13790" d="M1074.654,6971.553a1.419,1.419,0,0,1-.932,1.733c-.65.1-1.285-.508-1.419-1.363a1.417,1.417,0,0,1,.932-1.732C1073.883,6970.089,1074.519,6970.7,1074.654,6971.553Z" transform="translate(-1034.79 -6914.503)" fill="#373835"/>
          <path id="Trazado_13791" data-name="Trazado 13791" d="M1074.908,6981.2a27.736,27.736,0,0,0,12.563-2.058s-1.939,3.477-3,3.9a11.761,11.761,0,0,1-6.138,0A8.3,8.3,0,0,1,1074.908,6981.2Z" transform="translate(-1035.017 -6915.277)" fill="#fff"/>
        </g>
      </g>
    </g>
  </g>
</svg>
